<svg xmlns="http://www.w3.org/2000/svg" viewBox="0 0 1920 1080"><defs><style>.cls-1{fill:#c3e0ff;}.cls-2,.cls-5{fill:#6c63ff;}.cls-2{opacity:0.35;}.cls-2,.cls-6{isolation:isolate;}.cls-3{opacity:0.1;}.cls-4{fill:none;stroke:#535461;stroke-miterlimit:10;stroke-width:2px;}.cls-6{opacity:0.25;}.cls-7{fill:#535461;}.cls-8{fill:#6464f4;}.cls-9{fill:#eaeaf3;}.cls-10{fill:#fff;}</style></defs><title>android</title><g id="Layer_2" data-name="Layer 2"><g id="Layer_1-2" data-name="Layer 1"><rect class="cls-1" width="1920" height="1080"/><path class="cls-2" d="M446.85,532C464.21,606.15,501,670.29,559,701.38c120.7,64.61,392.91,31.29,596.07-7a465.18,465.18,0,0,0,264.54-151.23Z"/><path class="cls-2" d="M1512.2,182.71H1400.73a9.64,9.64,0,1,1,0-19.27H1420a9.64,9.64,0,1,1,0-19.27h-13.76a9.64,9.64,0,1,1,0-19.27h58.18c-12.91-6-28-10.27-45.38-12.51-158.64-20.38-215.28-6.9-235.26,7-24.65,17.1-52.15,29.68-81.54,35.74-97.88,20.19-280.93,44.49-446.84-7.78-82.46-26-143.75,17.92-180.48,91.28H1531.55c-1.38-21.32-5.51-41-13.09-58.24A9.58,9.58,0,0,1,1512.2,182.71Z"/><path class="cls-2" d="M437.39,377.1a491.11,491.11,0,0,0,4.32,129.45l978.68,35.79a460,460,0,0,0,68-103.7Zm387.08,92.35H805.2a9.64,9.64,0,0,1,0,19.27H693.73a9.64,9.64,0,1,1,0-19.27H713a9.64,9.64,0,1,1,0-19.27H699.24a9.64,9.64,0,1,1,0-19.27H810.71a9.64,9.64,0,0,1,0,19.27h13.76a9.64,9.64,0,0,1,0,19.27Z"/><path class="cls-2" d="M1531.6,239.29l-1068.49,26c-13,33.4-21.56,71.17-25.56,110.33H1512.88a457,457,0,0,0,15.53-70.33C1531.61,282.27,1532.89,260,1531.6,239.29ZM654.47,324.45H635.2a9.64,9.64,0,0,1,0,19.27H523.73a9.64,9.64,0,1,1,0-19.27H543a9.64,9.64,0,0,1,0-19.27H529.24a9.64,9.64,0,0,1,0-19.27H640.71a9.64,9.64,0,1,1,0,19.27h13.76a9.64,9.64,0,1,1,0,19.27Z"/><g class="cls-3"><path class="cls-4" d="M1112.55,725.28s28.2-69.5,80.86-95.28A113.61,113.61,0,0,0,1245,580a191.7,191.7,0,0,0,12.93-32.5"/><path class="cls-5" d="M1291,531c-5.49,6.9-33.9,17-33.9,17s3.42-30,8.91-36.85a16,16,0,0,1,25,19.88Z"/><path class="cls-5" d="M1281.29,585.66c-8.36,2.81-37.68-4.18-37.68-4.18s19.15-23.28,27.51-26.09a16,16,0,0,1,10.17,30.27Z"/><path class="cls-5" d="M1228.43,650.26c-8.63-1.79-30.42-22.63-30.42-22.63s28.28-10.43,36.92-8.64a16,16,0,0,1-6.5,31.26Z"/><path class="cls-5" d="M1177.43,690.14c-8.81-.31-33.81-17.16-33.81-17.16s26.12-15,34.93-14.75a16,16,0,0,1,1,32A15,15,0,0,1,1177.43,690.14Z"/><path class="cls-5" d="M1216.31,562c1.13,8.75,20.22,32.07,20.22,32.07s12.57-27.4,11.45-36.15a16,16,0,0,0-31.67,4.08Z"/><path class="cls-5" d="M1157.25,609.34c3.69,8,28.89,24.55,28.89,24.55s3.8-29.91.11-37.91a16,16,0,1,0-29.86,11.5,14.36,14.36,0,0,0,.86,1.87Z"/><path class="cls-5" d="M1106.17,663.28c2.28,8.52,24.33,29.08,24.33,29.08s8.8-28.83,6.51-37.35a16,16,0,0,0-30.84,8.27Z"/><path class="cls-6" d="M1291,531c-5.49,6.9-33.9,17-33.9,17s3.42-30,8.91-36.85a16,16,0,0,1,25,19.88Z"/><path class="cls-6" d="M1281.29,585.66c-8.36,2.81-37.68-4.18-37.68-4.18s19.15-23.28,27.51-26.09a16,16,0,0,1,10.17,30.27Z"/><path class="cls-6" d="M1228.43,650.26c-8.63-1.79-30.42-22.63-30.42-22.63s28.28-10.43,36.92-8.64a16,16,0,0,1-6.5,31.26Z"/><path class="cls-6" d="M1177.43,690.14c-8.81-.31-33.81-17.16-33.81-17.16s26.12-15,34.93-14.75a16,16,0,0,1,1,32A15,15,0,0,1,1177.43,690.14Z"/><path class="cls-6" d="M1216.31,562c1.13,8.75,20.22,32.07,20.22,32.07s12.57-27.4,11.45-36.15a16,16,0,0,0-31.67,4.08Z"/><path class="cls-6" d="M1157.25,609.34c3.69,8,28.89,24.55,28.89,24.55s3.8-29.91.11-37.91a16,16,0,1,0-29.86,11.5,14.36,14.36,0,0,0,.86,1.87Z"/><path class="cls-6" d="M1106.17,663.28c2.28,8.52,24.33,29.08,24.33,29.08s8.8-28.83,6.51-37.35a16,16,0,0,0-30.84,8.27Z"/></g><g class="cls-3"><path class="cls-4" d="M1092.55,623.66s3.56-74.92,44.69-116.71a113.63,113.63,0,0,0,32-64.35,191.38,191.38,0,0,0,1.43-34.92"/><path class="cls-5" d="M1196.55,381.19c-2.89,8.33-26.35,27.26-26.35,27.26s-6.7-29.39-3.81-37.72a16,16,0,1,1,30.89,8.35A15.47,15.47,0,0,1,1196.55,381.19Z"/><path class="cls-5" d="M1205.43,436c-7,5.42-36.94,8.56-36.94,8.56s10.35-28.32,17.3-33.74a16,16,0,1,1,21.26,23.91A15.35,15.35,0,0,1,1205.43,436Z"/><path class="cls-5" d="M1177,514.47c-8.74,1.17-36.2-11.26-36.2-11.26s23.23-19.22,32-20.39a16,16,0,1,1,4.24,31.65Z"/><path class="cls-5" d="M1142.09,569c-8.42,2.63-37.59-5-37.59-5s19.64-22.87,28.06-25.5a16,16,0,0,1,9.53,30.48Z"/><path class="cls-5" d="M1136.26,435.17c4,7.88,29.72,23.55,29.72,23.55s2.77-30-1.19-37.9a16,16,0,0,0-28.53,14.35Z"/><path class="cls-5" d="M1096.26,499.47c6.14,6.33,35.4,13.58,35.4,13.58s-6.33-29.47-12.47-35.8a16,16,0,0,0-22.93,22.23Z"/><path class="cls-5" d="M1066,567.29c5,7.28,32.6,19.37,32.6,19.37s-1.26-30.12-6.24-37.4a16,16,0,0,0-26.35,18Z"/></g><path class="cls-2" d="M734.74,877.76c39.32,13.22,87.29,5.18,131.9,6.11,6.11.13,12.57.51,17.47,2.79s7.31,6,10.67,9.15c12.5,11.79,38.11,15.58,60.5,13.58s42.92-8.62,64-13.66c36.52-8.72,78.27-12.68,114.29-3.18,3.31.87,6.79,1.87,10.33,1.53,7.9-.78,10.25-7.1,15.77-10.71,10-6.52,31.63-4.75,36-13.34,2.57-5-3.34-10.2-9.77-13.64-24.62-13.16-59.84-15.33-92.06-13.3s-63.9,7.63-96.29,7.65c-40.35,0-79.34-8.59-119.3-12.11-27.68-2.44-57.89-2.14-83.84,5C766.36,851.45,760.16,868.89,734.74,877.76Z"/><rect class="cls-7" x="800.51" y="286.9" width="7" height="99"/><rect class="cls-7" x="800.51" y="419.9" width="7" height="56"/><rect class="cls-7" x="805.51" y="189.9" width="315" height="684" rx="47.1"/><rect class="cls-8" x="805.51" y="221.9" width="315" height="623" rx="47.1"/><path class="cls-9" d="M941,204.9h45a3.5,3.5,0,0,1,3.5,3.5h0a3.5,3.5,0,0,1-3.5,3.5H941a3.5,3.5,0,0,1-3.5-3.5h0A3.5,3.5,0,0,1,941,204.9Z"/><circle class="cls-9" cx="1007.51" cy="208.9" r="5"/><path class="cls-10" d="M881.31,498.1v73a17.27,17.27,0,0,1-17.08,17.46H864c-9.64,0-19-7.81-19-17.46v-73c0-9.52,9.33-17.33,19-17.33A17.4,17.4,0,0,1,881.31,498.1ZM888.12,597a18.61,18.61,0,0,0,18.57,18.65h12.62l.19,38.51c0,23.25,34.79,23.07,34.79,0V615.7h23.44v38.51c0,23.13,35,23.19,35,0V615.7h12.73A18.59,18.59,0,0,0,1044,597.05h0V484H888.12Zm156.29-119.17h-157c0-27,16.13-50.42,40.08-62.64l-12-22.25c-1.76-3.09,2.71-5,4.22-2.39L931.94,413a85.12,85.12,0,0,1,68.25,0l12.16-22.37c1.58-2.71,6-.69,4.22,2.39l-12,22.18C1028.28,427.45,1044.41,450.9,1044.41,477.87Zm-107.58-35a6.49,6.49,0,1,0-6.62,6.61,6.62,6.62,0,0,0,6.62-6.61Zm71.47,0a6.52,6.52,0,1,0-6.43,6.62,6.53,6.53,0,0,0,6.43-6.62ZM1068,480.75A17.28,17.28,0,0,0,1050.71,498v73.1A17.4,17.4,0,0,0,1068,588.54h0c9.71,0,19-7.81,19-17.46v-73c0-9.68-9.36-17.31-19-17.31Z"/><rect class="cls-7" x="889.01" y="671.46" width="65" height="3"/><rect class="cls-7" x="978.01" y="671.46" width="43" height="3"/><rect class="cls-7" x="832.01" y="671.46" width="43" height="3"/><rect class="cls-7" x="1046.01" y="671.46" width="43" height="3"/></g></g></svg>