<svg xmlns="http://www.w3.org/2000/svg" xmlns:xlink="http://www.w3.org/1999/xlink" width="1080" height="857" viewBox="0 0 1080 857">
  <defs>
    <clipPath id="clip-path">
      <rect width="1021" height="22" fill="none"/>
    </clipPath>
    <clipPath id="clip-path-2">
      <rect width="173" height="640" fill="none"/>
    </clipPath>
  </defs>
  <g id="Competitive_analysis" data-name="Competitive analysis" transform="translate(5954 -2636)">
    <rect id="Rectangle_38" data-name="Rectangle 38" width="1080" height="857" rx="20" transform="translate(-5954 2636)" fill="#fff"/>
    <text id="Competitive_Analysis_-_Sharell" data-name="Competitive Analysis - Sharell" transform="translate(-5616 2694)" font-size="31" font-family="Roboto-Medium, Roboto" font-weight="500"><tspan x="0" y="0">Competitive Analysis - Sharell</tspan></text>
    <line id="Line_3" data-name="Line 3" x2="1021" transform="translate(-5922.5 2719.5)" fill="none" stroke="#cdcdcd" stroke-width="1" opacity="0"/>
    <line id="Line_4" data-name="Line 4" x2="1021" transform="translate(-5922.5 2807.5)" fill="none" stroke="#cdcdcd" stroke-width="1" opacity="0"/>
    <line id="Line_5" data-name="Line 5" x2="1021" transform="translate(-5922.5 2864.5)" fill="none" stroke="#cdcdcd" stroke-width="1" opacity="0"/>
    <line id="Line_6" data-name="Line 6" x2="1021" transform="translate(-5922.5 2921.5)" fill="none" stroke="#cdcdcd" stroke-width="1" opacity="0"/>
    <line id="Line_7" data-name="Line 7" x2="1021" transform="translate(-5922.5 2983.5)" fill="none" stroke="#cdcdcd" stroke-width="1" opacity="0"/>
    <line id="Line_8" data-name="Line 8" x2="1021" transform="translate(-5922.5 3032.5)" fill="none" stroke="#cdcdcd" stroke-width="1" opacity="0"/>
    <line id="Line_9" data-name="Line 9" x2="1021" transform="translate(-5922.5 3089.5)" fill="none" stroke="#cdcdcd" stroke-width="1" opacity="0"/>
    <line id="Line_10" data-name="Line 10" x2="1021" transform="translate(-5922.5 3138.5)" fill="none" stroke="#cdcdcd" stroke-width="1" opacity="0"/>
    <line id="Line_11" data-name="Line 11" x2="1021" transform="translate(-5922.5 3195.5)" fill="none" stroke="#cdcdcd" stroke-width="1" opacity="0"/>
    <line id="Line_12" data-name="Line 12" x2="1021" transform="translate(-5922.5 3252.5)" fill="none" stroke="#cdcdcd" stroke-width="1" opacity="0"/>
    <line id="Line_13" data-name="Line 13" x2="1021" transform="translate(-5922.5 3309.5)" fill="none" stroke="#cdcdcd" stroke-width="1" opacity="0"/>
    <line id="Line_14" data-name="Line 14" x2="1021" transform="translate(-5922.5 3358.5)" fill="none" stroke="#cdcdcd" stroke-width="1" opacity="0"/>
    <line id="Line_15" data-name="Line 15" x2="1021" transform="translate(-5922.5 3415.5)" fill="none" stroke="#cdcdcd" stroke-width="1" opacity="0"/>
    <g id="Repeat_Grid_5" data-name="Repeat Grid 5" transform="translate(-5922 2768)" clip-path="url(#clip-path)">
      <g transform="translate(5922 -2768)">
        <text id="Feature_Name" data-name="Feature Name" transform="translate(-5922 2768)" font-size="18" font-family="Roboto-Bold, Roboto" font-weight="700"><tspan x="0" y="19">Feature Name</tspan></text>
      </g>
      <g transform="translate(6147 -2768)">
        <text id="Xender" transform="translate(-5922 2768)" font-size="18" font-family="Roboto-Bold, Roboto" font-weight="700"><tspan x="0" y="19">Xender</tspan></text>
      </g>
      <g transform="translate(6372 -2768)">
        <text id="Garud" transform="translate(-5922 2768)" font-size="18" font-family="Roboto-Bold, Roboto" font-weight="700"><tspan x="0" y="19">Garud</tspan></text>
      </g>
      <g transform="translate(6597 -2768)">
        <text id="Zapya" transform="translate(-5922 2768)" font-size="18" font-family="Roboto-Bold, Roboto" font-weight="700"><tspan x="0" y="19">Zapya</tspan></text>
      </g>
      <g transform="translate(6822 -2768)">
        <text id="Jio_Switch" data-name="Jio Switch" transform="translate(-5922 2768)" font-size="18" font-family="Roboto-Bold, Roboto" font-weight="700"><tspan x="0" y="19">Jio Switch</tspan></text>
      </g>
    </g>
    <g id="Repeat_Grid_6" data-name="Repeat Grid 6" transform="translate(-5922 2827)" clip-path="url(#clip-path-2)">
      <g transform="translate(5922 -2816)">
        <text id="Hotspot_Sharing" data-name="Hotspot Sharing" transform="translate(-5922 2816)" font-size="17" font-family="SegoeUI, Segoe UI"><tspan x="0" y="18">Hotspot Sharing</tspan></text>
      </g>
      <g transform="translate(5922 -2761)">
        <text id="WiFi_Sharing" data-name="WiFi Sharing" transform="translate(-5922 2816)" font-size="17" font-family="SegoeUI, Segoe UI"><tspan x="0" y="18">WiFi Sharing</tspan></text>
      </g>
      <g transform="translate(5922 -2706)">
        <text id="QR_Scanning" data-name="QR Scanning" transform="translate(-5922 2816)" font-size="17" font-family="SegoeUI, Segoe UI"><tspan x="0" y="18">QR Scanning</tspan></text>
      </g>
      <g transform="translate(5922 -2651)">
        <text id="Progress_bar" data-name="Progress bar" transform="translate(-5922 2816)" font-size="17" font-family="SegoeUI, Segoe UI"><tspan x="0" y="18">Progress bar</tspan></text>
      </g>
      <g transform="translate(5922 -2596)">
        <text id="History_of_sent" data-name="History of sent" transform="translate(-5922 2816)" font-size="17" font-family="SegoeUI, Segoe UI"><tspan x="0" y="18">History of sent</tspan></text>
      </g>
      <g transform="translate(5922 -2541)">
        <text id="History_of_received" data-name="History of received" transform="translate(-5922 2816)" font-size="17" font-family="SegoeUI, Segoe UI"><tspan x="0" y="18">History of received</tspan></text>
      </g>
      <g transform="translate(5922 -2486)">
        <text id="Share_to_PC" data-name="Share to PC" transform="translate(-5922 2816)" font-size="17" font-family="SegoeUI, Segoe UI"><tspan x="0" y="18">Share to PC</tspan></text>
      </g>
      <g transform="translate(5922 -2431)">
        <text id="Share_to_iPhone" data-name="Share to iPhone" transform="translate(-5922 2816)" font-size="17" font-family="SegoeUI, Segoe UI"><tspan x="0" y="18">Share to iPhone</tspan></text>
      </g>
      <g transform="translate(5922 -2376)">
        <text id="Help" transform="translate(-5922 2816)" font-size="17" font-family="SegoeUI, Segoe UI"><tspan x="0" y="18">Help</tspan></text>
      </g>
      <g transform="translate(5922 -2321)">
        <text id="Avatars" transform="translate(-5922 2816)" font-size="17" font-family="SegoeUI, Segoe UI"><tspan x="0" y="18">Avatars</tspan></text>
      </g>
      <g transform="translate(5922 -2266)">
        <text id="Parallel_Sharing" data-name="Parallel Sharing" transform="translate(-5922 2816)" font-size="17" font-family="SegoeUI, Segoe UI"><tspan x="0" y="18">Parallel Sharing</tspan></text>
      </g>
      <g transform="translate(5922 -2211)">
        <text id="Chat_" data-name="Chat " transform="translate(-5922 2816)" font-size="17" font-family="SegoeUI, Segoe UI"><tspan x="0" y="18">Chat </tspan></text>
      </g>
    </g>
    <g id="Group_45" data-name="Group 45">
      <path id="Path_19" data-name="Path 19" d="M11,0A11,11,0,1,1,0,11,11,11,0,0,1,11,0Z" transform="translate(-5680 2827)" fill="rgba(87,195,98,0.99)"/>
      <path id="Path_19-2" data-name="Path 19" d="M11,0A11,11,0,1,1,0,11,11,11,0,0,1,11,0Z" transform="translate(-5680 2882)" fill="rgba(87,195,98,0.99)"/>
      <path id="Path_19-3" data-name="Path 19" d="M11,0A11,11,0,1,1,0,11,11,11,0,0,1,11,0Z" transform="translate(-5680 2937)" fill="rgba(87,195,98,0.99)"/>
      <path id="Path_19-4" data-name="Path 19" d="M11,0A11,11,0,1,1,0,11,11,11,0,0,1,11,0Z" transform="translate(-5680 2992)" fill="rgba(87,195,98,0.99)"/>
      <path id="Path_19-5" data-name="Path 19" d="M11,0A11,11,0,1,1,0,11,11,11,0,0,1,11,0Z" transform="translate(-5680 3047)" fill="rgba(87,195,98,0.99)"/>
      <path id="Path_19-6" data-name="Path 19" d="M11,0A11,11,0,1,1,0,11,11,11,0,0,1,11,0Z" transform="translate(-5680 3102)" fill="rgba(87,195,98,0.99)"/>
      <path id="Path_19-7" data-name="Path 19" d="M11,0A11,11,0,1,1,0,11,11,11,0,0,1,11,0Z" transform="translate(-5680 3157)" fill="rgba(87,195,98,0.99)"/>
      <path id="Path_19-8" data-name="Path 19" d="M11,0A11,11,0,1,1,0,11,11,11,0,0,1,11,0Z" transform="translate(-5680 3212)" fill="rgba(87,195,98,0.99)"/>
      <path id="Path_19-9" data-name="Path 19" d="M11,0A11,11,0,1,1,0,11,11,11,0,0,1,11,0Z" transform="translate(-5680 3267)" fill="rgba(87,195,98,0.99)"/>
      <path id="Path_19-10" data-name="Path 19" d="M11,0A11,11,0,1,1,0,11,11,11,0,0,1,11,0Z" transform="translate(-5680 3322)" fill="rgba(87,195,98,0.99)"/>
      <path id="Path_19-11" data-name="Path 19" d="M11,0A11,11,0,1,1,0,11,11,11,0,0,1,11,0Z" transform="translate(-5680 3377)" fill="rgba(255,82,82,0.99)"/>
      <path id="Path_19-12" data-name="Path 19" d="M11,0A11,11,0,1,1,0,11,11,11,0,0,1,11,0Z" transform="translate(-5680 3432)" fill="#ff5454"/>
    </g>
    <g id="Group_46" data-name="Group 46">
      <circle id="Ellipse_17" data-name="Ellipse 17" cx="11" cy="11" r="11" transform="translate(-5453 2827)" fill="rgba(87,195,98,0.99)"/>
      <circle id="Ellipse_17-2" data-name="Ellipse 17" cx="11" cy="11" r="11" transform="translate(-5453 2882)" fill="rgba(87,195,98,0.99)"/>
      <circle id="Ellipse_17-3" data-name="Ellipse 17" cx="11" cy="11" r="11" transform="translate(-5453 2937)" fill="rgba(87,195,98,0.99)"/>
      <circle id="Ellipse_17-4" data-name="Ellipse 17" cx="11" cy="11" r="11" transform="translate(-5453 2992)" fill="rgba(87,195,98,0.99)"/>
      <circle id="Ellipse_17-5" data-name="Ellipse 17" cx="11" cy="11" r="11" transform="translate(-5453 3047)" fill="rgba(87,195,98,0.99)"/>
      <circle id="Ellipse_17-6" data-name="Ellipse 17" cx="11" cy="11" r="11" transform="translate(-5453 3102)" fill="rgba(87,195,98,0.99)"/>
      <circle id="Ellipse_17-7" data-name="Ellipse 17" cx="11" cy="11" r="11" transform="translate(-5453 3157)" fill="rgba(87,195,98,0.99)"/>
      <circle id="Ellipse_17-8" data-name="Ellipse 17" cx="11" cy="11" r="11" transform="translate(-5453 3212)" fill="#ff5454"/>
      <circle id="Ellipse_17-9" data-name="Ellipse 17" cx="11" cy="11" r="11" transform="translate(-5453 3267)" fill="rgba(87,195,98,0.99)"/>
      <circle id="Ellipse_17-10" data-name="Ellipse 17" cx="11" cy="11" r="11" transform="translate(-5453 3322)" fill="#ff5454"/>
      <circle id="Ellipse_17-11" data-name="Ellipse 17" cx="11" cy="11" r="11" transform="translate(-5453 3377)" fill="#ff5454"/>
      <path id="Path_20" data-name="Path 20" d="M11,0A11,11,0,1,1,0,11,11,11,0,0,1,11,0Z" transform="translate(-5453 3432)" fill="#ff5454"/>
    </g>
    <g id="Group_47" data-name="Group 47">
      <circle id="Ellipse_17-12" data-name="Ellipse 17" cx="11" cy="11" r="11" transform="translate(-5226 2827)" fill="rgba(87,195,98,0.99)"/>
      <circle id="Ellipse_17-13" data-name="Ellipse 17" cx="11" cy="11" r="11" transform="translate(-5226 2882)" fill="rgba(87,195,98,0.99)"/>
      <circle id="Ellipse_17-14" data-name="Ellipse 17" cx="11" cy="11" r="11" transform="translate(-5226 2937)" fill="rgba(87,195,98,0.99)"/>
      <circle id="Ellipse_17-15" data-name="Ellipse 17" cx="11" cy="11" r="11" transform="translate(-5226 2992)" fill="rgba(87,195,98,0.99)"/>
      <circle id="Ellipse_17-16" data-name="Ellipse 17" cx="11" cy="11" r="11" transform="translate(-5226 3047)" fill="rgba(87,195,98,0.99)"/>
      <circle id="Ellipse_17-17" data-name="Ellipse 17" cx="11" cy="11" r="11" transform="translate(-5226 3102)" fill="rgba(87,195,98,0.99)"/>
      <circle id="Ellipse_17-18" data-name="Ellipse 17" cx="11" cy="11" r="11" transform="translate(-5226 3157)" fill="rgba(87,195,98,0.99)"/>
      <circle id="Ellipse_17-19" data-name="Ellipse 17" cx="11" cy="11" r="11" transform="translate(-5226 3212)" fill="rgba(87,195,98,0.99)"/>
      <circle id="Ellipse_17-20" data-name="Ellipse 17" cx="11" cy="11" r="11" transform="translate(-5226 3267)" fill="rgba(87,195,98,0.99)"/>
      <circle id="Ellipse_17-21" data-name="Ellipse 17" cx="11" cy="11" r="11" transform="translate(-5226 3322)" fill="#ff5454"/>
      <circle id="Ellipse_17-22" data-name="Ellipse 17" cx="11" cy="11" r="11" transform="translate(-5226 3377)" fill="rgba(87,195,98,0.99)"/>
      <circle id="Ellipse_17-23" data-name="Ellipse 17" cx="11" cy="11" r="11" transform="translate(-5226 3432)" fill="rgba(87,195,98,0.99)"/>
    </g>
    <g id="Group_48" data-name="Group 48">
      <circle id="Ellipse_17-24" data-name="Ellipse 17" cx="11" cy="11" r="11" transform="translate(-4999 2827)" fill="rgba(87,195,98,0.99)"/>
      <circle id="Ellipse_17-25" data-name="Ellipse 17" cx="11" cy="11" r="11" transform="translate(-4999 2882)" fill="rgba(87,195,98,0.99)"/>
      <circle id="Ellipse_17-26" data-name="Ellipse 17" cx="11" cy="11" r="11" transform="translate(-4999 2937)" fill="rgba(87,195,98,0.99)"/>
      <circle id="Ellipse_17-27" data-name="Ellipse 17" cx="11" cy="11" r="11" transform="translate(-4999 2992)" fill="rgba(87,195,98,0.99)"/>
      <circle id="Ellipse_17-28" data-name="Ellipse 17" cx="11" cy="11" r="11" transform="translate(-4999 3047)" fill="rgba(87,195,98,0.99)"/>
      <circle id="Ellipse_17-29" data-name="Ellipse 17" cx="11" cy="11" r="11" transform="translate(-4999 3102)" fill="rgba(87,195,98,0.99)"/>
      <circle id="Ellipse_17-30" data-name="Ellipse 17" cx="11" cy="11" r="11" transform="translate(-4999 3157)" fill="rgba(87,195,98,0.99)"/>
      <circle id="Ellipse_17-31" data-name="Ellipse 17" cx="11" cy="11" r="11" transform="translate(-4999 3212)" fill="rgba(87,195,98,0.99)"/>
      <circle id="Ellipse_17-32" data-name="Ellipse 17" cx="11" cy="11" r="11" transform="translate(-4999 3267)" fill="rgba(87,195,98,0.99)"/>
      <circle id="Ellipse_17-33" data-name="Ellipse 17" cx="11" cy="11" r="11" transform="translate(-4999 3322)" fill="#ff5454"/>
      <circle id="Ellipse_17-34" data-name="Ellipse 17" cx="11" cy="11" r="11" transform="translate(-4999 3377)" fill="#ff5454"/>
      <circle id="Ellipse_17-35" data-name="Ellipse 17" cx="11" cy="11" r="11" transform="translate(-4999 3432)" fill="#ff5454"/>
    </g>
  </g>
</svg>
