<svg xmlns="http://www.w3.org/2000/svg" width="151.321" height="151.321" viewBox="0 0 151.321 151.321">
  <g id="dharamlogo" transform="translate(25.749 -591.848) rotate(45)">
    <g id="Union_8" data-name="Union 8" transform="translate(454.293 382.707)" fill="none">
      <path d="M25.3,108V81H0V27H25.3V0H79.1V27H106V81H79.1v27Z" stroke="none"/>
      <path d="M 76.09980010986328 105 L 76.09980010986328 81.00008392333984 L 76.09980010986328 78.00008392333984 L 79.09980010986328 78.00008392333984 L 103 78.00008392333984 L 103 29.99993324279785 L 79.09980010986328 29.99993324279785 L 76.09980010986328 29.99993324279785 L 76.09980010986328 26.99993324279785 L 76.09980010986328 3 L 28.29913330078125 3 L 28.29913330078125 26.99993324279785 L 28.29913330078125 29.99993324279785 L 25.29913330078125 29.99993324279785 L 3 29.99993324279785 L 3 78.00008392333984 L 25.29913330078125 78.00008392333984 L 28.29913330078125 78.00008392333984 L 28.29913330078125 81.00008392333984 L 28.29913330078125 105 L 76.09980010986328 105 M 79.09980010986328 108 L 25.29913330078125 108 L 25.29913330078125 81.00008392333984 L 0 81.00008392333984 L 0 26.99993324279785 L 25.29913330078125 26.99993324279785 L 25.29913330078125 0 L 79.09980010986328 0 L 79.09980010986328 26.99993324279785 L 106 26.99993324279785 L 106 81.00008392333984 L 79.09980010986328 81.00008392333984 L 79.09980010986328 108 Z" stroke="none" fill="#dcb413"/>
    </g>
    <path id="Path_19" data-name="Path 19" d="M-1.843-.1,52.343-.112" transform="translate(481.148 436.702)" fill="none" stroke="#dcb413" stroke-width="3"/>
    <path id="Path_18" data-name="Path 18" d="M.977-1.168.193,52.868" transform="translate(508.098 410.969)" fill="none" stroke="#dcb413" stroke-width="3"/>
    <line id="Line_5" data-name="Line 5" y2="28.233" transform="translate(480.827 408.95)" fill="none" stroke="#dcb413" stroke-width="3"/>
    <line id="Line_7" data-name="Line 7" x2="0.044" y2="26.068" transform="translate(532.042 435.293)" fill="none" stroke="#dcb413" stroke-width="3"/>
    <path id="Path_20" data-name="Path 20" d="M0,0H24.993" transform="translate(507.617 410.845)" fill="none" stroke="#dcb413" stroke-width="3"/>
    <line id="Line_8" data-name="Line 8" x2="28.554" transform="translate(480.025 462.369)" fill="none" stroke="#dcb413" stroke-width="3"/>
  </g>
</svg>
