<svg xmlns="http://www.w3.org/2000/svg" width="34.335" height="34.335" viewBox="0 0 34.335 34.335">
  <g id="dharamlogoSmall" transform="translate(-34.291 -591.848) rotate(45)">
    <g id="Union_8" data-name="Union 8" transform="translate(455 382)" fill="none">
      <path d="M5.74,24.505V18.379H0V6.126H5.74V0H17.948V6.126h6.1V18.379h-6.1v6.126Z" stroke="none"/>
      <path d="M 16.94780158996582 23.50528335571289 L 16.94780158996582 18.37898445129395 L 16.94780158996582 17.37898445129395 L 17.94780158996582 17.37898445129395 L 23.05148315429688 17.37898445129395 L 23.05148315429688 7.126303672790527 L 17.94780158996582 7.126303672790527 L 16.94780158996582 7.126303672790527 L 16.94780158996582 6.126303672790527 L 16.94780158996582 1.000003576278687 L 6.740392684936523 1.000003576278687 L 6.740392684936523 6.126303672790527 L 6.740392684936523 7.126303672790527 L 5.740392684936523 7.126303672790527 L 1.000002503395081 7.126303672790527 L 1.000002503395081 17.37898445129395 L 5.740392684936523 17.37898445129395 L 6.740392684936523 17.37898445129395 L 6.740392684936523 18.37898445129395 L 6.740392684936523 23.50528335571289 L 16.94780158996582 23.50528335571289 M 17.94780158996582 24.50528335571289 L 5.740392684936523 24.50528335571289 L 5.740392684936523 18.37898445129395 L 2.530822712287772e-06 18.37898445129395 L 2.530822712287772e-06 6.126303672790527 L 5.740392684936523 6.126303672790527 L 5.740392684936523 3.585205149647663e-06 L 17.94780158996582 3.585205149647663e-06 L 17.94780158996582 6.126303672790527 L 24.05148315429688 6.126303672790527 L 24.05148315429688 18.37898445129395 L 17.94780158996582 18.37898445129395 L 17.94780158996582 24.50528335571289 Z" stroke="none" fill="#dcb413"/>
    </g>
    <line id="Line_3" data-name="Line 3" x2="11.939" transform="translate(460.933 394.412)" fill="none" stroke="#dcb413" stroke-width="1"/>
    <line id="Line_4" data-name="Line 4" y2="12.157" transform="translate(467.048 388.151)" fill="none" stroke="#dcb413" stroke-width="1"/>
    <line id="Line_5" data-name="Line 5" y2="6.406" transform="translate(460.86 388.115)" fill="none" stroke="#dcb413" stroke-width="1"/>
    <line id="Line_7" data-name="Line 7" y2="6.406" transform="translate(472.872 394.303)" fill="none" stroke="#dcb413" stroke-width="1"/>
    <line id="Line_6" data-name="Line 6" x2="6.479" transform="translate(466.939 388.224)" fill="none" stroke="#dcb413" stroke-width="1"/>
    <line id="Line_8" data-name="Line 8" x2="6.479" transform="translate(460.678 400.236)" fill="none" stroke="#dcb413" stroke-width="1"/>
  </g>
</svg>
