<svg xmlns="http://www.w3.org/2000/svg" width="738.847" height="738.889" viewBox="0 0 738.847 738.889"><g transform="translate(-446.142 100.005)" opacity="0.05"><path d="M1311.5,462.674v2.211q-.075,8.331-.478,16.586c-9.945,195.547-170.733,349.37-366.529,350.65S585.911,681.7,573.408,486.3q-.754-11.723-.754-23.623a367.592,367.592,0,0,1,67.929-213.537q5.315-7.54,11.057-14.8c2.639-3.368,5.353-6.66,8.092-9.927,129.719-153.675,358.52-175.387,514.829-48.854,4.448,3.594,8.821,7.313,13.093,11.108q5.127,4.561,10.078,9.324a368.422,368.422,0,0,1,112.485,235.626Q1311.5,446.991,1311.5,462.674Z" transform="translate(-126.512 -193.246)" fill="#e4e4e4"/><path d="M651.641,167.215a2.053,2.053,0,0,1,.5.3c1.985,1.633-.5,4.775-.2,7.363.352,3.317,4.775,4.046,8.117,4.373,3.342.352,7.564,3.041,5.981,6.006-8.394,2.89-16.888.05-25.458-3.242a367.594,367.594,0,0,0-67.928,213.537q0,11.912.754,23.623a9.55,9.55,0,0,0,2.287,1.231c2.513.955,5.428.779,7.74,2.136,1.834,1.081,3.066,2.991,4.9,4,5.252,2.865,12.54-2.639,17.441.779a45.056,45.056,0,0,1,3.594,3.669c4.524,3.92,11.962,1.282,17.189,4.222,3.368,1.885,5.1,5.654,6.911,9.072,4.5,8.544,11.786,16.938,21.411,17.617a57.658,57.658,0,0,1,9.1.3c2.965.679,5.88,3.267,5.4,6.258-.829,5.152,1.709,10.781,1.03,15.933-1.231,9.424-14.576,13.545-15.707,22.97a56.791,56.791,0,0,1-.352,6.207c-.6,2.463-2.463,4.473-3.116,6.936-1.257,4.649,2.086,9.3,5.73,12.415,3.669,3.141,8.042,5.855,10.052,10.228,2.111,4.649,1.081,10.052,1.759,15.1,1.508,11.032,11.032,19.2,20.833,24.477a21.751,21.751,0,0,1,8.142,5.931c2.513,3.644,2.262,8.444,3.116,12.791,2.061,10.63,11.007,19.4,11.259,30.232.176,7.715-4.1,14.7-6.66,21.964a50.689,50.689,0,0,0-2.287,23.723,371.19,371.19,0,0,0,45.562,33.047,13.274,13.274,0,0,0,1.885-4.222,8.35,8.35,0,0,0-3.9-8.645,20.66,20.66,0,0,0,7.213-4.624,7.075,7.075,0,0,0,1.307-7.991c4.423.553,9.675.829,12.59-2.563,2.337-2.714,2.186-6.785,1.256-10.228-.93-3.468-2.488-6.81-2.513-10.4a187.153,187.153,0,0,0,30.71-1.03A19.936,19.936,0,0,0,787.95,649c4.624-.779,8.821-6.308,10.279-10.756a27.4,27.4,0,0,0,.2-13.9,7.392,7.392,0,0,1-.151-3.619,7.119,7.119,0,0,1,3.669-3.544q11.459-6.6,22.919-13.168a13.818,13.818,0,0,0,3.669-2.689c2.387-2.84,2.036-7.087.8-10.58s-3.192-6.785-3.669-10.454c-1.407-10.982,10.354-18.873,14.325-29.227a43.9,43.9,0,0,0,2.161-12.792c.327-4.674.352-10.077-3.217-13.068-3.443-2.89-8.8-2.237-12.39-4.926-3.292-2.463-4.423-7.213-8.017-9.2-3.267-1.809-7.338-.653-10.982-1.508-6.383-1.483-10.4-8.846-16.938-9.525-3.669-.4-7.841,1.407-10.856-.729-2.664-1.91-2.765-5.7-3.267-8.921a24.922,24.922,0,0,0-20.1-20.155c-3.795-.6-7.916-.377-11.158-2.463-3.267-2.111-4.75-6.056-7.338-9-4.121-4.7-10.655-6.383-16.762-7.816q-12.44-2.9-24.854-5.83c-4.4-1.055-10.078-1.608-12.465,2.262a17,17,0,0,0-1.458,4.649A14.418,14.418,0,0,1,668.83,462.2a15.976,15.976,0,0,0-9.4-7.288,59.3,59.3,0,0,1-7.64-1.81,10.7,10.7,0,0,1-4.624-14.852,13.335,13.335,0,0,0-2.287-16.008c-4.222-3.795-10.329-4.725-16.008-4.348-1.483-3.242,1.005-6.886,3.669-9.248,2.689-2.337,5.931-4.649,6.509-8.168.93-5.529-6.132-9.726-11.485-8.092-5.353,1.659-8.771,6.861-11.032,11.987a36.152,36.152,0,0,1-4.448,8.519,8.733,8.733,0,0,1-8.444,3.468c-4.423-1.131-6.107-6.383-7.087-10.806a70.453,70.453,0,0,1-2.363-18.119,23.653,23.653,0,0,1,6.836-16.486c7.313-6.735,18.572-6.082,28.448-5a7.246,7.246,0,0,1,.754-9.55,10.858,10.858,0,0,1,9.851-2.412,13.516,13.516,0,0,1,7.615,4.549c2.815,3.418,3.619,8.067,5.73,11.937,2.136,3.9,6.911,7.213,10.806,5.127,3.393-1.809,3.92-6.484,3.091-10.228-.854-3.719-2.639-7.363-2.337-11.183.578-7.263,8.142-11.661,14.8-14.651s14.274-7.037,15.33-14.274a13.347,13.347,0,0,1,.8-4.121,8.059,8.059,0,0,1,2.99-2.815c19.426-12.842,39.2-25.86,61.42-32.871,1.156-.377,1.282.025,2.463-.251,1.659-.955.553-3.594-1.03-4.649s-3.694-1.885-4.1-3.745c-.276-1.357.528-2.714.729-4.1a5.114,5.114,0,0,0-6.71-5.177c-1.784-2.362,1.734-5.1,4.6-5.906a125.615,125.615,0,0,1,26.262-4.272,4.677,4.677,0,0,1,2.991.5,3.554,3.554,0,0,1,.226,4.875,27.517,27.517,0,0,1-4,3.644,10.976,10.976,0,0,0-2.865,11.032c4.649,2.362,9.675,4.8,14.827,3.971,5.127-.829,9.675-6.609,7.263-11.208-2.236-4.3-9-5.278-10.153-9.977-1.357-5.5,6.433-10.4,4.674-15.782-.754-2.362-3.116-3.77-4.926-5.453a14.869,14.869,0,0,1-3.242-16.436,18.726,18.726,0,0,1-16.386-5.127c-3.92-3.946-7.036-10.2-12.615-10-5.1.151-9.5,6.107-14.274,4.3-1.181-.452-2.412-1.357-3.543-.829a2.929,2.929,0,0,0-1.332,2.186c-1.206,5.805.88,12.415-2.287,17.441-3.443,5.453-11.409,6.207-15.581,11.133-2.262,2.664-3.141,6.258-5.227,9.072s-6.484,4.624-9,2.161a12.384,12.384,0,0,0-3.368-15.078,32.383,32.383,0,0,0-7.439-3.619,44.149,44.149,0,0,1-8.318-4.624,8.243,8.243,0,0,1-3.041-3.267,7.512,7.512,0,0,1,.2-5.177,21.159,21.159,0,0,1,16.812-13.923c3.318-.452,7.188-.3,9.4-2.84,1.156-1.332,1.759-3.368,3.468-3.9a5.056,5.056,0,0,1,3.192.377c4.147,1.458,8.268,2.915,12.415,4.373a8.5,8.5,0,0,0,4.423.729,2.975,2.975,0,0,0,2.588-3.141c-.4-2.061-3.568-3.041-3.267-5.127a3.259,3.259,0,0,1,1.03-1.759,44.406,44.406,0,0,1,35.208-13.9c1.558,2.588-.9,5.629-2.991,7.816-2.061,2.211-3.719,6.132-1.206,7.816a6.621,6.621,0,0,0,3.292.754,28.714,28.714,0,0,1,8.8,2.664c4.3,1.86,8.519,3.92,12.641,6.132a15.936,15.936,0,0,1,.3-8.142,5.53,5.53,0,0,1,6.534-3.543c2.463.955,3.719,4.222,6.358,4.523,3.493.4,4.875-4.775,3.418-7.992s-4.373-5.881-4.6-9.424c-.176-2.362.729-5.3-1.156-6.735a5,5,0,0,0-2.236-.8q-23.674-4.335-47.372-8.7c-2.815-.528-6.861-.126-6.986,2.714-.075,1.608,1.357,3.192.729,4.649-.679,1.558-2.89,1.432-4.5,1.985a6.108,6.108,0,0,0-3.518,6.459,17.607,17.607,0,0,0,2.965,7.263c-3.091-1.282-7.74-1.508-10.831-2.815a41.693,41.693,0,0,0-2.714-10.429,3.681,3.681,0,0,0-4.8-2.965c-4.071.628-8.142,1.231-12.214,1.86a4.724,4.724,0,0,0-2.79,1.081c-1.583,1.684-.025,4.373-.075,6.685a6.264,6.264,0,0,1-4.85,5.4,18.283,18.283,0,0,1-7.74-.1c-5.7-.88-11.384-1.759-17.089-2.639a27.994,27.994,0,0,0,12.917-8.645c2.262-2.664,3.468-7.64.2-8.9a7.8,7.8,0,0,0-2.965-.226c-7.74.05-13.847-6.408-21.085-9.148a20.725,20.725,0,0,0-7.112-1.307Z" transform="translate(-126.511 -126.126)" fill="#5e4edd"/><path d="M1178.6,440.543a9.073,9.073,0,0,1-7.69,3.644c-7.866-.679-11.183-12.013-18.974-13.294a3.036,3.036,0,0,0-2.06.2c-1.156.628-1.357,2.186-1.433,3.493-.327,6.484-.6,13.219,1.935,19.2,3.694,8.746,13.269,16.084,11.258,25.357-10.806-5-16.435-17.139-18.974-28.775-2.563-11.636-2.965-23.849-7.539-34.856-3.493,4.448-10.781.779-13.948-3.9-3.016-4.423-4.875-9.55-7.791-14.048-2.915-4.473-7.388-8.494-12.716-8.746-5.6-.251-10.479,3.594-14.751,7.238a34.139,34.139,0,0,0-9.173,10.2c-2.991,6.031-2.211,13.118-2.362,19.828-.151,7.238-1.684,14.9-6.635,20.23-4.951,5.3-14.073,7.162-19.527,2.362a22.03,22.03,0,0,1-5.453-9.826,478.132,478.132,0,0,1-14.777-52.724c-.9,4.071-4.5,9.323-7.916,6.936a7.058,7.058,0,0,1-1.809-2.362c-6.383-10.781-18.17-17.265-30.107-21.16-11.912-3.87-24.452-5.68-36.239-9.952a92.655,92.655,0,0,1-18.823-9.374,14.822,14.822,0,0,0-.9,15.129,12.119,12.119,0,0,0,13.621,5.7c2.614-.855,4.825-2.664,7.413-3.569,2.588-.88,6.082-.452,7.213,2.061,1.106,2.387-.553,5.278.276,7.791,1.231,3.795,6.986,4.1,9,7.564A7,7,0,0,1,967.823,393a33.866,33.866,0,0,1-7.589,4.674c-8.444,4.7-14.45,12.716-21.839,18.949-7.388,6.258-17.818,10.806-26.613,6.81,2.086-10.63-10.555-18.421-12.892-29-.779-3.493-.377-7.187-1.458-10.58-1.583-4.926-5.956-8.293-9.525-12.013a47.218,47.218,0,0,1-12.942-34.3c.2-4.373,1.005-8.821,0-13.093-.98-4.247-4.524-8.369-8.9-8.193-9.977.452-22.568,1.206-27.795-7.313-1.885-3.041-2.689-7.489.025-9.826,1.91-1.633,4.725-1.483,7.212-1.231,7.514.729,15,1.483,22.517,2.211,5.252.5,10.932.93,15.455-1.809s6.484-10.052,2.287-13.294c-3.041-2.362-8.519-2.237-9.424-5.981-.729-3.141,2.739-6.685.854-9.324-1.332-1.86-4.348-1.357-6.182.05a40.389,40.389,0,0,1-5.2,4.549c-3.593,1.86-7.866.075-11.736-1.131s-9.047-1.307-10.907,2.287c-2.111,4,1.834,9.273-.226,13.294-2.765,5.3-12.063,2.287-15.933,6.861-4.423,5.227,3.016,13.068,1.533,19.753a12.314,12.314,0,0,1-12.138-.678,11.751,11.751,0,0,1-5.077-10.957c.352-3.016,1.935-6.107.88-8.947a10.443,10.443,0,0,0-5.3-4.85q-10.932-6.069-21.864-12.088c-2.036,3.77.528,8.419,3.745,11.259,3.192,2.815,7.212,4.951,9.323,8.67a11.4,11.4,0,0,1-4.272,15.028,2.651,2.651,0,0,1-2.186.377,3.03,3.03,0,0,1-1.407-1.885c-3.845-9.876-9.65-19.6-18.9-24.754-9.273-5.177-22.568-4.1-28.649,4.574-1.432,2.061-2.412,4.423-3.669,6.609-6.66,11.585-20.984,17.064-34.354,16.712a6.621,6.621,0,0,1-3.745-.88c-2.161-1.483-2.061-4.649-1.734-7.263.478-3.694.93-7.363,1.407-11.058a8.855,8.855,0,0,1,2.438-6.056c2.488-1.96,6.056-.729,9.223-.779a11.618,11.618,0,0,0,10.58-8.168,13.129,13.129,0,0,0-3.669-13.068c-1.432-1.357-3.367-3.066-2.613-4.9a4.073,4.073,0,0,1,2.84-1.91c5.654-1.634,11.661-2.061,17.215-4.021,5.579-1.935,10.982-5.906,12.314-11.661.4-1.759.578-3.9,2.161-4.775a7,7,0,0,1,2.513-.5,12.232,12.232,0,0,0,10.48-12.741c2.664-1.86,6.408-.477,9,1.508,2.563,1.985,4.85,4.6,7.991,5.453,5.856,1.608,11.51-3.594,17.592-3.619,2.563,0,5.2.9,7.59.025,2.438-.88,3.9-3.292,5.755-5.076,1.885-1.809,5.152-2.89,6.886-.955-.5-3.644-.98-7.263-1.483-10.882a21.391,21.391,0,0,0,17.416-3.167c-6.333-2.136-12.641-4.272-18.974-6.408a4.094,4.094,0,0,1-1.784-.955c-1.382-1.483,0-3.795,1.106-5.478,2.689-4.046,3.141-10.706-1.282-12.716-3.016-1.382-6.458.276-9.349,1.885-4.624,2.563-9.248,5.152-13.872,7.715-.427,2.639,2.79,4.147,4.775,5.906a8.008,8.008,0,0,1-5.227,14,10.032,10.032,0,0,1,1.784,8.469c-3.091.226-6.207.452-9.323.679a4,4,0,0,1-3.016-.6c-1.005-.88-.854-2.438-1.106-3.745a8.089,8.089,0,0,0-6.836-5.956,23.6,23.6,0,0,0-9.525.88,5.8,5.8,0,0,1-4.121-.1,4.113,4.113,0,0,1-1.608-2.061,10.508,10.508,0,0,1,2.111-10.1,57.814,57.814,0,0,1,7.941-7.313,46.294,46.294,0,0,0,13.8-21.361c5.127-2.161,10.429-5.076,15.581-7.238a62.238,62.238,0,0,1,12.943-4.348,61.159,61.159,0,0,1,12.691-.6c5.78.1,11.585.2,17.365.327a41.791,41.791,0,0,1,15.2,2.186c4.75,1.96,8.946,6.207,9.273,11.334a3.481,3.481,0,0,1-1.131,3.192,4.071,4.071,0,0,1-2.186.5c-4.8.151-6.836,1.357-11.635,1.533,3.041,3.242,6.458,6.66,10.882,7.238,7.791,1.005,13.395-7.062,16.988-14.073a6.858,6.858,0,0,0,7.162,6.358,14.444,14.444,0,0,0,5.4-2.111,106.285,106.285,0,0,1,50.387-13.018,5.426,5.426,0,0,1,4.147-5.981c3.594-.7,6.811,2.387,8.545,5.6,1.709,3.217,2.79,6.936,5.554,9.349,2.74,2.412,8.042,2.287,9.123-1.181,1.055-3.342-2.438-6.207-5.328-8.193-2.915-1.96-5.956-5.6-4-8.519,14.777-3.292,29.679-6.559,44.833-7.213a19.078,19.078,0,0,0,7.539-1.307,5.86,5.86,0,0,0,3.518-6.207,17.134,17.134,0,0,1-17.843-6.735c15.556-1.282,31.841-2.412,46.793,1.081l13.093,11.108c-2.488,2.589-5.805,5.026-4,7.615a5.571,5.571,0,0,0,4.6,1.583c3.166.05,6.333.126,9.474.126a368.423,368.423,0,0,1,112.485,235.626c-5.278-.2-10.128,6.484-9.449,12.314.8,6.76,5.68,12.188,9.173,18.019a27.492,27.492,0,0,1,1.558,2.94Z" transform="translate(5.916 -152.319)" fill="#5e4edd"/></g></svg>