<svg width="1640" height="1640" viewBox="0 0 1640 1640" fill="none" xmlns="http://www.w3.org/2000/svg">
<rect width="1640" height="1640" fill="url(#paint0_linear_908_1950)"/>
<mask id="path-2-outside-1_908_1950" maskUnits="userSpaceOnUse" x="336" y="199" width="969" height="1242" fill="black">
<rect fill="white" x="336" y="199" width="969" height="1242"/>
<path fill-rule="evenodd" clip-rule="evenodd" d="M1285 219L1285 1072.16L1054.23 1072.16C1042.68 1167.82 1008.3 1246.14 951.072 1307.12C880.201 1382.68 769.414 1420.47 618.712 1420.47L356 1420.47L356 567.308L587.206 567.308C599.158 471.71 633.399 393.796 689.928 333.567C760.799 257.189 871.586 219 1022.29 219L1285 219ZM693.315 570.734C698.309 531.256 707.363 495.67 720.476 463.978C741.656 412.789 777.091 373.381 826.782 345.755C875.659 318.129 941.642 304.316 1024.73 304.316L1182.36 304.316L1182.36 986.842L1058.54 986.842C1056.87 858.088 1021.05 756.432 951.072 681.875C892.457 618.705 806.538 581.658 693.315 570.734ZM952.168 982.951C950.92 917.144 940.372 860.255 920.524 812.286C899.345 761.097 863.909 721.689 814.218 694.063C780.527 675.02 738.708 662.54 688.76 656.624C689.598 722.877 700.17 780.541 720.476 829.617C741.656 879.994 777.091 918.996 826.782 946.622C860.457 965.096 902.253 977.206 952.168 982.951ZM948.098 1068.81C834.671 1058.05 748.614 1021.38 689.928 958.81C619.086 883.331 583.248 781.269 582.414 652.624L458.641 652.624L458.641 1335.15L616.268 1335.15C699.358 1335.15 765.341 1321.74 814.218 1294.93C863.909 1267.3 899.345 1228.3 920.524 1177.93C934.007 1145.34 943.198 1108.97 948.098 1068.81Z"/>
</mask>
<path fill-rule="evenodd" clip-rule="evenodd" d="M1285 219L1285 1072.16L1054.23 1072.16C1042.68 1167.82 1008.3 1246.14 951.072 1307.12C880.201 1382.68 769.414 1420.47 618.712 1420.47L356 1420.47L356 567.308L587.206 567.308C599.158 471.71 633.399 393.796 689.928 333.567C760.799 257.189 871.586 219 1022.29 219L1285 219ZM693.315 570.734C698.309 531.256 707.363 495.67 720.476 463.978C741.656 412.789 777.091 373.381 826.782 345.755C875.659 318.129 941.642 304.316 1024.73 304.316L1182.36 304.316L1182.36 986.842L1058.54 986.842C1056.87 858.088 1021.05 756.432 951.072 681.875C892.457 618.705 806.538 581.658 693.315 570.734ZM952.168 982.951C950.92 917.144 940.372 860.255 920.524 812.286C899.345 761.097 863.909 721.689 814.218 694.063C780.527 675.02 738.708 662.54 688.76 656.624C689.598 722.877 700.17 780.541 720.476 829.617C741.656 879.994 777.091 918.996 826.782 946.622C860.457 965.096 902.253 977.206 952.168 982.951ZM948.098 1068.81C834.671 1058.05 748.614 1021.38 689.928 958.81C619.086 883.331 583.248 781.269 582.414 652.624L458.641 652.624L458.641 1335.15L616.268 1335.15C699.358 1335.15 765.341 1321.74 814.218 1294.93C863.909 1267.3 899.345 1228.3 920.524 1177.93C934.007 1145.34 943.198 1108.97 948.098 1068.81Z" fill="white"/>
<path d="M1285 1072.16L1305 1072.16L1305 1092.16L1285 1092.16L1285 1072.16ZM1285 219L1285 199L1305 199L1305 219L1285 219ZM1054.23 1072.16L1034.37 1069.76L1036.49 1052.16L1054.23 1052.16L1054.23 1072.16ZM951.072 1307.12L936.484 1293.44L936.489 1293.43L951.072 1307.12ZM618.712 1420.47L618.712 1440.47L618.712 1420.47ZM356 1420.47L356 1440.47L336 1440.47L336 1420.47L356 1420.47ZM356 567.308L336 567.308L336 547.308L356 547.308L356 567.308ZM587.206 567.308L607.052 569.789L604.861 587.308L587.206 587.308L587.206 567.308ZM689.928 333.567L704.589 347.171L704.55 347.213L704.511 347.254L689.928 333.567ZM693.315 570.734L691.394 590.642L670.887 588.663L673.473 568.224L693.315 570.734ZM720.476 463.978L738.956 471.625L738.956 471.625L720.476 463.978ZM826.782 345.755L836.623 363.166L836.562 363.201L836.5 363.235L826.782 345.755ZM1024.73 304.316L1024.73 324.316L1024.73 304.316ZM1182.36 304.316L1182.36 284.316L1202.36 284.316L1202.36 304.316L1182.36 304.316ZM1182.36 986.842L1202.36 986.842L1202.36 1006.84L1182.36 1006.84L1182.36 986.842ZM1058.54 986.842L1058.54 1006.84L1038.8 1006.84L1038.54 987.101L1058.54 986.842ZM951.072 681.875L936.489 695.562L936.45 695.52L936.411 695.479L951.072 681.875ZM952.168 982.951L972.165 982.572L972.599 1005.44L949.881 1002.82L952.168 982.951ZM920.524 812.286L902.044 819.932L902.044 819.932L920.524 812.286ZM814.218 694.063L804.5 711.543L804.438 711.509L804.377 711.474L814.218 694.063ZM688.76 656.624L668.762 656.877L668.473 634.081L691.113 636.763L688.76 656.624ZM720.476 829.617L702.039 837.369L702.017 837.316L701.995 837.264L720.476 829.617ZM826.782 946.622L817.163 964.156L817.113 964.129L817.064 964.102L826.782 946.622ZM689.928 958.81L704.511 945.123L704.516 945.128L689.928 958.81ZM948.098 1068.81L949.987 1048.9L970.439 1050.84L967.951 1071.23L948.098 1068.81ZM582.414 652.624L582.414 632.624L602.285 632.624L602.414 652.494L582.414 652.624ZM458.641 652.624L438.641 652.624L438.641 632.624L458.641 632.624L458.641 652.624ZM458.641 1335.15L458.641 1355.15L438.641 1355.15L438.641 1335.15L458.641 1335.15ZM814.218 1294.93L823.936 1312.41L823.887 1312.44L823.837 1312.46L814.218 1294.93ZM920.524 1177.93L939.005 1185.57L938.983 1185.62L938.961 1185.68L920.524 1177.93ZM1265 1072.16L1265 219L1305 219L1305 1072.16L1265 1072.16ZM1054.23 1052.16L1285 1052.16L1285 1092.16L1054.23 1092.16L1054.23 1052.16ZM1074.08 1074.55C1062.11 1173.78 1026.23 1256.27 965.655 1320.8L936.489 1293.43C990.371 1236.02 1023.26 1161.87 1034.37 1069.76L1074.08 1074.55ZM965.66 1320.8C889.566 1401.93 772.402 1440.47 618.712 1440.47L618.712 1400.47C766.426 1400.47 870.837 1363.43 936.484 1293.44L965.66 1320.8ZM618.712 1440.47L356 1440.47L356 1400.47L618.712 1400.47L618.712 1440.47ZM336 1420.47L336 567.308L376 567.308L376 1420.47L336 1420.47ZM356 547.308L587.206 547.308L587.206 587.308L356 587.308L356 547.308ZM704.511 347.254C651.338 403.907 618.569 477.667 607.052 569.789L567.361 564.827C579.747 465.753 615.459 383.685 675.345 319.88L704.511 347.254ZM1022.29 239C874.631 239 770.248 276.41 704.589 347.171L675.267 319.963C751.35 237.968 868.541 199 1022.29 199L1022.29 239ZM1285 239L1022.29 239L1022.29 199L1285 199L1285 239ZM673.473 568.224C678.656 527.256 688.104 489.906 701.995 456.332L738.956 471.625C726.622 501.435 717.963 535.256 713.157 573.244L673.473 568.224ZM701.995 456.332C724.95 400.852 763.538 358.033 817.064 328.275L836.5 363.235C790.644 388.729 758.361 424.726 738.956 471.625L701.995 456.332ZM816.941 328.344C869.922 298.398 939.731 284.316 1024.73 284.316L1024.73 324.316C943.553 324.316 881.395 337.86 836.623 363.166L816.941 328.344ZM1024.73 284.316L1182.36 284.316L1182.36 324.316L1024.73 324.316L1024.73 284.316ZM1202.36 304.316L1202.36 986.842L1162.36 986.842L1162.36 304.316L1202.36 304.316ZM1182.36 1006.84L1058.54 1006.84L1058.54 966.842L1182.36 966.842L1182.36 1006.84ZM965.655 668.188C1039.87 747.263 1076.82 854.18 1078.54 986.583L1038.54 987.101C1036.92 861.995 1002.23 765.601 936.489 695.562L965.655 668.188ZM695.236 550.827C811.745 562.068 902.84 600.491 965.733 668.271L936.411 695.479C882.074 636.919 801.331 601.249 691.394 590.642L695.236 550.827ZM932.172 983.331C930.959 919.378 920.719 865.069 902.044 819.932L939.005 804.64C960.025 855.442 970.881 914.91 972.165 982.572L932.172 983.331ZM902.044 819.932C882.639 773.033 850.356 737.037 804.5 711.543L823.936 676.583C877.462 706.341 916.05 749.16 939.005 804.64L902.044 819.932ZM804.377 711.474C773.574 694.064 734.474 682.179 686.407 676.485L691.113 636.763C742.941 642.902 787.48 655.976 824.059 676.652L804.377 711.474ZM701.995 837.264C680.512 785.34 669.624 725.062 668.762 656.877L708.758 656.371C709.572 720.691 719.829 775.742 738.956 821.971L701.995 837.264ZM817.064 964.102C763.63 934.395 725.028 892.049 702.039 837.369L738.913 821.866C758.283 867.939 790.552 903.596 836.5 929.142L817.064 964.102ZM949.881 1002.82C898.147 996.865 853.689 984.195 817.163 964.156L836.402 929.087C867.225 945.997 906.358 957.546 954.456 963.083L949.881 1002.82ZM704.516 945.128C758.904 1003.12 839.794 1038.45 949.987 1048.9L946.21 1088.72C829.548 1077.65 738.324 1039.65 675.34 972.491L704.516 945.128ZM602.414 652.494C603.223 777.379 637.904 874.156 704.511 945.123L675.345 972.497C600.267 892.505 563.273 785.158 562.415 652.753L602.414 652.494ZM582.414 672.624L458.641 672.624L458.641 632.624L582.414 632.624L582.414 672.624ZM478.641 652.624L478.641 1335.15L438.641 1335.15L438.641 652.624L478.641 652.624ZM458.641 1315.15L616.268 1315.15L616.268 1355.15L458.641 1355.15L458.641 1315.15ZM616.268 1315.15C697.519 1315.15 759.767 1301.99 804.598 1277.39L823.837 1312.46C770.916 1341.5 701.197 1355.15 616.268 1355.15L616.268 1315.15ZM804.5 1277.45C850.448 1251.9 882.717 1216.25 902.088 1170.17L938.961 1185.68C915.972 1240.36 877.37 1282.7 823.936 1312.41L804.5 1277.45ZM902.044 1170.28C914.742 1139.59 923.533 1105.01 928.245 1066.39L967.951 1071.23C962.863 1112.93 953.272 1151.09 939.005 1185.57L902.044 1170.28Z" fill="white" mask="url(#path-2-outside-1_908_1950)"/>
<defs>
<linearGradient id="paint0_linear_908_1950" x1="0" y1="0" x2="1640" y2="1640" gradientUnits="userSpaceOnUse">
<stop stop-color="#ED0000"/>
<stop offset="1" stop-color="#D60003"/>
</linearGradient>
</defs>
</svg>
