<svg width="390" height="356" viewBox="0 0 390 356" fill="none" xmlns="http://www.w3.org/2000/svg">
<rect width="390" height="356" fill="#FCFCFC"/>
<path d="M195 20L195 337" stroke="#E7E7E7"/>
<path d="M377 119L12 119" stroke="#E7E7E7"/>
<path d="M194 236H12" stroke="#E7E7E7"/>
<path d="M54.3519 49.9091H55.9371V58.5767C55.9371 59.4716 55.7262 60.2706 55.3043 60.9737C54.8867 61.6726 54.2965 62.2244 53.5337 62.6293C52.771 63.0298 51.8761 63.2301 50.8491 63.2301C49.8221 63.2301 48.9272 63.0298 48.1644 62.6293C47.4016 62.2244 46.8093 61.6726 46.3874 60.9737C45.9698 60.2706 45.761 59.4716 45.761 58.5767V49.9091H47.3462V58.4489C47.3462 59.0881 47.4869 59.657 47.7681 60.1555C48.0494 60.6499 48.4499 61.0398 48.9698 61.3253C49.494 61.6065 50.1204 61.7472 50.8491 61.7472C51.5778 61.7472 52.2042 61.6065 52.7283 61.3253C53.2525 61.0398 53.6531 60.6499 53.93 60.1555C54.2113 59.657 54.3519 59.0881 54.3519 58.4489V49.9091ZM60.4068 57.0938V63H58.8983V53.1818H60.3556V54.7159H60.4835C60.7136 54.2173 61.063 53.8168 61.5318 53.5142C62.0005 53.2074 62.6056 53.054 63.3471 53.054C64.0119 53.054 64.5936 53.1903 65.0922 53.4631C65.5907 53.7315 65.9785 54.1406 66.2555 54.6903C66.5325 55.2358 66.671 55.9261 66.671 56.7614V63H65.1625V56.8636C65.1625 56.0923 64.9622 55.4915 64.5616 55.0611C64.161 54.6264 63.6113 54.4091 62.9125 54.4091C62.4309 54.4091 62.0005 54.5135 61.6213 54.7223C61.2463 54.9311 60.9501 55.2358 60.7328 55.6364C60.5154 56.0369 60.4068 56.5227 60.4068 57.0938ZM69.4276 63V53.1818H70.8849V54.6648H70.9872C71.1662 54.179 71.4901 53.7848 71.9588 53.4822C72.4276 53.1797 72.956 53.0284 73.544 53.0284C73.6548 53.0284 73.7933 53.0305 73.9595 53.0348C74.1257 53.0391 74.2514 53.0455 74.3366 53.054V54.5881C74.2855 54.5753 74.1683 54.5561 73.9851 54.5305C73.8061 54.5007 73.6165 54.4858 73.4162 54.4858C72.9389 54.4858 72.5128 54.5859 72.1378 54.7862C71.767 54.9822 71.473 55.255 71.2557 55.6044C71.0426 55.9496 70.9361 56.3437 70.9361 56.7869V63H69.4276ZM79.9425 63.2045C78.9964 63.2045 78.1804 62.9957 77.4943 62.5781C76.8125 62.1562 76.2862 61.5682 75.9155 60.8139C75.549 60.0554 75.3658 59.1733 75.3658 58.1676C75.3658 57.1619 75.549 56.2756 75.9155 55.5085C76.2862 54.7372 76.8018 54.1364 77.4624 53.706C78.1271 53.2713 78.9027 53.054 79.7891 53.054C80.3004 53.054 80.8054 53.1392 81.304 53.3097C81.8026 53.4801 82.2564 53.7571 82.6655 54.1406C83.0746 54.5199 83.4006 55.0227 83.6435 55.6491C83.8864 56.2756 84.0078 57.0469 84.0078 57.9631V58.6023H76.4396V57.2983H82.4737C82.4737 56.7443 82.3629 56.25 82.1413 55.8153C81.924 55.3807 81.6129 55.0376 81.2081 54.7862C80.8075 54.5348 80.3345 54.4091 79.7891 54.4091C79.1882 54.4091 78.6683 54.5582 78.2294 54.8565C77.7947 55.1506 77.4602 55.5341 77.2259 56.0071C76.9915 56.4801 76.8743 56.9872 76.8743 57.5284V58.3977C76.8743 59.1392 77.0021 59.7678 77.2578 60.2834C77.5178 60.7947 77.8778 61.1847 78.3381 61.4531C78.7983 61.7173 79.3331 61.8494 79.9425 61.8494C80.3388 61.8494 80.6967 61.794 81.0163 61.6832C81.3402 61.5682 81.6193 61.3977 81.8537 61.1719C82.0881 60.9418 82.2692 60.6562 82.397 60.3153L83.8544 60.7244C83.701 61.2188 83.4432 61.6534 83.081 62.0284C82.7188 62.3991 82.2713 62.6889 81.7386 62.8977C81.206 63.1023 80.6072 63.2045 79.9425 63.2045ZM89.1918 63.2301C88.5696 63.2301 88.005 63.1129 87.4979 62.8786C86.9908 62.6399 86.5881 62.2969 86.2898 61.8494C85.9915 61.3977 85.8423 60.8523 85.8423 60.2131C85.8423 59.6506 85.9531 59.1946 86.1747 58.8452C86.3963 58.4915 86.6925 58.2145 87.0632 58.0142C87.4339 57.8139 87.843 57.6648 88.2905 57.5668C88.7422 57.4645 89.196 57.3835 89.652 57.3239C90.2486 57.2472 90.7322 57.1896 91.103 57.1513C91.478 57.1087 91.7507 57.0384 91.9212 56.9403C92.0959 56.8423 92.1832 56.6719 92.1832 56.429V56.3778C92.1832 55.7472 92.0107 55.2571 91.6655 54.9077C91.3246 54.5582 90.8068 54.3835 90.1122 54.3835C89.392 54.3835 88.8274 54.5412 88.4183 54.8565C88.0092 55.1719 87.7216 55.5085 87.5554 55.8665L86.1236 55.3551C86.3793 54.7585 86.7202 54.294 87.1463 53.9616C87.5767 53.625 88.0455 53.3906 88.5526 53.2585C89.0639 53.1222 89.5668 53.054 90.0611 53.054C90.3764 53.054 90.7386 53.0923 91.1477 53.169C91.5611 53.2415 91.9595 53.3928 92.343 53.6229C92.7308 53.853 93.0526 54.2003 93.3082 54.6648C93.5639 55.1293 93.6918 55.7514 93.6918 56.5312V63H92.1832V61.6705H92.1065C92.0043 61.8835 91.8338 62.1115 91.5952 62.3544C91.3565 62.5973 91.0391 62.804 90.6428 62.9744C90.2464 63.1449 89.7628 63.2301 89.1918 63.2301ZM89.4219 61.875C90.0185 61.875 90.5213 61.7578 90.9304 61.5234C91.3438 61.2891 91.6548 60.9865 91.8636 60.6158C92.0767 60.245 92.1832 59.8551 92.1832 59.446V58.0653C92.1193 58.142 91.9787 58.2124 91.7614 58.2763C91.5483 58.3359 91.3011 58.3892 91.0199 58.4361C90.7429 58.4787 90.4723 58.517 90.2081 58.5511C89.9482 58.581 89.7372 58.6065 89.5753 58.6278C89.1832 58.679 88.8168 58.7621 88.4759 58.8771C88.1392 58.9879 87.8665 59.1562 87.6577 59.3821C87.4531 59.6037 87.3509 59.9062 87.3509 60.2898C87.3509 60.8139 87.5447 61.2102 87.9325 61.4787C88.3246 61.7429 88.821 61.875 89.4219 61.875ZM100.434 63.2045C99.5133 63.2045 98.7207 62.9872 98.0559 62.5526C97.3912 62.1179 96.8798 61.5192 96.5218 60.7564C96.1639 59.9936 95.9849 59.1222 95.9849 58.142C95.9849 57.1449 96.1681 56.2649 96.5346 55.5021C96.9054 54.7351 97.421 54.1364 98.0815 53.706C98.7463 53.2713 99.5218 53.054 100.408 53.054C101.099 53.054 101.721 53.1818 102.275 53.4375C102.829 53.6932 103.282 54.0511 103.636 54.5114C103.99 54.9716 104.209 55.5085 104.295 56.1222H102.786C102.671 55.6747 102.415 55.2784 102.019 54.9332C101.627 54.5838 101.099 54.4091 100.434 54.4091C99.8457 54.4091 99.3301 54.5625 98.8869 54.8693C98.448 55.1719 98.1049 55.6001 97.8578 56.1541C97.6149 56.7038 97.4934 57.3494 97.4934 58.0909C97.4934 58.8494 97.6127 59.5099 97.8514 60.0724C98.0943 60.6349 98.4352 61.0717 98.8741 61.3828C99.3173 61.6939 99.8372 61.8494 100.434 61.8494C100.826 61.8494 101.182 61.7812 101.501 61.6449C101.821 61.5085 102.091 61.3125 102.313 61.0568C102.535 60.8011 102.692 60.4943 102.786 60.1364H104.295C104.209 60.7159 103.998 61.2379 103.662 61.7024C103.329 62.1626 102.888 62.5291 102.339 62.8018C101.793 63.0703 101.158 63.2045 100.434 63.2045ZM108.008 57.0938V63H106.5V49.9091H108.008V54.7159H108.136C108.366 54.2088 108.711 53.8061 109.172 53.5078C109.636 53.2053 110.254 53.054 111.025 53.054C111.694 53.054 112.28 53.1882 112.783 53.4567C113.286 53.7209 113.676 54.1278 113.953 54.6776C114.234 55.223 114.375 55.9176 114.375 56.7614V63H112.866V56.8636C112.866 56.0838 112.664 55.4808 112.259 55.0547C111.858 54.6243 111.302 54.4091 110.591 54.4091C110.096 54.4091 109.653 54.5135 109.261 54.7223C108.873 54.9311 108.567 55.2358 108.341 55.6364C108.119 56.0369 108.008 56.5227 108.008 57.0938ZM120.024 63.2301C119.402 63.2301 118.837 63.1129 118.33 62.8786C117.823 62.6399 117.42 62.2969 117.122 61.8494C116.824 61.3977 116.674 60.8523 116.674 60.2131C116.674 59.6506 116.785 59.1946 117.007 58.8452C117.228 58.4915 117.525 58.2145 117.895 58.0142C118.266 57.8139 118.675 57.6648 119.123 57.5668C119.574 57.4645 120.028 57.3835 120.484 57.3239C121.081 57.2472 121.564 57.1896 121.935 57.1513C122.31 57.1087 122.583 57.0384 122.753 56.9403C122.928 56.8423 123.015 56.6719 123.015 56.429V56.3778C123.015 55.7472 122.843 55.2571 122.498 54.9077C122.157 54.5582 121.639 54.3835 120.944 54.3835C120.224 54.3835 119.659 54.5412 119.25 54.8565C118.841 55.1719 118.554 55.5085 118.387 55.8665L116.956 55.3551C117.211 54.7585 117.552 54.294 117.978 53.9616C118.409 53.625 118.877 53.3906 119.385 53.2585C119.896 53.1222 120.399 53.054 120.893 53.054C121.208 53.054 121.571 53.0923 121.98 53.169C122.393 53.2415 122.792 53.3928 123.175 53.6229C123.563 53.853 123.885 54.2003 124.14 54.6648C124.396 55.1293 124.524 55.7514 124.524 56.5312V63H123.015V61.6705H122.939C122.836 61.8835 122.666 62.1115 122.427 62.3544C122.189 62.5973 121.871 62.804 121.475 62.9744C121.078 63.1449 120.595 63.2301 120.024 63.2301ZM120.254 61.875C120.85 61.875 121.353 61.7578 121.762 61.5234C122.176 61.2891 122.487 60.9865 122.696 60.6158C122.909 60.245 123.015 59.8551 123.015 59.446V58.0653C122.951 58.142 122.811 58.2124 122.593 58.2763C122.38 58.3359 122.133 58.3892 121.852 58.4361C121.575 58.4787 121.304 58.517 121.04 58.5511C120.78 58.581 120.569 58.6065 120.407 58.6278C120.015 58.679 119.649 58.7621 119.308 58.8771C118.971 58.9879 118.699 59.1562 118.49 59.3821C118.285 59.6037 118.183 59.9062 118.183 60.2898C118.183 60.8139 118.377 61.2102 118.765 61.4787C119.157 61.7429 119.653 61.875 120.254 61.875ZM127.482 63V49.9091H128.99V54.7415H129.118C129.229 54.571 129.382 54.3537 129.578 54.0895C129.779 53.821 130.064 53.5824 130.435 53.3736C130.81 53.1605 131.317 53.054 131.956 53.054C132.783 53.054 133.512 53.2607 134.142 53.674C134.773 54.0874 135.265 54.6733 135.619 55.4318C135.972 56.1903 136.149 57.0852 136.149 58.1165C136.149 59.1562 135.972 60.0575 135.619 60.8203C135.265 61.5788 134.775 62.1669 134.149 62.5845C133.522 62.9979 132.8 63.2045 131.982 63.2045C131.351 63.2045 130.846 63.1001 130.467 62.8913C130.088 62.6783 129.796 62.4375 129.591 62.169C129.387 61.8963 129.229 61.6705 129.118 61.4915H128.939V63H127.482ZM128.965 58.0909C128.965 58.8324 129.073 59.4865 129.291 60.0533C129.508 60.6158 129.825 61.0568 130.243 61.3764C130.661 61.6918 131.172 61.8494 131.777 61.8494C132.408 61.8494 132.934 61.6832 133.356 61.3509C133.782 61.0142 134.102 60.5625 134.315 59.9957C134.532 59.4247 134.641 58.7898 134.641 58.0909C134.641 57.4006 134.534 56.7784 134.321 56.2244C134.112 55.6662 133.795 55.2251 133.369 54.9013C132.947 54.5732 132.416 54.4091 131.777 54.4091C131.164 54.4091 130.648 54.5646 130.23 54.8757C129.813 55.1825 129.497 55.6129 129.284 56.1669C129.071 56.7166 128.965 57.358 128.965 58.0909ZM139.965 49.9091V63H138.457V49.9091H139.965ZM146.845 63.2045C145.899 63.2045 145.083 62.9957 144.397 62.5781C143.715 62.1562 143.189 61.5682 142.818 60.8139C142.451 60.0554 142.268 59.1733 142.268 58.1676C142.268 57.1619 142.451 56.2756 142.818 55.5085C143.189 54.7372 143.704 54.1364 144.365 53.706C145.029 53.2713 145.805 53.054 146.691 53.054C147.203 53.054 147.708 53.1392 148.206 53.3097C148.705 53.4801 149.159 53.7571 149.568 54.1406C149.977 54.5199 150.303 55.0227 150.546 55.6491C150.789 56.2756 150.91 57.0469 150.91 57.9631V58.6023H143.342V57.2983H149.376C149.376 56.7443 149.265 56.25 149.044 55.8153C148.826 55.3807 148.515 55.0376 148.11 54.7862C147.71 54.5348 147.237 54.4091 146.691 54.4091C146.091 54.4091 145.571 54.5582 145.132 54.8565C144.697 55.1506 144.363 55.5341 144.128 56.0071C143.894 56.4801 143.777 56.9872 143.777 57.5284V58.3977C143.777 59.1392 143.904 59.7678 144.16 60.2834C144.42 60.7947 144.78 61.1847 145.24 61.4531C145.701 61.7173 146.235 61.8494 146.845 61.8494C147.241 61.8494 147.599 61.794 147.919 61.6832C148.243 61.5682 148.522 61.3977 148.756 61.1719C148.99 60.9418 149.172 60.6562 149.299 60.3153L150.757 60.7244C150.603 61.2188 150.346 61.6534 149.983 62.0284C149.621 62.3991 149.174 62.6889 148.641 62.8977C148.108 63.1023 147.51 63.2045 146.845 63.2045ZM74.1673 79.3807L72.8121 79.7642C72.7269 79.5384 72.6012 79.3189 72.435 79.1058C72.2731 78.8885 72.0515 78.7095 71.7702 78.5689C71.489 78.4283 71.1289 78.358 70.69 78.358C70.0891 78.358 69.5884 78.4964 69.1879 78.7734C68.7915 79.0462 68.5934 79.3935 68.5934 79.8153C68.5934 80.1903 68.7298 80.4865 69.0025 80.7038C69.2752 80.9212 69.7013 81.1023 70.2809 81.2472L71.7383 81.6051C72.6161 81.8182 73.2702 82.1442 73.7006 82.5831C74.131 83.0178 74.3462 83.5781 74.3462 84.2642C74.3462 84.8267 74.1843 85.3295 73.8604 85.7727C73.5408 86.2159 73.0934 86.5653 72.5181 86.821C71.9428 87.0767 71.2738 87.2045 70.511 87.2045C69.5096 87.2045 68.6808 86.9872 68.0245 86.5526C67.3683 86.1179 66.9528 85.483 66.7781 84.6477L68.2099 84.2898C68.3462 84.8182 68.604 85.2145 68.9833 85.4787C69.3668 85.7429 69.8675 85.875 70.4854 85.875C71.1886 85.875 71.7468 85.7259 72.1602 85.4276C72.5778 85.125 72.7866 84.7628 72.7866 84.3409C72.7866 84 72.6673 83.7145 72.4286 83.4844C72.19 83.25 71.8235 83.0753 71.3292 82.9602L69.6928 82.5767C68.7937 82.3636 68.1332 82.0334 67.7113 81.5859C67.2937 81.1342 67.0849 80.5696 67.0849 79.892C67.0849 79.3381 67.2404 78.848 67.5515 78.4219C67.8668 77.9957 68.2951 77.6612 68.8363 77.4183C69.3817 77.1754 69.9996 77.054 70.69 77.054C71.6616 77.054 72.4244 77.267 72.9783 77.6932C73.5366 78.1193 73.9329 78.6818 74.1673 79.3807ZM78.1255 81.0938V87H76.617V73.9091H78.1255V78.7159H78.2534C78.4835 78.2088 78.8287 77.8061 79.2889 77.5078C79.7534 77.2053 80.3713 77.054 81.1426 77.054C81.8116 77.054 82.3975 77.1882 82.9004 77.4567C83.4032 77.7209 83.7931 78.1278 84.0701 78.6776C84.3514 79.223 84.492 79.9176 84.492 80.7614V87H82.9835V80.8636C82.9835 80.0838 82.7811 79.4808 82.3762 79.0547C81.9757 78.6243 81.4196 78.4091 80.7079 78.4091C80.2136 78.4091 79.7704 78.5135 79.3784 78.7223C78.9906 78.9311 78.6838 79.2358 78.4579 79.6364C78.2363 80.0369 78.1255 80.5227 78.1255 81.0938ZM91.3683 87.2045C90.4222 87.2045 89.6062 86.9957 88.9201 86.5781C88.2383 86.1562 87.712 85.5682 87.3413 84.8139C86.9748 84.0554 86.7915 83.1733 86.7915 82.1676C86.7915 81.1619 86.9748 80.2756 87.3413 79.5085C87.712 78.7372 88.2276 78.1364 88.8881 77.706C89.5529 77.2713 90.3285 77.054 91.2148 77.054C91.7262 77.054 92.2312 77.1392 92.7298 77.3097C93.2283 77.4801 93.6822 77.7571 94.0913 78.1406C94.5004 78.5199 94.8263 79.0227 95.0692 79.6491C95.3121 80.2756 95.4336 81.0469 95.4336 81.9631V82.6023H87.8654V81.2983H93.8995C93.8995 80.7443 93.7887 80.25 93.5671 79.8153C93.3498 79.3807 93.0387 79.0376 92.6339 78.7862C92.2333 78.5348 91.7603 78.4091 91.2148 78.4091C90.614 78.4091 90.0941 78.5582 89.6552 78.8565C89.2205 79.1506 88.886 79.5341 88.6516 80.0071C88.4173 80.4801 88.3001 80.9872 88.3001 81.5284V82.3977C88.3001 83.1392 88.4279 83.7678 88.6836 84.2834C88.9435 84.7947 89.3036 85.1847 89.7638 85.4531C90.2241 85.7173 90.7589 85.8494 91.3683 85.8494C91.7646 85.8494 92.1225 85.794 92.4421 85.6832C92.766 85.5682 93.0451 85.3977 93.2795 85.1719C93.5138 84.9418 93.695 84.6562 93.8228 84.3153L95.2802 84.7244C95.1268 85.2188 94.869 85.6534 94.5067 86.0284C94.1445 86.3991 93.6971 86.6889 93.1644 86.8977C92.6317 87.1023 92.033 87.2045 91.3683 87.2045ZM99.2369 73.9091V87H97.7283V73.9091H99.2369ZM110.028 77.1818L106.398 87H104.863L101.233 77.1818H102.869L105.579 85.0057H105.682L108.392 77.1818H110.028ZM115.784 87.2045C114.838 87.2045 114.022 86.9957 113.336 86.5781C112.654 86.1562 112.128 85.5682 111.757 84.8139C111.391 84.0554 111.208 83.1733 111.208 82.1676C111.208 81.1619 111.391 80.2756 111.757 79.5085C112.128 78.7372 112.644 78.1364 113.304 77.706C113.969 77.2713 114.744 77.054 115.631 77.054C116.142 77.054 116.647 77.1392 117.146 77.3097C117.644 77.4801 118.098 77.7571 118.507 78.1406C118.916 78.5199 119.242 79.0227 119.485 79.6491C119.728 80.2756 119.85 81.0469 119.85 81.9631V82.6023H112.281V81.2983H118.316C118.316 80.7443 118.205 80.25 117.983 79.8153C117.766 79.3807 117.455 79.0376 117.05 78.7862C116.649 78.5348 116.176 78.4091 115.631 78.4091C115.03 78.4091 114.51 78.5582 114.071 78.8565C113.637 79.1506 113.302 79.5341 113.068 80.0071C112.833 80.4801 112.716 80.9872 112.716 81.5284V82.3977C112.716 83.1392 112.844 83.7678 113.1 84.2834C113.36 84.7947 113.72 85.1847 114.18 85.4531C114.64 85.7173 115.175 85.8494 115.784 85.8494C116.181 85.8494 116.539 85.794 116.858 85.6832C117.182 85.5682 117.461 85.3977 117.695 85.1719C117.93 84.9418 118.111 84.6562 118.239 84.3153L119.696 84.7244C119.543 85.2188 119.285 85.6534 118.923 86.0284C118.561 86.3991 118.113 86.6889 117.58 86.8977C117.048 87.1023 116.449 87.2045 115.784 87.2045ZM129.099 79.3807L127.744 79.7642C127.659 79.5384 127.533 79.3189 127.367 79.1058C127.205 78.8885 126.983 78.7095 126.702 78.5689C126.421 78.4283 126.061 78.358 125.622 78.358C125.021 78.358 124.52 78.4964 124.119 78.7734C123.723 79.0462 123.525 79.3935 123.525 79.8153C123.525 80.1903 123.661 80.4865 123.934 80.7038C124.207 80.9212 124.633 81.1023 125.213 81.2472L126.67 81.6051C127.548 81.8182 128.202 82.1442 128.632 82.5831C129.063 83.0178 129.278 83.5781 129.278 84.2642C129.278 84.8267 129.116 85.3295 128.792 85.7727C128.472 86.2159 128.025 86.5653 127.45 86.821C126.874 87.0767 126.205 87.2045 125.443 87.2045C124.441 87.2045 123.612 86.9872 122.956 86.5526C122.3 86.1179 121.884 85.483 121.71 84.6477L123.142 84.2898C123.278 84.8182 123.536 85.2145 123.915 85.4787C124.298 85.7429 124.799 85.875 125.417 85.875C126.12 85.875 126.678 85.7259 127.092 85.4276C127.509 85.125 127.718 84.7628 127.718 84.3409C127.718 84 127.599 83.7145 127.36 83.4844C127.122 83.25 126.755 83.0753 126.261 82.9602L124.624 82.5767C123.725 82.3636 123.065 82.0334 122.643 81.5859C122.225 81.1342 122.017 80.5696 122.017 79.892C122.017 79.3381 122.172 78.848 122.483 78.4219C122.798 77.9957 123.227 77.6612 123.768 77.4183C124.313 77.1754 124.931 77.054 125.622 77.054C126.593 77.054 127.356 77.267 127.91 77.6932C128.468 78.1193 128.865 78.6818 129.099 79.3807Z" fill="#1F1F1F"/>
<path d="M257.539 56.4545C257.539 57.8352 257.29 59.0284 256.791 60.0341C256.292 61.0398 255.608 61.8153 254.739 62.3608C253.87 62.9062 252.877 63.179 251.76 63.179C250.644 63.179 249.651 62.9062 248.782 62.3608C247.912 61.8153 247.229 61.0398 246.73 60.0341C246.231 59.0284 245.982 57.8352 245.982 56.4545C245.982 55.0739 246.231 53.8807 246.73 52.875C247.229 51.8693 247.912 51.0938 248.782 50.5483C249.651 50.0028 250.644 49.7301 251.76 49.7301C252.877 49.7301 253.87 50.0028 254.739 50.5483C255.608 51.0938 256.292 51.8693 256.791 52.875C257.29 53.8807 257.539 55.0739 257.539 56.4545ZM256.005 56.4545C256.005 55.321 255.815 54.3643 255.436 53.5845C255.061 52.8047 254.552 52.2145 253.908 51.8139C253.269 51.4134 252.553 51.2131 251.76 51.2131C250.968 51.2131 250.25 51.4134 249.606 51.8139C248.967 52.2145 248.458 52.8047 248.079 53.5845C247.704 54.3643 247.516 55.321 247.516 56.4545C247.516 57.5881 247.704 58.5447 248.079 59.3246C248.458 60.1044 248.967 60.6946 249.606 61.0952C250.25 61.4957 250.968 61.696 251.76 61.696C252.553 61.696 253.269 61.4957 253.908 61.0952C254.552 60.6946 255.061 60.1044 255.436 59.3246C255.815 58.5447 256.005 57.5881 256.005 56.4545ZM260.204 63V49.9091H261.713V54.7415H261.841C261.952 54.571 262.105 54.3537 262.301 54.0895C262.501 53.821 262.787 53.5824 263.157 53.3736C263.532 53.1605 264.04 53.054 264.679 53.054C265.506 53.054 266.234 53.2607 266.865 53.674C267.496 54.0874 267.988 54.6733 268.341 55.4318C268.695 56.1903 268.872 57.0852 268.872 58.1165C268.872 59.1562 268.695 60.0575 268.341 60.8203C267.988 61.5788 267.498 62.1669 266.871 62.5845C266.245 62.9979 265.523 63.2045 264.704 63.2045C264.074 63.2045 263.569 63.1001 263.189 62.8913C262.81 62.6783 262.518 62.4375 262.314 62.169C262.109 61.8963 261.952 61.6705 261.841 61.4915H261.662V63H260.204ZM261.687 58.0909C261.687 58.8324 261.796 59.4865 262.013 60.0533C262.231 60.6158 262.548 61.0568 262.966 61.3764C263.383 61.6918 263.895 61.8494 264.5 61.8494C265.131 61.8494 265.657 61.6832 266.079 61.3509C266.505 61.0142 266.824 60.5625 267.037 59.9957C267.255 59.4247 267.363 58.7898 267.363 58.0909C267.363 57.4006 267.257 56.7784 267.044 56.2244C266.835 55.6662 266.518 55.2251 266.091 54.9013C265.67 54.5732 265.139 54.4091 264.5 54.4091C263.886 54.4091 263.371 54.5646 262.953 54.8757C262.535 55.1825 262.22 55.6129 262.007 56.1669C261.794 56.7166 261.687 57.358 261.687 58.0909ZM278.134 55.3807L276.779 55.7642C276.694 55.5384 276.568 55.3189 276.402 55.1058C276.24 54.8885 276.018 54.7095 275.737 54.5689C275.456 54.4283 275.096 54.358 274.657 54.358C274.056 54.358 273.555 54.4964 273.155 54.7734C272.758 55.0462 272.56 55.3935 272.56 55.8153C272.56 56.1903 272.697 56.4865 272.969 56.7038C273.242 56.9212 273.668 57.1023 274.248 57.2472L275.705 57.6051C276.583 57.8182 277.237 58.1442 277.667 58.5831C278.098 59.0178 278.313 59.5781 278.313 60.2642C278.313 60.8267 278.151 61.3295 277.827 61.7727C277.508 62.2159 277.06 62.5653 276.485 62.821C275.91 63.0767 275.241 63.2045 274.478 63.2045C273.476 63.2045 272.648 62.9872 271.991 62.5526C271.335 62.1179 270.92 61.483 270.745 60.6477L272.177 60.2898C272.313 60.8182 272.571 61.2145 272.95 61.4787C273.334 61.7429 273.834 61.875 274.452 61.875C275.155 61.875 275.714 61.7259 276.127 61.4276C276.545 61.125 276.753 60.7628 276.753 60.3409C276.753 60 276.634 59.7145 276.395 59.4844C276.157 59.25 275.79 59.0753 275.296 58.9602L273.66 58.5767C272.76 58.3636 272.1 58.0334 271.678 57.5859C271.26 57.1342 271.052 56.5696 271.052 55.892C271.052 55.3381 271.207 54.848 271.518 54.4219C271.834 53.9957 272.262 53.6612 272.803 53.4183C273.349 53.1754 273.966 53.054 274.657 53.054C275.628 53.054 276.391 53.267 276.945 53.6932C277.503 54.1193 277.9 54.6818 278.134 55.3807ZM284.854 53.1818V54.4602H279.766V53.1818H284.854ZM281.249 50.8295H282.757V60.1875C282.757 60.6136 282.819 60.9332 282.942 61.1463C283.07 61.3551 283.232 61.4957 283.428 61.5682C283.629 61.6364 283.839 61.6705 284.061 61.6705C284.227 61.6705 284.364 61.6619 284.47 61.6449C284.577 61.6236 284.662 61.6065 284.726 61.5938L285.033 62.9489C284.93 62.9872 284.788 63.0256 284.604 63.0639C284.421 63.1065 284.189 63.1278 283.908 63.1278C283.482 63.1278 283.064 63.0362 282.655 62.853C282.25 62.6697 281.913 62.3906 281.645 62.0156C281.381 61.6406 281.249 61.1676 281.249 60.5966V50.8295ZM290.012 63.2301C289.39 63.2301 288.825 63.1129 288.318 62.8786C287.811 62.6399 287.408 62.2969 287.11 61.8494C286.812 61.3977 286.663 60.8523 286.663 60.2131C286.663 59.6506 286.773 59.1946 286.995 58.8452C287.217 58.4915 287.513 58.2145 287.884 58.0142C288.254 57.8139 288.663 57.6648 289.111 57.5668C289.563 57.4645 290.016 57.3835 290.472 57.3239C291.069 57.2472 291.553 57.1896 291.923 57.1513C292.298 57.1087 292.571 57.0384 292.741 56.9403C292.916 56.8423 293.004 56.6719 293.004 56.429V56.3778C293.004 55.7472 292.831 55.2571 292.486 54.9077C292.145 54.5582 291.627 54.3835 290.933 54.3835C290.212 54.3835 289.648 54.5412 289.239 54.8565C288.83 55.1719 288.542 55.5085 288.376 55.8665L286.944 55.3551C287.2 54.7585 287.54 54.294 287.967 53.9616C288.397 53.625 288.866 53.3906 289.373 53.2585C289.884 53.1222 290.387 53.054 290.881 53.054C291.197 53.054 291.559 53.0923 291.968 53.169C292.381 53.2415 292.78 53.3928 293.163 53.6229C293.551 53.853 293.873 54.2003 294.129 54.6648C294.384 55.1293 294.512 55.7514 294.512 56.5312V63H293.004V61.6705H292.927C292.825 61.8835 292.654 62.1115 292.415 62.3544C292.177 62.5973 291.859 62.804 291.463 62.9744C291.067 63.1449 290.583 63.2301 290.012 63.2301ZM290.242 61.875C290.839 61.875 291.342 61.7578 291.751 61.5234C292.164 61.2891 292.475 60.9865 292.684 60.6158C292.897 60.245 293.004 59.8551 293.004 59.446V58.0653C292.94 58.142 292.799 58.2124 292.582 58.2763C292.369 58.3359 292.121 58.3892 291.84 58.4361C291.563 58.4787 291.293 58.517 291.028 58.5511C290.768 58.581 290.558 58.6065 290.396 58.6278C290.004 58.679 289.637 58.7621 289.296 58.8771C288.96 58.9879 288.687 59.1562 288.478 59.3821C288.273 59.6037 288.171 59.9062 288.171 60.2898C288.171 60.8139 288.365 61.2102 288.753 61.4787C289.145 61.7429 289.641 61.875 290.242 61.875ZM301.254 63.2045C300.334 63.2045 299.541 62.9872 298.876 62.5526C298.211 62.1179 297.7 61.5192 297.342 60.7564C296.984 59.9936 296.805 59.1222 296.805 58.142C296.805 57.1449 296.988 56.2649 297.355 55.5021C297.726 54.7351 298.241 54.1364 298.902 53.706C299.567 53.2713 300.342 53.054 301.229 53.054C301.919 53.054 302.541 53.1818 303.095 53.4375C303.649 53.6932 304.103 54.0511 304.456 54.5114C304.81 54.9716 305.03 55.5085 305.115 56.1222H303.606C303.491 55.6747 303.236 55.2784 302.839 54.9332C302.447 54.5838 301.919 54.4091 301.254 54.4091C300.666 54.4091 300.15 54.5625 299.707 54.8693C299.268 55.1719 298.925 55.6001 298.678 56.1541C298.435 56.7038 298.314 57.3494 298.314 58.0909C298.314 58.8494 298.433 59.5099 298.672 60.0724C298.915 60.6349 299.256 61.0717 299.694 61.3828C300.138 61.6939 300.657 61.8494 301.254 61.8494C301.646 61.8494 302.002 61.7812 302.322 61.6449C302.641 61.5085 302.912 61.3125 303.133 61.0568C303.355 60.8011 303.513 60.4943 303.606 60.1364H305.115C305.03 60.7159 304.819 61.2379 304.482 61.7024C304.15 62.1626 303.709 62.5291 303.159 62.8018C302.613 63.0703 301.979 63.2045 301.254 63.2045ZM308.829 49.9091V63H307.32V49.9091H308.829ZM315.708 63.2045C314.762 63.2045 313.946 62.9957 313.26 62.5781C312.578 62.1562 312.052 61.5682 311.681 60.8139C311.315 60.0554 311.131 59.1733 311.131 58.1676C311.131 57.1619 311.315 56.2756 311.681 55.5085C312.052 54.7372 312.567 54.1364 313.228 53.706C313.893 53.2713 314.668 53.054 315.555 53.054C316.066 53.054 316.571 53.1392 317.07 53.3097C317.568 53.4801 318.022 53.7571 318.431 54.1406C318.84 54.5199 319.166 55.0227 319.409 55.6491C319.652 56.2756 319.773 57.0469 319.773 57.9631V58.6023H312.205V57.2983H318.239C318.239 56.7443 318.129 56.25 317.907 55.8153C317.69 55.3807 317.379 55.0376 316.974 54.7862C316.573 54.5348 316.1 54.4091 315.555 54.4091C314.954 54.4091 314.434 54.5582 313.995 54.8565C313.56 55.1506 313.226 55.5341 312.991 56.0071C312.757 56.4801 312.64 56.9872 312.64 57.5284V58.3977C312.64 59.1392 312.768 59.7678 313.023 60.2834C313.283 60.7947 313.643 61.1847 314.104 61.4531C314.564 61.7173 315.099 61.8494 315.708 61.8494C316.104 61.8494 316.462 61.794 316.782 61.6832C317.106 61.5682 317.385 61.3977 317.619 61.1719C317.854 60.9418 318.035 60.6562 318.163 60.3153L319.62 60.7244C319.467 61.2188 319.209 61.6534 318.847 62.0284C318.484 62.3991 318.037 62.6889 317.504 62.8977C316.972 63.1023 316.373 63.2045 315.708 63.2045ZM329.023 55.3807L327.668 55.7642C327.582 55.5384 327.457 55.3189 327.29 55.1058C327.129 54.8885 326.907 54.7095 326.626 54.5689C326.344 54.4283 325.984 54.358 325.545 54.358C324.945 54.358 324.444 54.4964 324.043 54.7734C323.647 55.0462 323.449 55.3935 323.449 55.8153C323.449 56.1903 323.585 56.4865 323.858 56.7038C324.131 56.9212 324.557 57.1023 325.136 57.2472L326.594 57.6051C327.472 57.8182 328.126 58.1442 328.556 58.5831C328.987 59.0178 329.202 59.5781 329.202 60.2642C329.202 60.8267 329.04 61.3295 328.716 61.7727C328.396 62.2159 327.949 62.5653 327.374 62.821C326.798 63.0767 326.129 63.2045 325.366 63.2045C324.365 63.2045 323.536 62.9872 322.88 62.5526C322.224 62.1179 321.808 61.483 321.634 60.6477L323.065 60.2898C323.202 60.8182 323.46 61.2145 323.839 61.4787C324.222 61.7429 324.723 61.875 325.341 61.875C326.044 61.875 326.602 61.7259 327.016 61.4276C327.433 61.125 327.642 60.7628 327.642 60.3409C327.642 60 327.523 59.7145 327.284 59.4844C327.045 59.25 326.679 59.0753 326.185 58.9602L324.548 58.5767C323.649 58.3636 322.989 58.0334 322.567 57.5859C322.149 57.1342 321.94 56.5696 321.94 55.892C321.94 55.3381 322.096 54.848 322.407 54.4219C322.722 53.9957 323.151 53.6612 323.692 53.4183C324.237 53.1754 324.855 53.054 325.545 53.054C326.517 53.054 327.28 53.267 327.834 53.6932C328.392 54.1193 328.788 54.6818 329.023 55.3807ZM260.42 87.2045C259.534 87.2045 258.756 86.9936 258.087 86.5717C257.422 86.1499 256.902 85.5597 256.527 84.8011C256.157 84.0426 255.971 83.1562 255.971 82.142C255.971 81.1193 256.157 80.2266 256.527 79.4638C256.902 78.701 257.422 78.1087 258.087 77.6868C258.756 77.2649 259.534 77.054 260.42 77.054C261.306 77.054 262.082 77.2649 262.747 77.6868C263.416 78.1087 263.936 78.701 264.306 79.4638C264.681 80.2266 264.869 81.1193 264.869 82.142C264.869 83.1562 264.681 84.0426 264.306 84.8011C263.936 85.5597 263.416 86.1499 262.747 86.5717C262.082 86.9936 261.306 87.2045 260.42 87.2045ZM260.42 85.8494C261.093 85.8494 261.647 85.6768 262.082 85.3317C262.517 84.9865 262.838 84.5327 263.047 83.9702C263.256 83.4077 263.36 82.7983 263.36 82.142C263.36 81.4858 263.256 80.8743 263.047 80.3075C262.838 79.7408 262.517 79.2827 262.082 78.9332C261.647 78.5838 261.093 78.4091 260.42 78.4091C259.747 78.4091 259.193 78.5838 258.758 78.9332C258.324 79.2827 258.002 79.7408 257.793 80.3075C257.584 80.8743 257.48 81.4858 257.48 82.142C257.48 82.7983 257.584 83.4077 257.793 83.9702C258.002 84.5327 258.324 84.9865 258.758 85.3317C259.193 85.6768 259.747 85.8494 260.42 85.8494ZM268.68 81.0938V87H267.172V77.1818H268.629V78.7159H268.757C268.987 78.2173 269.336 77.8168 269.805 77.5142C270.274 77.2074 270.879 77.054 271.621 77.054C272.285 77.054 272.867 77.1903 273.366 77.4631C273.864 77.7315 274.252 78.1406 274.529 78.6903C274.806 79.2358 274.944 79.9261 274.944 80.7614V87H273.436V80.8636C273.436 80.0923 273.236 79.4915 272.835 79.0611C272.434 78.6264 271.885 78.4091 271.186 78.4091C270.704 78.4091 270.274 78.5135 269.895 78.7223C269.52 78.9311 269.224 79.2358 269.006 79.6364C268.789 80.0369 268.68 80.5227 268.68 81.0938ZM285.653 87.2301C285.031 87.2301 284.466 87.1129 283.959 86.8786C283.452 86.6399 283.049 86.2969 282.751 85.8494C282.452 85.3977 282.303 84.8523 282.303 84.2131C282.303 83.6506 282.414 83.1946 282.636 82.8452C282.857 82.4915 283.153 82.2145 283.524 82.0142C283.895 81.8139 284.304 81.6648 284.751 81.5668C285.203 81.4645 285.657 81.3835 286.113 81.3239C286.71 81.2472 287.193 81.1896 287.564 81.1513C287.939 81.1087 288.212 81.0384 288.382 80.9403C288.557 80.8423 288.644 80.6719 288.644 80.429V80.3778C288.644 79.7472 288.472 79.2571 288.126 78.9077C287.786 78.5582 287.268 78.3835 286.573 78.3835C285.853 78.3835 285.288 78.5412 284.879 78.8565C284.47 79.1719 284.183 79.5085 284.016 79.8665L282.585 79.3551C282.84 78.7585 283.181 78.294 283.607 77.9616C284.038 77.625 284.506 77.3906 285.013 77.2585C285.525 77.1222 286.028 77.054 286.522 77.054C286.837 77.054 287.2 77.0923 287.609 77.169C288.022 77.2415 288.42 77.3928 288.804 77.6229C289.192 77.853 289.513 78.2003 289.769 78.6648C290.025 79.1293 290.153 79.7514 290.153 80.5312V87H288.644V85.6705H288.567C288.465 85.8835 288.295 86.1115 288.056 86.3544C287.817 86.5973 287.5 86.804 287.104 86.9744C286.707 87.1449 286.224 87.2301 285.653 87.2301ZM285.883 85.875C286.479 85.875 286.982 85.7578 287.391 85.5234C287.805 85.2891 288.116 84.9865 288.325 84.6158C288.538 84.245 288.644 83.8551 288.644 83.446V82.0653C288.58 82.142 288.44 82.2124 288.222 82.2763C288.009 82.3359 287.762 82.3892 287.481 82.4361C287.204 82.4787 286.933 82.517 286.669 82.5511C286.409 82.581 286.198 82.6065 286.036 82.6278C285.644 82.679 285.278 82.7621 284.937 82.8771C284.6 82.9879 284.327 83.1562 284.119 83.3821C283.914 83.6037 283.812 83.9062 283.812 84.2898C283.812 84.8139 284.006 85.2102 284.393 85.4787C284.786 85.7429 285.282 85.875 285.883 85.875ZM292.906 87V77.1818H294.415V87H292.906ZM293.673 75.5455C293.379 75.5455 293.126 75.4453 292.912 75.245C292.704 75.0447 292.599 74.804 292.599 74.5227C292.599 74.2415 292.704 74.0007 292.912 73.8004C293.126 73.6001 293.379 73.5 293.673 73.5C293.967 73.5 294.219 73.6001 294.427 73.8004C294.64 74.0007 294.747 74.2415 294.747 74.5227C294.747 74.804 294.64 75.0447 294.427 75.245C294.219 75.4453 293.967 75.5455 293.673 75.5455ZM304.132 79.3807L302.777 79.7642C302.692 79.5384 302.566 79.3189 302.4 79.1058C302.238 78.8885 302.016 78.7095 301.735 78.5689C301.454 78.4283 301.094 78.358 300.655 78.358C300.054 78.358 299.553 78.4964 299.153 78.7734C298.756 79.0462 298.558 79.3935 298.558 79.8153C298.558 80.1903 298.695 80.4865 298.967 80.7038C299.24 80.9212 299.666 81.1023 300.246 81.2472L301.703 81.6051C302.581 81.8182 303.235 82.1442 303.665 82.5831C304.096 83.0178 304.311 83.5781 304.311 84.2642C304.311 84.8267 304.149 85.3295 303.825 85.7727C303.506 86.2159 303.058 86.5653 302.483 86.821C301.908 87.0767 301.239 87.2045 300.476 87.2045C299.474 87.2045 298.646 86.9872 297.989 86.5526C297.333 86.1179 296.918 85.483 296.743 84.6477L298.175 84.2898C298.311 84.8182 298.569 85.2145 298.948 85.4787C299.332 85.7429 299.832 85.875 300.45 85.875C301.153 85.875 301.712 85.7259 302.125 85.4276C302.543 85.125 302.751 84.7628 302.751 84.3409C302.751 84 302.632 83.7145 302.393 83.4844C302.155 83.25 301.788 83.0753 301.294 82.9602L299.658 82.5767C298.759 82.3636 298.098 82.0334 297.676 81.5859C297.259 81.1342 297.05 80.5696 297.05 79.892C297.05 79.3381 297.205 78.848 297.516 78.4219C297.832 77.9957 298.26 77.6612 298.801 77.4183C299.347 77.1754 299.964 77.054 300.655 77.054C301.626 77.054 302.389 77.267 302.943 77.6932C303.501 78.1193 303.898 78.6818 304.132 79.3807ZM308.09 73.9091V87H306.582V73.9091H308.09ZM314.97 87.2045C314.024 87.2045 313.208 86.9957 312.522 86.5781C311.84 86.1562 311.314 85.5682 310.943 84.8139C310.576 84.0554 310.393 83.1733 310.393 82.1676C310.393 81.1619 310.576 80.2756 310.943 79.5085C311.314 78.7372 311.829 78.1364 312.49 77.706C313.154 77.2713 313.93 77.054 314.816 77.054C315.328 77.054 315.833 77.1392 316.331 77.3097C316.83 77.4801 317.284 77.7571 317.693 78.1406C318.102 78.5199 318.428 79.0227 318.671 79.6491C318.914 80.2756 319.035 81.0469 319.035 81.9631V82.6023H311.467V81.2983H317.501C317.501 80.7443 317.39 80.25 317.169 79.8153C316.951 79.3807 316.64 79.0376 316.235 78.7862C315.835 78.5348 315.362 78.4091 314.816 78.4091C314.216 78.4091 313.696 78.5582 313.257 78.8565C312.822 79.1506 312.488 79.5341 312.253 80.0071C312.019 80.4801 311.902 80.9872 311.902 81.5284V82.3977C311.902 83.1392 312.029 83.7678 312.285 84.2834C312.545 84.7947 312.905 85.1847 313.365 85.4531C313.826 85.7173 314.36 85.8494 314.97 85.8494C315.366 85.8494 315.724 85.794 316.044 85.6832C316.368 85.5682 316.647 85.3977 316.881 85.1719C317.115 84.9418 317.297 84.6562 317.424 84.3153L318.882 84.7244C318.728 85.2188 318.471 85.6534 318.108 86.0284C317.746 86.3991 317.299 86.6889 316.766 86.8977C316.233 87.1023 315.635 87.2045 314.97 87.2045Z" fill="#1F1F1F"/>
<path d="M37.5247 156.909H39.4167L43.8656 167.776H44.019L48.4679 156.909H50.3599V170H48.877V160.054H48.7491L44.6582 170H43.2264L39.1355 160.054H39.0076V170H37.5247V156.909ZM57.3224 170.205C56.4361 170.205 55.6584 169.994 54.9893 169.572C54.3246 169.15 53.8047 168.56 53.4297 167.801C53.0589 167.043 52.8736 166.156 52.8736 165.142C52.8736 164.119 53.0589 163.227 53.4297 162.464C53.8047 161.701 54.3246 161.109 54.9893 160.687C55.6584 160.265 56.4361 160.054 57.3224 160.054C58.2088 160.054 58.9844 160.265 59.6491 160.687C60.3182 161.109 60.8381 161.701 61.2088 162.464C61.5838 163.227 61.7713 164.119 61.7713 165.142C61.7713 166.156 61.5838 167.043 61.2088 167.801C60.8381 168.56 60.3182 169.15 59.6491 169.572C58.9844 169.994 58.2088 170.205 57.3224 170.205ZM57.3224 168.849C57.9957 168.849 58.5497 168.677 58.9844 168.332C59.419 167.987 59.7408 167.533 59.9496 166.97C60.1584 166.408 60.2628 165.798 60.2628 165.142C60.2628 164.486 60.1584 163.874 59.9496 163.308C59.7408 162.741 59.419 162.283 58.9844 161.933C58.5497 161.584 57.9957 161.409 57.3224 161.409C56.6491 161.409 56.0952 161.584 55.6605 161.933C55.2259 162.283 54.9041 162.741 54.6953 163.308C54.4865 163.874 54.3821 164.486 54.3821 165.142C54.3821 165.798 54.4865 166.408 54.6953 166.97C54.9041 167.533 55.2259 167.987 55.6605 168.332C56.0952 168.677 56.6491 168.849 57.3224 168.849ZM68.3439 160.182V161.46H63.2559V160.182H68.3439ZM64.7388 157.83H66.2473V167.188C66.2473 167.614 66.3091 167.933 66.4327 168.146C66.5605 168.355 66.7225 168.496 66.9185 168.568C67.1188 168.636 67.3297 168.67 67.5513 168.67C67.7175 168.67 67.8539 168.662 67.9604 168.645C68.0669 168.624 68.1522 168.607 68.2161 168.594L68.5229 169.949C68.4206 169.987 68.2779 170.026 68.0946 170.064C67.9114 170.107 67.6792 170.128 67.3979 170.128C66.9718 170.128 66.5542 170.036 66.1451 169.853C65.7402 169.67 65.4036 169.391 65.1351 169.016C64.8709 168.641 64.7388 168.168 64.7388 167.597V157.83ZM74.4963 170.205C73.6099 170.205 72.8322 169.994 72.1632 169.572C71.4984 169.15 70.9785 168.56 70.6035 167.801C70.2328 167.043 70.0474 166.156 70.0474 165.142C70.0474 164.119 70.2328 163.227 70.6035 162.464C70.9785 161.701 71.4984 161.109 72.1632 160.687C72.8322 160.265 73.6099 160.054 74.4963 160.054C75.3826 160.054 76.1582 160.265 76.823 160.687C77.492 161.109 78.0119 161.701 78.3826 162.464C78.7576 163.227 78.9451 164.119 78.9451 165.142C78.9451 166.156 78.7576 167.043 78.3826 167.801C78.0119 168.56 77.492 169.15 76.823 169.572C76.1582 169.994 75.3826 170.205 74.4963 170.205ZM74.4963 168.849C75.1696 168.849 75.7235 168.677 76.1582 168.332C76.5929 167.987 76.9146 167.533 77.1234 166.97C77.3322 166.408 77.4366 165.798 77.4366 165.142C77.4366 164.486 77.3322 163.874 77.1234 163.308C76.9146 162.741 76.5929 162.283 76.1582 161.933C75.7235 161.584 75.1696 161.409 74.4963 161.409C73.823 161.409 73.269 161.584 72.8343 161.933C72.3997 162.283 72.0779 162.741 71.8691 163.308C71.6603 163.874 71.5559 164.486 71.5559 165.142C71.5559 165.798 71.6603 166.408 71.8691 166.97C72.0779 167.533 72.3997 167.987 72.8343 168.332C73.269 168.677 73.823 168.849 74.4963 168.849ZM81.2479 170V160.182H82.7053V161.665H82.8075C82.9865 161.179 83.3104 160.785 83.7791 160.482C84.2479 160.18 84.7763 160.028 85.3643 160.028C85.4751 160.028 85.6136 160.031 85.7798 160.035C85.946 160.039 86.0717 160.045 86.157 160.054V161.588C86.1058 161.575 85.9886 161.556 85.8054 161.531C85.6264 161.501 85.4368 161.486 85.2365 161.486C84.7592 161.486 84.3331 161.586 83.9581 161.786C83.5874 161.982 83.2933 162.255 83.076 162.604C82.8629 162.95 82.7564 163.344 82.7564 163.787V170H81.2479ZM87.9451 170V160.182H89.4537V170H87.9451ZM88.7122 158.545C88.4181 158.545 88.1646 158.445 87.9515 158.245C87.7427 158.045 87.6383 157.804 87.6383 157.523C87.6383 157.241 87.7427 157.001 87.9515 156.8C88.1646 156.6 88.4181 156.5 88.7122 156.5C89.0062 156.5 89.2576 156.6 89.4664 156.8C89.6795 157.001 89.786 157.241 89.786 157.523C89.786 157.804 89.6795 158.045 89.4664 158.245C89.2576 158.445 89.0062 158.545 88.7122 158.545ZM91.9354 170V168.849L97.5092 161.69V161.588H92.1143V160.182H99.4524V161.384L94.032 168.491V168.594H99.6314V170H91.9354ZM105.79 170.205C104.844 170.205 104.028 169.996 103.342 169.578C102.66 169.156 102.134 168.568 101.763 167.814C101.397 167.055 101.213 166.173 101.213 165.168C101.213 164.162 101.397 163.276 101.763 162.509C102.134 161.737 102.65 161.136 103.31 160.706C103.975 160.271 104.75 160.054 105.637 160.054C106.148 160.054 106.653 160.139 107.152 160.31C107.65 160.48 108.104 160.757 108.513 161.141C108.922 161.52 109.248 162.023 109.491 162.649C109.734 163.276 109.855 164.047 109.855 164.963V165.602H102.287V164.298H108.321C108.321 163.744 108.211 163.25 107.989 162.815C107.772 162.381 107.461 162.038 107.056 161.786C106.655 161.535 106.182 161.409 105.637 161.409C105.036 161.409 104.516 161.558 104.077 161.857C103.642 162.151 103.308 162.534 103.074 163.007C102.839 163.48 102.722 163.987 102.722 164.528V165.398C102.722 166.139 102.85 166.768 103.105 167.283C103.365 167.795 103.725 168.185 104.186 168.453C104.646 168.717 105.181 168.849 105.79 168.849C106.186 168.849 106.544 168.794 106.864 168.683C107.188 168.568 107.467 168.398 107.701 168.172C107.936 167.942 108.117 167.656 108.245 167.315L109.702 167.724C109.549 168.219 109.291 168.653 108.929 169.028C108.566 169.399 108.119 169.689 107.586 169.898C107.054 170.102 106.455 170.205 105.79 170.205ZM115.858 170.205C115.039 170.205 114.317 169.998 113.691 169.585C113.064 169.167 112.574 168.579 112.221 167.82C111.867 167.058 111.69 166.156 111.69 165.116C111.69 164.085 111.867 163.19 112.221 162.432C112.574 161.673 113.066 161.087 113.697 160.674C114.328 160.261 115.056 160.054 115.883 160.054C116.522 160.054 117.027 160.161 117.398 160.374C117.773 160.582 118.059 160.821 118.255 161.089C118.455 161.354 118.61 161.571 118.721 161.741H118.849V156.909H120.358V170H118.9V168.491H118.721C118.61 168.67 118.453 168.896 118.248 169.169C118.044 169.437 117.752 169.678 117.373 169.891C116.993 170.1 116.488 170.205 115.858 170.205ZM116.062 168.849C116.667 168.849 117.179 168.692 117.596 168.376C118.014 168.057 118.331 167.616 118.549 167.053C118.766 166.487 118.875 165.832 118.875 165.091C118.875 164.358 118.768 163.717 118.555 163.167C118.342 162.613 118.027 162.183 117.609 161.876C117.191 161.565 116.676 161.409 116.062 161.409C115.423 161.409 114.89 161.573 114.464 161.901C114.042 162.225 113.725 162.666 113.512 163.224C113.303 163.778 113.199 164.401 113.199 165.091C113.199 165.79 113.305 166.425 113.518 166.996C113.735 167.562 114.055 168.014 114.477 168.351C114.903 168.683 115.431 168.849 116.062 168.849ZM132.381 170.205C131.461 170.205 130.668 169.987 130.003 169.553C129.338 169.118 128.827 168.519 128.469 167.756C128.111 166.994 127.932 166.122 127.932 165.142C127.932 164.145 128.115 163.265 128.482 162.502C128.853 161.735 129.368 161.136 130.029 160.706C130.694 160.271 131.469 160.054 132.355 160.054C133.046 160.054 133.668 160.182 134.222 160.438C134.776 160.693 135.23 161.051 135.583 161.511C135.937 161.972 136.157 162.509 136.242 163.122H134.733C134.618 162.675 134.363 162.278 133.966 161.933C133.574 161.584 133.046 161.409 132.381 161.409C131.793 161.409 131.277 161.562 130.834 161.869C130.395 162.172 130.052 162.6 129.805 163.154C129.562 163.704 129.441 164.349 129.441 165.091C129.441 165.849 129.56 166.51 129.799 167.072C130.042 167.635 130.382 168.072 130.821 168.383C131.265 168.694 131.784 168.849 132.381 168.849C132.773 168.849 133.129 168.781 133.449 168.645C133.768 168.509 134.039 168.312 134.26 168.057C134.482 167.801 134.64 167.494 134.733 167.136H136.242C136.157 167.716 135.946 168.238 135.609 168.702C135.277 169.163 134.836 169.529 134.286 169.802C133.74 170.07 133.105 170.205 132.381 170.205ZM141.336 170.23C140.714 170.23 140.15 170.113 139.642 169.879C139.135 169.64 138.733 169.297 138.434 168.849C138.136 168.398 137.987 167.852 137.987 167.213C137.987 166.651 138.098 166.195 138.319 165.845C138.541 165.491 138.837 165.214 139.208 165.014C139.578 164.814 139.988 164.665 140.435 164.567C140.887 164.464 141.341 164.384 141.797 164.324C142.393 164.247 142.877 164.19 143.248 164.151C143.623 164.109 143.895 164.038 144.066 163.94C144.24 163.842 144.328 163.672 144.328 163.429V163.378C144.328 162.747 144.155 162.257 143.81 161.908C143.469 161.558 142.951 161.384 142.257 161.384C141.537 161.384 140.972 161.541 140.563 161.857C140.154 162.172 139.866 162.509 139.7 162.866L138.268 162.355C138.524 161.759 138.865 161.294 139.291 160.962C139.721 160.625 140.19 160.391 140.697 160.259C141.208 160.122 141.711 160.054 142.206 160.054C142.521 160.054 142.883 160.092 143.292 160.169C143.706 160.241 144.104 160.393 144.488 160.623C144.875 160.853 145.197 161.2 145.453 161.665C145.708 162.129 145.836 162.751 145.836 163.531V170H144.328V168.67H144.251C144.149 168.884 143.978 169.112 143.74 169.354C143.501 169.597 143.184 169.804 142.787 169.974C142.391 170.145 141.907 170.23 141.336 170.23ZM141.566 168.875C142.163 168.875 142.666 168.758 143.075 168.523C143.488 168.289 143.799 167.987 144.008 167.616C144.221 167.245 144.328 166.855 144.328 166.446V165.065C144.264 165.142 144.123 165.212 143.906 165.276C143.693 165.336 143.446 165.389 143.164 165.436C142.887 165.479 142.617 165.517 142.353 165.551C142.093 165.581 141.882 165.607 141.72 165.628C141.328 165.679 140.961 165.762 140.62 165.877C140.284 165.988 140.011 166.156 139.802 166.382C139.598 166.604 139.495 166.906 139.495 167.29C139.495 167.814 139.689 168.21 140.077 168.479C140.469 168.743 140.966 168.875 141.566 168.875ZM148.59 170V160.182H150.047V161.665H150.149C150.328 161.179 150.652 160.785 151.121 160.482C151.59 160.18 152.118 160.028 152.706 160.028C152.817 160.028 152.955 160.031 153.122 160.035C153.288 160.039 153.414 160.045 153.499 160.054V161.588C153.448 161.575 153.33 161.556 153.147 161.531C152.968 161.501 152.779 161.486 152.578 161.486C152.101 161.486 151.675 161.586 151.3 161.786C150.929 161.982 150.635 162.255 150.418 162.604C150.205 162.95 150.098 163.344 150.098 163.787V170H148.59ZM160.172 160.182V161.46H155.084V160.182H160.172ZM156.567 157.83H158.075V167.188C158.075 167.614 158.137 167.933 158.261 168.146C158.389 168.355 158.551 168.496 158.747 168.568C158.947 168.636 159.158 168.67 159.379 168.67C159.546 168.67 159.682 168.662 159.789 168.645C159.895 168.624 159.98 168.607 160.044 168.594L160.351 169.949C160.249 169.987 160.106 170.026 159.923 170.064C159.74 170.107 159.507 170.128 159.226 170.128C158.8 170.128 158.382 170.036 157.973 169.853C157.568 169.67 157.232 169.391 156.963 169.016C156.699 168.641 156.567 168.168 156.567 167.597V157.83ZM60.3387 197.682V184.182H61.7961V185.741H61.9751C62.0858 185.571 62.2393 185.354 62.4353 185.089C62.6356 184.821 62.9211 184.582 63.2918 184.374C63.6668 184.161 64.1739 184.054 64.8131 184.054C65.6398 184.054 66.3685 184.261 66.9992 184.674C67.6299 185.087 68.1221 185.673 68.4758 186.432C68.8295 187.19 69.0063 188.085 69.0063 189.116C69.0063 190.156 68.8295 191.058 68.4758 191.82C68.1221 192.579 67.632 193.167 67.0056 193.585C66.3792 193.998 65.6569 194.205 64.8387 194.205C64.208 194.205 63.703 194.1 63.3238 193.891C62.9445 193.678 62.6526 193.437 62.4481 193.169C62.2435 192.896 62.0858 192.67 61.9751 192.491H61.8472V197.682H60.3387ZM61.8216 189.091C61.8216 189.832 61.9303 190.487 62.1476 191.053C62.365 191.616 62.6824 192.057 63.1001 192.376C63.5177 192.692 64.029 192.849 64.6341 192.849C65.2648 192.849 65.7911 192.683 66.213 192.351C66.6391 192.014 66.9587 191.562 67.1718 190.996C67.3891 190.425 67.4978 189.79 67.4978 189.091C67.4978 188.401 67.3912 187.778 67.1782 187.224C66.9694 186.666 66.6519 186.225 66.2258 185.901C65.8039 185.573 65.2733 185.409 64.6341 185.409C64.0205 185.409 63.5049 185.565 63.0873 185.876C62.6697 186.183 62.3543 186.613 62.1412 187.167C61.9282 187.717 61.8216 188.358 61.8216 189.091ZM71.3074 194V184.182H72.7648V185.665H72.8671C73.0461 185.179 73.3699 184.785 73.8387 184.482C74.3074 184.18 74.8358 184.028 75.4239 184.028C75.5347 184.028 75.6732 184.031 75.8394 184.035C76.0056 184.039 76.1313 184.045 76.2165 184.054V185.588C76.1654 185.575 76.0482 185.556 75.865 185.531C75.686 185.501 75.4964 185.486 75.2961 185.486C74.8188 185.486 74.3927 185.586 74.0177 185.786C73.6469 185.982 73.3529 186.255 73.1356 186.604C72.9225 186.95 72.816 187.344 72.816 187.787V194H71.3074ZM81.6945 194.205C80.8082 194.205 80.0305 193.994 79.3614 193.572C78.6966 193.15 78.1768 192.56 77.8018 191.801C77.431 191.043 77.2456 190.156 77.2456 189.142C77.2456 188.119 77.431 187.227 77.8018 186.464C78.1768 185.701 78.6966 185.109 79.3614 184.687C80.0305 184.265 80.8082 184.054 81.6945 184.054C82.5809 184.054 83.3564 184.265 84.0212 184.687C84.6903 185.109 85.2101 185.701 85.5809 186.464C85.9559 187.227 86.1434 188.119 86.1434 189.142C86.1434 190.156 85.9559 191.043 85.5809 191.801C85.2101 192.56 84.6903 193.15 84.0212 193.572C83.3564 193.994 82.5809 194.205 81.6945 194.205ZM81.6945 192.849C82.3678 192.849 82.9218 192.677 83.3564 192.332C83.7911 191.987 84.1128 191.533 84.3216 190.97C84.5305 190.408 84.6349 189.798 84.6349 189.142C84.6349 188.486 84.5305 187.874 84.3216 187.308C84.1128 186.741 83.7911 186.283 83.3564 185.933C82.9218 185.584 82.3678 185.409 81.6945 185.409C81.0212 185.409 80.4672 185.584 80.0326 185.933C79.5979 186.283 79.2762 186.741 79.0674 187.308C78.8586 187.874 78.7542 188.486 78.7542 189.142C78.7542 189.798 78.8586 190.408 79.0674 190.97C79.2762 191.533 79.5979 191.987 80.0326 192.332C80.4672 192.677 81.0212 192.849 81.6945 192.849ZM88.6507 194V180.909H90.1592V185.741H90.287C90.3978 185.571 90.5512 185.354 90.7472 185.089C90.9475 184.821 91.233 184.582 91.6038 184.374C91.9788 184.161 92.4859 184.054 93.1251 184.054C93.9518 184.054 94.6805 184.261 95.3112 184.674C95.9419 185.087 96.434 185.673 96.7877 186.432C97.1414 187.19 97.3183 188.085 97.3183 189.116C97.3183 190.156 97.1414 191.058 96.7877 191.82C96.434 192.579 95.944 193.167 95.3176 193.585C94.6911 193.998 93.9688 194.205 93.1507 194.205C92.52 194.205 92.015 194.1 91.6357 193.891C91.2565 193.678 90.9646 193.437 90.76 193.169C90.5555 192.896 90.3978 192.67 90.287 192.491H90.108V194H88.6507ZM90.1336 189.091C90.1336 189.832 90.2423 190.487 90.4596 191.053C90.6769 191.616 90.9944 192.057 91.412 192.376C91.8296 192.692 92.341 192.849 92.9461 192.849C93.5768 192.849 94.1031 192.683 94.5249 192.351C94.9511 192.014 95.2707 191.562 95.4838 190.996C95.7011 190.425 95.8097 189.79 95.8097 189.091C95.8097 188.401 95.7032 187.778 95.4901 187.224C95.2813 186.666 94.9639 186.225 94.5377 185.901C94.1159 185.573 93.5853 185.409 92.9461 185.409C92.3325 185.409 91.8169 185.565 91.3992 185.876C90.9816 186.183 90.6663 186.613 90.4532 187.167C90.2401 187.717 90.1336 188.358 90.1336 189.091ZM101.134 180.909V194H99.6258V180.909H101.134ZM108.014 194.205C107.068 194.205 106.252 193.996 105.566 193.578C104.884 193.156 104.358 192.568 103.987 191.814C103.62 191.055 103.437 190.173 103.437 189.168C103.437 188.162 103.62 187.276 103.987 186.509C104.358 185.737 104.873 185.136 105.534 184.706C106.198 184.271 106.974 184.054 107.86 184.054C108.372 184.054 108.877 184.139 109.375 184.31C109.874 184.48 110.328 184.757 110.737 185.141C111.146 185.52 111.472 186.023 111.715 186.649C111.958 187.276 112.079 188.047 112.079 188.963V189.602H104.511V188.298H110.545C110.545 187.744 110.434 187.25 110.213 186.815C109.995 186.381 109.684 186.038 109.279 185.786C108.879 185.535 108.406 185.409 107.86 185.409C107.259 185.409 106.74 185.558 106.301 185.857C105.866 186.151 105.532 186.534 105.297 187.007C105.063 187.48 104.946 187.987 104.946 188.528V189.398C104.946 190.139 105.073 190.768 105.329 191.283C105.589 191.795 105.949 192.185 106.409 192.453C106.87 192.717 107.404 192.849 108.014 192.849C108.41 192.849 108.768 192.794 109.088 192.683C109.411 192.568 109.691 192.398 109.925 192.172C110.159 191.942 110.34 191.656 110.468 191.315L111.926 191.724C111.772 192.219 111.514 192.653 111.152 193.028C110.79 193.399 110.343 193.689 109.81 193.898C109.277 194.102 108.679 194.205 108.014 194.205ZM114.374 194V184.182H115.831V185.716H115.959C116.164 185.192 116.494 184.785 116.95 184.495C117.406 184.201 117.953 184.054 118.593 184.054C119.24 184.054 119.779 184.201 120.21 184.495C120.644 184.785 120.983 185.192 121.226 185.716H121.328C121.58 185.209 121.957 184.806 122.46 184.508C122.963 184.205 123.566 184.054 124.269 184.054C125.147 184.054 125.865 184.329 126.423 184.879C126.981 185.424 127.26 186.274 127.26 187.429V194H125.752V187.429C125.752 186.705 125.554 186.187 125.157 185.876C124.761 185.565 124.294 185.409 123.757 185.409C123.067 185.409 122.532 185.618 122.153 186.036C121.774 186.449 121.584 186.973 121.584 187.608V194H120.05V187.276C120.05 186.717 119.869 186.268 119.507 185.927C119.144 185.582 118.678 185.409 118.107 185.409C117.715 185.409 117.348 185.513 117.007 185.722C116.671 185.931 116.398 186.221 116.189 186.592C115.985 186.958 115.882 187.382 115.882 187.864V194H114.374ZM136.973 186.381L135.618 186.764C135.533 186.538 135.407 186.319 135.241 186.106C135.079 185.888 134.857 185.71 134.576 185.569C134.295 185.428 133.935 185.358 133.496 185.358C132.895 185.358 132.394 185.496 131.994 185.773C131.597 186.046 131.399 186.393 131.399 186.815C131.399 187.19 131.535 187.487 131.808 187.704C132.081 187.921 132.507 188.102 133.087 188.247L134.544 188.605C135.422 188.818 136.076 189.144 136.506 189.583C136.937 190.018 137.152 190.578 137.152 191.264C137.152 191.827 136.99 192.33 136.666 192.773C136.347 193.216 135.899 193.565 135.324 193.821C134.748 194.077 134.079 194.205 133.317 194.205C132.315 194.205 131.486 193.987 130.83 193.553C130.174 193.118 129.758 192.483 129.584 191.648L131.016 191.29C131.152 191.818 131.41 192.214 131.789 192.479C132.172 192.743 132.673 192.875 133.291 192.875C133.994 192.875 134.552 192.726 134.966 192.428C135.383 192.125 135.592 191.763 135.592 191.341C135.592 191 135.473 190.714 135.234 190.484C134.996 190.25 134.629 190.075 134.135 189.96L132.498 189.577C131.599 189.364 130.939 189.033 130.517 188.586C130.099 188.134 129.891 187.57 129.891 186.892C129.891 186.338 130.046 185.848 130.357 185.422C130.672 184.996 131.101 184.661 131.642 184.418C132.187 184.175 132.805 184.054 133.496 184.054C134.467 184.054 135.23 184.267 135.784 184.693C136.342 185.119 136.739 185.682 136.973 186.381Z" fill="#1F1F1F"/>
<path d="M258.926 161H257.341C257.247 160.544 257.083 160.143 256.849 159.798C256.618 159.453 256.337 159.163 256.005 158.929C255.677 158.69 255.312 158.511 254.912 158.392C254.511 158.273 254.094 158.213 253.659 158.213C252.866 158.213 252.148 158.413 251.505 158.814C250.866 159.214 250.356 159.805 249.977 160.585C249.602 161.364 249.415 162.321 249.415 163.455C249.415 164.588 249.602 165.545 249.977 166.325C250.356 167.104 250.866 167.695 251.505 168.095C252.148 168.496 252.866 168.696 253.659 168.696C254.094 168.696 254.511 168.636 254.912 168.517C255.312 168.398 255.677 168.221 256.005 167.987C256.337 167.748 256.618 167.456 256.849 167.111C257.083 166.761 257.247 166.361 257.341 165.909H258.926C258.807 166.578 258.589 167.177 258.274 167.705C257.959 168.234 257.567 168.683 257.098 169.054C256.629 169.42 256.103 169.7 255.519 169.891C254.939 170.083 254.319 170.179 253.659 170.179C252.542 170.179 251.55 169.906 250.68 169.361C249.811 168.815 249.127 168.04 248.628 167.034C248.13 166.028 247.881 164.835 247.881 163.455C247.881 162.074 248.13 160.881 248.628 159.875C249.127 158.869 249.811 158.094 250.68 157.548C251.55 157.003 252.542 156.73 253.659 156.73C254.319 156.73 254.939 156.826 255.519 157.018C256.103 157.21 256.629 157.491 257.098 157.862C257.567 158.228 257.959 158.675 258.274 159.204C258.589 159.728 258.807 160.327 258.926 161ZM262.792 164.094V170H261.283V156.909H262.792V161.716H262.919C263.15 161.209 263.495 160.806 263.955 160.508C264.419 160.205 265.037 160.054 265.809 160.054C266.478 160.054 267.064 160.188 267.566 160.457C268.069 160.721 268.459 161.128 268.736 161.678C269.017 162.223 269.158 162.918 269.158 163.761V170H267.65V163.864C267.65 163.084 267.447 162.481 267.042 162.055C266.642 161.624 266.086 161.409 265.374 161.409C264.88 161.409 264.436 161.513 264.044 161.722C263.657 161.931 263.35 162.236 263.124 162.636C262.902 163.037 262.792 163.523 262.792 164.094ZM276.034 170.205C275.088 170.205 274.272 169.996 273.586 169.578C272.904 169.156 272.378 168.568 272.007 167.814C271.641 167.055 271.458 166.173 271.458 165.168C271.458 164.162 271.641 163.276 272.007 162.509C272.378 161.737 272.894 161.136 273.554 160.706C274.219 160.271 274.994 160.054 275.881 160.054C276.392 160.054 276.897 160.139 277.396 160.31C277.894 160.48 278.348 160.757 278.757 161.141C279.166 161.52 279.492 162.023 279.735 162.649C279.978 163.276 280.1 164.047 280.1 164.963V165.602H272.531V164.298H278.566C278.566 163.744 278.455 163.25 278.233 162.815C278.016 162.381 277.705 162.038 277.3 161.786C276.899 161.535 276.426 161.409 275.881 161.409C275.28 161.409 274.76 161.558 274.321 161.857C273.887 162.151 273.552 162.534 273.318 163.007C273.083 163.48 272.966 163.987 272.966 164.528V165.398C272.966 166.139 273.094 166.768 273.35 167.283C273.61 167.795 273.97 168.185 274.43 168.453C274.89 168.717 275.425 168.849 276.034 168.849C276.431 168.849 276.789 168.794 277.108 168.683C277.432 168.568 277.711 168.398 277.945 168.172C278.18 167.942 278.361 167.656 278.489 167.315L279.946 167.724C279.793 168.219 279.535 168.653 279.173 169.028C278.811 169.399 278.363 169.689 277.83 169.898C277.298 170.102 276.699 170.205 276.034 170.205ZM286.383 170.205C285.463 170.205 284.67 169.987 284.005 169.553C283.34 169.118 282.829 168.519 282.471 167.756C282.113 166.994 281.934 166.122 281.934 165.142C281.934 164.145 282.117 163.265 282.484 162.502C282.855 161.735 283.37 161.136 284.031 160.706C284.695 160.271 285.471 160.054 286.357 160.054C287.048 160.054 287.67 160.182 288.224 160.438C288.778 160.693 289.232 161.051 289.585 161.511C289.939 161.972 290.159 162.509 290.244 163.122H288.735C288.62 162.675 288.365 162.278 287.968 161.933C287.576 161.584 287.048 161.409 286.383 161.409C285.795 161.409 285.279 161.562 284.836 161.869C284.397 162.172 284.054 162.6 283.807 163.154C283.564 163.704 283.443 164.349 283.443 165.091C283.443 165.849 283.562 166.51 283.801 167.072C284.044 167.635 284.384 168.072 284.823 168.383C285.267 168.694 285.786 168.849 286.383 168.849C286.775 168.849 287.131 168.781 287.45 168.645C287.77 168.509 288.041 168.312 288.262 168.057C288.484 167.801 288.642 167.494 288.735 167.136H290.244C290.159 167.716 289.948 168.238 289.611 168.702C289.279 169.163 288.838 169.529 288.288 169.802C287.742 170.07 287.107 170.205 286.383 170.205ZM293.855 166.42L293.83 164.554H294.137L298.432 160.182H300.298L295.722 164.81H295.594L293.855 166.42ZM292.449 170V156.909H293.958V170H292.449ZM298.688 170L294.852 165.142L295.926 164.094L300.605 170H298.688ZM305.824 170.205C304.938 170.205 304.16 169.994 303.491 169.572C302.827 169.15 302.307 168.56 301.932 167.801C301.561 167.043 301.376 166.156 301.376 165.142C301.376 164.119 301.561 163.227 301.932 162.464C302.307 161.701 302.827 161.109 303.491 160.687C304.16 160.265 304.938 160.054 305.824 160.054C306.711 160.054 307.486 160.265 308.151 160.687C308.82 161.109 309.34 161.701 309.711 162.464C310.086 163.227 310.273 164.119 310.273 165.142C310.273 166.156 310.086 167.043 309.711 167.801C309.34 168.56 308.82 169.15 308.151 169.572C307.486 169.994 306.711 170.205 305.824 170.205ZM305.824 168.849C306.498 168.849 307.052 168.677 307.486 168.332C307.921 167.987 308.243 167.533 308.452 166.97C308.66 166.408 308.765 165.798 308.765 165.142C308.765 164.486 308.66 163.874 308.452 163.308C308.243 162.741 307.921 162.283 307.486 161.933C307.052 161.584 306.498 161.409 305.824 161.409C305.151 161.409 304.597 161.584 304.162 161.933C303.728 162.283 303.406 162.741 303.197 163.308C302.988 163.874 302.884 164.486 302.884 165.142C302.884 165.798 302.988 166.408 303.197 166.97C303.406 167.533 303.728 167.987 304.162 168.332C304.597 168.677 305.151 168.849 305.824 168.849ZM318.763 165.986V160.182H320.272V170H318.763V168.338H318.661C318.431 168.837 318.073 169.261 317.587 169.61C317.102 169.955 316.488 170.128 315.746 170.128C315.133 170.128 314.587 169.994 314.11 169.725C313.633 169.452 313.258 169.043 312.985 168.498C312.712 167.948 312.576 167.256 312.576 166.42V160.182H314.085V166.318C314.085 167.034 314.285 167.605 314.685 168.031C315.09 168.457 315.606 168.67 316.232 168.67C316.607 168.67 316.989 168.575 317.376 168.383C317.768 168.191 318.097 167.897 318.361 167.501C318.629 167.104 318.763 166.599 318.763 165.986ZM327.305 160.182V161.46H322.217V160.182H327.305ZM323.7 157.83H325.208V167.188C325.208 167.614 325.27 167.933 325.394 168.146C325.521 168.355 325.683 168.496 325.879 168.568C326.08 168.636 326.291 168.67 326.512 168.67C326.678 168.67 326.815 168.662 326.921 168.645C327.028 168.624 327.113 168.607 327.177 168.594L327.484 169.949C327.382 169.987 327.239 170.026 327.056 170.064C326.872 170.107 326.64 170.128 326.359 170.128C325.933 170.128 325.515 170.036 325.106 169.853C324.701 169.67 324.365 169.391 324.096 169.016C323.832 168.641 323.7 168.168 323.7 167.597V157.83ZM255.157 197.682V184.182H256.614V185.741H256.793C256.904 185.571 257.058 185.354 257.254 185.089C257.454 184.821 257.739 184.582 258.11 184.374C258.485 184.161 258.992 184.054 259.631 184.054C260.458 184.054 261.187 184.261 261.818 184.674C262.448 185.087 262.94 185.673 263.294 186.432C263.648 187.19 263.825 188.085 263.825 189.116C263.825 190.156 263.648 191.058 263.294 191.82C262.94 192.579 262.45 193.167 261.824 193.585C261.198 193.998 260.475 194.205 259.657 194.205C259.026 194.205 258.521 194.1 258.142 193.891C257.763 193.678 257.471 193.437 257.266 193.169C257.062 192.896 256.904 192.67 256.793 192.491H256.666V197.682H255.157ZM256.64 189.091C256.64 189.832 256.749 190.487 256.966 191.053C257.183 191.616 257.501 192.057 257.918 192.376C258.336 192.692 258.847 192.849 259.453 192.849C260.083 192.849 260.609 192.683 261.031 192.351C261.457 192.014 261.777 191.562 261.99 190.996C262.207 190.425 262.316 189.79 262.316 189.091C262.316 188.401 262.21 187.778 261.997 187.224C261.788 186.666 261.47 186.225 261.044 185.901C260.622 185.573 260.092 185.409 259.453 185.409C258.839 185.409 258.323 185.565 257.906 185.876C257.488 186.183 257.173 186.613 256.96 187.167C256.747 187.717 256.64 188.358 256.64 189.091ZM266.126 194V184.182H267.583V185.665H267.685C267.864 185.179 268.188 184.785 268.657 184.482C269.126 184.18 269.654 184.028 270.242 184.028C270.353 184.028 270.492 184.031 270.658 184.035C270.824 184.039 270.95 184.045 271.035 184.054V185.588C270.984 185.575 270.867 185.556 270.683 185.531C270.504 185.501 270.315 185.486 270.114 185.486C269.637 185.486 269.211 185.586 268.836 185.786C268.465 185.982 268.171 186.255 267.954 186.604C267.741 186.95 267.634 187.344 267.634 187.787V194H266.126ZM276.513 194.205C275.627 194.205 274.849 193.994 274.18 193.572C273.515 193.15 272.995 192.56 272.62 191.801C272.249 191.043 272.064 190.156 272.064 189.142C272.064 188.119 272.249 187.227 272.62 186.464C272.995 185.701 273.515 185.109 274.18 184.687C274.849 184.265 275.627 184.054 276.513 184.054C277.399 184.054 278.175 184.265 278.84 184.687C279.509 185.109 280.028 185.701 280.399 186.464C280.774 187.227 280.962 188.119 280.962 189.142C280.962 190.156 280.774 191.043 280.399 191.801C280.028 192.56 279.509 193.15 278.84 193.572C278.175 193.994 277.399 194.205 276.513 194.205ZM276.513 192.849C277.186 192.849 277.74 192.677 278.175 192.332C278.609 191.987 278.931 191.533 279.14 190.97C279.349 190.408 279.453 189.798 279.453 189.142C279.453 188.486 279.349 187.874 279.14 187.308C278.931 186.741 278.609 186.283 278.175 185.933C277.74 185.584 277.186 185.409 276.513 185.409C275.84 185.409 275.286 185.584 274.851 185.933C274.416 186.283 274.095 186.741 273.886 187.308C273.677 187.874 273.573 188.486 273.573 189.142C273.573 189.798 273.677 190.408 273.886 190.97C274.095 191.533 274.416 191.987 274.851 192.332C275.286 192.677 275.84 192.849 276.513 192.849ZM287.253 194.205C286.333 194.205 285.54 193.987 284.875 193.553C284.21 193.118 283.699 192.519 283.341 191.756C282.983 190.994 282.804 190.122 282.804 189.142C282.804 188.145 282.987 187.265 283.354 186.502C283.725 185.735 284.24 185.136 284.901 184.706C285.566 184.271 286.341 184.054 287.228 184.054C287.918 184.054 288.54 184.182 289.094 184.438C289.648 184.693 290.102 185.051 290.456 185.511C290.809 185.972 291.029 186.509 291.114 187.122H289.605C289.49 186.675 289.235 186.278 288.838 185.933C288.446 185.584 287.918 185.409 287.253 185.409C286.665 185.409 286.149 185.562 285.706 185.869C285.267 186.172 284.924 186.6 284.677 187.154C284.434 187.704 284.313 188.349 284.313 189.091C284.313 189.849 284.432 190.51 284.671 191.072C284.914 191.635 285.255 192.072 285.693 192.383C286.137 192.694 286.657 192.849 287.253 192.849C287.645 192.849 288.001 192.781 288.321 192.645C288.64 192.509 288.911 192.312 289.132 192.057C289.354 191.801 289.512 191.494 289.605 191.136H291.114C291.029 191.716 290.818 192.238 290.481 192.702C290.149 193.163 289.708 193.529 289.158 193.802C288.612 194.07 287.978 194.205 287.253 194.205ZM297.436 194.205C296.49 194.205 295.674 193.996 294.987 193.578C294.306 193.156 293.779 192.568 293.409 191.814C293.042 191.055 292.859 190.173 292.859 189.168C292.859 188.162 293.042 187.276 293.409 186.509C293.779 185.737 294.295 185.136 294.956 184.706C295.62 184.271 296.396 184.054 297.282 184.054C297.794 184.054 298.299 184.139 298.797 184.31C299.296 184.48 299.75 184.757 300.159 185.141C300.568 185.52 300.894 186.023 301.137 186.649C301.38 187.276 301.501 188.047 301.501 188.963V189.602H293.933V188.298H299.967C299.967 187.744 299.856 187.25 299.634 186.815C299.417 186.381 299.106 186.038 298.701 185.786C298.301 185.535 297.828 185.409 297.282 185.409C296.681 185.409 296.161 185.558 295.723 185.857C295.288 186.151 294.953 186.534 294.719 187.007C294.485 187.48 294.367 187.987 294.367 188.528V189.398C294.367 190.139 294.495 190.768 294.751 191.283C295.011 191.795 295.371 192.185 295.831 192.453C296.291 192.717 296.826 192.849 297.436 192.849C297.832 192.849 298.19 192.794 298.509 192.683C298.833 192.568 299.112 192.398 299.347 192.172C299.581 191.942 299.762 191.656 299.89 191.315L301.348 191.724C301.194 192.219 300.936 192.653 300.574 193.028C300.212 193.399 299.764 193.689 299.232 193.898C298.699 194.102 298.1 194.205 297.436 194.205ZM310.75 186.381L309.395 186.764C309.31 186.538 309.184 186.319 309.018 186.106C308.856 185.888 308.634 185.71 308.353 185.569C308.072 185.428 307.712 185.358 307.273 185.358C306.672 185.358 306.171 185.496 305.771 185.773C305.375 186.046 305.176 186.393 305.176 186.815C305.176 187.19 305.313 187.487 305.585 187.704C305.858 187.921 306.284 188.102 306.864 188.247L308.321 188.605C309.199 188.818 309.853 189.144 310.284 189.583C310.714 190.018 310.929 190.578 310.929 191.264C310.929 191.827 310.767 192.33 310.443 192.773C310.124 193.216 309.676 193.565 309.101 193.821C308.526 194.077 307.857 194.205 307.094 194.205C306.093 194.205 305.264 193.987 304.608 193.553C303.951 193.118 303.536 192.483 303.361 191.648L304.793 191.29C304.929 191.818 305.187 192.214 305.566 192.479C305.95 192.743 306.451 192.875 307.068 192.875C307.772 192.875 308.33 192.726 308.743 192.428C309.161 192.125 309.37 191.763 309.37 191.341C309.37 191 309.25 190.714 309.012 190.484C308.773 190.25 308.407 190.075 307.912 189.96L306.276 189.577C305.377 189.364 304.716 189.033 304.294 188.586C303.877 188.134 303.668 187.57 303.668 186.892C303.668 186.338 303.823 185.848 304.134 185.422C304.45 184.996 304.878 184.661 305.419 184.418C305.965 184.175 306.583 184.054 307.273 184.054C308.245 184.054 309.007 184.267 309.561 184.693C310.12 185.119 310.516 185.682 310.75 186.381ZM320.155 186.381L318.799 186.764C318.714 186.538 318.589 186.319 318.422 186.106C318.26 185.888 318.039 185.71 317.758 185.569C317.476 185.428 317.116 185.358 316.677 185.358C316.076 185.358 315.576 185.496 315.175 185.773C314.779 186.046 314.581 186.393 314.581 186.815C314.581 187.19 314.717 187.487 314.99 187.704C315.263 187.921 315.689 188.102 316.268 188.247L317.726 188.605C318.603 188.818 319.258 189.144 319.688 189.583C320.118 190.018 320.334 190.578 320.334 191.264C320.334 191.827 320.172 192.33 319.848 192.773C319.528 193.216 319.081 193.565 318.505 193.821C317.93 194.077 317.261 194.205 316.498 194.205C315.497 194.205 314.668 193.987 314.012 193.553C313.356 193.118 312.94 192.483 312.765 191.648L314.197 191.29C314.334 191.818 314.591 192.214 314.971 192.479C315.354 192.743 315.855 192.875 316.473 192.875C317.176 192.875 317.734 192.726 318.147 192.428C318.565 192.125 318.774 191.763 318.774 191.341C318.774 191 318.655 190.714 318.416 190.484C318.177 190.25 317.811 190.075 317.316 189.96L315.68 189.577C314.781 189.364 314.12 189.033 313.699 188.586C313.281 188.134 313.072 187.57 313.072 186.892C313.072 186.338 313.228 185.848 313.539 185.422C313.854 184.996 314.282 184.661 314.824 184.418C315.369 184.175 315.987 184.054 316.677 184.054C317.649 184.054 318.412 184.267 318.966 184.693C319.524 185.119 319.92 185.682 320.155 186.381ZM249.339 221.682V208.182H250.796V209.741H250.975C251.086 209.571 251.239 209.354 251.435 209.089C251.636 208.821 251.921 208.582 252.292 208.374C252.667 208.161 253.174 208.054 253.813 208.054C254.64 208.054 255.369 208.261 255.999 208.674C256.63 209.087 257.122 209.673 257.476 210.432C257.829 211.19 258.006 212.085 258.006 213.116C258.006 214.156 257.829 215.058 257.476 215.82C257.122 216.579 256.632 217.167 256.006 217.585C255.379 217.998 254.657 218.205 253.839 218.205C253.208 218.205 252.703 218.1 252.324 217.891C251.945 217.678 251.653 217.437 251.448 217.169C251.244 216.896 251.086 216.67 250.975 216.491H250.847V221.682H249.339ZM250.822 213.091C250.822 213.832 250.93 214.487 251.148 215.053C251.365 215.616 251.682 216.057 252.1 216.376C252.518 216.692 253.029 216.849 253.634 216.849C254.265 216.849 254.791 216.683 255.213 216.351C255.639 216.014 255.959 215.562 256.172 214.996C256.389 214.425 256.498 213.79 256.498 213.091C256.498 212.401 256.391 211.778 256.178 211.224C255.969 210.666 255.652 210.225 255.226 209.901C254.804 209.573 254.273 209.409 253.634 209.409C253.021 209.409 252.505 209.565 252.087 209.876C251.67 210.183 251.354 210.613 251.141 211.167C250.928 211.717 250.822 212.358 250.822 213.091ZM260.307 218V208.182H261.765V209.665H261.867C262.046 209.179 262.37 208.785 262.839 208.482C263.307 208.18 263.836 208.028 264.424 208.028C264.535 208.028 264.673 208.031 264.839 208.035C265.006 208.039 265.131 208.045 265.217 208.054V209.588C265.165 209.575 265.048 209.556 264.865 209.531C264.686 209.501 264.496 209.486 264.296 209.486C263.819 209.486 263.393 209.586 263.018 209.786C262.647 209.982 262.353 210.255 262.136 210.604C261.922 210.95 261.816 211.344 261.816 211.787V218H260.307ZM270.695 218.205C269.808 218.205 269.03 217.994 268.361 217.572C267.697 217.15 267.177 216.56 266.802 215.801C266.431 215.043 266.246 214.156 266.246 213.142C266.246 212.119 266.431 211.227 266.802 210.464C267.177 209.701 267.697 209.109 268.361 208.687C269.03 208.265 269.808 208.054 270.695 208.054C271.581 208.054 272.356 208.265 273.021 208.687C273.69 209.109 274.21 209.701 274.581 210.464C274.956 211.227 275.143 212.119 275.143 213.142C275.143 214.156 274.956 215.043 274.581 215.801C274.21 216.56 273.69 217.15 273.021 217.572C272.356 217.994 271.581 218.205 270.695 218.205ZM270.695 216.849C271.368 216.849 271.922 216.677 272.356 216.332C272.791 215.987 273.113 215.533 273.322 214.97C273.53 214.408 273.635 213.798 273.635 213.142C273.635 212.486 273.53 211.874 273.322 211.308C273.113 210.741 272.791 210.283 272.356 209.933C271.922 209.584 271.368 209.409 270.695 209.409C270.021 209.409 269.467 209.584 269.033 209.933C268.598 210.283 268.276 210.741 268.067 211.308C267.859 211.874 267.754 212.486 267.754 213.142C267.754 213.798 267.859 214.408 268.067 214.97C268.276 215.533 268.598 215.987 269.033 216.332C269.467 216.677 270.021 216.849 270.695 216.849ZM277.651 218V204.909H279.159V209.741H279.287C279.398 209.571 279.551 209.354 279.747 209.089C279.948 208.821 280.233 208.582 280.604 208.374C280.979 208.161 281.486 208.054 282.125 208.054C282.952 208.054 283.68 208.261 284.311 208.674C284.942 209.087 285.434 209.673 285.788 210.432C286.141 211.19 286.318 212.085 286.318 213.116C286.318 214.156 286.141 215.058 285.788 215.82C285.434 216.579 284.944 217.167 284.318 217.585C283.691 217.998 282.969 218.205 282.151 218.205C281.52 218.205 281.015 218.1 280.636 217.891C280.256 217.678 279.965 217.437 279.76 217.169C279.555 216.896 279.398 216.67 279.287 216.491H279.108V218H277.651ZM279.134 213.091C279.134 213.832 279.242 214.487 279.46 215.053C279.677 215.616 279.994 216.057 280.412 216.376C280.83 216.692 281.341 216.849 281.946 216.849C282.577 216.849 283.103 216.683 283.525 216.351C283.951 216.014 284.271 215.562 284.484 214.996C284.701 214.425 284.81 213.79 284.81 213.091C284.81 212.401 284.703 211.778 284.49 211.224C284.281 210.666 283.964 210.225 283.538 209.901C283.116 209.573 282.585 209.409 281.946 209.409C281.332 209.409 280.817 209.565 280.399 209.876C279.982 210.183 279.666 210.613 279.453 211.167C279.24 211.717 279.134 212.358 279.134 213.091ZM290.134 204.909V218H288.626V204.909H290.134ZM297.014 218.205C296.068 218.205 295.252 217.996 294.566 217.578C293.884 217.156 293.358 216.568 292.987 215.814C292.62 215.055 292.437 214.173 292.437 213.168C292.437 212.162 292.62 211.276 292.987 210.509C293.358 209.737 293.873 209.136 294.534 208.706C295.198 208.271 295.974 208.054 296.86 208.054C297.372 208.054 297.877 208.139 298.375 208.31C298.874 208.48 299.328 208.757 299.737 209.141C300.146 209.52 300.472 210.023 300.715 210.649C300.958 211.276 301.079 212.047 301.079 212.963V213.602H293.511V212.298H299.545C299.545 211.744 299.434 211.25 299.213 210.815C298.995 210.381 298.684 210.038 298.279 209.786C297.879 209.535 297.406 209.409 296.86 209.409C296.259 209.409 295.74 209.558 295.301 209.857C294.866 210.151 294.532 210.534 294.297 211.007C294.063 211.48 293.946 211.987 293.946 212.528V213.398C293.946 214.139 294.073 214.768 294.329 215.283C294.589 215.795 294.949 216.185 295.409 216.453C295.87 216.717 296.404 216.849 297.014 216.849C297.41 216.849 297.768 216.794 298.088 216.683C298.411 216.568 298.691 216.398 298.925 216.172C299.159 215.942 299.34 215.656 299.468 215.315L300.926 215.724C300.772 216.219 300.514 216.653 300.152 217.028C299.79 217.399 299.343 217.689 298.81 217.898C298.277 218.102 297.679 218.205 297.014 218.205ZM303.374 218V208.182H304.831V209.716H304.959C305.164 209.192 305.494 208.785 305.95 208.495C306.406 208.201 306.953 208.054 307.593 208.054C308.24 208.054 308.779 208.201 309.21 208.495C309.644 208.785 309.983 209.192 310.226 209.716H310.328C310.58 209.209 310.957 208.806 311.46 208.508C311.963 208.205 312.566 208.054 313.269 208.054C314.147 208.054 314.865 208.329 315.423 208.879C315.981 209.424 316.26 210.274 316.26 211.429V218H314.752V211.429C314.752 210.705 314.554 210.187 314.157 209.876C313.761 209.565 313.294 209.409 312.757 209.409C312.067 209.409 311.532 209.618 311.153 210.036C310.774 210.449 310.584 210.973 310.584 211.608V218H309.05V211.276C309.05 210.717 308.869 210.268 308.507 209.927C308.144 209.582 307.678 209.409 307.107 209.409C306.715 209.409 306.348 209.513 306.007 209.722C305.671 209.931 305.398 210.221 305.189 210.592C304.985 210.958 304.882 211.382 304.882 211.864V218H303.374ZM325.973 210.381L324.618 210.764C324.533 210.538 324.407 210.319 324.241 210.106C324.079 209.888 323.857 209.71 323.576 209.569C323.295 209.428 322.935 209.358 322.496 209.358C321.895 209.358 321.394 209.496 320.994 209.773C320.597 210.046 320.399 210.393 320.399 210.815C320.399 211.19 320.535 211.487 320.808 211.704C321.081 211.921 321.507 212.102 322.087 212.247L323.544 212.605C324.422 212.818 325.076 213.144 325.506 213.583C325.937 214.018 326.152 214.578 326.152 215.264C326.152 215.827 325.99 216.33 325.666 216.773C325.347 217.216 324.899 217.565 324.324 217.821C323.748 218.077 323.079 218.205 322.317 218.205C321.315 218.205 320.486 217.987 319.83 217.553C319.174 217.118 318.758 216.483 318.584 215.648L320.016 215.29C320.152 215.818 320.41 216.214 320.789 216.479C321.172 216.743 321.673 216.875 322.291 216.875C322.994 216.875 323.552 216.726 323.966 216.428C324.383 216.125 324.592 215.763 324.592 215.341C324.592 215 324.473 214.714 324.234 214.484C323.996 214.25 323.629 214.075 323.135 213.96L321.498 213.577C320.599 213.364 319.939 213.033 319.517 212.586C319.099 212.134 318.891 211.57 318.891 210.892C318.891 210.338 319.046 209.848 319.357 209.422C319.672 208.996 320.101 208.661 320.642 208.418C321.187 208.175 321.805 208.054 322.496 208.054C323.467 208.054 324.23 208.267 324.784 208.693C325.342 209.119 325.739 209.682 325.973 210.381Z" fill="#1F1F1F"/>
<path d="M40.5432 282V268.909H44.9665C45.9935 268.909 46.833 269.094 47.485 269.465C48.1412 269.832 48.627 270.328 48.9424 270.955C49.2577 271.581 49.4154 272.28 49.4154 273.051C49.4154 273.822 49.2577 274.523 48.9424 275.154C48.6313 275.785 48.1498 276.288 47.4978 276.663C46.8458 277.033 46.0106 277.219 44.9921 277.219H41.8216V275.812H44.941C45.6441 275.812 46.2087 275.691 46.6349 275.448C47.061 275.205 47.3699 274.877 47.5617 274.464C47.7577 274.046 47.8557 273.575 47.8557 273.051C47.8557 272.527 47.7577 272.058 47.5617 271.645C47.3699 271.232 47.0589 270.908 46.6285 270.673C46.1981 270.435 45.627 270.315 44.9154 270.315H42.1285V282H40.5432ZM51.7645 282V272.182H53.2219V273.665H53.3241C53.5031 273.179 53.827 272.785 54.2957 272.482C54.7645 272.18 55.2929 272.028 55.8809 272.028C55.9917 272.028 56.1302 272.031 56.2964 272.035C56.4626 272.039 56.5883 272.045 56.6736 272.054V273.588C56.6224 273.575 56.5052 273.556 56.322 273.531C56.143 273.501 55.9534 273.486 55.7531 273.486C55.2758 273.486 54.8497 273.586 54.4747 273.786C54.104 273.982 53.8099 274.255 53.5926 274.604C53.3795 274.95 53.273 275.344 53.273 275.787V282H51.7645ZM62.2794 282.205C61.3334 282.205 60.5173 281.996 59.8312 281.578C59.1494 281.156 58.6231 280.568 58.2524 279.814C57.8859 279.055 57.7027 278.173 57.7027 277.168C57.7027 276.162 57.8859 275.276 58.2524 274.509C58.6231 273.737 59.1388 273.136 59.7993 272.706C60.464 272.271 61.2396 272.054 62.126 272.054C62.6373 272.054 63.1423 272.139 63.6409 272.31C64.1395 272.48 64.5933 272.757 65.0024 273.141C65.4115 273.52 65.7375 274.023 65.9804 274.649C66.2233 275.276 66.3447 276.047 66.3447 276.963V277.602H58.7765V276.298H64.8106C64.8106 275.744 64.6998 275.25 64.4782 274.815C64.2609 274.381 63.9498 274.038 63.545 273.786C63.1444 273.535 62.6714 273.409 62.126 273.409C61.5251 273.409 61.0052 273.558 60.5663 273.857C60.1317 274.151 59.7971 274.534 59.5628 275.007C59.3284 275.48 59.2112 275.987 59.2112 276.528V277.398C59.2112 278.139 59.339 278.768 59.5947 279.283C59.8547 279.795 60.2148 280.185 60.675 280.453C61.1352 280.717 61.67 280.849 62.2794 280.849C62.6757 280.849 63.0336 280.794 63.3532 280.683C63.6771 280.568 63.9562 280.398 64.1906 280.172C64.425 279.942 64.6061 279.656 64.7339 279.315L66.1913 279.724C66.0379 280.219 65.7801 280.653 65.4179 281.028C65.0557 281.399 64.6082 281.689 64.0756 281.898C63.5429 282.102 62.9442 282.205 62.2794 282.205ZM73.0116 272.182V273.46H67.719V272.182H73.0116ZM69.3042 282V270.827C69.3042 270.264 69.4363 269.795 69.7006 269.42C69.9648 269.045 70.3078 268.764 70.7297 268.577C71.1515 268.389 71.5969 268.295 72.0656 268.295C72.4363 268.295 72.7389 268.325 72.9733 268.385C73.2077 268.445 73.3824 268.5 73.4974 268.551L73.0628 269.855C72.9861 269.83 72.8795 269.798 72.7432 269.759C72.6111 269.721 72.4363 269.702 72.219 269.702C71.7204 269.702 71.3604 269.827 71.1388 270.079C70.9214 270.33 70.8128 270.699 70.8128 271.185V282H69.3042ZM78.838 282.205C77.892 282.205 77.0759 281.996 76.3898 281.578C75.708 281.156 75.1817 280.568 74.811 279.814C74.4445 279.055 74.2613 278.173 74.2613 277.168C74.2613 276.162 74.4445 275.276 74.811 274.509C75.1817 273.737 75.6974 273.136 76.3579 272.706C77.0226 272.271 77.7982 272.054 78.6846 272.054C79.1959 272.054 79.7009 272.139 80.1995 272.31C80.6981 272.48 81.1519 272.757 81.561 273.141C81.9701 273.52 82.2961 274.023 82.539 274.649C82.7819 275.276 82.9033 276.047 82.9033 276.963V277.602H75.3351V276.298H81.3692C81.3692 275.744 81.2584 275.25 81.0368 274.815C80.8195 274.381 80.5084 274.038 80.1036 273.786C79.703 273.535 79.23 273.409 78.6846 273.409C78.0837 273.409 77.5638 273.558 77.1249 273.857C76.6903 274.151 76.3557 274.534 76.1214 275.007C75.887 275.48 75.7698 275.987 75.7698 276.528V277.398C75.7698 278.139 75.8976 278.768 76.1533 279.283C76.4133 279.795 76.7733 280.185 77.2336 280.453C77.6938 280.717 78.2286 280.849 78.838 280.849C79.2343 280.849 79.5922 280.794 79.9118 280.683C80.2357 280.568 80.5148 280.398 80.7492 280.172C80.9836 279.942 81.1647 279.656 81.2925 279.315L82.7499 279.724C82.5965 280.219 82.3387 280.653 81.9765 281.028C81.6143 281.399 81.1668 281.689 80.6341 281.898C80.1015 282.102 79.5028 282.205 78.838 282.205ZM85.1981 282V272.182H86.6555V273.665H86.7577C86.9367 273.179 87.2606 272.785 87.7293 272.482C88.1981 272.18 88.7265 272.028 89.3145 272.028C89.4253 272.028 89.5638 272.031 89.73 272.035C89.8962 272.039 90.0219 272.045 90.1072 272.054V273.588C90.056 273.575 89.9388 273.556 89.7556 273.531C89.5766 273.501 89.387 273.486 89.1867 273.486C88.7094 273.486 88.2833 273.586 87.9083 273.786C87.5376 273.982 87.2435 274.255 87.0262 274.604C86.8131 274.95 86.7066 275.344 86.7066 275.787V282H85.1981ZM95.713 282.205C94.767 282.205 93.9509 281.996 93.2648 281.578C92.583 281.156 92.0567 280.568 91.686 279.814C91.3195 279.055 91.1363 278.173 91.1363 277.168C91.1363 276.162 91.3195 275.276 91.686 274.509C92.0567 273.737 92.5724 273.136 93.2329 272.706C93.8976 272.271 94.6732 272.054 95.5596 272.054C96.0709 272.054 96.5759 272.139 97.0745 272.31C97.5731 272.48 98.0269 272.757 98.436 273.141C98.8451 273.52 99.1711 274.023 99.414 274.649C99.6569 275.276 99.7783 276.047 99.7783 276.963V277.602H92.2101V276.298H98.2442C98.2442 275.744 98.1334 275.25 97.9118 274.815C97.6945 274.381 97.3834 274.038 96.9786 273.786C96.578 273.535 96.105 273.409 95.5596 273.409C94.9587 273.409 94.4388 273.558 93.9999 273.857C93.5653 274.151 93.2307 274.534 92.9964 275.007C92.762 275.48 92.6448 275.987 92.6448 276.528V277.398C92.6448 278.139 92.7726 278.768 93.0283 279.283C93.2883 279.795 93.6483 280.185 94.1086 280.453C94.5688 280.717 95.1036 280.849 95.713 280.849C96.1093 280.849 96.4672 280.794 96.7868 280.683C97.1107 280.568 97.3898 280.398 97.6242 280.172C97.8586 279.942 98.0397 279.656 98.1675 279.315L99.6249 279.724C99.4715 280.219 99.2137 280.653 98.8515 281.028C98.4893 281.399 98.0418 281.689 97.5091 281.898C96.9765 282.102 96.3778 282.205 95.713 282.205ZM103.582 276.094V282H102.073V272.182H103.53V273.716H103.658C103.888 273.217 104.238 272.817 104.707 272.514C105.175 272.207 105.78 272.054 106.522 272.054C107.187 272.054 107.768 272.19 108.267 272.463C108.766 272.732 109.153 273.141 109.43 273.69C109.707 274.236 109.846 274.926 109.846 275.761V282H108.337V275.864C108.337 275.092 108.137 274.491 107.736 274.061C107.336 273.626 106.786 273.409 106.087 273.409C105.606 273.409 105.175 273.513 104.796 273.722C104.421 273.931 104.125 274.236 103.908 274.636C103.69 275.037 103.582 275.523 103.582 276.094ZM116.591 282.205C115.671 282.205 114.878 281.987 114.213 281.553C113.548 281.118 113.037 280.519 112.679 279.756C112.321 278.994 112.142 278.122 112.142 277.142C112.142 276.145 112.325 275.265 112.692 274.502C113.063 273.735 113.578 273.136 114.239 272.706C114.903 272.271 115.679 272.054 116.565 272.054C117.256 272.054 117.878 272.182 118.432 272.438C118.986 272.693 119.44 273.051 119.793 273.511C120.147 273.972 120.367 274.509 120.452 275.122H118.943C118.828 274.675 118.573 274.278 118.176 273.933C117.784 273.584 117.256 273.409 116.591 273.409C116.003 273.409 115.487 273.562 115.044 273.869C114.605 274.172 114.262 274.6 114.015 275.154C113.772 275.704 113.651 276.349 113.651 277.091C113.651 277.849 113.77 278.51 114.009 279.072C114.252 279.635 114.592 280.072 115.031 280.383C115.475 280.694 115.994 280.849 116.591 280.849C116.983 280.849 117.339 280.781 117.658 280.645C117.978 280.509 118.249 280.312 118.47 280.057C118.692 279.801 118.85 279.494 118.943 279.136H120.452C120.367 279.716 120.156 280.238 119.819 280.702C119.487 281.163 119.046 281.529 118.496 281.802C117.95 282.07 117.315 282.205 116.591 282.205ZM126.774 282.205C125.828 282.205 125.011 281.996 124.325 281.578C123.644 281.156 123.117 280.568 122.747 279.814C122.38 279.055 122.197 278.173 122.197 277.168C122.197 276.162 122.38 275.276 122.747 274.509C123.117 273.737 123.633 273.136 124.293 272.706C124.958 272.271 125.734 272.054 126.62 272.054C127.131 272.054 127.636 272.139 128.135 272.31C128.634 272.48 129.087 272.757 129.497 273.141C129.906 273.52 130.232 274.023 130.475 274.649C130.717 275.276 130.839 276.047 130.839 276.963V277.602H123.271V276.298H129.305C129.305 275.744 129.194 275.25 128.972 274.815C128.755 274.381 128.444 274.038 128.039 273.786C127.639 273.535 127.166 273.409 126.62 273.409C126.019 273.409 125.499 273.558 125.06 273.857C124.626 274.151 124.291 274.534 124.057 275.007C123.823 275.48 123.705 275.987 123.705 276.528V277.398C123.705 278.139 123.833 278.768 124.089 279.283C124.349 279.795 124.709 280.185 125.169 280.453C125.629 280.717 126.164 280.849 126.774 280.849C127.17 280.849 127.528 280.794 127.847 280.683C128.171 280.568 128.45 280.398 128.685 280.172C128.919 279.942 129.1 279.656 129.228 279.315L130.685 279.724C130.532 280.219 130.274 280.653 129.912 281.028C129.55 281.399 129.102 281.689 128.57 281.898C128.037 282.102 127.438 282.205 126.774 282.205ZM142.185 282.205C141.298 282.205 140.521 281.994 139.852 281.572C139.187 281.15 138.667 280.56 138.292 279.801C137.921 279.043 137.736 278.156 137.736 277.142C137.736 276.119 137.921 275.227 138.292 274.464C138.667 273.701 139.187 273.109 139.852 272.687C140.521 272.265 141.298 272.054 142.185 272.054C143.071 272.054 143.847 272.265 144.511 272.687C145.18 273.109 145.7 273.701 146.071 274.464C146.446 275.227 146.634 276.119 146.634 277.142C146.634 278.156 146.446 279.043 146.071 279.801C145.7 280.56 145.18 281.15 144.511 281.572C143.847 281.994 143.071 282.205 142.185 282.205ZM142.185 280.849C142.858 280.849 143.412 280.677 143.847 280.332C144.281 279.987 144.603 279.533 144.812 278.97C145.021 278.408 145.125 277.798 145.125 277.142C145.125 276.486 145.021 275.874 144.812 275.308C144.603 274.741 144.281 274.283 143.847 273.933C143.412 273.584 142.858 273.409 142.185 273.409C141.511 273.409 140.957 273.584 140.523 273.933C140.088 274.283 139.766 274.741 139.558 275.308C139.349 275.874 139.244 276.486 139.244 277.142C139.244 277.798 139.349 278.408 139.558 278.97C139.766 279.533 140.088 279.987 140.523 280.332C140.957 280.677 141.511 280.849 142.185 280.849ZM153.309 272.182V273.46H148.016V272.182H153.309ZM149.601 282V270.827C149.601 270.264 149.733 269.795 149.997 269.42C150.262 269.045 150.605 268.764 151.027 268.577C151.448 268.389 151.894 268.295 152.362 268.295C152.733 268.295 153.036 268.325 153.27 268.385C153.505 268.445 153.679 268.5 153.794 268.551L153.36 269.855C153.283 269.83 153.176 269.798 153.04 269.759C152.908 269.721 152.733 269.702 152.516 269.702C152.017 269.702 151.657 269.827 151.436 270.079C151.218 270.33 151.11 270.699 151.11 271.185V282H149.601ZM40.6487 306V292.909H42.1572V297.741H42.2851C42.3959 297.571 42.5493 297.354 42.7453 297.089C42.9456 296.821 43.2311 296.582 43.6018 296.374C43.9768 296.161 44.4839 296.054 45.1231 296.054C45.9498 296.054 46.6785 296.261 47.3092 296.674C47.9399 297.087 48.4321 297.673 48.7858 298.432C49.1395 299.19 49.3163 300.085 49.3163 301.116C49.3163 302.156 49.1395 303.058 48.7858 303.82C48.4321 304.579 47.942 305.167 47.3156 305.585C46.6892 305.998 45.9669 306.205 45.1487 306.205C44.518 306.205 44.0131 306.1 43.6338 305.891C43.2545 305.678 42.9626 305.437 42.7581 305.169C42.5535 304.896 42.3959 304.67 42.2851 304.491H42.1061V306H40.6487ZM42.1317 301.091C42.1317 301.832 42.2403 302.487 42.4577 303.053C42.675 303.616 42.9925 304.057 43.4101 304.376C43.8277 304.692 44.339 304.849 44.9442 304.849C45.5748 304.849 46.1011 304.683 46.523 304.351C46.9491 304.014 47.2687 303.562 47.4818 302.996C47.6991 302.425 47.8078 301.79 47.8078 301.091C47.8078 300.401 47.7013 299.778 47.4882 299.224C47.2794 298.666 46.9619 298.225 46.5358 297.901C46.1139 297.573 45.5834 297.409 44.9442 297.409C44.3305 297.409 43.8149 297.565 43.3973 297.876C42.9797 298.183 42.6643 298.613 42.4513 299.167C42.2382 299.717 42.1317 300.358 42.1317 301.091ZM57.8113 301.986V296.182H59.3199V306H57.8113V304.338H57.7091C57.479 304.837 57.121 305.261 56.6352 305.61C56.1494 305.955 55.5358 306.128 54.7943 306.128C54.1807 306.128 53.6352 305.994 53.1579 305.725C52.6807 305.452 52.3057 305.043 52.0329 304.498C51.7602 303.948 51.6238 303.256 51.6238 302.42V296.182H53.1324V302.318C53.1324 303.034 53.3327 303.605 53.7332 304.031C54.1381 304.457 54.6537 304.67 55.2801 304.67C55.6551 304.67 56.0365 304.575 56.4243 304.383C56.8163 304.191 57.1444 303.897 57.4086 303.501C57.6771 303.104 57.8113 302.599 57.8113 301.986ZM66.0715 306.205C65.151 306.205 64.3584 305.987 63.6936 305.553C63.0289 305.118 62.5175 304.519 62.1595 303.756C61.8016 302.994 61.6226 302.122 61.6226 301.142C61.6226 300.145 61.8058 299.265 62.1723 298.502C62.5431 297.735 63.0587 297.136 63.7192 296.706C64.384 296.271 65.1595 296.054 66.0459 296.054C66.7362 296.054 67.3584 296.182 67.9124 296.438C68.4664 296.693 68.9202 297.051 69.2739 297.511C69.6276 297.972 69.847 298.509 69.9323 299.122H68.4237C68.3087 298.675 68.053 298.278 67.6567 297.933C67.2646 297.584 66.7362 297.409 66.0715 297.409C65.4834 297.409 64.9678 297.562 64.5246 297.869C64.0857 298.172 63.7426 298.6 63.4955 299.154C63.2526 299.704 63.1311 300.349 63.1311 301.091C63.1311 301.849 63.2504 302.51 63.4891 303.072C63.732 303.635 64.0729 304.072 64.5118 304.383C64.955 304.694 65.4749 304.849 66.0715 304.849C66.4635 304.849 66.8193 304.781 67.1389 304.645C67.4585 304.509 67.7291 304.312 67.9507 304.057C68.1723 303.801 68.33 303.494 68.4237 303.136H69.9323C69.847 303.716 69.6361 304.238 69.2994 304.702C68.9671 305.163 68.526 305.529 67.9763 305.802C67.4308 306.07 66.7959 306.205 66.0715 306.205ZM73.5438 302.42L73.5182 300.554H73.825L78.1205 296.182H79.987L75.4102 300.81H75.2824L73.5438 302.42ZM72.1375 306V292.909H73.646V306H72.1375ZM78.3762 306L74.5409 301.142L75.6148 300.094L80.2938 306H78.3762ZM85.6407 306.205C84.6947 306.205 83.8786 305.996 83.1926 305.578C82.5107 305.156 81.9845 304.568 81.6137 303.814C81.2472 303.055 81.064 302.173 81.064 301.168C81.064 300.162 81.2472 299.276 81.6137 298.509C81.9845 297.737 82.5001 297.136 83.1606 296.706C83.8254 296.271 84.6009 296.054 85.4873 296.054C85.9987 296.054 86.5036 296.139 87.0022 296.31C87.5008 296.48 87.9546 296.757 88.3637 297.141C88.7728 297.52 89.0988 298.023 89.3417 298.649C89.5846 299.276 89.7061 300.047 89.7061 300.963V301.602H82.1379V300.298H88.172C88.172 299.744 88.0612 299.25 87.8396 298.815C87.6222 298.381 87.3112 298.038 86.9063 297.786C86.5058 297.535 86.0328 297.409 85.4873 297.409C84.8865 297.409 84.3666 297.558 83.9276 297.857C83.493 298.151 83.1585 298.534 82.9241 299.007C82.6897 299.48 82.5725 299.987 82.5725 300.528V301.398C82.5725 302.139 82.7004 302.768 82.9561 303.283C83.216 303.795 83.5761 304.185 84.0363 304.453C84.4965 304.717 85.0313 304.849 85.6407 304.849C86.037 304.849 86.395 304.794 86.7146 304.683C87.0384 304.568 87.3176 304.398 87.5519 304.172C87.7863 303.942 87.9674 303.656 88.0953 303.315L89.5526 303.724C89.3992 304.219 89.1414 304.653 88.7792 305.028C88.417 305.399 87.9695 305.689 87.4369 305.898C86.9042 306.102 86.3055 306.205 85.6407 306.205ZM96.2707 296.182V297.46H91.1826V296.182H96.2707ZM92.6656 293.83H94.1741V303.188C94.1741 303.614 94.2359 303.933 94.3595 304.146C94.4873 304.355 94.6492 304.496 94.8453 304.568C95.0455 304.636 95.2565 304.67 95.4781 304.67C95.6443 304.67 95.7806 304.662 95.8872 304.645C95.9937 304.624 96.0789 304.607 96.1428 304.594L96.4497 305.949C96.3474 305.987 96.2046 306.026 96.0214 306.064C95.8382 306.107 95.6059 306.128 95.3247 306.128C94.8985 306.128 94.4809 306.036 94.0718 305.853C93.667 305.67 93.3303 305.391 93.0619 305.016C92.7977 304.641 92.6656 304.168 92.6656 303.597V293.83ZM107.591 306.205C106.705 306.205 105.927 305.994 105.258 305.572C104.593 305.15 104.073 304.56 103.698 303.801C103.328 303.043 103.142 302.156 103.142 301.142C103.142 300.119 103.328 299.227 103.698 298.464C104.073 297.701 104.593 297.109 105.258 296.687C105.927 296.265 106.705 296.054 107.591 296.054C108.477 296.054 109.253 296.265 109.918 296.687C110.587 297.109 111.107 297.701 111.477 298.464C111.852 299.227 112.04 300.119 112.04 301.142C112.04 302.156 111.852 303.043 111.477 303.801C111.107 304.56 110.587 305.15 109.918 305.572C109.253 305.994 108.477 306.205 107.591 306.205ZM107.591 304.849C108.264 304.849 108.818 304.677 109.253 304.332C109.688 303.987 110.009 303.533 110.218 302.97C110.427 302.408 110.531 301.798 110.531 301.142C110.531 300.486 110.427 299.874 110.218 299.308C110.009 298.741 109.688 298.283 109.253 297.933C108.818 297.584 108.264 297.409 107.591 297.409C106.918 297.409 106.364 297.584 105.929 297.933C105.494 298.283 105.173 298.741 104.964 299.308C104.755 299.874 104.651 300.486 104.651 301.142C104.651 301.798 104.755 302.408 104.964 302.97C105.173 303.533 105.494 303.987 105.929 304.332C106.364 304.677 106.918 304.849 107.591 304.849ZM115.851 300.094V306H114.343V296.182H115.8V297.716H115.928C116.158 297.217 116.507 296.817 116.976 296.514C117.445 296.207 118.05 296.054 118.791 296.054C119.456 296.054 120.038 296.19 120.536 296.463C121.035 296.732 121.423 297.141 121.7 297.69C121.977 298.236 122.115 298.926 122.115 299.761V306H120.607V299.864C120.607 299.092 120.407 298.491 120.006 298.061C119.605 297.626 119.056 297.409 118.357 297.409C117.875 297.409 117.445 297.513 117.066 297.722C116.691 297.931 116.394 298.236 116.177 298.636C115.96 299.037 115.851 299.523 115.851 300.094ZM131.443 292.909V306H129.934V292.909H131.443ZM137.095 306.23C136.473 306.23 135.908 306.113 135.401 305.879C134.894 305.64 134.491 305.297 134.193 304.849C133.895 304.398 133.746 303.852 133.746 303.213C133.746 302.651 133.856 302.195 134.078 301.845C134.3 301.491 134.596 301.214 134.967 301.014C135.337 300.814 135.746 300.665 136.194 300.567C136.646 300.464 137.099 300.384 137.555 300.324C138.152 300.247 138.636 300.19 139.006 300.151C139.381 300.109 139.654 300.038 139.824 299.94C139.999 299.842 140.087 299.672 140.087 299.429V299.378C140.087 298.747 139.914 298.257 139.569 297.908C139.228 297.558 138.71 297.384 138.016 297.384C137.295 297.384 136.731 297.541 136.322 297.857C135.913 298.172 135.625 298.509 135.459 298.866L134.027 298.355C134.283 297.759 134.623 297.294 135.05 296.962C135.48 296.625 135.949 296.391 136.456 296.259C136.967 296.122 137.47 296.054 137.964 296.054C138.28 296.054 138.642 296.092 139.051 296.169C139.464 296.241 139.863 296.393 140.246 296.623C140.634 296.853 140.956 297.2 141.212 297.665C141.467 298.129 141.595 298.751 141.595 299.531V306H140.087V304.67H140.01C139.908 304.884 139.737 305.112 139.498 305.354C139.26 305.597 138.942 305.804 138.546 305.974C138.15 306.145 137.666 306.23 137.095 306.23ZM137.325 304.875C137.922 304.875 138.425 304.758 138.834 304.523C139.247 304.289 139.558 303.987 139.767 303.616C139.98 303.245 140.087 302.855 140.087 302.446V301.065C140.023 301.142 139.882 301.212 139.665 301.276C139.452 301.336 139.204 301.389 138.923 301.436C138.646 301.479 138.376 301.517 138.111 301.551C137.851 301.581 137.641 301.607 137.479 301.628C137.087 301.679 136.72 301.762 136.379 301.877C136.043 301.988 135.77 302.156 135.561 302.382C135.356 302.604 135.254 302.906 135.254 303.29C135.254 303.814 135.448 304.21 135.836 304.479C136.228 304.743 136.724 304.875 137.325 304.875ZM144.348 309.682V296.182H145.806V297.741H145.985C146.096 297.571 146.249 297.354 146.445 297.089C146.645 296.821 146.931 296.582 147.302 296.374C147.677 296.161 148.184 296.054 148.823 296.054C149.65 296.054 150.378 296.261 151.009 296.674C151.64 297.087 152.132 297.673 152.486 298.432C152.839 299.19 153.016 300.085 153.016 301.116C153.016 302.156 152.839 303.058 152.486 303.82C152.132 304.579 151.642 305.167 151.015 305.585C150.389 305.998 149.667 306.205 148.848 306.205C148.218 306.205 147.713 306.1 147.334 305.891C146.954 305.678 146.662 305.437 146.458 305.169C146.253 304.896 146.096 304.67 145.985 304.491H145.857V309.682H144.348ZM145.831 301.091C145.831 301.832 145.94 302.487 146.157 303.053C146.375 303.616 146.692 304.057 147.11 304.376C147.527 304.692 148.039 304.849 148.644 304.849C149.275 304.849 149.801 304.683 150.223 304.351C150.649 304.014 150.968 303.562 151.182 302.996C151.399 302.425 151.508 301.79 151.508 301.091C151.508 300.401 151.401 299.778 151.188 299.224C150.979 298.666 150.662 298.225 150.236 297.901C149.814 297.573 149.283 297.409 148.644 297.409C148.03 297.409 147.515 297.565 147.097 297.876C146.679 298.183 146.364 298.613 146.151 299.167C145.938 299.717 145.831 300.358 145.831 301.091Z" fill="#1F1F1F"/>
</svg>
