<svg width="390" height="589" viewBox="0 0 390 589" fill="none" xmlns="http://www.w3.org/2000/svg">
<rect width="390" height="589" fill="#FCFCFC"/>
<path d="M150.763 86V81.0142L162.413 70.2276C163.403 69.2688 164.234 68.4059 164.905 67.6388C165.587 66.8718 166.104 66.1207 166.456 65.3857C166.807 64.6399 166.983 63.8356 166.983 62.9727C166.983 62.0138 166.764 61.1882 166.328 60.4957C165.891 59.7926 165.294 59.2546 164.538 58.8817C163.782 58.4982 162.924 58.3065 161.965 58.3065C160.964 58.3065 160.09 58.5089 159.344 58.9137C158.599 59.3185 158.023 59.8991 157.619 60.6555C157.214 61.4119 157.011 62.3121 157.011 63.3562H150.443C150.443 61.2148 150.928 59.3558 151.898 57.7791C152.867 56.2024 154.225 54.9826 155.973 54.1197C157.72 53.2567 159.733 52.8253 162.013 52.8253C164.357 52.8253 166.397 53.2408 168.133 54.0717C169.881 54.892 171.239 56.032 172.208 57.4915C173.178 58.951 173.663 60.6236 173.663 62.5092C173.663 63.745 173.418 64.9648 172.927 66.1687C172.448 67.3725 171.59 68.7095 170.355 70.1797C169.119 71.6392 167.377 73.3917 165.129 75.4371L160.351 80.1193V80.343H174.094V86H150.763ZM180.402 86L193.969 59.1534V58.9297H178.165V53.2727H201.128V59.0096L187.545 86H180.402ZM223.784 79.8636V78.1378C223.784 76.8274 224.061 75.6236 224.615 74.5263C225.18 73.4183 225.995 72.5341 227.06 71.8736C228.136 71.2024 229.446 70.8668 230.991 70.8668C232.557 70.8668 233.873 71.1971 234.938 71.8576C236.014 72.5181 236.824 73.4023 237.367 74.5103C237.921 75.6076 238.198 76.8168 238.198 78.1378V79.8636C238.198 81.174 237.921 82.3832 237.367 83.4911C236.813 84.5884 235.998 85.4673 234.922 86.1278C233.846 86.799 232.536 87.1346 230.991 87.1346C229.425 87.1346 228.109 86.799 227.044 86.1278C225.979 85.4673 225.169 84.5884 224.615 83.4911C224.061 82.3832 223.784 81.174 223.784 79.8636ZM228.434 78.1378V79.8636C228.434 80.62 228.616 81.3338 228.978 82.005C229.351 82.6761 230.022 83.0117 230.991 83.0117C231.961 83.0117 232.621 82.6815 232.973 82.021C233.335 81.3604 233.516 80.6413 233.516 79.8636V78.1378C233.516 77.3601 233.346 76.6357 233.005 75.9645C232.664 75.2933 231.993 74.9577 230.991 74.9577C230.032 74.9577 229.367 75.2933 228.994 75.9645C228.621 76.6357 228.434 77.3601 228.434 78.1378ZM206.989 61.1349V59.4091C206.989 58.0881 207.271 56.8789 207.836 55.7816C208.401 54.6736 209.216 53.7894 210.281 53.1289C211.357 52.4684 212.657 52.1381 214.18 52.1381C215.757 52.1381 217.078 52.4684 218.143 53.1289C219.209 53.7894 220.018 54.6736 220.572 55.7816C221.126 56.8789 221.403 58.0881 221.403 59.4091V61.1349C221.403 62.456 221.121 63.6651 220.556 64.7624C220.002 65.8597 219.187 66.7386 218.111 67.3991C217.046 68.049 215.736 68.3739 214.18 68.3739C212.625 68.3739 211.309 68.0437 210.233 67.3832C209.168 66.712 208.358 65.8331 207.804 64.7464C207.261 63.6491 206.989 62.4453 206.989 61.1349ZM211.671 59.4091V61.1349C211.671 61.9126 211.852 62.6317 212.215 63.2923C212.587 63.9528 213.243 64.283 214.18 64.283C215.16 64.283 215.826 63.9528 216.178 63.2923C216.54 62.6317 216.721 61.9126 216.721 61.1349V59.4091C216.721 58.6314 216.551 57.907 216.21 57.2358C215.869 56.5646 215.192 56.229 214.18 56.229C213.232 56.229 212.577 56.57 212.215 57.2518C211.852 57.9336 211.671 58.6527 211.671 59.4091ZM209.098 86L231.598 53.2727H235.785L213.285 86H209.098Z" fill="black"/>
<path d="M87.494 128.682V115.182H88.9513V116.741H89.1303C89.2411 116.571 89.3945 116.354 89.5906 116.089C89.7908 115.821 90.0763 115.582 90.4471 115.374C90.8221 115.161 91.3292 115.054 91.9684 115.054C92.7951 115.054 93.5238 115.261 94.1545 115.674C94.7852 116.087 95.2773 116.673 95.631 117.432C95.9847 118.19 96.1616 119.085 96.1616 120.116C96.1616 121.156 95.9847 122.058 95.631 122.82C95.2773 123.579 94.7873 124.167 94.1609 124.585C93.5344 124.998 92.8121 125.205 91.994 125.205C91.3633 125.205 90.8583 125.1 90.479 124.891C90.0998 124.678 89.8079 124.437 89.6033 124.169C89.3988 123.896 89.2411 123.67 89.1303 123.491H89.0025V128.682H87.494ZM88.9769 120.091C88.9769 120.832 89.0856 121.487 89.3029 122.053C89.5202 122.616 89.8377 123.057 90.2553 123.376C90.6729 123.692 91.1843 123.849 91.7894 123.849C92.4201 123.849 92.9464 123.683 93.3683 123.351C93.7944 123.014 94.114 122.562 94.3271 121.996C94.5444 121.425 94.6531 120.79 94.6531 120.091C94.6531 119.401 94.5465 118.778 94.3335 118.224C94.1246 117.666 93.8072 117.225 93.381 116.901C92.9592 116.573 92.4286 116.409 91.7894 116.409C91.1758 116.409 90.6602 116.565 90.2425 116.876C89.8249 117.183 89.5096 117.613 89.2965 118.167C89.0835 118.717 88.9769 119.358 88.9769 120.091ZM102.579 125.205C101.633 125.205 100.817 124.996 100.131 124.578C99.4492 124.156 98.9229 123.568 98.5522 122.814C98.1857 122.055 98.0025 121.173 98.0025 120.168C98.0025 119.162 98.1857 118.276 98.5522 117.509C98.9229 116.737 99.4386 116.136 100.099 115.706C100.764 115.271 101.539 115.054 102.426 115.054C102.937 115.054 103.442 115.139 103.941 115.31C104.439 115.48 104.893 115.757 105.302 116.141C105.711 116.52 106.037 117.023 106.28 117.649C106.523 118.276 106.645 119.047 106.645 119.963V120.602H99.0763V119.298H105.11C105.11 118.744 105 118.25 104.778 117.815C104.561 117.381 104.25 117.038 103.845 116.786C103.444 116.535 102.971 116.409 102.426 116.409C101.825 116.409 101.305 116.558 100.866 116.857C100.431 117.151 100.097 117.534 99.8626 118.007C99.6282 118.48 99.511 118.987 99.511 119.528V120.398C99.511 121.139 99.6388 121.768 99.8945 122.283C100.154 122.795 100.515 123.185 100.975 123.453C101.435 123.717 101.97 123.849 102.579 123.849C102.975 123.849 103.333 123.794 103.653 123.683C103.977 123.568 104.256 123.398 104.49 123.172C104.725 122.942 104.906 122.656 105.034 122.315L106.491 122.724C106.338 123.219 106.08 123.653 105.718 124.028C105.355 124.399 104.908 124.689 104.375 124.898C103.843 125.102 103.244 125.205 102.579 125.205ZM112.928 125.205C112.042 125.205 111.264 124.994 110.595 124.572C109.93 124.15 109.41 123.56 109.035 122.801C108.664 122.043 108.479 121.156 108.479 120.142C108.479 119.119 108.664 118.227 109.035 117.464C109.41 116.701 109.93 116.109 110.595 115.687C111.264 115.265 112.042 115.054 112.928 115.054C113.814 115.054 114.59 115.265 115.255 115.687C115.924 116.109 116.444 116.701 116.814 117.464C117.189 118.227 117.377 119.119 117.377 120.142C117.377 121.156 117.189 122.043 116.814 122.801C116.444 123.56 115.924 124.15 115.255 124.572C114.59 124.994 113.814 125.205 112.928 125.205ZM112.928 123.849C113.601 123.849 114.155 123.677 114.59 123.332C115.025 122.987 115.346 122.533 115.555 121.97C115.764 121.408 115.868 120.798 115.868 120.142C115.868 119.486 115.764 118.874 115.555 118.308C115.346 117.741 115.025 117.283 114.59 116.933C114.155 116.584 113.601 116.409 112.928 116.409C112.255 116.409 111.701 116.584 111.266 116.933C110.831 117.283 110.51 117.741 110.301 118.308C110.092 118.874 109.988 119.486 109.988 120.142C109.988 120.798 110.092 121.408 110.301 121.97C110.51 122.533 110.831 122.987 111.266 123.332C111.701 123.677 112.255 123.849 112.928 123.849ZM119.68 128.682V115.182H121.137V116.741H121.316C121.427 116.571 121.58 116.354 121.776 116.089C121.976 115.821 122.262 115.582 122.633 115.374C123.008 115.161 123.515 115.054 124.154 115.054C124.981 115.054 125.709 115.261 126.34 115.674C126.971 116.087 127.463 116.673 127.817 117.432C128.17 118.19 128.347 119.085 128.347 120.116C128.347 121.156 128.17 122.058 127.817 122.82C127.463 123.579 126.973 124.167 126.346 124.585C125.72 124.998 124.998 125.205 124.18 125.205C123.549 125.205 123.044 125.1 122.665 124.891C122.285 124.678 121.993 124.437 121.789 124.169C121.584 123.896 121.427 123.67 121.316 123.491H121.188V128.682H119.68ZM121.162 120.091C121.162 120.832 121.271 121.487 121.488 122.053C121.706 122.616 122.023 123.057 122.441 123.376C122.858 123.692 123.37 123.849 123.975 123.849C124.606 123.849 125.132 123.683 125.554 123.351C125.98 123.014 126.3 122.562 126.513 121.996C126.73 121.425 126.839 120.79 126.839 120.091C126.839 119.401 126.732 118.778 126.519 118.224C126.31 117.666 125.993 117.225 125.567 116.901C125.145 116.573 124.614 116.409 123.975 116.409C123.361 116.409 122.846 116.565 122.428 116.876C122.01 117.183 121.695 117.613 121.482 118.167C121.269 118.717 121.162 119.358 121.162 120.091ZM132.157 111.909V125H130.648V111.909H132.157ZM139.036 125.205C138.09 125.205 137.274 124.996 136.588 124.578C135.906 124.156 135.38 123.568 135.009 122.814C134.643 122.055 134.46 121.173 134.46 120.168C134.46 119.162 134.643 118.276 135.009 117.509C135.38 116.737 135.896 116.136 136.556 115.706C137.221 115.271 137.996 115.054 138.883 115.054C139.394 115.054 139.899 115.139 140.398 115.31C140.896 115.48 141.35 115.757 141.759 116.141C142.168 116.52 142.494 117.023 142.737 117.649C142.98 118.276 143.102 119.047 143.102 119.963V120.602H135.533V119.298H141.567C141.567 118.744 141.457 118.25 141.235 117.815C141.018 117.381 140.707 117.038 140.302 116.786C139.901 116.535 139.428 116.409 138.883 116.409C138.282 116.409 137.762 116.558 137.323 116.857C136.888 117.151 136.554 117.534 136.32 118.007C136.085 118.48 135.968 118.987 135.968 119.528V120.398C135.968 121.139 136.096 121.768 136.352 122.283C136.612 122.795 136.972 123.185 137.432 123.453C137.892 123.717 138.427 123.849 139.036 123.849C139.433 123.849 139.79 123.794 140.11 123.683C140.434 123.568 140.713 123.398 140.947 123.172C141.182 122.942 141.363 122.656 141.491 122.315L142.948 122.724C142.795 123.219 142.537 123.653 142.175 124.028C141.813 124.399 141.365 124.689 140.832 124.898C140.3 125.102 139.701 125.205 139.036 125.205ZM150.459 125V115.182H151.967V125H150.459ZM151.226 113.545C150.932 113.545 150.678 113.445 150.465 113.245C150.256 113.045 150.152 112.804 150.152 112.523C150.152 112.241 150.256 112.001 150.465 111.8C150.678 111.6 150.932 111.5 151.226 111.5C151.52 111.5 151.771 111.6 151.98 111.8C152.193 112.001 152.3 112.241 152.3 112.523C152.3 112.804 152.193 113.045 151.98 113.245C151.771 113.445 151.52 113.545 151.226 113.545ZM156.239 119.094V125H154.73V115.182H156.188V116.716H156.316C156.546 116.217 156.895 115.817 157.364 115.514C157.833 115.207 158.438 115.054 159.179 115.054C159.844 115.054 160.426 115.19 160.924 115.463C161.423 115.732 161.811 116.141 162.088 116.69C162.365 117.236 162.503 117.926 162.503 118.761V125H160.994V118.864C160.994 118.092 160.794 117.491 160.394 117.061C159.993 116.626 159.443 116.409 158.744 116.409C158.263 116.409 157.833 116.513 157.453 116.722C157.078 116.931 156.782 117.236 156.565 117.636C156.347 118.037 156.239 118.523 156.239 119.094ZM179.118 111.909H180.703V120.577C180.703 121.472 180.492 122.271 180.07 122.974C179.652 123.673 179.062 124.224 178.299 124.629C177.537 125.03 176.642 125.23 175.615 125.23C174.588 125.23 173.693 125.03 172.93 124.629C172.167 124.224 171.575 123.673 171.153 122.974C170.735 122.271 170.527 121.472 170.527 120.577V111.909H172.112V120.449C172.112 121.088 172.252 121.657 172.534 122.156C172.815 122.65 173.216 123.04 173.735 123.325C174.26 123.607 174.886 123.747 175.615 123.747C176.343 123.747 176.97 123.607 177.494 123.325C178.018 123.04 178.419 122.65 178.696 122.156C178.977 121.657 179.118 121.088 179.118 120.449V111.909ZM191.028 115.182C190.951 114.534 190.64 114.031 190.094 113.673C189.549 113.315 188.88 113.136 188.087 113.136C187.508 113.136 187.001 113.23 186.566 113.418C186.135 113.605 185.799 113.863 185.556 114.191C185.317 114.519 185.198 114.892 185.198 115.31C185.198 115.659 185.281 115.96 185.447 116.211C185.618 116.458 185.835 116.665 186.099 116.831C186.363 116.993 186.64 117.127 186.93 117.234C187.22 117.336 187.486 117.419 187.729 117.483L189.059 117.841C189.4 117.93 189.779 118.054 190.197 118.212C190.618 118.369 191.021 118.585 191.405 118.857C191.792 119.126 192.112 119.471 192.363 119.893C192.615 120.315 192.741 120.832 192.741 121.446C192.741 122.153 192.555 122.793 192.184 123.364C191.818 123.935 191.281 124.388 190.574 124.725C189.871 125.062 189.016 125.23 188.01 125.23C187.073 125.23 186.261 125.079 185.575 124.776C184.893 124.474 184.356 124.052 183.964 123.511C183.577 122.969 183.357 122.341 183.306 121.625H184.942C184.985 122.119 185.151 122.528 185.441 122.852C185.735 123.172 186.106 123.411 186.553 123.568C187.005 123.722 187.491 123.798 188.01 123.798C188.616 123.798 189.159 123.7 189.64 123.504C190.122 123.304 190.503 123.027 190.785 122.673C191.066 122.315 191.206 121.898 191.206 121.42C191.206 120.986 191.085 120.632 190.842 120.359C190.599 120.087 190.28 119.865 189.883 119.695C189.487 119.524 189.059 119.375 188.599 119.247L186.988 118.787C185.965 118.493 185.155 118.073 184.559 117.528C183.962 116.982 183.664 116.268 183.664 115.386C183.664 114.653 183.862 114.014 184.258 113.469C184.659 112.919 185.196 112.493 185.869 112.19C186.547 111.884 187.303 111.73 188.138 111.73C188.982 111.73 189.732 111.881 190.388 112.184C191.045 112.482 191.564 112.891 191.948 113.411C192.336 113.931 192.54 114.521 192.562 115.182H191.028ZM195.884 125H194.222L199.029 111.909H200.665L205.472 125H203.81L199.898 113.98H199.796L195.884 125ZM196.498 119.886H203.196V121.293H196.498V119.886ZM213.877 119.094V125H212.369V111.909H213.877V116.716H214.005C214.235 116.209 214.581 115.806 215.041 115.508C215.505 115.205 216.123 115.054 216.895 115.054C217.564 115.054 218.15 115.188 218.652 115.457C219.155 115.721 219.545 116.128 219.822 116.678C220.103 117.223 220.244 117.918 220.244 118.761V125H218.735V118.864C218.735 118.084 218.533 117.481 218.128 117.055C217.728 116.624 217.172 116.409 216.46 116.409C215.966 116.409 215.522 116.513 215.13 116.722C214.743 116.931 214.436 117.236 214.21 117.636C213.988 118.037 213.877 118.523 213.877 119.094ZM225.893 125.23C225.271 125.23 224.706 125.113 224.199 124.879C223.692 124.64 223.289 124.297 222.991 123.849C222.693 123.398 222.544 122.852 222.544 122.213C222.544 121.651 222.654 121.195 222.876 120.845C223.097 120.491 223.394 120.214 223.764 120.014C224.135 119.814 224.544 119.665 224.992 119.567C225.443 119.464 225.897 119.384 226.353 119.324C226.95 119.247 227.433 119.19 227.804 119.151C228.179 119.109 228.452 119.038 228.622 118.94C228.797 118.842 228.884 118.672 228.884 118.429V118.378C228.884 117.747 228.712 117.257 228.367 116.908C228.026 116.558 227.508 116.384 226.813 116.384C226.093 116.384 225.529 116.541 225.119 116.857C224.71 117.172 224.423 117.509 224.257 117.866L222.825 117.355C223.08 116.759 223.421 116.294 223.847 115.962C224.278 115.625 224.747 115.391 225.254 115.259C225.765 115.122 226.268 115.054 226.762 115.054C227.078 115.054 227.44 115.092 227.849 115.169C228.262 115.241 228.661 115.393 229.044 115.623C229.432 115.853 229.754 116.2 230.009 116.665C230.265 117.129 230.393 117.751 230.393 118.531V125H228.884V123.67H228.808C228.705 123.884 228.535 124.112 228.296 124.354C228.058 124.597 227.74 124.804 227.344 124.974C226.948 125.145 226.464 125.23 225.893 125.23ZM226.123 123.875C226.72 123.875 227.222 123.758 227.632 123.523C228.045 123.289 228.356 122.987 228.565 122.616C228.778 122.245 228.884 121.855 228.884 121.446V120.065C228.82 120.142 228.68 120.212 228.463 120.276C228.249 120.336 228.002 120.389 227.721 120.436C227.444 120.479 227.173 120.517 226.909 120.551C226.649 120.581 226.438 120.607 226.276 120.628C225.884 120.679 225.518 120.762 225.177 120.877C224.84 120.988 224.568 121.156 224.359 121.382C224.154 121.604 224.052 121.906 224.052 122.29C224.052 122.814 224.246 123.21 224.634 123.479C225.026 123.743 225.522 123.875 226.123 123.875ZM240.823 115.182L237.192 125H235.658L232.028 115.182H233.664L236.374 123.006H236.477L239.187 115.182H240.823ZM246.579 125.205C245.633 125.205 244.817 124.996 244.131 124.578C243.449 124.156 242.923 123.568 242.552 122.814C242.186 122.055 242.002 121.173 242.002 120.168C242.002 119.162 242.186 118.276 242.552 117.509C242.923 116.737 243.439 116.136 244.099 115.706C244.764 115.271 245.539 115.054 246.426 115.054C246.937 115.054 247.442 115.139 247.941 115.31C248.439 115.48 248.893 115.757 249.302 116.141C249.711 116.52 250.037 117.023 250.28 117.649C250.523 118.276 250.645 119.047 250.645 119.963V120.602H243.076V119.298H249.11C249.11 118.744 249 118.25 248.778 117.815C248.561 117.381 248.25 117.038 247.845 116.786C247.444 116.535 246.971 116.409 246.426 116.409C245.825 116.409 245.305 116.558 244.866 116.857C244.431 117.151 244.097 117.534 243.863 118.007C243.628 118.48 243.511 118.987 243.511 119.528V120.398C243.511 121.139 243.639 121.768 243.895 122.283C244.154 122.795 244.515 123.185 244.975 123.453C245.435 123.717 245.97 123.849 246.579 123.849C246.975 123.849 247.333 123.794 247.653 123.683C247.977 123.568 248.256 123.398 248.49 123.172C248.725 122.942 248.906 122.656 249.034 122.315L250.491 122.724C250.338 123.219 250.08 123.653 249.718 124.028C249.355 124.399 248.908 124.689 248.375 124.898C247.843 125.102 247.244 125.205 246.579 125.205ZM264.956 117.381L263.601 117.764C263.516 117.538 263.39 117.319 263.224 117.106C263.062 116.888 262.841 116.71 262.559 116.569C262.278 116.428 261.918 116.358 261.479 116.358C260.878 116.358 260.377 116.496 259.977 116.773C259.581 117.046 259.382 117.393 259.382 117.815C259.382 118.19 259.519 118.487 259.792 118.704C260.064 118.921 260.49 119.102 261.07 119.247L262.527 119.605C263.405 119.818 264.059 120.144 264.49 120.583C264.92 121.018 265.135 121.578 265.135 122.264C265.135 122.827 264.973 123.33 264.65 123.773C264.33 124.216 263.882 124.565 263.307 124.821C262.732 125.077 262.063 125.205 261.3 125.205C260.299 125.205 259.47 124.987 258.814 124.553C258.157 124.118 257.742 123.483 257.567 122.648L258.999 122.29C259.135 122.818 259.393 123.214 259.772 123.479C260.156 123.743 260.657 123.875 261.275 123.875C261.978 123.875 262.536 123.726 262.949 123.428C263.367 123.125 263.576 122.763 263.576 122.341C263.576 122 263.456 121.714 263.218 121.484C262.979 121.25 262.613 121.075 262.118 120.96L260.482 120.577C259.583 120.364 258.922 120.033 258.5 119.586C258.083 119.134 257.874 118.57 257.874 117.892C257.874 117.338 258.029 116.848 258.341 116.422C258.656 115.996 259.084 115.661 259.625 115.418C260.171 115.175 260.789 115.054 261.479 115.054C262.451 115.054 263.213 115.267 263.767 115.693C264.326 116.119 264.722 116.682 264.956 117.381ZM271.395 125.205C270.508 125.205 269.731 124.994 269.062 124.572C268.397 124.15 267.877 123.56 267.502 122.801C267.131 122.043 266.946 121.156 266.946 120.142C266.946 119.119 267.131 118.227 267.502 117.464C267.877 116.701 268.397 116.109 269.062 115.687C269.731 115.265 270.508 115.054 271.395 115.054C272.281 115.054 273.057 115.265 273.721 115.687C274.39 116.109 274.91 116.701 275.281 117.464C275.656 118.227 275.844 119.119 275.844 120.142C275.844 121.156 275.656 122.043 275.281 122.801C274.91 123.56 274.39 124.15 273.721 124.572C273.057 124.994 272.281 125.205 271.395 125.205ZM271.395 123.849C272.068 123.849 272.622 123.677 273.057 123.332C273.491 122.987 273.813 122.533 274.022 121.97C274.231 121.408 274.335 120.798 274.335 120.142C274.335 119.486 274.231 118.874 274.022 118.308C273.813 117.741 273.491 117.283 273.057 116.933C272.622 116.584 272.068 116.409 271.395 116.409C270.721 116.409 270.167 116.584 269.733 116.933C269.298 117.283 268.976 117.741 268.768 118.308C268.559 118.874 268.454 119.486 268.454 120.142C268.454 120.798 268.559 121.408 268.768 121.97C268.976 122.533 269.298 122.987 269.733 123.332C270.167 123.677 270.721 123.849 271.395 123.849ZM278.146 125V115.182H279.604V116.716H279.732C279.936 116.192 280.266 115.785 280.722 115.495C281.178 115.201 281.726 115.054 282.365 115.054C283.013 115.054 283.552 115.201 283.982 115.495C284.417 115.785 284.756 116.192 284.999 116.716H285.101C285.352 116.209 285.729 115.806 286.232 115.508C286.735 115.205 287.338 115.054 288.041 115.054C288.919 115.054 289.637 115.329 290.195 115.879C290.754 116.424 291.033 117.274 291.033 118.429V125H289.524V118.429C289.524 117.705 289.326 117.187 288.93 116.876C288.533 116.565 288.067 116.409 287.53 116.409C286.839 116.409 286.305 116.618 285.925 117.036C285.546 117.449 285.357 117.973 285.357 118.608V125H283.822V118.276C283.822 117.717 283.641 117.268 283.279 116.927C282.917 116.582 282.45 116.409 281.879 116.409C281.487 116.409 281.121 116.513 280.78 116.722C280.443 116.931 280.17 117.221 279.962 117.592C279.757 117.958 279.655 118.382 279.655 118.864V125H278.146ZM297.907 125.205C296.961 125.205 296.145 124.996 295.459 124.578C294.777 124.156 294.251 123.568 293.88 122.814C293.514 122.055 293.331 121.173 293.331 120.168C293.331 119.162 293.514 118.276 293.88 117.509C294.251 116.737 294.767 116.136 295.427 115.706C296.092 115.271 296.868 115.054 297.754 115.054C298.265 115.054 298.77 115.139 299.269 115.31C299.767 115.48 300.221 115.757 300.63 116.141C301.039 116.52 301.365 117.023 301.608 117.649C301.851 118.276 301.973 119.047 301.973 119.963V120.602H294.404V119.298H300.439C300.439 118.744 300.328 118.25 300.106 117.815C299.889 117.381 299.578 117.038 299.173 116.786C298.772 116.535 298.299 116.409 297.754 116.409C297.153 116.409 296.633 116.558 296.194 116.857C295.76 117.151 295.425 117.534 295.191 118.007C294.956 118.48 294.839 118.987 294.839 119.528V120.398C294.839 121.139 294.967 121.768 295.223 122.283C295.483 122.795 295.843 123.185 296.303 123.453C296.763 123.717 297.298 123.849 297.907 123.849C298.304 123.849 298.662 123.794 298.981 123.683C299.305 123.568 299.584 123.398 299.819 123.172C300.053 122.942 300.234 122.656 300.362 122.315L301.819 122.724C301.666 123.219 301.408 123.653 301.046 124.028C300.684 124.399 300.236 124.689 299.703 124.898C299.171 125.102 298.572 125.205 297.907 125.205ZM127.95 143.42L127.924 141.554H128.231L132.527 137.182H134.393L129.816 141.81H129.689L127.95 143.42ZM126.544 147V133.909H128.052V147H126.544ZM132.782 147L128.947 142.142L130.021 141.094L134.7 147H132.782ZM136.335 147V137.182H137.843V147H136.335ZM137.102 135.545C136.808 135.545 136.554 135.445 136.341 135.245C136.132 135.045 136.028 134.804 136.028 134.523C136.028 134.241 136.132 134.001 136.341 133.8C136.554 133.6 136.808 133.5 137.102 133.5C137.396 133.5 137.647 133.6 137.856 133.8C138.069 134.001 138.176 134.241 138.176 134.523C138.176 134.804 138.069 135.045 137.856 135.245C137.647 135.445 137.396 135.545 137.102 135.545ZM142.115 141.094V147H140.606V137.182H142.064V138.716H142.191C142.422 138.217 142.771 137.817 143.24 137.514C143.709 137.207 144.314 137.054 145.055 137.054C145.72 137.054 146.302 137.19 146.8 137.463C147.299 137.732 147.687 138.141 147.964 138.69C148.241 139.236 148.379 139.926 148.379 140.761V147H146.87V140.864C146.87 140.092 146.67 139.491 146.27 139.061C145.869 138.626 145.319 138.409 144.62 138.409C144.139 138.409 143.709 138.513 143.329 138.722C142.954 138.931 142.658 139.236 142.441 139.636C142.223 140.037 142.115 140.523 142.115 141.094ZM154.843 147.205C154.025 147.205 153.302 146.998 152.676 146.585C152.05 146.167 151.56 145.579 151.206 144.82C150.852 144.058 150.675 143.156 150.675 142.116C150.675 141.085 150.852 140.19 151.206 139.432C151.56 138.673 152.052 138.087 152.682 137.674C153.313 137.261 154.042 137.054 154.869 137.054C155.508 137.054 156.013 137.161 156.383 137.374C156.758 137.582 157.044 137.821 157.24 138.089C157.44 138.354 157.596 138.571 157.707 138.741H157.834V133.909H159.343V147H157.886V145.491H157.707C157.596 145.67 157.438 145.896 157.234 146.169C157.029 146.437 156.737 146.678 156.358 146.891C155.979 147.1 155.474 147.205 154.843 147.205ZM155.047 145.849C155.653 145.849 156.164 145.692 156.582 145.376C156.999 145.057 157.317 144.616 157.534 144.053C157.751 143.487 157.86 142.832 157.86 142.091C157.86 141.358 157.753 140.717 157.54 140.167C157.327 139.613 157.012 139.183 156.594 138.876C156.177 138.565 155.661 138.409 155.047 138.409C154.408 138.409 153.876 138.573 153.449 138.901C153.028 139.225 152.71 139.666 152.497 140.224C152.288 140.778 152.184 141.401 152.184 142.091C152.184 142.79 152.29 143.425 152.503 143.996C152.721 144.562 153.04 145.014 153.462 145.351C153.888 145.683 154.417 145.849 155.047 145.849ZM171.366 147.205C170.48 147.205 169.702 146.994 169.033 146.572C168.369 146.15 167.849 145.56 167.474 144.801C167.103 144.043 166.918 143.156 166.918 142.142C166.918 141.119 167.103 140.227 167.474 139.464C167.849 138.701 168.369 138.109 169.033 137.687C169.702 137.265 170.48 137.054 171.366 137.054C172.253 137.054 173.028 137.265 173.693 137.687C174.362 138.109 174.882 138.701 175.253 139.464C175.628 140.227 175.815 141.119 175.815 142.142C175.815 143.156 175.628 144.043 175.253 144.801C174.882 145.56 174.362 146.15 173.693 146.572C173.028 146.994 172.253 147.205 171.366 147.205ZM171.366 145.849C172.04 145.849 172.594 145.677 173.028 145.332C173.463 144.987 173.785 144.533 173.994 143.97C174.202 143.408 174.307 142.798 174.307 142.142C174.307 141.486 174.202 140.874 173.994 140.308C173.785 139.741 173.463 139.283 173.028 138.933C172.594 138.584 172.04 138.409 171.366 138.409C170.693 138.409 170.139 138.584 169.704 138.933C169.27 139.283 168.948 139.741 168.739 140.308C168.53 140.874 168.426 141.486 168.426 142.142C168.426 142.798 168.53 143.408 168.739 143.97C168.948 144.533 169.27 144.987 169.704 145.332C170.139 145.677 170.693 145.849 171.366 145.849ZM182.49 137.182V138.46H177.198V137.182H182.49ZM178.783 147V135.827C178.783 135.264 178.915 134.795 179.179 134.42C179.443 134.045 179.786 133.764 180.208 133.577C180.63 133.389 181.075 133.295 181.544 133.295C181.915 133.295 182.217 133.325 182.452 133.385C182.686 133.445 182.861 133.5 182.976 133.551L182.541 134.855C182.465 134.83 182.358 134.798 182.222 134.759C182.09 134.721 181.915 134.702 181.698 134.702C181.199 134.702 180.839 134.827 180.617 135.079C180.4 135.33 180.291 135.699 180.291 136.185V147H178.783ZM193.374 147.205C192.556 147.205 191.834 146.998 191.207 146.585C190.581 146.167 190.091 145.579 189.737 144.82C189.383 144.058 189.207 143.156 189.207 142.116C189.207 141.085 189.383 140.19 189.737 139.432C190.091 138.673 190.583 138.087 191.214 137.674C191.844 137.261 192.573 137.054 193.4 137.054C194.039 137.054 194.544 137.161 194.915 137.374C195.29 137.582 195.575 137.821 195.771 138.089C195.972 138.354 196.127 138.571 196.238 138.741H196.366V133.909H197.874V147H196.417V145.491H196.238C196.127 145.67 195.969 145.896 195.765 146.169C195.56 146.437 195.268 146.678 194.889 146.891C194.51 147.1 194.005 147.205 193.374 147.205ZM193.579 145.849C194.184 145.849 194.695 145.692 195.113 145.376C195.53 145.057 195.848 144.616 196.065 144.053C196.283 143.487 196.391 142.832 196.391 142.091C196.391 141.358 196.285 140.717 196.072 140.167C195.859 139.613 195.543 139.183 195.126 138.876C194.708 138.565 194.192 138.409 193.579 138.409C192.94 138.409 192.407 138.573 191.981 138.901C191.559 139.225 191.241 139.666 191.028 140.224C190.82 140.778 190.715 141.401 190.715 142.091C190.715 142.79 190.822 143.425 191.035 143.996C191.252 144.562 191.572 145.014 191.994 145.351C192.42 145.683 192.948 145.849 193.579 145.849ZM200.847 147V137.182H202.355V147H200.847ZM201.614 135.545C201.32 135.545 201.066 135.445 200.853 135.245C200.644 135.045 200.54 134.804 200.54 134.523C200.54 134.241 200.644 134.001 200.853 133.8C201.066 133.6 201.32 133.5 201.614 133.5C201.908 133.5 202.159 133.6 202.368 133.8C202.581 134.001 202.687 134.241 202.687 134.523C202.687 134.804 202.581 135.045 202.368 135.245C202.159 135.445 201.908 135.545 201.614 135.545ZM212.073 139.381L210.717 139.764C210.632 139.538 210.506 139.319 210.34 139.106C210.178 138.888 209.957 138.71 209.676 138.569C209.394 138.428 209.034 138.358 208.595 138.358C207.994 138.358 207.494 138.496 207.093 138.773C206.697 139.046 206.499 139.393 206.499 139.815C206.499 140.19 206.635 140.487 206.908 140.704C207.18 140.921 207.607 141.102 208.186 141.247L209.644 141.605C210.521 141.818 211.176 142.144 211.606 142.583C212.036 143.018 212.252 143.578 212.252 144.264C212.252 144.827 212.09 145.33 211.766 145.773C211.446 146.216 210.999 146.565 210.423 146.821C209.848 147.077 209.179 147.205 208.416 147.205C207.415 147.205 206.586 146.987 205.93 146.553C205.274 146.118 204.858 145.483 204.683 144.648L206.115 144.29C206.252 144.818 206.509 145.214 206.889 145.479C207.272 145.743 207.773 145.875 208.391 145.875C209.094 145.875 209.652 145.726 210.065 145.428C210.483 145.125 210.692 144.763 210.692 144.341C210.692 144 210.573 143.714 210.334 143.484C210.095 143.25 209.729 143.075 209.234 142.96L207.598 142.577C206.699 142.364 206.038 142.033 205.617 141.586C205.199 141.134 204.99 140.57 204.99 139.892C204.99 139.338 205.146 138.848 205.457 138.422C205.772 137.996 206.2 137.661 206.742 137.418C207.287 137.175 207.905 137.054 208.595 137.054C209.567 137.054 210.33 137.267 210.884 137.693C211.442 138.119 211.838 138.682 212.073 139.381ZM217.411 147.23C216.789 147.23 216.225 147.113 215.718 146.879C215.21 146.64 214.808 146.297 214.509 145.849C214.211 145.398 214.062 144.852 214.062 144.213C214.062 143.651 214.173 143.195 214.394 142.845C214.616 142.491 214.912 142.214 215.283 142.014C215.654 141.814 216.063 141.665 216.51 141.567C216.962 141.464 217.416 141.384 217.872 141.324C218.468 141.247 218.952 141.19 219.323 141.151C219.698 141.109 219.97 141.038 220.141 140.94C220.316 140.842 220.403 140.672 220.403 140.429V140.378C220.403 139.747 220.23 139.257 219.885 138.908C219.544 138.558 219.027 138.384 218.332 138.384C217.612 138.384 217.047 138.541 216.638 138.857C216.229 139.172 215.941 139.509 215.775 139.866L214.343 139.355C214.599 138.759 214.94 138.294 215.366 137.962C215.796 137.625 216.265 137.391 216.772 137.259C217.284 137.122 217.786 137.054 218.281 137.054C218.596 137.054 218.958 137.092 219.367 137.169C219.781 137.241 220.179 137.393 220.563 137.623C220.951 137.853 221.272 138.2 221.528 138.665C221.784 139.129 221.911 139.751 221.911 140.531V147H220.403V145.67H220.326C220.224 145.884 220.054 146.112 219.815 146.354C219.576 146.597 219.259 146.804 218.862 146.974C218.466 147.145 217.983 147.23 217.411 147.23ZM217.642 145.875C218.238 145.875 218.741 145.758 219.15 145.523C219.563 145.289 219.875 144.987 220.083 144.616C220.296 144.245 220.403 143.855 220.403 143.446V142.065C220.339 142.142 220.198 142.212 219.981 142.276C219.768 142.336 219.521 142.389 219.24 142.436C218.963 142.479 218.692 142.517 218.428 142.551C218.168 142.581 217.957 142.607 217.795 142.628C217.403 142.679 217.036 142.762 216.696 142.877C216.359 142.988 216.086 143.156 215.877 143.382C215.673 143.604 215.571 143.906 215.571 144.29C215.571 144.814 215.764 145.21 216.152 145.479C216.544 145.743 217.041 145.875 217.642 145.875ZM224.869 147V133.909H226.378V138.741H226.506C226.617 138.571 226.77 138.354 226.966 138.089C227.166 137.821 227.452 137.582 227.823 137.374C228.198 137.161 228.705 137.054 229.344 137.054C230.171 137.054 230.899 137.261 231.53 137.674C232.161 138.087 232.653 138.673 233.006 139.432C233.36 140.19 233.537 141.085 233.537 142.116C233.537 143.156 233.36 144.058 233.006 144.82C232.653 145.579 232.163 146.167 231.536 146.585C230.91 146.998 230.188 147.205 229.369 147.205C228.739 147.205 228.234 147.1 227.854 146.891C227.475 146.678 227.183 146.437 226.979 146.169C226.774 145.896 226.617 145.67 226.506 145.491H226.327V147H224.869ZM226.352 142.091C226.352 142.832 226.461 143.487 226.678 144.053C226.896 144.616 227.213 145.057 227.631 145.376C228.048 145.692 228.56 145.849 229.165 145.849C229.796 145.849 230.322 145.683 230.744 145.351C231.17 145.014 231.489 144.562 231.703 143.996C231.92 143.425 232.028 142.79 232.028 142.091C232.028 141.401 231.922 140.778 231.709 140.224C231.5 139.666 231.183 139.225 230.756 138.901C230.335 138.573 229.804 138.409 229.165 138.409C228.551 138.409 228.036 138.565 227.618 138.876C227.2 139.183 226.885 139.613 226.672 140.167C226.459 140.717 226.352 141.358 226.352 142.091ZM235.845 147V137.182H237.353V147H235.845ZM236.612 135.545C236.318 135.545 236.064 135.445 235.851 135.245C235.642 135.045 235.538 134.804 235.538 134.523C235.538 134.241 235.642 134.001 235.851 133.8C236.064 133.6 236.318 133.5 236.612 133.5C236.906 133.5 237.157 133.6 237.366 133.8C237.579 134.001 237.685 134.241 237.685 134.523C237.685 134.804 237.579 135.045 237.366 135.245C237.157 135.445 236.906 135.545 236.612 135.545ZM241.625 133.909V147H240.116V133.909H241.625ZM244.388 147V137.182H245.896V147H244.388ZM245.155 135.545C244.861 135.545 244.607 135.445 244.394 135.245C244.185 135.045 244.081 134.804 244.081 134.523C244.081 134.241 244.185 134.001 244.394 133.8C244.607 133.6 244.861 133.5 245.155 133.5C245.449 133.5 245.7 133.6 245.909 133.8C246.122 134.001 246.228 134.241 246.228 134.523C246.228 134.804 246.122 135.045 245.909 135.245C245.7 135.445 245.449 135.545 245.155 135.545ZM252.929 137.182V138.46H247.841V137.182H252.929ZM249.324 134.83H250.832V144.188C250.832 144.614 250.894 144.933 251.018 145.146C251.146 145.355 251.307 145.496 251.503 145.568C251.704 145.636 251.915 145.67 252.136 145.67C252.302 145.67 252.439 145.662 252.545 145.645C252.652 145.624 252.737 145.607 252.801 145.594L253.108 146.949C253.006 146.987 252.863 147.026 252.68 147.064C252.496 147.107 252.264 147.128 251.983 147.128C251.557 147.128 251.139 147.036 250.73 146.853C250.325 146.67 249.989 146.391 249.72 146.016C249.456 145.641 249.324 145.168 249.324 144.597V134.83ZM256.17 150.682C255.914 150.682 255.686 150.661 255.486 150.618C255.285 150.58 255.147 150.541 255.07 150.503L255.454 149.173C255.82 149.267 256.144 149.301 256.425 149.276C256.707 149.25 256.956 149.124 257.173 148.898C257.395 148.677 257.597 148.317 257.78 147.818L258.062 147.051L254.431 137.182H256.067L258.778 145.006H258.88L261.59 137.182H263.226L259.059 148.432C258.871 148.939 258.639 149.359 258.362 149.691C258.085 150.028 257.763 150.277 257.397 150.439C257.035 150.601 256.626 150.682 256.17 150.682Z" fill="#4D4D4D"/>
<path d="M152.208 249.273V282H145.288V255.841H145.097L137.602 260.539V254.402L145.704 249.273H152.208ZM159.986 282V277.014L171.636 266.228C172.626 265.269 173.457 264.406 174.129 263.639C174.81 262.872 175.327 262.121 175.679 261.386C176.03 260.64 176.206 259.836 176.206 258.973C176.206 258.014 175.988 257.188 175.551 256.496C175.114 255.793 174.517 255.255 173.761 254.882C173.005 254.498 172.147 254.306 171.188 254.306C170.187 254.306 169.313 254.509 168.568 254.914C167.822 255.319 167.246 255.899 166.842 256.656C166.437 257.412 166.234 258.312 166.234 259.356H159.667C159.667 257.215 160.151 255.356 161.121 253.779C162.09 252.202 163.449 250.983 165.196 250.12C166.943 249.257 168.956 248.825 171.236 248.825C173.58 248.825 175.62 249.241 177.357 250.072C179.104 250.892 180.462 252.032 181.432 253.491C182.401 254.951 182.886 256.624 182.886 258.509C182.886 259.745 182.641 260.965 182.151 262.169C181.671 263.373 180.814 264.71 179.578 266.18C178.342 267.639 176.6 269.392 174.352 271.437L169.574 276.119V276.343H183.317V282H159.986ZM192.374 282.415C191.319 282.415 190.414 282.043 189.657 281.297C188.912 280.54 188.539 279.635 188.539 278.58C188.539 277.536 188.912 276.641 189.657 275.896C190.414 275.15 191.319 274.777 192.374 274.777C193.397 274.777 194.292 275.15 195.059 275.896C195.826 276.641 196.209 277.536 196.209 278.58C196.209 279.283 196.028 279.928 195.666 280.514C195.314 281.089 194.851 281.553 194.276 281.904C193.7 282.245 193.066 282.415 192.374 282.415ZM211.886 249.273V282H204.966V255.841H204.774L197.28 260.539V254.402L205.382 249.273H211.886ZM237.578 275.864V274.138C237.578 272.827 237.855 271.624 238.409 270.526C238.973 269.418 239.788 268.534 240.854 267.874C241.93 267.202 243.24 266.867 244.785 266.867C246.351 266.867 247.666 267.197 248.732 267.858C249.808 268.518 250.617 269.402 251.161 270.51C251.715 271.608 251.992 272.817 251.992 274.138V275.864C251.992 277.174 251.715 278.383 251.161 279.491C250.607 280.588 249.792 281.467 248.716 282.128C247.64 282.799 246.329 283.135 244.785 283.135C243.219 283.135 241.903 282.799 240.838 282.128C239.772 281.467 238.963 280.588 238.409 279.491C237.855 278.383 237.578 277.174 237.578 275.864ZM242.228 274.138V275.864C242.228 276.62 242.409 277.334 242.771 278.005C243.144 278.676 243.815 279.012 244.785 279.012C245.754 279.012 246.415 278.681 246.766 278.021C247.128 277.36 247.31 276.641 247.31 275.864V274.138C247.31 273.36 247.139 272.636 246.798 271.964C246.457 271.293 245.786 270.958 244.785 270.958C243.826 270.958 243.16 271.293 242.787 271.964C242.414 272.636 242.228 273.36 242.228 274.138ZM220.783 257.135V255.409C220.783 254.088 221.065 252.879 221.629 251.782C222.194 250.674 223.009 249.789 224.074 249.129C225.15 248.468 226.45 248.138 227.974 248.138C229.55 248.138 230.871 248.468 231.937 249.129C233.002 249.789 233.812 250.674 234.366 251.782C234.92 252.879 235.197 254.088 235.197 255.409V257.135C235.197 258.456 234.914 259.665 234.35 260.762C233.796 261.86 232.981 262.739 231.905 263.399C230.839 264.049 229.529 264.374 227.974 264.374C226.418 264.374 225.102 264.044 224.027 263.383C222.961 262.712 222.152 261.833 221.598 260.746C221.054 259.649 220.783 258.445 220.783 257.135ZM225.465 255.409V257.135C225.465 257.913 225.646 258.632 226.008 259.292C226.381 259.953 227.036 260.283 227.974 260.283C228.954 260.283 229.62 259.953 229.971 259.292C230.333 258.632 230.514 257.913 230.514 257.135V255.409C230.514 254.631 230.344 253.907 230.003 253.236C229.662 252.565 228.986 252.229 227.974 252.229C227.025 252.229 226.37 252.57 226.008 253.252C225.646 253.934 225.465 254.653 225.465 255.409ZM222.892 282L245.392 249.273H249.579L227.079 282H222.892Z" fill="black"/>
<path d="M107.867 313.381L106.512 313.764C106.427 313.538 106.301 313.319 106.135 313.106C105.973 312.888 105.752 312.71 105.47 312.569C105.189 312.428 104.829 312.358 104.39 312.358C103.789 312.358 103.289 312.496 102.888 312.773C102.492 313.046 102.294 313.393 102.294 313.815C102.294 314.19 102.43 314.487 102.703 314.704C102.975 314.921 103.402 315.102 103.981 315.247L105.438 315.605C106.316 315.818 106.97 316.144 107.401 316.583C107.831 317.018 108.046 317.578 108.046 318.264C108.046 318.827 107.884 319.33 107.561 319.773C107.241 320.216 106.794 320.565 106.218 320.821C105.643 321.077 104.974 321.205 104.211 321.205C103.21 321.205 102.381 320.987 101.725 320.553C101.068 320.118 100.653 319.483 100.478 318.648L101.91 318.29C102.046 318.818 102.304 319.214 102.684 319.479C103.067 319.743 103.568 319.875 104.186 319.875C104.889 319.875 105.447 319.726 105.86 319.428C106.278 319.125 106.487 318.763 106.487 318.341C106.487 318 106.367 317.714 106.129 317.484C105.89 317.25 105.524 317.075 105.029 316.96L103.393 316.577C102.494 316.364 101.833 316.033 101.411 315.586C100.994 315.134 100.785 314.57 100.785 313.892C100.785 313.338 100.941 312.848 101.252 312.422C101.567 311.996 101.995 311.661 102.536 311.418C103.082 311.175 103.7 311.054 104.39 311.054C105.362 311.054 106.125 311.267 106.679 311.693C107.237 312.119 107.633 312.682 107.867 313.381ZM114.434 321.205C113.488 321.205 112.672 320.996 111.986 320.578C111.304 320.156 110.777 319.568 110.407 318.814C110.04 318.055 109.857 317.173 109.857 316.168C109.857 315.162 110.04 314.276 110.407 313.509C110.777 312.737 111.293 312.136 111.954 311.706C112.618 311.271 113.394 311.054 114.28 311.054C114.792 311.054 115.297 311.139 115.795 311.31C116.294 311.48 116.748 311.757 117.157 312.141C117.566 312.52 117.892 313.023 118.135 313.649C118.378 314.276 118.499 315.047 118.499 315.963V316.602H110.931V315.298H116.965C116.965 314.744 116.854 314.25 116.633 313.815C116.415 313.381 116.104 313.038 115.699 312.786C115.299 312.535 114.826 312.409 114.28 312.409C113.679 312.409 113.16 312.558 112.721 312.857C112.286 313.151 111.951 313.534 111.717 314.007C111.483 314.48 111.366 314.987 111.366 315.528V316.398C111.366 317.139 111.493 317.768 111.749 318.283C112.009 318.795 112.369 319.185 112.829 319.453C113.29 319.717 113.824 319.849 114.434 319.849C114.83 319.849 115.188 319.794 115.508 319.683C115.831 319.568 116.111 319.398 116.345 319.172C116.579 318.942 116.76 318.656 116.888 318.315L118.346 318.724C118.192 319.219 117.934 319.653 117.572 320.028C117.21 320.399 116.763 320.689 116.23 320.898C115.697 321.102 115.098 321.205 114.434 321.205ZM120.794 321V311.182H122.251V312.665H122.353C122.532 312.179 122.856 311.785 123.325 311.482C123.794 311.18 124.322 311.028 124.91 311.028C125.021 311.028 125.16 311.031 125.326 311.035C125.492 311.039 125.618 311.045 125.703 311.054V312.588C125.652 312.575 125.535 312.556 125.351 312.531C125.172 312.501 124.983 312.486 124.782 312.486C124.305 312.486 123.879 312.586 123.504 312.786C123.133 312.982 122.839 313.255 122.622 313.604C122.409 313.95 122.302 314.344 122.302 314.787V321H120.794ZM127.491 321V311.182H129V321H127.491ZM128.258 309.545C127.964 309.545 127.71 309.445 127.497 309.245C127.289 309.045 127.184 308.804 127.184 308.523C127.184 308.241 127.289 308.001 127.497 307.8C127.71 307.6 127.964 307.5 128.258 307.5C128.552 307.5 128.804 307.6 129.012 307.8C129.225 308.001 129.332 308.241 129.332 308.523C129.332 308.804 129.225 309.045 129.012 309.245C128.804 309.445 128.552 309.545 128.258 309.545ZM135.751 321.205C134.865 321.205 134.087 320.994 133.418 320.572C132.753 320.15 132.233 319.56 131.858 318.801C131.488 318.043 131.302 317.156 131.302 316.142C131.302 315.119 131.488 314.227 131.858 313.464C132.233 312.701 132.753 312.109 133.418 311.687C134.087 311.265 134.865 311.054 135.751 311.054C136.638 311.054 137.413 311.265 138.078 311.687C138.747 312.109 139.267 312.701 139.638 313.464C140.013 314.227 140.2 315.119 140.2 316.142C140.2 317.156 140.013 318.043 139.638 318.801C139.267 319.56 138.747 320.15 138.078 320.572C137.413 320.994 136.638 321.205 135.751 321.205ZM135.751 319.849C136.424 319.849 136.978 319.677 137.413 319.332C137.848 318.987 138.169 318.533 138.378 317.97C138.587 317.408 138.691 316.798 138.691 316.142C138.691 315.486 138.587 314.874 138.378 314.308C138.169 313.741 137.848 313.283 137.413 312.933C136.978 312.584 136.424 312.409 135.751 312.409C135.078 312.409 134.524 312.584 134.089 312.933C133.655 313.283 133.333 313.741 133.124 314.308C132.915 314.874 132.811 315.486 132.811 316.142C132.811 316.798 132.915 317.408 133.124 317.97C133.333 318.533 133.655 318.987 134.089 319.332C134.524 319.677 135.078 319.849 135.751 319.849ZM148.69 316.986V311.182H150.199V321H148.69V319.338H148.588C148.358 319.837 148 320.261 147.514 320.61C147.028 320.955 146.415 321.128 145.673 321.128C145.06 321.128 144.514 320.994 144.037 320.725C143.56 320.452 143.185 320.043 142.912 319.498C142.639 318.948 142.503 318.256 142.503 317.42V311.182H144.011V317.318C144.011 318.034 144.212 318.605 144.612 319.031C145.017 319.457 145.533 319.67 146.159 319.67C146.534 319.67 146.915 319.575 147.303 319.383C147.695 319.191 148.023 318.897 148.288 318.501C148.556 318.104 148.69 317.599 148.69 316.986ZM159.916 313.381L158.561 313.764C158.476 313.538 158.35 313.319 158.184 313.106C158.022 312.888 157.801 312.71 157.519 312.569C157.238 312.428 156.878 312.358 156.439 312.358C155.838 312.358 155.337 312.496 154.937 312.773C154.541 313.046 154.342 313.393 154.342 313.815C154.342 314.19 154.479 314.487 154.752 314.704C155.024 314.921 155.45 315.102 156.03 315.247L157.487 315.605C158.365 315.818 159.019 316.144 159.45 316.583C159.88 317.018 160.095 317.578 160.095 318.264C160.095 318.827 159.933 319.33 159.609 319.773C159.29 320.216 158.842 320.565 158.267 320.821C157.692 321.077 157.023 321.205 156.26 321.205C155.259 321.205 154.43 320.987 153.774 320.553C153.117 320.118 152.702 319.483 152.527 318.648L153.959 318.29C154.095 318.818 154.353 319.214 154.732 319.479C155.116 319.743 155.617 319.875 156.234 319.875C156.938 319.875 157.496 319.726 157.909 319.428C158.327 319.125 158.536 318.763 158.536 318.341C158.536 318 158.416 317.714 158.178 317.484C157.939 317.25 157.573 317.075 157.078 316.96L155.442 316.577C154.543 316.364 153.882 316.033 153.46 315.586C153.043 315.134 152.834 314.57 152.834 313.892C152.834 313.338 152.989 312.848 153.301 312.422C153.616 311.996 154.044 311.661 154.585 311.418C155.131 311.175 155.749 311.054 156.439 311.054C157.411 311.054 158.173 311.267 158.727 311.693C159.286 312.119 159.682 312.682 159.916 313.381ZM167.429 321V311.182H168.886V312.716H169.014C169.218 312.192 169.549 311.785 170.005 311.495C170.46 311.201 171.008 311.054 171.647 311.054C172.295 311.054 172.834 311.201 173.264 311.495C173.699 311.785 174.038 312.192 174.281 312.716H174.383C174.634 312.209 175.012 311.806 175.514 311.508C176.017 311.205 176.62 311.054 177.323 311.054C178.201 311.054 178.919 311.329 179.478 311.879C180.036 312.424 180.315 313.274 180.315 314.429V321H178.806V314.429C178.806 313.705 178.608 313.187 178.212 312.876C177.816 312.565 177.349 312.409 176.812 312.409C176.122 312.409 175.587 312.618 175.208 313.036C174.828 313.449 174.639 313.973 174.639 314.608V321H173.105V314.276C173.105 313.717 172.924 313.268 172.561 312.927C172.199 312.582 171.733 312.409 171.161 312.409C170.769 312.409 170.403 312.513 170.062 312.722C169.725 312.931 169.453 313.221 169.244 313.592C169.039 313.958 168.937 314.382 168.937 314.864V321H167.429ZM187.062 321.205C186.175 321.205 185.398 320.994 184.729 320.572C184.064 320.15 183.544 319.56 183.169 318.801C182.798 318.043 182.613 317.156 182.613 316.142C182.613 315.119 182.798 314.227 183.169 313.464C183.544 312.701 184.064 312.109 184.729 311.687C185.398 311.265 186.175 311.054 187.062 311.054C187.948 311.054 188.724 311.265 189.388 311.687C190.057 312.109 190.577 312.701 190.948 313.464C191.323 314.227 191.511 315.119 191.511 316.142C191.511 317.156 191.323 318.043 190.948 318.801C190.577 319.56 190.057 320.15 189.388 320.572C188.724 320.994 187.948 321.205 187.062 321.205ZM187.062 319.849C187.735 319.849 188.289 319.677 188.724 319.332C189.158 318.987 189.48 318.533 189.689 317.97C189.898 317.408 190.002 316.798 190.002 316.142C190.002 315.486 189.898 314.874 189.689 314.308C189.48 313.741 189.158 313.283 188.724 312.933C188.289 312.584 187.735 312.409 187.062 312.409C186.388 312.409 185.834 312.584 185.4 312.933C184.965 313.283 184.643 313.741 184.435 314.308C184.226 314.874 184.121 315.486 184.121 316.142C184.121 316.798 184.226 317.408 184.435 317.97C184.643 318.533 184.965 318.987 185.4 319.332C185.834 319.677 186.388 319.849 187.062 319.849ZM194.018 321V307.909H195.526V312.741H195.654C195.765 312.571 195.918 312.354 196.114 312.089C196.315 311.821 196.6 311.582 196.971 311.374C197.346 311.161 197.853 311.054 198.492 311.054C199.319 311.054 200.048 311.261 200.678 311.674C201.309 312.087 201.801 312.673 202.155 313.432C202.509 314.19 202.685 315.085 202.685 316.116C202.685 317.156 202.509 318.058 202.155 318.82C201.801 319.579 201.311 320.167 200.685 320.585C200.058 320.998 199.336 321.205 198.518 321.205C197.887 321.205 197.382 321.1 197.003 320.891C196.624 320.678 196.332 320.437 196.127 320.169C195.923 319.896 195.765 319.67 195.654 319.491H195.475V321H194.018ZM195.501 316.091C195.501 316.832 195.609 317.487 195.827 318.053C196.044 318.616 196.362 319.057 196.779 319.376C197.197 319.692 197.708 319.849 198.313 319.849C198.944 319.849 199.47 319.683 199.892 319.351C200.318 319.014 200.638 318.562 200.851 317.996C201.068 317.425 201.177 316.79 201.177 316.091C201.177 315.401 201.07 314.778 200.857 314.224C200.649 313.666 200.331 313.225 199.905 312.901C199.483 312.573 198.953 312.409 198.313 312.409C197.7 312.409 197.184 312.565 196.766 312.876C196.349 313.183 196.033 313.613 195.82 314.167C195.607 314.717 195.501 315.358 195.501 316.091ZM204.993 321V311.182H206.502V321H204.993ZM205.76 309.545C205.466 309.545 205.212 309.445 204.999 309.245C204.791 309.045 204.686 308.804 204.686 308.523C204.686 308.241 204.791 308.001 204.999 307.8C205.212 307.6 205.466 307.5 205.76 307.5C206.054 307.5 206.305 307.6 206.514 307.8C206.727 308.001 206.834 308.241 206.834 308.523C206.834 308.804 206.727 309.045 206.514 309.245C206.305 309.445 206.054 309.545 205.76 309.545ZM210.773 307.909V321H209.264V307.909H210.773ZM213.536 321V311.182H215.044V321H213.536ZM214.303 309.545C214.009 309.545 213.755 309.445 213.542 309.245C213.334 309.045 213.229 308.804 213.229 308.523C213.229 308.241 213.334 308.001 213.542 307.8C213.755 307.6 214.009 307.5 214.303 307.5C214.597 307.5 214.848 307.6 215.057 307.8C215.27 308.001 215.377 308.241 215.377 308.523C215.377 308.804 215.27 309.045 215.057 309.245C214.848 309.445 214.597 309.545 214.303 309.545ZM222.077 311.182V312.46H216.989V311.182H222.077ZM218.472 308.83H219.981V318.188C219.981 318.614 220.043 318.933 220.166 319.146C220.294 319.355 220.456 319.496 220.652 319.568C220.852 319.636 221.063 319.67 221.285 319.67C221.451 319.67 221.587 319.662 221.694 319.645C221.8 319.624 221.886 319.607 221.949 319.594L222.256 320.949C222.154 320.987 222.011 321.026 221.828 321.064C221.645 321.107 221.413 321.128 221.131 321.128C220.705 321.128 220.288 321.036 219.878 320.853C219.474 320.67 219.137 320.391 218.869 320.016C218.604 319.641 218.472 319.168 218.472 318.597V308.83ZM225.318 324.682C225.062 324.682 224.834 324.661 224.634 324.618C224.434 324.58 224.295 324.541 224.219 324.503L224.602 323.173C224.969 323.267 225.293 323.301 225.574 323.276C225.855 323.25 226.104 323.124 226.322 322.898C226.543 322.677 226.746 322.317 226.929 321.818L227.21 321.051L223.579 311.182H225.216L227.926 319.006H228.028L230.739 311.182H232.375L228.207 322.432C228.02 322.939 227.788 323.359 227.511 323.691C227.234 324.028 226.912 324.277 226.545 324.439C226.183 324.601 225.774 324.682 225.318 324.682ZM239.429 321V311.182H240.937V321H239.429ZM240.196 309.545C239.902 309.545 239.648 309.445 239.435 309.245C239.226 309.045 239.122 308.804 239.122 308.523C239.122 308.241 239.226 308.001 239.435 307.8C239.648 307.6 239.902 307.5 240.196 307.5C240.49 307.5 240.741 307.6 240.95 307.8C241.163 308.001 241.269 308.241 241.269 308.523C241.269 308.804 241.163 309.045 240.95 309.245C240.741 309.445 240.49 309.545 240.196 309.545ZM250.655 313.381L249.299 313.764C249.214 313.538 249.089 313.319 248.922 313.106C248.76 312.888 248.539 312.71 248.258 312.569C247.976 312.428 247.616 312.358 247.177 312.358C246.576 312.358 246.076 312.496 245.675 312.773C245.279 313.046 245.081 313.393 245.081 313.815C245.081 314.19 245.217 314.487 245.49 314.704C245.763 314.921 246.189 315.102 246.768 315.247L248.226 315.605C249.103 315.818 249.758 316.144 250.188 316.583C250.618 317.018 250.834 317.578 250.834 318.264C250.834 318.827 250.672 319.33 250.348 319.773C250.028 320.216 249.581 320.565 249.005 320.821C248.43 321.077 247.761 321.205 246.998 321.205C245.997 321.205 245.168 320.987 244.512 320.553C243.856 320.118 243.44 319.483 243.265 318.648L244.697 318.29C244.834 318.818 245.091 319.214 245.471 319.479C245.854 319.743 246.355 319.875 246.973 319.875C247.676 319.875 248.234 319.726 248.647 319.428C249.065 319.125 249.274 318.763 249.274 318.341C249.274 318 249.155 317.714 248.916 317.484C248.677 317.25 248.311 317.075 247.816 316.96L246.18 316.577C245.281 316.364 244.62 316.033 244.199 315.586C243.781 315.134 243.572 314.57 243.572 313.892C243.572 313.338 243.728 312.848 244.039 312.422C244.354 311.996 244.782 311.661 245.324 311.418C245.869 311.175 246.487 311.054 247.177 311.054C248.149 311.054 248.912 311.267 249.466 311.693C250.024 312.119 250.42 312.682 250.655 313.381ZM260.059 313.381L258.704 313.764C258.619 313.538 258.493 313.319 258.327 313.106C258.165 312.888 257.943 312.71 257.662 312.569C257.381 312.428 257.021 312.358 256.582 312.358C255.981 312.358 255.48 312.496 255.079 312.773C254.683 313.046 254.485 313.393 254.485 313.815C254.485 314.19 254.621 314.487 254.894 314.704C255.167 314.921 255.593 315.102 256.172 315.247L257.63 315.605C258.508 315.818 259.162 316.144 259.592 316.583C260.023 317.018 260.238 317.578 260.238 318.264C260.238 318.827 260.076 319.33 259.752 319.773C259.432 320.216 258.985 320.565 258.41 320.821C257.834 321.077 257.165 321.205 256.403 321.205C255.401 321.205 254.572 320.987 253.916 320.553C253.26 320.118 252.844 319.483 252.67 318.648L254.101 318.29C254.238 318.818 254.496 319.214 254.875 319.479C255.258 319.743 255.759 319.875 256.377 319.875C257.08 319.875 257.638 319.726 258.052 319.428C258.469 319.125 258.678 318.763 258.678 318.341C258.678 318 258.559 317.714 258.32 317.484C258.082 317.25 257.715 317.075 257.221 316.96L255.584 316.577C254.685 316.364 254.025 316.033 253.603 315.586C253.185 315.134 252.976 314.57 252.976 313.892C252.976 313.338 253.132 312.848 253.443 312.422C253.758 311.996 254.187 311.661 254.728 311.418C255.273 311.175 255.891 311.054 256.582 311.054C257.553 311.054 258.316 311.267 258.87 311.693C259.428 312.119 259.824 312.682 260.059 313.381ZM268.696 316.986V311.182H270.205V321H268.696V319.338H268.594C268.364 319.837 268.006 320.261 267.52 320.61C267.034 320.955 266.421 321.128 265.679 321.128C265.065 321.128 264.52 320.994 264.043 320.725C263.565 320.452 263.19 320.043 262.918 319.498C262.645 318.948 262.509 318.256 262.509 317.42V311.182H264.017V317.318C264.017 318.034 264.217 318.605 264.618 319.031C265.023 319.457 265.538 319.67 266.165 319.67C266.54 319.67 266.921 319.575 267.309 319.383C267.701 319.191 268.029 318.897 268.293 318.501C268.562 318.104 268.696 317.599 268.696 316.986ZM277.084 321.205C276.138 321.205 275.322 320.996 274.636 320.578C273.954 320.156 273.428 319.568 273.057 318.814C272.691 318.055 272.507 317.173 272.507 316.168C272.507 315.162 272.691 314.276 273.057 313.509C273.428 312.737 273.943 312.136 274.604 311.706C275.269 311.271 276.044 311.054 276.931 311.054C277.442 311.054 277.947 311.139 278.446 311.31C278.944 311.48 279.398 311.757 279.807 312.141C280.216 312.52 280.542 313.023 280.785 313.649C281.028 314.276 281.149 315.047 281.149 315.963V316.602H273.581V315.298H279.615C279.615 314.744 279.505 314.25 279.283 313.815C279.066 313.381 278.755 313.038 278.35 312.786C277.949 312.535 277.476 312.409 276.931 312.409C276.33 312.409 275.81 312.558 275.371 312.857C274.936 313.151 274.602 313.534 274.367 314.007C274.133 314.48 274.016 314.987 274.016 315.528V316.398C274.016 317.139 274.144 317.768 274.399 318.283C274.659 318.795 275.019 319.185 275.48 319.453C275.94 319.717 276.475 319.849 277.084 319.849C277.48 319.849 277.838 319.794 278.158 319.683C278.482 319.568 278.761 319.398 278.995 319.172C279.23 318.942 279.411 318.656 279.539 318.315L280.996 318.724C280.843 319.219 280.585 319.653 280.223 320.028C279.86 320.399 279.413 320.689 278.88 320.898C278.348 321.102 277.749 321.205 277.084 321.205ZM290.399 313.381L289.044 313.764C288.958 313.538 288.833 313.319 288.666 313.106C288.505 312.888 288.283 312.71 288.002 312.569C287.72 312.428 287.36 312.358 286.921 312.358C286.321 312.358 285.82 312.496 285.419 312.773C285.023 313.046 284.825 313.393 284.825 313.815C284.825 314.19 284.961 314.487 285.234 314.704C285.507 314.921 285.933 315.102 286.512 315.247L287.97 315.605C288.848 315.818 289.502 316.144 289.932 316.583C290.362 317.018 290.578 317.578 290.578 318.264C290.578 318.827 290.416 319.33 290.092 319.773C289.772 320.216 289.325 320.565 288.75 320.821C288.174 321.077 287.505 321.205 286.742 321.205C285.741 321.205 284.912 320.987 284.256 320.553C283.6 320.118 283.184 319.483 283.009 318.648L284.441 318.29C284.578 318.818 284.835 319.214 285.215 319.479C285.598 319.743 286.099 319.875 286.717 319.875C287.42 319.875 287.978 319.726 288.392 319.428C288.809 319.125 289.018 318.763 289.018 318.341C289.018 318 288.899 317.714 288.66 317.484C288.421 317.25 288.055 317.075 287.561 316.96L285.924 316.577C285.025 316.364 284.365 316.033 283.943 315.586C283.525 315.134 283.316 314.57 283.316 313.892C283.316 313.338 283.472 312.848 283.783 312.422C284.098 311.996 284.527 311.661 285.068 311.418C285.613 311.175 286.231 311.054 286.921 311.054C287.893 311.054 288.656 311.267 289.21 311.693C289.768 312.119 290.164 312.682 290.399 313.381Z" fill="#4D4D4D"/>
<path d="M153.376 456L166.943 429.153V428.93H151.139V423.273H174.102V429.01L160.519 456H153.376ZM177.262 456.415C176.207 456.415 175.302 456.043 174.545 455.297C173.8 454.54 173.427 453.635 173.427 452.58C173.427 451.536 173.8 450.641 174.545 449.896C175.302 449.15 176.207 448.777 177.262 448.777C178.285 448.777 179.18 449.15 179.947 449.896C180.714 450.641 181.097 451.536 181.097 452.58C181.097 453.283 180.916 453.928 180.554 454.514C180.202 455.089 179.739 455.553 179.164 455.904C178.588 456.245 177.955 456.415 177.262 456.415ZM196.774 423.273V456H189.854V429.841H189.663L182.168 434.539V428.402L190.27 423.273H196.774ZM222.466 449.864V448.138C222.466 446.827 222.743 445.624 223.297 444.526C223.861 443.418 224.676 442.534 225.742 441.874C226.818 441.202 228.128 440.867 229.673 440.867C231.239 440.867 232.555 441.197 233.62 441.858C234.696 442.518 235.506 443.402 236.049 444.51C236.603 445.608 236.88 446.817 236.88 448.138V449.864C236.88 451.174 236.603 452.383 236.049 453.491C235.495 454.588 234.68 455.467 233.604 456.128C232.528 456.799 231.218 457.135 229.673 457.135C228.107 457.135 226.791 456.799 225.726 456.128C224.66 455.467 223.851 454.588 223.297 453.491C222.743 452.383 222.466 451.174 222.466 449.864ZM227.116 448.138V449.864C227.116 450.62 227.297 451.334 227.659 452.005C228.032 452.676 228.703 453.012 229.673 453.012C230.642 453.012 231.303 452.681 231.654 452.021C232.017 451.36 232.198 450.641 232.198 449.864V448.138C232.198 447.36 232.027 446.636 231.686 445.964C231.345 445.293 230.674 444.958 229.673 444.958C228.714 444.958 228.048 445.293 227.675 445.964C227.302 446.636 227.116 447.36 227.116 448.138ZM205.671 431.135V429.409C205.671 428.088 205.953 426.879 206.518 425.782C207.082 424.674 207.897 423.789 208.963 423.129C210.039 422.468 211.338 422.138 212.862 422.138C214.438 422.138 215.759 422.468 216.825 423.129C217.89 423.789 218.7 424.674 219.254 425.782C219.808 426.879 220.085 428.088 220.085 429.409V431.135C220.085 432.456 219.802 433.665 219.238 434.762C218.684 435.86 217.869 436.739 216.793 437.399C215.728 438.049 214.417 438.374 212.862 438.374C211.306 438.374 209.991 438.044 208.915 437.383C207.849 436.712 207.04 435.833 206.486 434.746C205.942 433.649 205.671 432.445 205.671 431.135ZM210.353 429.409V431.135C210.353 431.913 210.534 432.632 210.896 433.292C211.269 433.953 211.924 434.283 212.862 434.283C213.842 434.283 214.508 433.953 214.859 433.292C215.222 432.632 215.403 431.913 215.403 431.135V429.409C215.403 428.631 215.232 427.907 214.891 427.236C214.55 426.565 213.874 426.229 212.862 426.229C211.914 426.229 211.258 426.57 210.896 427.252C210.534 427.934 210.353 428.653 210.353 429.409ZM207.78 456L230.28 423.273H234.467L211.967 456H207.78Z" fill="black"/>
<path d="M152.295 495H148.255V481.909H152.474C153.744 481.909 154.83 482.171 155.734 482.695C156.637 483.215 157.33 483.963 157.811 484.939C158.293 485.911 158.534 487.074 158.534 488.429C158.534 489.793 158.291 490.967 157.805 491.951C157.319 492.931 156.612 493.685 155.683 494.214C154.754 494.738 153.624 495 152.295 495ZM149.84 493.594H152.193C153.275 493.594 154.172 493.385 154.884 492.967C155.595 492.55 156.126 491.955 156.475 491.184C156.825 490.413 156.999 489.494 156.999 488.429C156.999 487.372 156.827 486.462 156.482 485.7C156.137 484.933 155.621 484.344 154.935 483.935C154.249 483.522 153.394 483.315 152.372 483.315H149.84V493.594ZM160.988 495V485.182H162.497V495H160.988ZM161.755 483.545C161.461 483.545 161.208 483.445 160.994 483.245C160.786 483.045 160.681 482.804 160.681 482.523C160.681 482.241 160.786 482.001 160.994 481.8C161.208 481.6 161.461 481.5 161.755 481.5C162.049 481.5 162.301 481.6 162.509 481.8C162.722 482.001 162.829 482.241 162.829 482.523C162.829 482.804 162.722 483.045 162.509 483.245C162.301 483.445 162.049 483.545 161.755 483.545ZM169.632 485.182V486.46H164.339V485.182H169.632ZM165.924 495V483.827C165.924 483.264 166.056 482.795 166.321 482.42C166.585 482.045 166.928 481.764 167.35 481.577C167.772 481.389 168.217 481.295 168.686 481.295C169.056 481.295 169.359 481.325 169.593 481.385C169.828 481.445 170.002 481.5 170.118 481.551L169.683 482.855C169.606 482.83 169.5 482.798 169.363 482.759C169.231 482.721 169.056 482.702 168.839 482.702C168.341 482.702 167.98 482.827 167.759 483.079C167.542 483.33 167.433 483.699 167.433 484.185V495H165.924ZM176.118 485.182V486.46H170.825V485.182H176.118ZM172.411 495V483.827C172.411 483.264 172.543 482.795 172.807 482.42C173.071 482.045 173.414 481.764 173.836 481.577C174.258 481.389 174.703 481.295 175.172 481.295C175.543 481.295 175.845 481.325 176.08 481.385C176.314 481.445 176.489 481.5 176.604 481.551L176.169 482.855C176.093 482.83 175.986 482.798 175.85 482.759C175.718 482.721 175.543 482.702 175.325 482.702C174.827 482.702 174.467 482.827 174.245 483.079C174.028 483.33 173.919 483.699 173.919 484.185V495H172.411ZM178.232 495V485.182H179.741V495H178.232ZM178.999 483.545C178.705 483.545 178.452 483.445 178.239 483.245C178.03 483.045 177.925 482.804 177.925 482.523C177.925 482.241 178.03 482.001 178.239 481.8C178.452 481.6 178.705 481.5 178.999 481.5C179.293 481.5 179.545 481.6 179.754 481.8C179.967 482.001 180.073 482.241 180.073 482.523C180.073 482.804 179.967 483.045 179.754 483.245C179.545 483.445 179.293 483.545 178.999 483.545ZM186.492 495.205C185.572 495.205 184.779 494.987 184.115 494.553C183.45 494.118 182.938 493.519 182.58 492.756C182.222 491.994 182.044 491.122 182.044 490.142C182.044 489.145 182.227 488.265 182.593 487.502C182.964 486.735 183.48 486.136 184.14 485.706C184.805 485.271 185.58 485.054 186.467 485.054C187.157 485.054 187.779 485.182 188.333 485.438C188.887 485.693 189.341 486.051 189.695 486.511C190.048 486.972 190.268 487.509 190.353 488.122H188.845C188.73 487.675 188.474 487.278 188.078 486.933C187.686 486.584 187.157 486.409 186.492 486.409C185.904 486.409 185.389 486.562 184.945 486.869C184.507 487.172 184.164 487.6 183.916 488.154C183.673 488.704 183.552 489.349 183.552 490.091C183.552 490.849 183.671 491.51 183.91 492.072C184.153 492.635 184.494 493.072 184.933 493.383C185.376 493.694 185.896 493.849 186.492 493.849C186.884 493.849 187.24 493.781 187.56 493.645C187.879 493.509 188.15 493.312 188.372 493.057C188.593 492.801 188.751 492.494 188.845 492.136H190.353C190.268 492.716 190.057 493.238 189.72 493.702C189.388 494.163 188.947 494.529 188.397 494.802C187.852 495.07 187.217 495.205 186.492 495.205ZM198.746 490.986V485.182H200.254V495H198.746V493.338H198.644C198.414 493.837 198.056 494.261 197.57 494.61C197.084 494.955 196.47 495.128 195.729 495.128C195.115 495.128 194.57 494.994 194.093 494.725C193.615 494.452 193.24 494.043 192.968 493.498C192.695 492.948 192.558 492.256 192.558 491.42V485.182H194.067V491.318C194.067 492.034 194.267 492.605 194.668 493.031C195.073 493.457 195.588 493.67 196.215 493.67C196.59 493.67 196.971 493.575 197.359 493.383C197.751 493.191 198.079 492.897 198.343 492.501C198.612 492.104 198.746 491.599 198.746 490.986ZM204.526 481.909V495H203.017V481.909H204.526ZM211.559 485.182V486.46H206.471V485.182H211.559ZM207.954 482.83H209.462V492.188C209.462 492.614 209.524 492.933 209.648 493.146C209.775 493.355 209.937 493.496 210.133 493.568C210.334 493.636 210.545 493.67 210.766 493.67C210.932 493.67 211.069 493.662 211.175 493.645C211.282 493.624 211.367 493.607 211.431 493.594L211.738 494.949C211.635 494.987 211.493 495.026 211.309 495.064C211.126 495.107 210.894 495.128 210.613 495.128C210.187 495.128 209.769 495.036 209.36 494.853C208.955 494.67 208.618 494.391 208.35 494.016C208.086 493.641 207.954 493.168 207.954 492.597V482.83ZM214.8 498.682C214.544 498.682 214.316 498.661 214.116 498.618C213.915 498.58 213.777 498.541 213.7 498.503L214.084 497.173C214.45 497.267 214.774 497.301 215.055 497.276C215.336 497.25 215.586 497.124 215.803 496.898C216.025 496.677 216.227 496.317 216.41 495.818L216.692 495.051L213.061 485.182H214.697L217.407 493.006H217.51L220.22 485.182H221.856L217.689 496.432C217.501 496.939 217.269 497.359 216.992 497.691C216.715 498.028 216.393 498.277 216.027 498.439C215.665 498.601 215.256 498.682 214.8 498.682ZM228.91 495V485.182H230.419V495H228.91ZM229.677 483.545C229.383 483.545 229.129 483.445 228.916 483.245C228.708 483.045 228.603 482.804 228.603 482.523C228.603 482.241 228.708 482.001 228.916 481.8C229.129 481.6 229.383 481.5 229.677 481.5C229.971 481.5 230.222 481.6 230.431 481.8C230.644 482.001 230.751 482.241 230.751 482.523C230.751 482.804 230.644 483.045 230.431 483.245C230.222 483.445 229.971 483.545 229.677 483.545ZM234.69 489.094V495H233.181V485.182H234.639V486.716H234.767C234.997 486.217 235.346 485.817 235.815 485.514C236.284 485.207 236.889 485.054 237.63 485.054C238.295 485.054 238.877 485.19 239.375 485.463C239.874 485.732 240.262 486.141 240.539 486.69C240.816 487.236 240.954 487.926 240.954 488.761V495H239.446V488.864C239.446 488.092 239.245 487.491 238.845 487.061C238.444 486.626 237.895 486.409 237.196 486.409C236.714 486.409 236.284 486.513 235.904 486.722C235.529 486.931 235.233 487.236 235.016 487.636C234.799 488.037 234.69 488.523 234.69 489.094ZM117.605 517V507.182H119.114V517H117.605ZM118.372 505.545C118.078 505.545 117.825 505.445 117.612 505.245C117.403 505.045 117.298 504.804 117.298 504.523C117.298 504.241 117.403 504.001 117.612 503.8C117.825 503.6 118.078 503.5 118.372 503.5C118.666 503.5 118.918 503.6 119.127 503.8C119.34 504.001 119.446 504.241 119.446 504.523C119.446 504.804 119.34 505.045 119.127 505.245C118.918 505.445 118.666 505.545 118.372 505.545ZM123.385 511.094V517H121.877V507.182H123.334V508.716H123.462C123.692 508.217 124.042 507.817 124.51 507.514C124.979 507.207 125.584 507.054 126.326 507.054C126.99 507.054 127.572 507.19 128.071 507.463C128.569 507.732 128.957 508.141 129.234 508.69C129.511 509.236 129.65 509.926 129.65 510.761V517H128.141V510.864C128.141 510.092 127.941 509.491 127.54 509.061C127.14 508.626 126.59 508.409 125.891 508.409C125.409 508.409 124.979 508.513 124.6 508.722C124.225 508.931 123.929 509.236 123.711 509.636C123.494 510.037 123.385 510.523 123.385 511.094ZM136.113 517.205C135.295 517.205 134.573 516.998 133.947 516.585C133.32 516.167 132.83 515.579 132.476 514.82C132.123 514.058 131.946 513.156 131.946 512.116C131.946 511.085 132.123 510.19 132.476 509.432C132.83 508.673 133.322 508.087 133.953 507.674C134.584 507.261 135.312 507.054 136.139 507.054C136.778 507.054 137.283 507.161 137.654 507.374C138.029 507.582 138.314 507.821 138.51 508.089C138.711 508.354 138.866 508.571 138.977 508.741H139.105V503.909H140.613V517H139.156V515.491H138.977C138.866 515.67 138.709 515.896 138.504 516.169C138.3 516.437 138.008 516.678 137.628 516.891C137.249 517.1 136.744 517.205 136.113 517.205ZM136.318 515.849C136.923 515.849 137.434 515.692 137.852 515.376C138.27 515.057 138.587 514.616 138.805 514.053C139.022 513.487 139.131 512.832 139.131 512.091C139.131 511.358 139.024 510.717 138.811 510.167C138.598 509.613 138.282 509.183 137.865 508.876C137.447 508.565 136.932 508.409 136.318 508.409C135.679 508.409 135.146 508.573 134.72 508.901C134.298 509.225 133.981 509.666 133.768 510.224C133.559 510.778 133.454 511.401 133.454 512.091C133.454 512.79 133.561 513.425 133.774 513.996C133.991 514.562 134.311 515.014 134.733 515.351C135.159 515.683 135.687 515.849 136.318 515.849ZM147.702 517.205C146.756 517.205 145.94 516.996 145.254 516.578C144.572 516.156 144.046 515.568 143.675 514.814C143.309 514.055 143.126 513.173 143.126 512.168C143.126 511.162 143.309 510.276 143.675 509.509C144.046 508.737 144.562 508.136 145.222 507.706C145.887 507.271 146.662 507.054 147.549 507.054C148.06 507.054 148.565 507.139 149.064 507.31C149.562 507.48 150.016 507.757 150.425 508.141C150.834 508.52 151.16 509.023 151.403 509.649C151.646 510.276 151.768 511.047 151.768 511.963V512.602H144.199V511.298H150.233C150.233 510.744 150.123 510.25 149.901 509.815C149.684 509.381 149.373 509.038 148.968 508.786C148.567 508.535 148.094 508.409 147.549 508.409C146.948 508.409 146.428 508.558 145.989 508.857C145.555 509.151 145.22 509.534 144.986 510.007C144.751 510.48 144.634 510.987 144.634 511.528V512.398C144.634 513.139 144.762 513.768 145.018 514.283C145.278 514.795 145.638 515.185 146.098 515.453C146.558 515.717 147.093 515.849 147.702 515.849C148.099 515.849 148.456 515.794 148.776 515.683C149.1 515.568 149.379 515.398 149.613 515.172C149.848 514.942 150.029 514.656 150.157 514.315L151.614 514.724C151.461 515.219 151.203 515.653 150.841 516.028C150.479 516.399 150.031 516.689 149.498 516.898C148.966 517.102 148.367 517.205 147.702 517.205ZM154.062 520.682V507.182H155.52V508.741H155.699C155.809 508.571 155.963 508.354 156.159 508.089C156.359 507.821 156.645 507.582 157.015 507.374C157.39 507.161 157.898 507.054 158.537 507.054C159.363 507.054 160.092 507.261 160.723 507.674C161.354 508.087 161.846 508.673 162.199 509.432C162.553 510.19 162.73 511.085 162.73 512.116C162.73 513.156 162.553 514.058 162.199 514.82C161.846 515.579 161.356 516.167 160.729 516.585C160.103 516.998 159.381 517.205 158.562 517.205C157.932 517.205 157.427 517.1 157.047 516.891C156.668 516.678 156.376 516.437 156.172 516.169C155.967 515.896 155.809 515.67 155.699 515.491H155.571V520.682H154.062ZM155.545 512.091C155.545 512.832 155.654 513.487 155.871 514.053C156.089 514.616 156.406 515.057 156.824 515.376C157.241 515.692 157.753 515.849 158.358 515.849C158.988 515.849 159.515 515.683 159.937 515.351C160.363 515.014 160.682 514.562 160.895 513.996C161.113 513.425 161.221 512.79 161.221 512.091C161.221 511.401 161.115 510.778 160.902 510.224C160.693 509.666 160.376 509.225 159.949 508.901C159.528 508.573 158.997 508.409 158.358 508.409C157.744 508.409 157.229 508.565 156.811 508.876C156.393 509.183 156.078 509.613 155.865 510.167C155.652 510.717 155.545 511.358 155.545 512.091ZM169.148 517.205C168.202 517.205 167.385 516.996 166.699 516.578C166.018 516.156 165.491 515.568 165.121 514.814C164.754 514.055 164.571 513.173 164.571 512.168C164.571 511.162 164.754 510.276 165.121 509.509C165.491 508.737 166.007 508.136 166.667 507.706C167.332 507.271 168.108 507.054 168.994 507.054C169.506 507.054 170.01 507.139 170.509 507.31C171.008 507.48 171.461 507.757 171.871 508.141C172.28 508.52 172.606 509.023 172.849 509.649C173.091 510.276 173.213 511.047 173.213 511.963V512.602H165.645V511.298H171.679C171.679 510.744 171.568 510.25 171.346 509.815C171.129 509.381 170.818 509.038 170.413 508.786C170.013 508.535 169.54 508.409 168.994 508.409C168.393 508.409 167.873 508.558 167.434 508.857C167 509.151 166.665 509.534 166.431 510.007C166.197 510.48 166.079 510.987 166.079 511.528V512.398C166.079 513.139 166.207 513.768 166.463 514.283C166.723 514.795 167.083 515.185 167.543 515.453C168.003 515.717 168.538 515.849 169.148 515.849C169.544 515.849 169.902 515.794 170.221 515.683C170.545 515.568 170.824 515.398 171.059 515.172C171.293 514.942 171.474 514.656 171.602 514.315L173.059 514.724C172.906 515.219 172.648 515.653 172.286 516.028C171.924 516.399 171.476 516.689 170.944 516.898C170.411 517.102 169.812 517.205 169.148 517.205ZM177.016 511.094V517H175.508V507.182H176.965V508.716H177.093C177.323 508.217 177.672 507.817 178.141 507.514C178.61 507.207 179.215 507.054 179.956 507.054C180.621 507.054 181.203 507.19 181.702 507.463C182.2 507.732 182.588 508.141 182.865 508.69C183.142 509.236 183.28 509.926 183.28 510.761V517H181.772V510.864C181.772 510.092 181.572 509.491 181.171 509.061C180.77 508.626 180.221 508.409 179.522 508.409C179.04 508.409 178.61 508.513 178.231 508.722C177.856 508.931 177.559 509.236 177.342 509.636C177.125 510.037 177.016 510.523 177.016 511.094ZM189.744 517.205C188.926 517.205 188.204 516.998 187.577 516.585C186.951 516.167 186.461 515.579 186.107 514.82C185.754 514.058 185.577 513.156 185.577 512.116C185.577 511.085 185.754 510.19 186.107 509.432C186.461 508.673 186.953 508.087 187.584 507.674C188.214 507.261 188.943 507.054 189.77 507.054C190.409 507.054 190.914 507.161 191.285 507.374C191.66 507.582 191.945 507.821 192.141 508.089C192.342 508.354 192.497 508.571 192.608 508.741H192.736V503.909H194.244V517H192.787V515.491H192.608C192.497 515.67 192.339 515.896 192.135 516.169C191.93 516.437 191.638 516.678 191.259 516.891C190.88 517.1 190.375 517.205 189.744 517.205ZM189.949 515.849C190.554 515.849 191.065 515.692 191.483 515.376C191.901 515.057 192.218 514.616 192.435 514.053C192.653 513.487 192.761 512.832 192.761 512.091C192.761 511.358 192.655 510.717 192.442 510.167C192.229 509.613 191.913 509.183 191.496 508.876C191.078 508.565 190.563 508.409 189.949 508.409C189.31 508.409 188.777 508.573 188.351 508.901C187.929 509.225 187.612 509.666 187.398 510.224C187.19 510.778 187.085 511.401 187.085 512.091C187.085 512.79 187.192 513.425 187.405 513.996C187.622 514.562 187.942 515.014 188.364 515.351C188.79 515.683 189.318 515.849 189.949 515.849ZM201.333 517.205C200.387 517.205 199.571 516.996 198.885 516.578C198.203 516.156 197.677 515.568 197.306 514.814C196.94 514.055 196.756 513.173 196.756 512.168C196.756 511.162 196.94 510.276 197.306 509.509C197.677 508.737 198.192 508.136 198.853 507.706C199.518 507.271 200.293 507.054 201.18 507.054C201.691 507.054 202.196 507.139 202.695 507.31C203.193 507.48 203.647 507.757 204.056 508.141C204.465 508.52 204.791 509.023 205.034 509.649C205.277 510.276 205.398 511.047 205.398 511.963V512.602H197.83V511.298H203.864C203.864 510.744 203.754 510.25 203.532 509.815C203.315 509.381 203.004 509.038 202.599 508.786C202.198 508.535 201.725 508.409 201.18 508.409C200.579 508.409 200.059 508.558 199.62 508.857C199.185 509.151 198.851 509.534 198.616 510.007C198.382 510.48 198.265 510.987 198.265 511.528V512.398C198.265 513.139 198.393 513.768 198.648 514.283C198.908 514.795 199.268 515.185 199.729 515.453C200.189 515.717 200.724 515.849 201.333 515.849C201.729 515.849 202.087 515.794 202.407 515.683C202.731 515.568 203.01 515.398 203.244 515.172C203.479 514.942 203.66 514.656 203.788 514.315L205.245 514.724C205.092 515.219 204.834 515.653 204.472 516.028C204.109 516.399 203.662 516.689 203.129 516.898C202.597 517.102 201.998 517.205 201.333 517.205ZM209.202 511.094V517H207.693V507.182H209.151V508.716H209.278C209.509 508.217 209.858 507.817 210.327 507.514C210.795 507.207 211.401 507.054 212.142 507.054C212.807 507.054 213.388 507.19 213.887 507.463C214.386 507.732 214.773 508.141 215.05 508.69C215.327 509.236 215.466 509.926 215.466 510.761V517H213.957V510.864C213.957 510.092 213.757 509.491 213.357 509.061C212.956 508.626 212.406 508.409 211.707 508.409C211.226 508.409 210.795 508.513 210.416 508.722C210.041 508.931 209.745 509.236 209.528 509.636C209.31 510.037 209.202 510.523 209.202 511.094ZM222.492 507.182V508.46H217.404V507.182H222.492ZM218.887 504.83H220.396V514.188C220.396 514.614 220.458 514.933 220.581 515.146C220.709 515.355 220.871 515.496 221.067 515.568C221.267 515.636 221.478 515.67 221.7 515.67C221.866 515.67 222.002 515.662 222.109 515.645C222.215 515.624 222.301 515.607 222.365 515.594L222.671 516.949C222.569 516.987 222.426 517.026 222.243 517.064C222.06 517.107 221.828 517.128 221.546 517.128C221.12 517.128 220.703 517.036 220.294 516.853C219.889 516.67 219.552 516.391 219.284 516.016C219.019 515.641 218.887 515.168 218.887 514.597V504.83ZM231.333 503.909V517H229.824V503.909H231.333ZM234.096 517V507.182H235.604V517H234.096ZM234.863 505.545C234.569 505.545 234.315 505.445 234.102 505.245C233.893 505.045 233.789 504.804 233.789 504.523C233.789 504.241 233.893 504.001 234.102 503.8C234.315 503.6 234.569 503.5 234.863 503.5C235.157 503.5 235.408 503.6 235.617 503.8C235.83 504.001 235.936 504.241 235.936 504.523C235.936 504.804 235.83 505.045 235.617 505.245C235.408 505.445 235.157 505.545 234.863 505.545ZM246.395 507.182L242.765 517H241.231L237.6 507.182H239.236L241.947 515.006H242.049L244.759 507.182H246.395ZM248.387 517V507.182H249.895V517H248.387ZM249.154 505.545C248.86 505.545 248.606 505.445 248.393 505.245C248.184 505.045 248.08 504.804 248.08 504.523C248.08 504.241 248.184 504.001 248.393 503.8C248.606 503.6 248.86 503.5 249.154 503.5C249.448 503.5 249.699 503.6 249.908 503.8C250.121 504.001 250.227 504.241 250.227 504.523C250.227 504.804 250.121 505.045 249.908 505.245C249.699 505.445 249.448 505.545 249.154 505.545ZM254.167 511.094V517H252.658V507.182H254.115V508.716H254.243C254.473 508.217 254.823 507.817 255.292 507.514C255.76 507.207 256.365 507.054 257.107 507.054C257.772 507.054 258.353 507.19 258.852 507.463C259.35 507.732 259.738 508.141 260.015 508.69C260.292 509.236 260.431 509.926 260.431 510.761V517H258.922V510.864C258.922 510.092 258.722 509.491 258.321 509.061C257.921 508.626 257.371 508.409 256.672 508.409C256.191 508.409 255.76 508.513 255.381 508.722C255.006 508.931 254.71 509.236 254.493 509.636C254.275 510.037 254.167 510.523 254.167 511.094ZM267.15 520.886C266.422 520.886 265.795 520.793 265.271 520.605C264.747 520.422 264.31 520.179 263.961 519.876C263.616 519.578 263.341 519.259 263.136 518.918L264.338 518.074C264.474 518.253 264.647 518.457 264.856 518.688C265.064 518.922 265.35 519.124 265.712 519.295C266.079 519.469 266.558 519.557 267.15 519.557C267.943 519.557 268.597 519.365 269.113 518.982C269.628 518.598 269.886 517.997 269.886 517.179V515.185H269.758C269.648 515.364 269.49 515.585 269.285 515.849C269.085 516.109 268.795 516.342 268.416 516.546C268.041 516.746 267.534 516.847 266.895 516.847C266.102 516.847 265.39 516.659 264.76 516.284C264.133 515.909 263.637 515.364 263.27 514.648C262.908 513.932 262.727 513.062 262.727 512.04C262.727 511.034 262.904 510.158 263.258 509.413C263.611 508.663 264.104 508.083 264.734 507.674C265.365 507.261 266.094 507.054 266.92 507.054C267.559 507.054 268.067 507.161 268.442 507.374C268.821 507.582 269.111 507.821 269.311 508.089C269.515 508.354 269.673 508.571 269.784 508.741H269.937V507.182H271.395V517.281C271.395 518.125 271.203 518.811 270.819 519.339C270.44 519.872 269.929 520.262 269.285 520.509C268.646 520.761 267.934 520.886 267.15 520.886ZM267.099 515.491C267.704 515.491 268.216 515.353 268.633 515.076C269.051 514.799 269.368 514.401 269.586 513.881C269.803 513.361 269.912 512.739 269.912 512.014C269.912 511.307 269.805 510.683 269.592 510.141C269.379 509.6 269.064 509.176 268.646 508.869C268.229 508.562 267.713 508.409 267.099 508.409C266.46 508.409 265.927 508.571 265.501 508.895C265.079 509.219 264.762 509.653 264.549 510.199C264.34 510.744 264.236 511.349 264.236 512.014C264.236 512.696 264.342 513.299 264.555 513.823C264.773 514.343 265.092 514.752 265.514 515.05C265.94 515.344 266.469 515.491 267.099 515.491Z" fill="#4D4D4D"/>
</svg>
