<svg xmlns="http://www.w3.org/2000/svg" width="34.335" height="34.335" viewBox="0 0 34.335 34.335"><g transform="translate(-34.291 -591.851) rotate(45)"><g transform="translate(455 382)"><path d="M5.74,24.5V18.379H0V6.126H5.74V0H17.948V6.126h6.1V18.379h-6.1V24.5Z" fill="none"/><path d="M16.948,23.505V17.379h6.1V7.126h-6.1V1H6.74V7.126H1V17.379H6.74v6.126H16.948m1,1H5.74V18.379H0V6.126H5.74V0H17.948V6.126h6.1V18.379h-6.1Z" fill="#1a2855"/></g><line x2="11.939" transform="translate(460.933 394.412)" fill="none" stroke="#1a2855" stroke-width="1"/><line y2="12.157" transform="translate(467.048 388.151)" fill="none" stroke="#1a2855" stroke-width="1"/><line y2="6.406" transform="translate(460.86 388.115)" fill="none" stroke="#1a2855" stroke-width="1"/><line y2="6.406" transform="translate(472.872 394.303)" fill="none" stroke="#1a2855" stroke-width="1"/><line x2="6.479" transform="translate(466.939 388.224)" fill="none" stroke="#1a2855" stroke-width="1"/><line x2="6.479" transform="translate(460.678 400.236)" fill="none" stroke="#1a2855" stroke-width="1"/></g></svg>