<svg id="problems" xmlns="http://www.w3.org/2000/svg" width="616.47" height="360.112" viewBox="0 0 616.47 360.112">
  <circle id="Ellipse_80" data-name="Ellipse 80" cx="5.14" cy="5.14" r="5.14" transform="translate(318.079 0)" fill="#f2f2f2"/>
  <circle id="Ellipse_81" data-name="Ellipse 81" cx="5.14" cy="5.14" r="5.14" transform="translate(318.079 20.483)" fill="#f2f2f2"/>
  <circle id="Ellipse_82" data-name="Ellipse 82" cx="5.14" cy="5.14" r="5.14" transform="translate(339.538 0)" fill="#f2f2f2"/>
  <circle id="Ellipse_83" data-name="Ellipse 83" cx="5.14" cy="5.14" r="5.14" transform="translate(339.538 20.483)" fill="#f2f2f2"/>
  <circle id="Ellipse_84" data-name="Ellipse 84" cx="5.14" cy="5.14" r="5.14" transform="translate(360.996 0)" fill="#f2f2f2"/>
  <circle id="Ellipse_85" data-name="Ellipse 85" cx="5.14" cy="5.14" r="5.14" transform="translate(360.996 20.483)" fill="#f2f2f2"/>
  <circle id="Ellipse_86" data-name="Ellipse 86" cx="5.14" cy="5.14" r="5.14" transform="translate(360.996 40.967)" fill="#f2f2f2"/>
  <circle id="Ellipse_87" data-name="Ellipse 87" cx="5.14" cy="5.14" r="5.14" transform="translate(360.996 61.45)" fill="#f2f2f2"/>
  <circle id="Ellipse_88" data-name="Ellipse 88" cx="5.14" cy="5.14" r="5.14" transform="translate(382.454 0)" fill="#f2f2f2"/>
  <circle id="Ellipse_89" data-name="Ellipse 89" cx="5.14" cy="5.14" r="5.14" transform="translate(382.454 20.483)" fill="#f2f2f2"/>
  <circle id="Ellipse_90" data-name="Ellipse 90" cx="5.14" cy="5.14" r="5.14" transform="translate(382.454 40.967)" fill="#f2f2f2"/>
  <circle id="Ellipse_91" data-name="Ellipse 91" cx="5.14" cy="5.14" r="5.14" transform="translate(382.454 61.45)" fill="#f2f2f2"/>
  <circle id="Ellipse_92" data-name="Ellipse 92" cx="5.14" cy="5.14" r="5.14" transform="translate(403.913 0)" fill="#f2f2f2"/>
  <circle id="Ellipse_93" data-name="Ellipse 93" cx="5.14" cy="5.14" r="5.14" transform="translate(403.913 20.483)" fill="#f2f2f2"/>
  <circle id="Ellipse_94" data-name="Ellipse 94" cx="5.14" cy="5.14" r="5.14" transform="translate(425.371 0)" fill="#f2f2f2"/>
  <circle id="Ellipse_95" data-name="Ellipse 95" cx="5.14" cy="5.14" r="5.14" transform="translate(425.371 20.483)" fill="#f2f2f2"/>
  <path id="Path_235" data-name="Path 235" d="M924.162,564.7H886.007c0,1.1-39.324,1.987-39.324,1.987a10.216,10.216,0,0,0-1.677,1.589,9.863,9.863,0,0,0-2.305,6.358v1.59a9.938,9.938,0,0,0,9.934,9.934h71.528a9.943,9.943,0,0,0,9.934-9.934v-1.59A9.948,9.948,0,0,0,924.162,564.7Z" transform="translate(-336.75 -293.486)" fill="#3f3d56"/>
  <rect id="Rectangle_82" data-name="Rectangle 82" width="10.332" height="66.759" transform="translate(546.877 292.28)" fill="#3f3d56"/>
  <path id="Path_236" data-name="Path 236" d="M926.134,672.175c0,1.116-15.656.432-34.969.432s-34.969.685-34.969-.432,15.656-9.969,34.969-9.969S926.134,671.058,926.134,672.175Z" transform="translate(-339.52 -313.499)" fill="#3f3d56"/>
  <path id="Path_237" data-name="Path 237" d="M625.386,430.551h-9.744l-4.636-37.582h14.381Z" transform="translate(-125.408 -80.656)" fill="#ffb8b8"/>
  <path id="Path_238" data-name="Path 238" d="M605.027,436.753h18.791v11.831H593.2A11.831,11.831,0,0,1,605.027,436.753Z" transform="translate(-121.752 -89.642)" fill="#2f2e41"/>
  <path id="Path_239" data-name="Path 239" d="M607.561,423.042l-9.3-2.918,6.828-37.246,13.721,4.306Z" transform="translate(-122.792 -78.585)" fill="#ffb8b8"/>
  <path id="Path_240" data-name="Path 240" d="M11.831,0H30.622V11.831H0A11.831,11.831,0,0,1,11.831,0Z" transform="translate(458.374 333.258) rotate(17.423)" fill="#2f2e41"/>
  <path id="Path_241" data-name="Path 241" d="M890.643,552.938a30.107,30.107,0,0,0-1.208-5.579l-1.82-2.289-4.737-5.945-.206.008c-.35.016-1.8.1-4.053.27h-.024c-1.391.111-3.092.254-5.023.437-.509.056-1.041.1-1.589.159v8.3h9.934a1.99,1.99,0,0,1,1.971,1.733c.008.087.016.167.016.254a1.988,1.988,0,0,1-1.987,1.987h-57.7a22.557,22.557,0,0,0-2.114,1.589,11.827,11.827,0,0,0-4.172,6.247c-3.37,14.814-9.513,42.44-11.325,50.554a3.606,3.606,0,0,0,1.073,3.4,3.526,3.526,0,0,0,1.168.723l7.169,2.686a3.8,3.8,0,0,0,.914.215c.04,0,.071.008.111.008a2.078,2.078,0,0,0,.222.008,3.6,3.6,0,0,0,3.346-2.3l5.659-14.846,8.719-22.889,3.449-9.052c4,.938,37.536,8.361,48.766-3.6a12.767,12.767,0,0,0,2.575-4.061,16.533,16.533,0,0,0,.866-8.011Z" transform="translate(-329.325 -288.237)" fill="#2f2e41"/>
  <path id="Path_242" data-name="Path 242" d="M903.04,556.536c-.175-.707-.373-1.438-.6-2.178l-6.557-8.234-.206.008c-.414.024-2.376.127-5.389.374-3.417.286-8.194.747-13.559,1.47-.159.016-.326.04-.485.064-.525.072-1.057.143-1.59.223v1.47h9.934a1.99,1.99,0,0,1,1.971,1.733c.008.087.016.167.016.254a1.988,1.988,0,0,1-1.987,1.987H849.474c-1.534.5-3.012,1.025-4.427,1.589-7.423,2.941-12.978,6.8-14.115,11.81-.381,1.685-.8,3.537-1.248,5.508-1.653,7.328-3.664,16.3-5.484,24.455v.008c-.374,1.685-.747,3.322-1.1,4.912-1.518,6.835-2.805,12.629-3.489,15.672-.016.087-.031.167-.048.254v.016a3.709,3.709,0,0,0,.223,1.82l.008.008v.008a3.52,3.52,0,0,0,1.033,1.423,3.65,3.65,0,0,0,1.025.6l7.169,2.686a3.639,3.639,0,0,0,1.248.23,3.525,3.525,0,0,0,1.709-.437,3.577,3.577,0,0,0,1.637-1.868l15.434-40.5,2.392-6.286c4,.938,37.536,8.353,48.766-3.6a13.424,13.424,0,0,0,3.561-8.8A23.592,23.592,0,0,0,903.04,556.536Z" transform="translate(-331.994 -289.673)" fill="#2f2e41"/>
  <path id="Path_243" data-name="Path 243" d="M913.237,469.329c-.127-.151-.262-.3-.405-.445a19.449,19.449,0,0,0-16.666-5.873,63.073,63.073,0,0,0-7.876,1.55,19.854,19.854,0,0,0-8.885,4.983,19.4,19.4,0,0,0-5.889,14.465c.032,1.089.04,2.2.024,3.33,0,.525-.008,1.057-.016,1.59h7.836a4.228,4.228,0,0,1,1.009.119,4.38,4.38,0,0,1,3.362,4.252v36.972c.532.151,1.065.3,1.589.461.167.056.326.1.485.151.183.056.366.111.541.167q2.42.751,4.729,1.59h2.591a1.99,1.99,0,0,1,1.971,1.733c.541.215,1.065.429,1.581.644,1.836.763,3.576,1.526,5.174,2.265,2.154.985,4.069,1.923,5.675,2.742a3.646,3.646,0,0,0,1.629.4,3.5,3.5,0,0,0,2.066-.683,4.394,4.394,0,0,0,.357-.294,3.58,3.58,0,0,0,1.089-3.163,101.8,101.8,0,0,1-.715-18.836c.222-5.285.7-10.705,1.319-15.943.334-2.837.707-5.619,1.1-8.3.374-2.559.771-5.015,1.16-7.336A19.556,19.556,0,0,0,913.237,469.329Z" transform="translate(-343.073 -272.579)" fill="#90c2f1"/>
  <path id="Path_244" data-name="Path 244" d="M877.817,471.631a9.422,9.422,0,0,0-1.256-.437,9.138,9.138,0,0,0-10.761,5.19l-5.46,12.6-.683,1.59h18.859a4.226,4.226,0,0,1,1.009.119l.636-1.47,2.416-5.579A9.149,9.149,0,0,0,877.817,471.631Z" transform="translate(-340.23 -274.229)" fill="#90c2f1"/>
  <circle id="Ellipse_96" data-name="Ellipse 96" cx="19.52" cy="19.52" r="19.52" transform="translate(535.024 145.186)" fill="#ffb8b8"/>
  <path id="Path_245" data-name="Path 245" d="M920.065,501.016l-11.142.3-.811,7.828-.183,1.812-17.453,7.836-1.589.715v13.932l1.589-.453,5.023-1.431h.024l22.126-6.3.254-.072a8.646,8.646,0,0,0,6.247-8.226l.055-9.243.048-6.811Z" transform="translate(-346.229 -280.392)" fill="#ffb8b8"/>
  <path id="Path_246" data-name="Path 246" d="M927.96,479.349a9.141,9.141,0,1,0-18.247,1.121l1.216,19.837a3.566,3.566,0,0,0,1.454,2.655,3.525,3.525,0,0,0,2.337.691l8.52-.525,2.583-.159a3.485,3.485,0,0,0,2.464-1.2,2.5,2.5,0,0,0,.19-.238,3.552,3.552,0,0,0,.7-2.352Z" transform="translate(-350.5 -274.207)" fill="#90c2f1"/>
  <path id="Path_247" data-name="Path 247" d="M870.567,537.376h-1.025v-.1c-.525.072-1.057.143-1.59.223v1.47H875.3Q872.982,538.131,870.567,537.376Zm0,0h-1.025v-.1c-.525.072-1.057.143-1.59.223v1.47H875.3Q872.982,538.131,870.567,537.376Zm7.32,0h-8.345V499.626a5.969,5.969,0,0,0-4.316-5.722,5.6,5.6,0,0,0-1.645-.238H792.848a5.968,5.968,0,0,0-5.961,5.961v38.943a5.963,5.963,0,0,0,5.961,5.961h85.039a3.58,3.58,0,0,0,3.552-3.187,3.1,3.1,0,0,0,.024-.389,3.582,3.582,0,0,0-3.576-3.576Zm1.987,3.576a1.988,1.988,0,0,1-1.987,1.987H792.848a4.374,4.374,0,0,1-4.371-4.371V499.626a4.374,4.374,0,0,1,4.371-4.371h70.733a4.227,4.227,0,0,1,1.009.119,4.38,4.38,0,0,1,3.362,4.252v39.34h9.934a1.99,1.99,0,0,1,1.971,1.733C879.865,540.786,879.873,540.865,879.873,540.953Zm-9.307-3.576h-1.025v-.1c-.525.072-1.057.143-1.59.223v1.47H875.3Q872.982,538.131,870.567,537.376Z" transform="translate(-325.294 -278.906)" fill="#3f3d56"/>
  <circle id="Ellipse_97" data-name="Ellipse 97" cx="4.769" cy="4.769" r="4.769" transform="translate(498.149 235.424)" fill="#6c63ff"/>
  <path id="Path_249" data-name="Path 249" d="M207.033,676.067H821.61a.946.946,0,0,0,0-1.893H207.033a.946.946,0,1,0,0,1.893Z" transform="translate(-206.086 -315.955)" fill="#3f3d56"/>
  <path id="Path_250" data-name="Path 250" d="M246.516,574.636v1.59a9.943,9.943,0,0,0,9.934,9.934h71.528a9.938,9.938,0,0,0,9.934-9.934v-1.59a9.863,9.863,0,0,0-2.305-6.358,10.216,10.216,0,0,0-1.677-1.59s-39.324-.89-39.324-1.987H256.45A9.948,9.948,0,0,0,246.516,574.636Z" transform="translate(-214.384 -293.486)" fill="#3f3d56"/>
  <rect id="Rectangle_83" data-name="Rectangle 83" width="10.332" height="66.759" transform="translate(82.603 359.039) rotate(180)" fill="#3f3d56"/>
  <path id="Path_251" data-name="Path 251" d="M260.021,672.175c0,1.116,15.656.432,34.969.432s34.969.685,34.969-.432-15.656-9.969-34.969-9.969S260.021,671.058,260.021,672.175Z" transform="translate(-217.156 -313.499)" fill="#3f3d56"/>
  <path id="Path_252" data-name="Path 252" d="M163.53,431.312h9.744l4.635-37.582h-14.38Z" transform="translate(-33.564 -80.812)" fill="#a0616a"/>
  <path id="Path_253" data-name="Path 253" d="M0,0H30.623V11.831H11.831A11.831,11.831,0,0,1,0,0H0Z" transform="translate(158.499 359.548) rotate(179.997)" fill="#2f2e41"/>
  <path id="Path_254" data-name="Path 254" d="M179.762,423.8l9.3-2.918L182.23,383.64l-13.721,4.306Z" transform="translate(-34.586 -78.741)" fill="#a0616a"/>
  <path id="Path_255" data-name="Path 255" d="M0,0H30.623V11.831H11.831A11.831,11.831,0,0,1,0,0H0Z" transform="translate(175.11 345.153) rotate(162.577)" fill="#2f2e41"/>
  <path id="Path_256" data-name="Path 256" d="M362.43,616.157l-17.824-46.788c-4,.939-37.533,8.36-48.765-3.6-3.849-4.1-4.6-10.037-2.231-17.65l6.555-8.237.2.011c2.478.13,60.747,3.4,64.741,20.972,3.368,14.818,9.518,42.444,11.323,50.558a3.589,3.589,0,0,1-2.236,4.12l-7.168,2.688a3.547,3.547,0,0,1-1.249.227,3.587,3.587,0,0,1-3.349-2.3Z" transform="translate(-223.773 -288.392)" fill="#2f2e41"/>
  <path id="Path_257" data-name="Path 257" d="M349.43,623.157l-17.824-46.788c-4,.939-37.533,8.359-48.765-3.6-3.849-4.1-4.6-10.037-2.231-17.65l6.555-8.237.2.011c2.478.13,60.747,3.4,64.741,20.972,3.368,14.818,9.518,42.444,11.323,50.558a3.589,3.589,0,0,1-2.236,4.12l-7.168,2.688a3.546,3.546,0,0,1-1.249.227,3.586,3.586,0,0,1-3.349-2.3Z" transform="translate(-221.105 -289.829)" fill="#2f2e41"/>
  <path id="Path_258" data-name="Path 258" d="M342.534,522.159a15.256,15.256,0,0,1-13.1-7.448l-5.661-9.589,13.455-7.354,5.713,7.833,38.763-4.084a8.391,8.391,0,0,1,.635-.981h0a8.755,8.755,0,0,1,6.257-3.429,8.657,8.657,0,0,1,6.75,2.394,8.743,8.743,0,0,1-11.328,13.284,8.27,8.27,0,0,1-.654-.557L346.236,521.7A14.975,14.975,0,0,1,342.534,522.159Z" transform="translate(-230.241 -279.606)" fill="#a0616a"/>
  <path id="Path_259" data-name="Path 259" d="M279.458,540.5a3.582,3.582,0,0,1-1.445-3.456c2.211-14.578-.333-35.461-2.857-50.413a19.706,19.706,0,0,1,21.9-22.858,63.473,63.473,0,0,1,7.878,1.553h0A19.548,19.548,0,0,1,319.7,484.771c-.377,14.428,2.552,32.43,3.829,39.5a3.591,3.591,0,0,1-.663,2.79,3.491,3.491,0,0,1-2.46,1.391C306.258,529.9,291,536.8,283.158,540.784a3.577,3.577,0,0,1-1.629.4,3.52,3.52,0,0,1-2.071-.682Z" transform="translate(-220.205 -272.739)" fill="#ccc"/>
  <path id="Path_260" data-name="Path 260" d="M325.971,504.546a3.553,3.553,0,0,1-1.966-1.905l-7.893-18.234a9.139,9.139,0,0,1,16.775-7.261l7.893,18.234a3.581,3.581,0,0,1-1.861,4.7l-10.211,4.42a3.551,3.551,0,0,1-2.737.043Z" transform="translate(-228.514 -274.384)" fill="#ccc"/>
  <circle id="Ellipse_98" data-name="Ellipse 98" cx="19.52" cy="19.52" r="19.52" transform="translate(55.881 145.791)" fill="#a0616a"/>
  <path id="Path_261" data-name="Path 261" d="M281.819,441.7a3.159,3.159,0,0,1-4.522.26A35.307,35.307,0,0,1,267.226,428.8c-2.538-6.049-2.91-13.431-.021-19.1,2.441-4.793,6.824-7.844,11.2-10.337a18.275,18.275,0,0,1,5.442-2.3,7.148,7.148,0,0,1,5.686,1.118,6,6,0,0,1,2.287,5.744,17.766,17.766,0,0,1,7.79-5.847,9.032,9.032,0,0,1,6-.4c2.81.938,4.89,3.775,6.047,6.824a15.212,15.212,0,0,1,1,7.362,8.844,8.844,0,0,1-3.393,6.1c-2.292,1.581-5.245,1.421-7.91.721s-5.252-1.887-7.964-2.218-5.718.386-7.333,2.805c-1.138,1.7-1.406,3.947-1.638,6.086l-1.208,11.125a14.74,14.74,0,0,1-1.015,4.641A2.585,2.585,0,0,1,281.819,441.7Z" transform="translate(-218.215 -259.043)" fill="#2f2e41"/>
  <path id="Path_290" data-name="Path 290" d="M296.111,441.7a3.159,3.159,0,0,0,4.522.26A35.308,35.308,0,0,0,310.7,428.8c2.538-6.049,2.91-13.43.021-19.1-2.441-4.793-6.824-7.844-11.2-10.337a18.275,18.275,0,0,0-5.442-2.3,7.148,7.148,0,0,0-5.686,1.118,6,6,0,0,0-2.287,5.744,17.766,17.766,0,0,0-7.79-5.847,9.032,9.032,0,0,0-6-.4c-2.81.938-4.89,3.775-6.047,6.824a15.212,15.212,0,0,0-1,7.362,8.844,8.844,0,0,0,3.393,6.1c2.292,1.581,5.245,1.421,7.91.721s5.252-1.887,7.964-2.218,5.718.386,7.333,2.805c1.138,1.7,1.406,3.947,1.638,6.086l1.208,11.125a14.74,14.74,0,0,0,1.015,4.641A2.583,2.583,0,0,0,296.111,441.7Z" transform="translate(268.174 -259.043)" fill="#2f2e41"/>
  <path id="Path_262" data-name="Path 262" d="M365.891,592.6H334.2a3.375,3.375,0,0,1-2.667-1.292,3.432,3.432,0,0,1-.641-2.944,81.325,81.325,0,0,0,0-37.771,3.433,3.433,0,0,1,.642-2.944,3.375,3.375,0,0,1,2.667-1.292h31.689a3.42,3.42,0,0,1,3.367,2.866,133.127,133.127,0,0,1,0,40.513A3.419,3.419,0,0,1,365.891,592.6Z" transform="translate(-231.683 -289.72)" fill="#ccc"/>
  <path id="Path_263" data-name="Path 263" d="M344.352,567.172v-.931a2.387,2.387,0,0,1,2.384-2.384h16.629a2.387,2.387,0,0,1,2.384,2.384v.931a2.387,2.387,0,0,1-2.384,2.384H346.736A2.387,2.387,0,0,1,344.352,567.172Z" transform="translate(-234.465 -293.313)" fill="#fff"/>
  <path id="Path_264" data-name="Path 264" d="M344.352,579.517v-.932a2.387,2.387,0,0,1,2.384-2.384h16.629a2.387,2.387,0,0,1,2.384,2.384v.932a2.387,2.387,0,0,1-2.384,2.384H346.736a2.387,2.387,0,0,1-2.384-2.384Z" transform="translate(-234.465 -295.846)" fill="#fff"/>
  <path id="Path_265" data-name="Path 265" d="M357.02,520.485a3.49,3.49,0,0,1-.652-2.993,82.655,82.655,0,0,0,0-38.391,3.49,3.49,0,0,1,.653-2.993,3.431,3.431,0,0,1,2.71-1.313H391.94a3.475,3.475,0,0,1,3.423,2.913,135.3,135.3,0,0,1,0,41.178,3.475,3.475,0,0,1-3.423,2.913H359.731A3.431,3.431,0,0,1,357.02,520.485Z" transform="translate(-236.911 -275.033)" fill="#90c2f1"/>
  <path id="Path_266" data-name="Path 266" d="M388.333,495.124H371.366a2.387,2.387,0,0,1-2.384-2.384v-1.012a2.387,2.387,0,0,1,2.384-2.384h16.967a2.387,2.387,0,0,1,2.384,2.384v1.012A2.387,2.387,0,0,1,388.333,495.124Z" transform="translate(-239.52 -278.019)" fill="#fff"/>
  <path id="Path_267" data-name="Path 267" d="M388.333,507.671H371.366a2.387,2.387,0,0,1-2.384-2.384v-1.013a2.387,2.387,0,0,1,2.384-2.384h16.967a2.387,2.387,0,0,1,2.384,2.384v1.012A2.387,2.387,0,0,1,388.333,507.671Z" transform="translate(-239.52 -280.594)" fill="#fff"/>
  <path id="Path_268" data-name="Path 268" d="M324.826,543.484a8.757,8.757,0,0,1-5.193-4.894,8.149,8.149,0,0,1-.285-.81l-41.583-11.836a8.647,8.647,0,0,1-6.248-8.22l-.1-16.055,15.328.41,1,9.644L323.3,527.687a8.391,8.391,0,0,1,1.042-.528h0a8.75,8.75,0,1,1,.484,16.325Z" transform="translate(-219.495 -280.549)" fill="#a0616a"/>
  <path id="Path_269" data-name="Path 269" d="M271.484,502.533a3.553,3.553,0,0,1-.89-2.589l1.219-19.831a9.139,9.139,0,0,1,18.244,1.123l-1.219,19.831a3.581,3.581,0,0,1-3.789,3.35l-11.106-.683a3.551,3.551,0,0,1-2.46-1.2Z" transform="translate(-219.325 -274.364)" fill="#ccc"/>
  <path id="Path_270" data-name="Path 270" d="M477.93,354.547h-65.17a7.161,7.161,0,0,1-7.153-7.153V276.661a7.161,7.161,0,0,1,7.153-7.153h65.17a7.161,7.161,0,0,1,7.153,7.153v70.733A7.161,7.161,0,0,1,477.93,354.547ZM412.761,271.1a5.569,5.569,0,0,0-5.563,5.563v70.733a5.57,5.57,0,0,0,5.563,5.563h65.17a5.569,5.569,0,0,0,5.563-5.563V276.661a5.569,5.569,0,0,0-5.563-5.563Z" transform="translate(-247.038 -232.899)" fill="#3f3d56"/>
  <path id="Path_271" data-name="Path 271" d="M627.93,354.547h-65.17a7.161,7.161,0,0,1-7.153-7.153V276.661a7.161,7.161,0,0,1,7.153-7.153h65.17a7.161,7.161,0,0,1,7.153,7.153v70.733A7.161,7.161,0,0,1,627.93,354.547ZM562.761,271.1a5.569,5.569,0,0,0-5.563,5.563v70.733a5.569,5.569,0,0,0,5.563,5.563h65.17a5.57,5.57,0,0,0,5.563-5.563V276.661a5.569,5.569,0,0,0-5.563-5.563Z" transform="translate(-277.825 -232.899)" fill="#3f3d56"/>
  <path id="Path_272" data-name="Path 272" d="M428.557,303.019H422.2a3.58,3.58,0,0,1-3.576-3.576v-6.358a3.58,3.58,0,0,1,3.576-3.576h6.358a3.58,3.58,0,0,1,3.576,3.576v6.358A3.58,3.58,0,0,1,428.557,303.019Z" transform="translate(-249.709 -237.003)" fill="#90c2f1"/>
  <path id="Path_273" data-name="Path 273" d="M428.557,328.019H422.2a3.58,3.58,0,0,1-3.576-3.576v-6.358a3.58,3.58,0,0,1,3.576-3.576h6.358a3.58,3.58,0,0,1,3.576,3.576v6.358A3.58,3.58,0,0,1,428.557,328.019Z" transform="translate(-249.709 -242.135)" fill="#ccc"/>
  <path id="Path_274" data-name="Path 274" d="M481.311,300.152H451.628a2.387,2.387,0,0,1-2.384-2.384v-1.012a2.387,2.387,0,0,1,2.384-2.384h29.684a2.387,2.387,0,0,1,2.384,2.384v1.012a2.387,2.387,0,0,1-2.385,2.384Z" transform="translate(-255.994 -238.002)" fill="#90c2f1"/>
  <path id="Path_275" data-name="Path 275" d="M579.247,301.45h-6.358a3.58,3.58,0,0,1-3.576-3.576v-6.358a3.58,3.58,0,0,1,3.576-3.576h6.358a3.58,3.58,0,0,1,3.576,3.576v6.358A3.58,3.58,0,0,1,579.247,301.45Z" transform="translate(-280.638 -236.681)" fill="#ccc"/>
  <path id="Path_276" data-name="Path 276" d="M632,298.583H602.318a2.387,2.387,0,0,1-2.384-2.384v-1.012a2.387,2.387,0,0,1,2.384-2.384H632a2.387,2.387,0,0,1,2.384,2.384V296.2A2.387,2.387,0,0,1,632,298.583Z" transform="translate(-286.922 -237.68)" fill="#ccc"/>
  <path id="Path_277" data-name="Path 277" d="M625.434,322.583H570.318a2.387,2.387,0,0,1-2.384-2.384v-1.012a2.387,2.387,0,0,1,2.384-2.384h55.116a2.387,2.387,0,0,1,2.384,2.384V320.2a2.387,2.387,0,0,1-2.385,2.384Z" transform="translate(-280.355 -242.605)" fill="#90c2f1"/>
  <path id="Path_278" data-name="Path 278" d="M625.434,339.583H570.318a2.387,2.387,0,0,1-2.384-2.384v-1.012a2.387,2.387,0,0,1,2.384-2.384h55.116a2.387,2.387,0,0,1,2.384,2.384V337.2a2.387,2.387,0,0,1-2.385,2.384Z" transform="translate(-280.355 -246.095)" fill="#ccc"/>
  <path id="Path_279" data-name="Path 279" d="M625.434,356.583H570.318a2.387,2.387,0,0,1-2.384-2.384v-1.012a2.387,2.387,0,0,1,2.384-2.384h55.116a2.387,2.387,0,0,1,2.384,2.384V354.2a2.387,2.387,0,0,1-2.385,2.384Z" transform="translate(-280.355 -249.584)" fill="#ccc"/>
  <path id="Path_280" data-name="Path 280" d="M777.93,354.547h-65.17a7.161,7.161,0,0,1-7.153-7.153V276.661a7.161,7.161,0,0,1,7.153-7.153h65.17a7.161,7.161,0,0,1,7.153,7.153v70.733A7.161,7.161,0,0,1,777.93,354.547ZM712.761,271.1a5.57,5.57,0,0,0-5.563,5.563v70.733a5.57,5.57,0,0,0,5.563,5.563h65.17a5.57,5.57,0,0,0,5.563-5.563V276.661a5.569,5.569,0,0,0-5.563-5.563Z" transform="translate(-308.612 -232.899)" fill="#3f3d56"/>
  <path id="Path_281" data-name="Path 281" d="M782,298.583H752.318a2.387,2.387,0,0,1-2.384-2.384v-1.012a2.387,2.387,0,0,1,2.384-2.384H782a2.387,2.387,0,0,1,2.384,2.384V296.2A2.387,2.387,0,0,1,782,298.583Z" transform="translate(-317.71 -237.68)" fill="#ccc"/>
  <path id="Path_282" data-name="Path 282" d="M775.434,322.583H720.318a2.387,2.387,0,0,1-2.384-2.384v-1.012a2.387,2.387,0,0,1,2.384-2.384h55.116a2.387,2.387,0,0,1,2.384,2.384V320.2A2.387,2.387,0,0,1,775.434,322.583Z" transform="translate(-311.142 -242.605)" fill="#ccc"/>
  <path id="Path_283" data-name="Path 283" d="M775.434,339.583H720.318a2.387,2.387,0,0,1-2.384-2.384v-1.012a2.387,2.387,0,0,1,2.384-2.384h55.116a2.387,2.387,0,0,1,2.384,2.384V337.2A2.387,2.387,0,0,1,775.434,339.583Z" transform="translate(-311.142 -246.095)" fill="#ccc"/>
  <path id="Path_284" data-name="Path 284" d="M775.434,356.583H720.318a2.387,2.387,0,0,1-2.384-2.384v-1.012a2.387,2.387,0,0,1,2.384-2.384h55.116a2.387,2.387,0,0,1,2.384,2.384V354.2A2.387,2.387,0,0,1,775.434,356.583Z" transform="translate(-311.142 -249.584)" fill="#ccc"/>
  <path id="Path_285" data-name="Path 285" d="M481.311,325.152H451.628a2.387,2.387,0,0,1-2.384-2.384v-1.012a2.387,2.387,0,0,1,2.384-2.384h29.684a2.387,2.387,0,0,1,2.384,2.384v1.012a2.387,2.387,0,0,1-2.385,2.384Z" transform="translate(-255.994 -243.133)" fill="#ccc"/>
  <path id="Path_286" data-name="Path 286" d="M428.557,353.019H422.2a3.58,3.58,0,0,1-3.576-3.576v-6.358a3.58,3.58,0,0,1,3.576-3.576h6.358a3.58,3.58,0,0,1,3.576,3.576v6.358a3.58,3.58,0,0,1-3.576,3.576Z" transform="translate(-249.709 -247.266)" fill="#ccc"/>
  <path id="Path_287" data-name="Path 287" d="M481.311,350.152H451.628a2.387,2.387,0,0,1-2.384-2.384v-1.012a2.387,2.387,0,0,1,2.384-2.384h29.684a2.387,2.387,0,0,1,2.384,2.384v1.012A2.387,2.387,0,0,1,481.311,350.152Z" transform="translate(-255.994 -248.264)" fill="#ccc"/>
  <path id="Path_288" data-name="Path 288" d="M734.758,293.647c0-.018,0-.036,0-.054a7.153,7.153,0,0,0-7.153-7.153v7.207Z" transform="translate(-313.127 -236.374)" fill="#90c2f1"/>
  <path id="Path_289" data-name="Path 289" d="M724.76,294.647v-7.208a7.153,7.153,0,1,0,7.15,7.207Z" transform="translate(-311.074 -236.579)" fill="#ccc"/>
</svg>
