<svg id="project_goals" data-name="project goals" xmlns="http://www.w3.org/2000/svg" width="578.114" height="351.353" viewBox="0 0 578.114 351.353">
  <path id="Path_291" data-name="Path 291" d="M577.847,521.639H0v-1.467H578.114Z" transform="translate(0 -170.286)" fill="#3f3d56"/>
  <path id="Path_292" data-name="Path 292" d="M881.968,359.966l-14.622,28.948-43.722,19.877c-4.669,7.891-19.506,8.495-20.585,3.392-1.211-5.725,18.017-14.938,18.017-14.938l36.57-24.735,3.2-21.294Z" transform="translate(-377.393 -241.985)" fill="#a0616a"/>
  <path id="Path_293" data-name="Path 293" d="M740.495,464.215l2.7,21.573-15.641,1.079-1.618-22.652Z" transform="translate(-237.645 -151.968)" fill="#a0616a"/>
  <path id="Path_294" data-name="Path 294" d="M894.8,675.3a42.352,42.352,0,0,0,3.859-4.72c2.242-3.1,4.23,12.81,4.23,12.81s2.157,6.472,1.618,9.708-12.944,3.236-15.1,2.7-12.944,0-12.944,0h-16.18c-14.023-6.472,0-10.787,0-10.787,4.315-.539,18.877-14.023,18.877-14.023l3.236-5.933c2.157-.539,4.315,7.551,4.315,7.551Z" transform="translate(-394.112 -344.716)" fill="#2f2e41"/>
  <path id="Path_295" data-name="Path 295" d="M800.631,464.616l2.7,21.573-15.641,1.079-1.618-22.652Z" transform="translate(-257.331 -152.099)" fill="#a0616a"/>
  <path id="Path_296" data-name="Path 296" d="M954.941,675.7a42.347,42.347,0,0,0,3.859-4.72c2.241-3.1,4.23,12.81,4.23,12.81s2.157,5.933,1.618,9.169-12.944,3.236-15.1,2.7-12.944.539-12.944.539h-16.18c-14.023-6.472,0-10.787,0-10.787,4.315-.539,18.877-14.023,18.877-14.023l3.236-5.933c2.157-.539,4.315,7.551,4.315,7.551Z" transform="translate(-413.798 -344.847)" fill="#2f2e41"/>
  <path id="Path_297" data-name="Path 297" d="M921.86,445.987c2.157,2.7,1.079,11.865,1.079,11.865s3.775,29.663,2.157,32.36,1.079,4.854,2.7,8.629,3.236,12.944,3.236,12.944c9.169,7.551,8.629,42.068,8.629,42.068l3.236,30.742c-1.079,3.236-16.18,3.775-18.337,3.236s-8.629-49.079-8.629-49.079l-14.562-27.506s1.079,73.35,1.079,76.586-14.562,1.618-17.8,1.618-3.236-53.933-3.236-53.933l-3.236-14.023-17.258-64.181v-7.55l2.7-3.775S919.7,443.29,921.86,445.987Z" transform="translate(-396.358 -272.617)" fill="#2f2e41"/>
  <circle id="Ellipse_99" data-name="Ellipse 99" cx="16.719" cy="16.719" r="16.719" transform="translate(485.052 17.502)" fill="#a0616a"/>
  <path id="Path_298" data-name="Path 298" d="M901.187,251.326c3.389,7.547,1.382,18.087-5.393,29.663L923.3,268.046l-4.315-3.775,1.079-10.787Z" transform="translate(-407.776 -209.285)" fill="#a0616a"/>
  <path id="Path_299" data-name="Path 299" d="M889.9,274.885c-3.6,2.141-5.757,6.076-6.994,10.08a95.525,95.525,0,0,0-4.1,22.822L877.5,330.976l-16.18,61.484c14.023,11.865,22.113,9.169,40.989-.539s21.034,3.236,21.034,3.236,1.618-.539,0-2.157,0,0,1.618-1.618,0,0-.539-1.618,0-.539.539-1.079-2.157-5.393-2.157-5.393l4.315-40.45,5.393-57.169c-6.472-8.09-24.809-15.1-24.809-15.1l-16.719,11.865c-5.393,2.157-1.079-6.472-1.079-6.472Z" transform="translate(-396.489 -215.584)" fill="#90c2f1"/>
  <path id="Path_300" data-name="Path 300" d="M962.893,343.937l2.157,32.36-27.506,39.371c0,9.169-4.854,11.326-4.854,11.326a71.275,71.275,0,0,1-4.854-9.169c-2.7-5.933,1.618-10.787,1.618-10.787l18.877-39.911-8.09-19.955Z" transform="translate(-417.975 -239.602)" fill="#a0616a"/>
  <path id="Path_301" data-name="Path 301" d="M957.164,292.881c9.169,3.236,10.787,38.293,10.787,38.293-10.787-5.933-23.731,3.775-23.731,3.775s-2.7-9.169-5.933-21.034A20.612,20.612,0,0,1,942.6,294.5S947.995,289.645,957.164,292.881Z" transform="translate(-421.414 -222.524)" fill="#90c2f1"/>
  <path id="Path_302" data-name="Path 302" d="M923.326,233.513c-2.128-1.7-5.032,1.392-5.032,1.392l-1.7-15.325s-10.642,1.277-17.453-.426-7.875,6.173-7.875,6.173a54.659,54.659,0,0,1-.213-9.578c.426-3.831,5.96-7.662,15.75-10.217s14.9,8.514,14.9,8.514C928.511,217.453,925.455,235.216,923.326,233.513Z" transform="translate(-406.184 -194.168)" fill="#2f2e41"/>
  <path id="Path_303" data-name="Path 303" d="M210.665,538.128c1.838,7.3,17.513,23.707,33.686,39.116-24.941-61.6-10.729-129.025-10.729-129.025C228.992,474.7,292.46,607.951,292.46,607.951L278,616.475l-4.883,6.872C224.167,600.863,210.665,538.128,210.665,538.128Z" transform="translate(-183.489 -273.741)" fill="#e6e6e6"/>
  <rect id="Rectangle_84" data-name="Rectangle 84" width="204.462" height="40.368" transform="translate(244.494 127.782)" fill="#e6e6e6"/>
  <rect id="Rectangle_85" data-name="Rectangle 85" width="204.462" height="40.368" transform="translate(244.494 63.996)" fill="#e6e6e6"/>
  <rect id="Rectangle_86" data-name="Rectangle 86" width="204.462" height="40.368" transform="translate(244.494)" fill="#e6e6e6"/>
  <path id="Path_304" data-name="Path 304" d="M540.23,226.954H735.974V195.3H540.23Z" transform="translate(-291.377 -190.945)" fill="#fff"/>
  <path id="Path_305" data-name="Path 305" d="M540.23,322.305H735.974v-31.65H540.23Z" transform="translate(-291.377 -222.159)" fill="#fff"/>
  <path id="Path_306" data-name="Path 306" d="M540.23,416.926H735.974v-31.65H540.23Z" transform="translate(-291.377 -253.135)" fill="#fff"/>
  <circle id="Ellipse_100" data-name="Ellipse 100" cx="12.058" cy="12.058" r="12.058" transform="translate(253.931 7.864)" fill="#90c2f1"/>
  <rect id="Rectangle_87" data-name="Rectangle 87" width="119.007" height="2.621" transform="translate(294.823 15.204)" fill="#90c2f1"/>
  <rect id="Rectangle_88" data-name="Rectangle 88" width="119.007" height="2.621" transform="translate(294.823 22.019)" fill="#90c2f1"/>
  <circle id="Ellipse_101" data-name="Ellipse 101" cx="12.058" cy="12.058" r="12.058" transform="translate(253.931 72.384)" fill="#ccc"/>
  <rect id="Rectangle_89" data-name="Rectangle 89" width="119.007" height="2.621" transform="translate(294.823 79.724)" fill="#ccc"/>
  <rect id="Rectangle_90" data-name="Rectangle 90" width="119.007" height="2.621" transform="translate(294.823 86.539)" fill="#ccc"/>
  <circle id="Ellipse_102" data-name="Ellipse 102" cx="12.058" cy="12.058" r="12.058" transform="translate(253.931 136.17)" fill="#ccc"/>
  <rect id="Rectangle_91" data-name="Rectangle 91" width="119.007" height="2.621" transform="translate(294.823 143.51)" fill="#ccc"/>
  <rect id="Rectangle_92" data-name="Rectangle 92" width="119.007" height="2.621" transform="translate(294.823 150.325)" fill="#ccc"/>
  <path id="Path_307" data-name="Path 307" d="M309.5,359.55s-2.819,17.72,8.86,16.109c0,0,46.314-10.471,48.731-8.055s17.439,3.239,16.655-6.948c-.786-10.222-15.85-4.328-15.85-4.328s-23.359,3.222-28.191.805-18.526-1.611-18.526-1.611Z" transform="translate(-215.744 -243.105)" fill="#a0616a"/>
  <path id="Path_308" data-name="Path 308" d="M345.732,447.853l-6.422,60.932s-2.014,24.164-8.055,29.4c0,0,0,7.652-2.014,10.068l-2.819,31.816s4.027,11.679,3.625,13.693,1.611,8.457,1.208,9.263-19.331,0-19.331,0l4.027-64.84,12.485-90.212Z" transform="translate(-216.637 -273.621)" fill="#2f2e41"/>
  <path id="Path_309" data-name="Path 309" d="M307.144,672.8s-8.446,21.3-4.039,23.869,50.677.734,50.677.734,7.712-4.774-1.1-8.079c0,0-7.344-.367-12.118-3.3a70.213,70.213,0,0,1-10.282-8.445s-.367-8.079-3.3-6.243a7.547,7.547,0,0,0-3.3,5.141Z" transform="translate(-213.333 -346.691)" fill="#2f2e41"/>
  <path id="Path_310" data-name="Path 310" d="M287.533,668.426s-9.263,23.359-4.43,26.178,55.577.805,55.577.805,8.457-5.236-1.208-8.86c0,0-8.055-.4-13.29-3.625s-11.276-9.263-11.276-9.263-.4-8.86-3.625-6.846a8.277,8.277,0,0,0-3.625,5.638Z" transform="translate(-206.745 -345.203)" fill="#2f2e41"/>
  <path id="Path_311" data-name="Path 311" d="M324.691,441.527s-4.43,41.482-6.444,50.342a114.538,114.538,0,0,0-2.416,17.72s-.4,12.888-4.027,16.512a10.885,10.885,0,0,0-3.222,8.055s-3.625,40.676-1.611,45.509S311.718,590.776,309.7,594s-24.884.971-24.884-1.446,0-4.43-1.208-5.638,0-8.86,0-8.86-4.833-35.843-.4-46.314,6.444-39.065,6.444-39.065-3.222-32.621-7.249-37.857.805-23.761.805-23.761Z" transform="translate(-206.449 -268.122)" fill="#2f2e41"/>
  <path id="Path_312" data-name="Path 312" d="M329.2,249.472a5.414,5.414,0,0,0,2.609,2.222c5.913,3.258,10.862,7.98,15.739,12.649a18.476,18.476,0,0,1,.733-12.495c.582-1.348,1.345-2.8.929-4.206a5.236,5.236,0,0,0-2.042-2.443,63.312,63.312,0,0,0-6.228-4.249c-1.508-.9-4.608-3.3-6.339-3.043a16.075,16.075,0,0,1-1.162,6.614C333.191,245.04,329.374,249.88,329.2,249.472Z" transform="translate(-222.291 -204.885)" fill="#a0616a"/>
  <circle id="Ellipse_103" data-name="Ellipse 103" cx="16.512" cy="16.512" r="16.512" transform="translate(110.993 16.742)" fill="#a0616a"/>
  <path id="Path_313" data-name="Path 313" d="M332.43,282.028s2.819-14.1-5.236-18.928-17.318-10.471-17.318-10.471-2.819-.4-4.027,5.638c0,0-22.956,4.43-25.372,26.178s1.611,53.564,1.611,53.564-3.625,27.789-8.055,42.69c0,0-3.625,3.222,12.485-1.611s44.3,13.693,44.3,13.693,2.819-2.819,2.819-4.833,6.041-63.229,7.249-68.868S336.054,282.834,332.43,282.028Z" transform="translate(-204.119 -209.709)" fill="#e6e6e6"/>
  <path id="Path_314" data-name="Path 314" d="M345.311,227.379a6.886,6.886,0,0,1,3.238-.862,6.163,6.163,0,0,0,3.2-.955c1.56-1.2,1.674-3.512,2.815-5.113,1.652-2.319,4.948-2.6,7.792-2.482,1.74.071,3.613.175,5.079-.766,1.5-.966,2.186-2.786,2.693-4.5.6-2.027.988-4.506-.5-6.009-1.032-1.044-2.661-1.25-3.807-2.167-.62-.5-8.822-2.489-16.521-4.28a16.093,16.093,0,0,0-18.77,10.187c-1.778,4.889-3.3,9.482-3.144,10.474.753,4.748,4.952,8.523,5.241,13.322a8.178,8.178,0,0,1,4.992-5.935,1.562,1.562,0,0,1,1.017-.123c.417.133.661.55.924.9.69.917,2.857,2.309,4.086,1.658C344.749,230.145,343.929,228.317,345.311,227.379Z" transform="translate(-221.697 -192.425)" fill="#3f3d56"/>
  <path id="Path_315" data-name="Path 315" d="M365,353.862a1.837,1.837,0,0,0-.038,2.585l11.611,12.017a1.833,1.833,0,0,0,2.611.025l35.43-35.277a1.833,1.833,0,0,0-.293-2.834L400.385,321.3a1.822,1.822,0,0,0-2.281.225Z" transform="translate(-233.831 -232.094)" fill="#3f3d56"/>
  <path id="Path_316" data-name="Path 316" d="M414.807,335.737a1.847,1.847,0,0,1-.243.3L379.217,371.98a1.833,1.833,0,0,1-2.611-.025l-11.861-12.517a1.825,1.825,0,0,1-.217-.273,1.645,1.645,0,0,0,.383,2.106l11.611,12.017a1.833,1.833,0,0,0,2.611.025l35.43-35.277a1.833,1.833,0,0,0,.243-2.3Z" transform="translate(-233.785 -236.918)" fill="#6c63ff"/>
  <path id="Path_317" data-name="Path 317" d="M412.47,332.235l-1.442-.919a1.374,1.374,0,0,1-1.977,1.8l-9.33-6.414a1.373,1.373,0,0,1,.363-2.441l-.743-.474a.5.5,0,0,0-.624.07L367.33,354.706a.5.5,0,0,0,.013.715l11.4,11.107a.5.5,0,0,0,.7-.01l33.117-33.508a.5.5,0,0,0-.084-.775Z" transform="translate(-234.728 -232.981)" fill="#fff"/>
  <path id="Path_318" data-name="Path 318" d="M210.391,160.565l9.629,9.079,22.9-22.627L231.3,139.451Z" transform="translate(-68.875 -45.651)" fill="#e6e6e6"/>
  <path id="Path_319" data-name="Path 319" d="M427.646,346.573a.341.341,0,0,0,.471,0l2-2a.334.334,0,0,0,0-.471.341.341,0,0,0-.471,0l-2,2a.334.334,0,0,0,0,.471Z" transform="translate(-254.489 -239.624)" fill="#3f3d56"/>
  <path id="Path_320" data-name="Path 320" d="M422.63,351.587a.334.334,0,0,0,.471,0l2-2a.333.333,0,1,0-.471-.471l-2,2A.334.334,0,0,0,422.63,351.587Z" transform="translate(-252.846 -241.265)" fill="#3f3d56"/>
  <circle id="Ellipse_104" data-name="Ellipse 104" cx="2.249" cy="2.249" r="2.249" transform="translate(139.49 120.457)" fill="#90c2f1"/>
  <path id="Path_321" data-name="Path 321" d="M292.02,350.23s-2.819,17.72,8.86,16.109c0,0,46.314-10.471,48.731-8.055s17.439,3.239,16.655-6.948c-.786-10.222-15.85-4.328-15.85-4.328s-23.359,3.222-28.191.805S303.7,346.2,303.7,346.2Z" transform="translate(-210.023 -240.054)" fill="#a0616a"/>
  <path id="Path_322" data-name="Path 322" d="M307.894,269.4s-18.123,2.014-18.123,28.191v33.427l22.15-9.263s9.263-21.748,8.457-27.789S319.976,270.2,307.894,269.4Z" transform="translate(-209.385 -215.2)" fill="#e6e6e6"/>
</svg>
