<svg xmlns="http://www.w3.org/2000/svg" xmlns:xlink="http://www.w3.org/1999/xlink" width="374" height="351.5" viewBox="0 0 374 351.5"><defs><filter id="a" x="0" y="0" width="374" height="335" filterUnits="userSpaceOnUse"><feOffset dy="3" input="SourceAlpha"/><feGaussianBlur stdDeviation="3" result="b"/><feFlood flood-opacity="0.161"/><feComposite operator="in" in2="b"/><feComposite in="SourceGraphic"/></filter></defs><g transform="translate(9 6)"><g transform="matrix(1, 0, 0, 1, -9, -6)" filter="url(#a)"><rect width="356" height="317" rx="10" transform="translate(9 6)" fill="#f5f9fc"/></g><g transform="translate(53.208 66.117)"><rect width="90.763" height="2.662" transform="translate(125.166 58.909)" fill="#e6e6e6"/><rect width="22.993" height="22.993" transform="translate(132.669 36.642)" fill="#e6e6e6"/><rect width="13.796" height="13.796" transform="translate(137.268 41.241)" fill="#ccc"/><rect width="5.809" height="22.993" transform="translate(184.222 36.642)" fill="#e6e6e6"/><rect width="5.809" height="2.662" transform="translate(184.222 40.273)" fill="#ccc"/><rect width="5.809" height="2.662" transform="translate(184.222 51.89)" fill="#ccc"/><rect width="5.809" height="22.993" transform="translate(175.267 36.642)" fill="#e6e6e6"/><rect width="5.809" height="2.662" transform="translate(175.267 40.273)" fill="#ccc"/><rect width="5.809" height="2.662" transform="translate(175.267 51.89)" fill="#ccc"/><rect width="5.809" height="22.993" transform="matrix(0.896, -0.444, 0.444, 0.896, 189.83, 39.125)" fill="#e6e6e6"/><rect width="5.809" height="2.662" transform="matrix(0.896, -0.444, 0.444, 0.896, 191.441, 42.378)" fill="#ccc"/><rect width="5.809" height="2.662" transform="matrix(0.896, -0.444, 0.444, 0.896, 196.596, 52.79)" fill="#ccc"/><path d="M508.808,170.382l2.925,5.067,2.925,5.067h-11.7l2.925-5.067Z" transform="translate(-367.547 -124.51)" fill="#e6e6e6"/><path d="M527.687,173.978l2.925,5.067,2.925,5.067h-11.7l2.925-5.067Z" transform="translate(-381.343 -127.138)" fill="#e6e6e6"/><circle cx="1.694" cy="1.694" r="1.694" transform="translate(146.707 41.967)" fill="#e6e6e6"/><rect width="90.763" height="2.662" transform="translate(215.929 25.024) rotate(180)" fill="#e6e6e6"/><rect width="22.993" height="22.993" transform="translate(208.426 23.088) rotate(180)" fill="#e6e6e6"/><rect width="13.796" height="13.796" transform="translate(203.827 18.489) rotate(180)" fill="#ccc"/><rect width="5.809" height="22.993" transform="translate(156.872 23.088) rotate(180)" fill="#e6e6e6"/><rect width="5.809" height="2.662" transform="translate(156.872 6.388) rotate(180)" fill="#ccc"/><rect width="5.809" height="2.662" transform="translate(156.872 18.006) rotate(180)" fill="#ccc"/><rect width="5.809" height="22.993" transform="translate(165.828 23.088) rotate(180)" fill="#e6e6e6"/><rect width="5.809" height="2.662" transform="translate(165.828 6.388) rotate(180)" fill="#ccc"/><rect width="5.809" height="2.662" transform="translate(165.828 18.006) rotate(180)" fill="#ccc"/><rect width="5.809" height="22.993" transform="matrix(-0.896, -0.444, 0.444, -0.896, 141.063, 23.183)" fill="#e6e6e6"/><rect width="5.809" height="2.662" transform="matrix(-0.896, -0.444, 0.444, -0.896, 148.472, 8.217)" fill="#ccc"/><rect width="5.809" height="2.662" transform="matrix(-0.896, -0.444, 0.444, -0.896, 143.318, 18.628)" fill="#ccc"/><path d="M726.364,34.634,723.439,39.7l-2.925,5.067h11.7L729.289,39.7Z" transform="translate(-526.531 -25.31)" fill="#e6e6e6"/><path d="M707.485,38.23,704.56,43.3l-2.925,5.067h11.7L710.411,43.3Z" transform="translate(-512.735 -27.938)" fill="#e6e6e6"/><circle cx="1.694" cy="1.694" r="1.694" transform="translate(190.999 5.42)" fill="#e6e6e6"/><rect width="90.763" height="2.662" transform="translate(215.929 98.119) rotate(180)" fill="#e6e6e6"/><rect width="22.993" height="22.993" transform="translate(208.426 96.182) rotate(180)" fill="#e6e6e6"/><rect width="13.796" height="13.796" transform="translate(203.827 91.584) rotate(180)" fill="#ccc"/><rect width="5.809" height="22.993" transform="translate(156.872 96.182) rotate(180)" fill="#e6e6e6"/><rect width="5.809" height="2.662" transform="translate(156.872 79.482) rotate(180)" fill="#ccc"/><rect width="5.809" height="2.662" transform="translate(156.872 91.1) rotate(180)" fill="#ccc"/><rect width="5.809" height="22.993" transform="translate(165.828 96.182) rotate(180)" fill="#e6e6e6"/><rect width="5.809" height="2.662" transform="translate(165.828 79.482) rotate(180)" fill="#ccc"/><rect width="5.809" height="2.662" transform="translate(165.828 91.1) rotate(180)" fill="#ccc"/><rect width="5.809" height="22.993" transform="matrix(-0.896, -0.444, 0.444, -0.896, 141.063, 96.278)" fill="#e6e6e6"/><rect width="5.809" height="2.662" transform="matrix(-0.896, -0.444, 0.444, -0.896, 148.472, 81.311)" fill="#ccc"/><rect width="5.809" height="2.662" transform="matrix(-0.896, -0.444, 0.444, -0.896, 143.318, 91.723)" fill="#ccc"/><path d="M726.364,306.129l-2.925,5.067-2.925,5.067h11.7l-2.925-5.067Z" transform="translate(-526.531 -223.71)" fill="#e6e6e6"/><path d="M707.485,309.725l-2.925,5.067-2.925,5.067h11.7l-2.925-5.067Z" transform="translate(-512.735 -226.338)" fill="#e6e6e6"/><circle cx="1.694" cy="1.694" r="1.694" transform="translate(190.999 78.514)" fill="#e6e6e6"/><ellipse cx="106.919" cy="7.594" rx="106.919" ry="7.594" transform="translate(0 143.904)" fill="#e6e6e6"/><path d="M753.023,670.389c-17.434-3.1-36.5-2.587-56.5,0,9.115-7.695,16.981-15.39,7.867-23.085,17.78,3.668,20.27,3.3,40.048,0C739.854,655,748.435,662.694,753.023,670.389Z" transform="translate(-562.574 -514.638)" fill="#90c2f1"/><path d="M753.023,670.389c-17.434-3.1-36.5-2.587-56.5,0,9.115-7.695,16.981-15.39,7.867-23.085,17.78,3.668,20.27,3.3,40.048,0C739.854,655,748.435,662.694,753.023,670.389Z" transform="translate(-562.574 -514.638)" opacity="0.2"/><path d="M760.313,670.839c-14.81-2.477-31-2.065-47.992,0,7.743-6.142,14.425-12.284,6.683-18.427,15.1,2.928,17.219,2.632,34.019,0C749.126,658.554,756.416,664.7,760.313,670.839Z" transform="translate(-574.117 -518.371)" fill="#90c2f1"/><circle cx="7.891" cy="7.891" r="7.891" transform="translate(172.665 126.789)" fill="#2f2e41" opacity="0"/><path d="M513.682,466.249l5.467.911,2.734,7.9-7.9,4.86-9.113-13.669h8.809Z" transform="translate(-368.947 -340.722)" fill="#a0616a"/><circle cx="12.757" cy="12.757" r="12.757" transform="translate(147.469 112.163)" fill="#a0616a"/><path d="M405.669,445.919s-30.982,3.341-36.45,2.734a67.694,67.694,0,0,1-7.9-1.215s-3.645,4.86-1.823,6.986a13.145,13.145,0,0,0,3.645,3.037s3.341-.911,5.771,0,27.034,4.86,31.286,1.215S405.669,445.919,405.669,445.919Z" transform="translate(-315.912 -367.472)" fill="#2f2e41"/><path d="M416.6,544.251s-20.351-5.771-24-31.286v-2.43s-4.027,7.064-5.468,8.5c-1.671,1.671-7.594,16.706-7.29,18.225a3.639,3.639,0,0,1,0,2.126l-8.809-.911v-2.734s4.708-14.124,5.012-17.465S387.744,491.7,387.744,491.7s4.252-8.809,11.542,0,7.9,14.884,7.9,14.884l9.416,18.225Z" transform="translate(-324.717 -398.068)" fill="#2f2e41"/><path d="M324.82,431.044,315.1,427.7s-9.112-6.682-6.986,0,11.846,21.262,14.58,19.743,6.021-5.289,5.289-5.834S322.39,437.119,324.82,431.044Z" transform="translate(-278.498 -351.99)" fill="#2f2e41"/><path d="M338.357,659.259l-7.846,3.832s-9.489,1.46-4.2,4.2,19.89,5.657,20.619,3.1.44-6.794-.327-6.682S340.546,664.368,338.357,659.259Z" transform="translate(-290.86 -523.375)" fill="#2f2e41"/><path d="M522.458,600.787s-3.949,17.01,2.734,20.655,53.459,4.252,57.1-2.43,1.823-6.682,1.823-6.682l-9.72-10.935,7.9-.607a2.835,2.835,0,0,0-2.734-2.734c-2.734-.3-11.239-3.341-18.529-1.215s-11.542-4.252-11.542-4.252Z" transform="translate(-434.524 -474.652)" fill="#575a89"/><path d="M293.421,266.947,288.257,295.2l35.538-4.253,6.379-25.515Z" transform="translate(-210.65 -193.967)" fill="#3f3d56"/><path d="M299.843,270.9l-4.252,25.211,32.349-3.8,6.227-22.933Z" transform="translate(-216.009 -196.853)" fill="#fff"/><path d="M287.823,376.3l-1.215-.3L286,377.208l9.72,27.034.914-.349.3-1.777Z" transform="translate(-209.001 -274.765)" fill="#b3b3b3"/><path d="M288.257,364.147l9.72,28.249,36.753-5.468L323.8,360.2Z" transform="translate(-210.65 -263.223)" fill="#d0cde1"/><path d="M306.309,363.235v1.519l27.033-3.037-.3-1.519Z" transform="translate(-223.842 -263.223)" fill="#3f3d56"/><path d="M308.565,375.342l4.252,11.846,27.641-3.341-4.86-11.239Z" transform="translate(-225.49 -272.291)" fill="#3f3d56"/><path d="M602.863,565.5l-.911-2.43s-6.986-12.15-10.631-9.72,7.594,14.276,7.594,14.276h3.645Z" transform="translate(-485.161 -445.748)" fill="#a0616a"/><path d="M546.075,567.31l-.911-3.645s-2.43-11.239,1.823-10.631,5.467,11.239,5.467,11.239l-.3,2.43Z" transform="translate(-451.457 -445.731)" fill="#a0616a"/><path d="M554.353,599.406s-7.9-1.215-8.2.608-1.823,29.16,5.771,30.071,45.258,4.86,41.309-4.556-10.024-8.2-10.024-8.2l-25.818,2.734Z" transform="translate(-452.446 -479.346)" fill="#575a89"/><path d="M430.8,443.663l-8.049-5.619-5.316,4.1,6.682,7.29Z" transform="translate(-305.051 -320.11)" fill="#575a89"/><path d="M386.976,479.224l1.215,11.542,20.959-1.215-18.225-.3Z" transform="translate(-282.791 -350.203)" opacity="0.2"/><circle cx="15.187" cy="15.187" r="15.187" transform="translate(151.336 112.051)" fill="#2f2e41"/><path d="M328.309,287.125l18.832-.656,1.822-6.938-19.44.587Z" transform="translate(-239.919 -204.273)" fill="#90c2f1"/><path d="M310.258,316.631l28.552-.911.3-1.215-28.552,1.005Z" transform="translate(-226.728 -229.831)" fill="#e6e6e6"/><path d="M308,327.913,336.553,327l.3-1.215L308.3,326.792Z" transform="translate(-225.078 -238.076)" fill="#e6e6e6"/><path d="M306.873,336.939l28.552-.911.3-1.215-28.552,1.005Z" transform="translate(-224.254 -244.672)" fill="#e6e6e6"/></g><text transform="translate(262.5 298.5)" fill="none" stroke="#1a2855" stroke-width="2" stroke-dasharray="4" font-size="167" font-family="Roboto-Regular, Roboto"><tspan x="0" y="0">1</tspan></text></g></svg>