<svg xmlns="http://www.w3.org/2000/svg" width="492.842" height="363.115" viewBox="0 0 492.842 363.115"><defs><style>.a{fill:#e6e6e6;}.b{fill:#ccc;}.c{fill:#90c2f1;}.d{opacity:0.2;}.e,.g{fill:#2f2e41;}.e{opacity:0;}.f{fill:#a0616a;}.h{fill:#575a89;}.i{fill:#3f3d56;}.j{fill:#fff;}.k{fill:#b3b3b3;}.l{fill:#d0cde1;}</style></defs><rect class="a" width="207.159" height="6.077" transform="translate(285.683 134.456)"/><rect class="a" width="52.48" height="52.48" transform="translate(302.807 83.633)"/><rect class="b" width="31.488" height="31.488" transform="translate(313.303 94.129)"/><rect class="a" width="13.258" height="52.48" transform="translate(420.474 83.633)"/><rect class="b" width="13.258" height="6.077" transform="translate(420.474 91.919)"/><rect class="b" width="13.258" height="6.077" transform="translate(420.474 118.436)"/><rect class="a" width="13.258" height="52.48" transform="translate(400.035 83.633)"/><rect class="b" width="13.258" height="6.077" transform="translate(400.035 91.919)"/><rect class="b" width="13.258" height="6.077" transform="translate(400.035 118.436)"/><rect class="a" width="13.258" height="52.48" transform="matrix(0.896, -0.444, 0.444, 0.896, 433.274, 89.299)"/><rect class="b" width="13.258" height="6.077" transform="matrix(0.896, -0.444, 0.444, 0.896, 436.951, 96.725)"/><rect class="b" width="13.258" height="6.077" transform="matrix(0.896, -0.444, 0.444, 0.896, 448.716, 120.488)"/><path class="a" d="M516.311,170.382l6.677,11.564,6.676,11.564H502.958l6.677-11.564Z" transform="translate(-193.893 -65.684)"/><path class="a" d="M535.19,173.978l6.676,11.564,6.677,11.564H521.837l6.677-11.564Z" transform="translate(-201.171 -67.07)"/><circle class="a" cx="3.867" cy="3.867" r="3.867" transform="translate(334.848 95.786)"/><rect class="a" width="207.159" height="6.077" transform="translate(492.842 57.116) rotate(180)"/><rect class="a" width="52.48" height="52.48" transform="translate(475.716 52.697) rotate(180)"/><rect class="b" width="31.488" height="31.488" transform="translate(465.221 42.201) rotate(180)"/><rect class="a" width="13.258" height="52.48" transform="translate(358.05 52.697) rotate(180)"/><rect class="b" width="13.258" height="6.077" transform="translate(358.05 14.58) rotate(180)"/><rect class="b" width="13.258" height="6.077" transform="translate(358.05 41.096) rotate(180)"/><rect class="a" width="13.258" height="52.48" transform="translate(378.49 52.697) rotate(180)"/><rect class="b" width="13.258" height="6.077" transform="translate(378.49 14.58) rotate(180)"/><rect class="b" width="13.258" height="6.077" transform="translate(378.49 41.096) rotate(180)"/><rect class="a" width="13.258" height="52.48" transform="matrix(-0.896, -0.444, 0.444, -0.896, 321.965, 52.914)"/><rect class="b" width="13.258" height="6.077" transform="matrix(-0.896, -0.444, 0.444, -0.896, 338.877, 18.754)"/><rect class="b" width="13.258" height="6.077" transform="matrix(-0.896, -0.444, 0.444, -0.896, 327.112, 42.518)"/><path class="a" d="M733.867,34.634,727.191,46.2l-6.677,11.564h26.707L740.543,46.2Z" transform="translate(-277.761 -13.352)"/><path class="a" d="M714.988,38.23l-6.676,11.564-6.676,11.564h26.706l-6.676-11.564Z" transform="translate(-270.484 -14.738)"/><circle class="a" cx="3.867" cy="3.867" r="3.867" transform="translate(435.942 12.37)"/><rect class="a" width="207.159" height="6.077" transform="translate(492.842 223.949) rotate(180)"/><rect class="a" width="52.48" height="52.48" transform="translate(475.716 219.53) rotate(180)"/><rect class="b" width="31.488" height="31.488" transform="translate(465.221 209.033) rotate(180)"/><rect class="a" width="13.258" height="52.48" transform="translate(358.05 219.53) rotate(180)"/><rect class="b" width="13.258" height="6.077" transform="translate(358.05 181.412) rotate(180)"/><rect class="b" width="13.258" height="6.077" transform="translate(358.05 207.928) rotate(180)"/><rect class="a" width="13.258" height="52.48" transform="translate(378.49 219.53) rotate(180)"/><rect class="b" width="13.258" height="6.077" transform="translate(378.49 181.412) rotate(180)"/><rect class="b" width="13.258" height="6.077" transform="translate(378.49 207.928) rotate(180)"/><rect class="a" width="13.258" height="52.48" transform="matrix(-0.896, -0.444, 0.444, -0.896, 321.965, 219.747)"/><rect class="b" width="13.258" height="6.077" transform="matrix(-0.896, -0.444, 0.444, -0.896, 338.877, 185.587)"/><rect class="b" width="13.258" height="6.077" transform="matrix(-0.896, -0.444, 0.444, -0.896, 327.112, 209.35)"/><path class="a" d="M733.867,306.129l-6.677,11.564-6.677,11.565h26.707l-6.677-11.565Z" transform="translate(-277.761 -118.015)"/><path class="a" d="M714.988,309.725l-6.676,11.564-6.676,11.565h26.706l-6.676-11.565Z" transform="translate(-270.484 -119.401)"/><circle class="a" cx="3.867" cy="3.867" r="3.867" transform="translate(435.942 179.202)"/><ellipse class="a" cx="244.034" cy="17.332" rx="244.034" ry="17.332" transform="translate(0 328.451)"/><path class="c" d="M825.476,699.993c-39.792-7.082-83.305-5.9-128.95,0,20.8-17.563,38.759-35.126,17.955-52.689,40.581,8.372,46.265,7.524,91.407,0C795.419,664.867,815.006,682.43,825.476,699.993Z" transform="translate(-390.79 -344.504)"/><path class="d" d="M825.476,699.993c-39.792-7.082-83.305-5.9-128.95,0,20.8-17.563,38.759-35.126,17.955-52.689,40.581,8.372,46.265,7.524,91.407,0C795.419,664.867,815.006,682.43,825.476,699.993Z" transform="translate(-390.79 -344.504)"/><path class="c" d="M821.859,694.469c-33.8-5.653-70.765-4.714-109.538,0,17.672-14.019,32.925-28.038,15.253-42.057,34.472,6.683,39.3,6.006,77.647,0C796.326,666.431,812.965,680.45,821.859,694.469Z" transform="translate(-396.879 -346.473)"/><circle class="e" cx="18.01" cy="18.01" r="18.01" transform="translate(394.095 289.387)"/><path class="f" d="M524.978,466.249l12.479,2.08,6.24,18.025-18.025,11.093-20.8-31.2h20.105Z" transform="translate(-194.631 -179.742)"/><circle class="f" cx="29.118" cy="29.118" r="29.118" transform="translate(336.587 256.003)"/><path class="g" d="M465.532,445.919s-70.714,7.626-83.193,6.24a154.515,154.515,0,0,1-18.025-2.773s-8.319,11.092-4.16,15.945a30,30,0,0,0,8.32,6.933s7.626-2.08,13.172,0,61.7,11.092,71.408,2.773S465.532,445.919,465.532,445.919Z" transform="translate(-260.668 -266.87)"/><path class="g" d="M475.03,616.66s-46.45-13.172-54.769-71.407v-5.546s-9.191,16.123-12.479,19.412c-3.813,3.813-17.332,38.13-16.639,41.6s0,4.853,0,4.853l-20.1-2.08v-6.24s10.746-32.237,11.439-39.864,26.691-60.662,26.691-60.662,9.706-20.1,26.345,0,18.025,33.971,18.025,33.971l21.492,41.6Z" transform="translate(-265.313 -283.01)"/><path class="g" d="M346.656,439.138l-22.185-7.626s-20.8-15.252-15.945,0,27.038,48.53,33.277,45.063,13.744-12.071,12.071-13.315S341.11,453,346.656,439.138Z" transform="translate(-240.932 -258.702)"/><path class="g" d="M355.859,659.259,337.951,668s-21.657,3.332-9.579,9.579,45.4,12.911,47.062,7.08,1-15.508-.747-15.25S360.857,670.92,355.859,659.259Z" transform="translate(-247.453 -349.113)"/><path class="h" d="M523.944,611.3s-9.013,38.824,6.24,47.143S652.2,668.154,660.52,652.9s4.16-15.252,4.16-15.252l-22.185-24.958L660.52,611.3s0-5.546-6.24-6.24-25.651-7.626-42.29-2.773-26.345-9.706-26.345-9.706Z" transform="translate(-323.24 -323.411)"/><path class="i" d="M300.043,268.894,288.257,333.37l81.114-9.706,14.559-58.236Z" transform="translate(-111.124 -102.324)"/><path class="j" d="M305.3,272.843l-9.706,57.542,73.834-8.666,14.212-52.343Z" transform="translate(-113.952 -103.847)"/><path class="k" d="M290.16,376.686l-2.773-.693L286,378.766l22.185,61.7,2.086-.8.686-4.055Z" transform="translate(-110.255 -144.948)"/><path class="l" d="M288.257,369.21l22.185,64.475,83.887-12.479L369.371,360.2Z" transform="translate(-111.124 -138.858)"/><path class="i" d="M306.309,367.131V370.6l61.7-6.933-.693-3.466Z" transform="translate(-118.084 -138.858)"/><path class="i" d="M308.565,378.848l9.706,27.038,63.088-7.626-11.092-25.651Z" transform="translate(-118.953 -143.643)"/><path class="f" d="M618.6,581.5l-2.08-5.546s-15.945-27.731-24.265-22.185,17.332,32.584,17.332,32.584H617.9Z" transform="translate(-349.953 -308.163)"/><path class="f" d="M548.129,585.648l-2.08-8.319s-5.546-25.651,4.16-24.265,12.479,25.651,12.479,25.651L562,584.262Z" transform="translate(-332.173 -308.154)"/><path class="h" d="M565.289,599.915s-18.025-2.773-18.719,1.387-4.16,66.555,13.172,68.635,103.3,11.092,94.286-10.4-22.878-18.719-22.878-18.719l-58.928,6.24Z" transform="translate(-332.694 -325.887)"/><path class="h" d="M447.941,450.87,429.57,438.044,417.437,447.4l15.252,16.639Z" transform="translate(-160.924 -168.868)"/><path class="d" d="M386.976,479.224l2.773,26.345,47.837-2.773-41.6-.693Z" transform="translate(-149.181 -184.744)"/><circle class="g" cx="34.664" cy="34.664" r="34.664" transform="translate(345.414 255.748)"/><path class="c" d="M328.309,296.863l42.983-1.5,4.159-15.836-44.37,1.339Z" transform="translate(-126.565 -107.761)"/><path class="a" d="M310.258,319.358l65.168-2.08.693-2.773L310.951,316.8Z" transform="translate(-119.606 -121.244)"/><path class="a" d="M308,330.64l65.169-2.08.693-2.773-65.168,2.295Z" transform="translate(-118.736 -125.593)"/><path class="a" d="M306.873,339.666l65.168-2.079.694-2.773-65.168,2.294Z" transform="translate(-118.301 -129.072)"/></svg>