<svg xmlns="http://www.w3.org/2000/svg" xmlns:xlink="http://www.w3.org/1999/xlink" width="375" height="345.5" viewBox="0 0 375 345.5"><defs><filter id="a" x="0" y="0" width="375" height="335" filterUnits="userSpaceOnUse"><feOffset dy="3" input="SourceAlpha"/><feGaussianBlur stdDeviation="3" result="b"/><feFlood flood-opacity="0.161"/><feComposite operator="in" in2="b"/><feComposite in="SourceGraphic"/></filter></defs><g transform="translate(9.322 6.169)"><g transform="matrix(1, 0, 0, 1, -9.32, -6.17)" filter="url(#a)"><rect width="357" height="317" rx="10" transform="translate(9 6)" fill="#f5f9fc"/></g><g transform="translate(79.165 52.535)"><path d="M108.6,98.291v-48.8h55.9V0H0V147.322H164.506V98.291Z" fill="#3f3d56"/><path d="M164.506,49.489V0h-57.05V48.8H57.05V0H0V49.489H51.551v48.8H0v49.031H109.059V98.291H108.6v-48.8Z" opacity="0.1"/><path d="M91.538,117.983a39.409,39.409,0,0,1-39.407,39.408V117.983Z" transform="translate(-52.13 -117.983)" fill="#90c2f1"/><path d="M70.459,117.983a18.33,18.33,0,0,1-18.328,18.329v10.081a28.411,28.411,0,0,0,28.41-28.41Z" transform="translate(-52.13 -117.983)" opacity="0.1"/><path d="M563.052,13.747v-7.1h-37.8V0H517V26.348h46.052v-7.1h-37.8v-5.5Z" transform="translate(-398.547)" fill="#d0cde1"/><path d="M183.558,386.53a18.558,18.558,0,1,0-21.079,18.383v26.065H132.061a18.558,18.558,0,1,0,0,5.041H162.48v11h5.041v-11h10.31v-5.041H167.52V404.913A18.558,18.558,0,0,0,183.558,386.53Z" transform="translate(-85.267 -310.692)" fill="#d0cde1"/><path d="M570.983,445.263l8.25,14.289,8.25,14.29h-33l8.25-14.29Z" transform="translate(-427.442 -343.246)" fill="#d0cde1"/><path d="M517.21,511.907h-16.5l8.25-14.29.057-.1-3.034-5.255-8.25,14.29-8.25,14.29h33l-5.159-8.936Z" transform="translate(-377.334 -379.477)" fill="#90c2f1"/><path d="M76.515,278.7V266.332H82.7V259H52v30.7H82.7v-11Z" transform="translate(-40.086 -199.659)" fill="#d0cde1"/><rect width="12" height="12" transform="translate(20.512 53.296)" fill="#90c2f1"/><rect width="53" height="47" transform="translate(145.512 51.296)" fill="#90c2f1"/><path d="M691.983,289.263l8.25,14.29,8.25,14.29h-33l8.25-14.29Z" transform="translate(-520.719 -222.988)" fill="#3f3d56"/><path d="M722.146,334.415l3.742,6.482,3.743,6.482h-14.97L718.4,340.9Z" transform="translate(-550.92 -257.795)" fill="#d0cde1"/><path d="M722.146,242.415l3.742,6.482,3.743,6.482h-14.97L718.4,248.9Z" transform="translate(-550.92 -186.874)" fill="#d0cde1"/></g><text transform="translate(263.178 292.331)" fill="none" stroke="#1a2855" stroke-width="2" stroke-dasharray="4" font-size="167" font-family="Roboto-Regular, Roboto"><tspan x="0" y="0">4</tspan></text></g></svg>