<svg xmlns="http://www.w3.org/2000/svg" xmlns:xlink="http://www.w3.org/1999/xlink" width="375" height="357.5" viewBox="0 0 375 357.5"><defs><filter id="a" x="0" y="0" width="375" height="335" filterUnits="userSpaceOnUse"><feOffset dy="3" input="SourceAlpha"/><feGaussianBlur stdDeviation="3" result="b"/><feFlood flood-opacity="0.161"/><feComposite operator="in" in2="b"/><feComposite in="SourceGraphic"/></filter></defs><g transform="translate(9.343 6)"><g transform="matrix(1, 0, 0, 1, -9.34, -6)" filter="url(#a)"><rect width="357" height="317" rx="10" transform="translate(9 6)" fill="#f5f9fc"/></g><g transform="translate(48.207 48.144)"><path d="M373.381,98.688a56.525,56.525,0,0,0-10.953-14.752L210.5,82.671,335.589,67.819a82.429,82.429,0,0,0-25.379-4.256C298.167,55.342,282.69,50.4,265.808,50.4a79.792,79.792,0,0,0-40.573,10.733,81.407,81.407,0,0,0-32.52-6.626c-33.757,0-61.884,19.765-68.195,45.977Z" transform="translate(-102.649 -50.4)" fill="#90c2f1" opacity="0.1"/><path d="M311.073,273.827a48.13,48.13,0,0,0-4.735-20.747L43.028,276.453a51.23,51.23,0,0,0-6.169,13.171L118.4,299.9,35,307.393c2.509,29.672,32.6,53.1,69.355,53.1,18.5,0,35.313-5.939,47.77-15.621,12.5,9.865,29.462,15.927,48.171,15.927,27.747,0,51.7-13.357,62.849-32.669,22.374-6,39.755-21.079,45.7-39.935L205.733,274.682h105.34Z" transform="translate(-35 -203.563)" fill="#90c2f1" opacity="0.1"/><path d="M261.811,424.44s-11.292-16.293-9.374-31.67a30.036,30.036,0,0,0-3.616-18.651,50.5,50.5,0,0,0-5.311-7.559" transform="translate(-192.568 -289.318)" fill="none" stroke="#535461" stroke-miterlimit="10" stroke-width="2"/><path d="M222.769,317.912c.733,2.211-1.151,9.953-1.151,9.953s-6.13-5.089-6.863-7.3a4.22,4.22,0,0,1,8.013-2.651Z" transform="translate(-170.677 -250.367)" fill="#a8c686"/><path d="M266.375,351.715c-.586,2.255-6.374,7.73-6.374,7.73s-2.38-7.6-1.791-9.858a4.219,4.219,0,1,1,8.165,2.128Z" transform="translate(-203.607 -274.107)" fill="#a8c686"/><path d="M290.016,431.9c-1.647,1.651-9.406,3.455-9.406,3.455s1.786-7.764,3.42-9.413a4.22,4.22,0,1,1,5.976,5.959Z" transform="translate(-220.604 -333.257)" fill="#a8c686"/><path d="M298.128,503.423c-1.344,1.9-8.688,4.994-8.688,4.994s.447-7.955,1.791-9.858a4.22,4.22,0,1,1,6.9,4.864Z" transform="translate(-227.277 -387.717)" fill="#a8c686"/><path d="M225.02,388.245c2.1,1.016,10.017.166,10.017.166s-4.241-6.743-6.352-7.762a4.219,4.219,0,0,0-3.665,7.6Z" transform="translate(-176.891 -299.694)" fill="#a8c686"/><path d="M228.782,468.414c2.306.342,9.611-2.839,9.611-2.839s-6.066-5.167-8.368-5.509a4.22,4.22,0,0,0-1.241,8.348Z" transform="translate(-178.72 -359.945)" fill="#a8c686"/><path d="M249.477,547.118c2.216.733,9.953-1.173,9.953-1.173s-5.106-6.108-7.329-6.841a4.22,4.22,0,1,0-2.634,8.018Z" transform="translate(-194.875 -419.548)" fill="#a8c686"/><path d="M222.769,317.912c.733,2.211-1.151,9.953-1.151,9.953s-6.13-5.089-6.863-7.3a4.22,4.22,0,0,1,8.013-2.651Z" transform="translate(-170.677 -250.367)" opacity="0.25"/><path d="M266.375,351.715c-.586,2.255-6.374,7.73-6.374,7.73s-2.38-7.6-1.791-9.858a4.219,4.219,0,1,1,8.165,2.128Z" transform="translate(-203.607 -274.107)" opacity="0.25"/><path d="M290.016,431.9c-1.647,1.651-9.406,3.455-9.406,3.455s1.786-7.764,3.42-9.413a4.22,4.22,0,1,1,5.976,5.959Z" transform="translate(-220.604 -333.257)" opacity="0.25"/><path d="M298.128,503.423c-1.344,1.9-8.688,4.994-8.688,4.994s.447-7.955,1.791-9.858a4.22,4.22,0,1,1,6.9,4.864Z" transform="translate(-227.277 -387.717)" opacity="0.25"/><path d="M225.02,388.245c2.1,1.016,10.017.166,10.017.166s-4.241-6.743-6.352-7.762a4.219,4.219,0,0,0-3.665,7.6Z" transform="translate(-176.891 -299.694)" opacity="0.25"/><path d="M228.782,468.414c2.306.342,9.611-2.839,9.611-2.839s-6.066-5.167-8.368-5.509a4.22,4.22,0,0,0-1.241,8.348Z" transform="translate(-178.72 -359.945)" opacity="0.25"/><path d="M249.477,547.118c2.216.733,9.953-1.173,9.953-1.173s-5.106-6.108-7.329-6.841a4.22,4.22,0,1,0-2.634,8.018Z" transform="translate(-194.875 -419.548)" opacity="0.25"/><path d="M193.857,460.036s-16.926-10.32-21.407-25.164a30.05,30.05,0,0,0-10.862-15.585,50.5,50.5,0,0,0-7.918-4.757" transform="translate(-124.677 -325.569)" fill="none" stroke="#535461" stroke-miterlimit="10" stroke-width="2"/><path d="M119.174,372.089c1.566,1.725,2.981,9.565,2.981,9.565s-7.664-2.17-9.23-3.894a4.219,4.219,0,1,1,6.25-5.67Z" transform="translate(-93.059 -292.45)" fill="#a8c686"/><path d="M172.605,385.364c.376,2.3-2.687,9.653-2.687,9.653s-5.262-5.988-5.641-8.29a4.22,4.22,0,1,1,8.329-1.363Z" transform="translate(-132.65 -300.854)" fill="#a8c686"/><path d="M233.141,446.261c-.838,2.177-7.2,6.97-7.2,6.97s-1.515-7.818-.679-10a4.22,4.22,0,0,1,7.879,3.027Z" transform="translate(-178.589 -345.214)" fill="#a8c686"/><path d="M266.242,509.82c-.457,2.287-5.92,8.087-5.92,8.087s-2.815-7.454-2.358-9.738a4.22,4.22,0,1,1,8.277,1.652Z" transform="translate(-203.454 -393.764)" fill="#a8c686"/><path d="M149.275,435.433c2.331.081,9.228-3.909,9.228-3.909s-6.609-4.446-8.939-4.532a4.219,4.219,0,0,0-.288,8.434Z" transform="translate(-118.277 -334.984)" fill="#a8c686"/><path d="M185.663,507.372c2.248-.621,7.637-6.489,7.637-6.489s-7.64-2.275-9.878-1.644a4.219,4.219,0,1,0,2.248,8.133Z" transform="translate(-144.821 -389.498)" fill="#a8c686"/><path d="M236.488,570.813c2.321-.244,8.624-5.106,8.624-5.106s-7.146-3.523-9.465-3.291a4.219,4.219,0,1,0,.84,8.4Z" transform="translate(-183.755 -437.316)" fill="#a8c686"/><ellipse cx="43.732" cy="2.595" rx="43.732" ry="2.595" transform="translate(94.478 176.75)" fill="#6c63ff" opacity="0.1"/><path d="M539.706,679.714v1.566H493.38v-1.275a15.228,15.228,0,0,0,1.048-28.125H539.4a15.238,15.238,0,0,0,.305,27.834Z" transform="translate(-381.392 -504.931)" fill="#c8cad7"/><path d="M542.643,651.89a15.252,15.252,0,0,0-8.419,10.1H506.089a15.252,15.252,0,0,0-8.419-10.1Z" transform="translate(-384.634 -504.939)" opacity="0.1"/><path d="M276.21,619.22v8.8c0,4.857,3.555,8.8,7.94,8.8H420.476c4.385,0,7.94-3.938,7.94-8.8v-8.8Z" transform="translate(-217.279 -480.25)" fill="#c8cad7"/><path d="M539.706,760.83V762.4H493.38v-1.275a15.2,15.2,0,0,0,3.572-1.9h39.921A15.264,15.264,0,0,0,539.706,760.83Z" transform="translate(-381.392 -586.047)" opacity="0.1"/><rect width="76.958" height="4.642" rx="2.321" transform="translate(96.677 173.662)" fill="#c8cad7"/><path d="M428.417,200.16a7.94,7.94,0,0,0-7.94-7.94H284.15a7.94,7.94,0,0,0-7.94,7.94v98.091H428.417Z" transform="translate(-217.279 -157.572)" fill="#474157"/><rect width="143.9" height="92.106" rx="16" transform="translate(63.084 42.222)" fill="#ededf4"/><circle cx="1.832" cy="1.832" r="1.832" transform="translate(133.201 36.603)" fill="#fff"/><circle cx="4.52" cy="4.52" r="4.52" transform="translate(130.514 143.612)" fill="#fff"/><path d="M437.11,227.129H293.21a3.909,3.909,0,0,1,3.909-3.909H433.2A3.909,3.909,0,0,1,437.11,227.129Z" transform="translate(-230.126 -180.998)" fill="#c8cad7"/><circle cx="0.977" cy="0.977" r="0.977" transform="translate(66.016 43.199)" fill="#ededf4"/><circle cx="0.977" cy="0.977" r="0.977" transform="translate(68.947 43.199)" fill="#ededf4"/><circle cx="0.977" cy="0.977" r="0.977" transform="translate(71.879 43.199)" fill="#ededf4"/><rect width="36.891" height="2.199" transform="translate(68.459 49.429)" fill="#90c2f1"/><rect width="36.891" height="2.199" transform="translate(68.459 113.683)" fill="#90c2f1"/><rect width="68.407" height="2.199" transform="translate(68.459 118.57)" fill="#90c2f1" opacity="0.2"/><rect width="68.407" height="2.199" transform="translate(68.459 121.748)" fill="#90c2f1" opacity="0.2"/><rect width="68.407" height="2.199" transform="translate(68.459 124.924)" fill="#90c2f1" opacity="0.2"/><rect width="67.919" height="36.891" transform="translate(68.459 55.293)" fill="#90c2f1" opacity="0.2"/><rect width="15.88" height="14.659" transform="translate(69.192 95.604)" fill="#90c2f1" opacity="0.2"/><rect width="15.88" height="14.659" transform="translate(120.497 95.604)" fill="#90c2f1" opacity="0.2"/><rect width="15.88" height="14.659" transform="translate(94.478 95.604)" fill="#90c2f1" opacity="0.2"/><rect width="46.744" height="34.406" transform="translate(150.875 66.023)" fill="#90c2f1" opacity="0.2"/><rect width="36.891" height="2.199" transform="translate(155.8 73.005)" fill="#ededf4"/><rect width="36.891" height="2.199" transform="translate(155.8 77.567)" fill="#ededf4"/><rect width="36.891" height="2.199" transform="translate(155.8 82.128)" fill="#ededf4"/><rect width="36.891" height="2.199" transform="translate(155.8 86.687)" fill="#ededf4"/><rect width="36.891" height="2.199" transform="translate(155.8 91.248)" fill="#ededf4"/><rect width="35.345" height="6.188" transform="translate(156.575 104.338)" fill="#90c2f1"/><rect width="23.701" height="4.151" transform="translate(154.686 124.958)" fill="#90c2f1"/><ellipse cx="6.987" cy="0.709" rx="6.987" ry="0.709" transform="translate(56.15 188.724)" fill="#6c63ff" opacity="0.1"/><ellipse cx="4.188" cy="0.425" rx="4.188" ry="0.425" transform="translate(201.98 178.876)" fill="#6c63ff" opacity="0.1"/><path d="M285.629,778s-9.113,4.708-4.4,10.261a1.738,1.738,0,0,0,1.725,1.119s-.257-.467.733-.838a4.78,4.78,0,0,0,.977-.523,2.319,2.319,0,0,0,.882-1.178h0s1.864-2.494.42-7.109c0,0,.186-1.3.022-1.515l-1.119,1.493a3.087,3.087,0,0,1,1.275,1.9s-1.192-1.893-1.451-1.678c-.051.044-.55.831-.55.831s1.984,1.346,2.133,3.093c0,0-1.119-2.443-2.326-2.8l-.682,1.234s2.169,1.319,2.414,3.3c0,0-1.258-2.516-2.543-3.025l-.508,1.3s2.089,1.329,2.282,2.981c0,0-1.747-2.761-2.377-2.687a6.74,6.74,0,0,0-.342,1.6s1.478.977,1.5,1.954c0,0-1.363-1.722-1.573-1.607a7.226,7.226,0,0,0,.332,2.631,5.232,5.232,0,0,1-.6-2.631,2.892,2.892,0,0,0-.875,1.419s-.393-.953.9-1.827a6.668,6.668,0,0,1,.271-1.512,6.3,6.3,0,0,0-1.994,1.522s.217-1.251,2.116-1.871l.489-1.319a8.941,8.941,0,0,0-2.48,1.512s.42-1.241,2.629-1.835l.655-1.222a10.508,10.508,0,0,0-2.507,1.222,4.264,4.264,0,0,1,2.709-1.556l.533-.76s-1.222.437-1.564.594-.41.078-.41.078a4.418,4.418,0,0,1,2.2-.994A10.976,10.976,0,0,0,285.629,778Z" transform="translate(-220.051 -600.238)" fill="#a8c686"/><ellipse cx="5.355" cy="0.542" rx="5.355" ry="0.542" transform="translate(36.007 178.096)" fill="#6c63ff" opacity="0.1"/><path d="M198.358,745s-6.982,3.606-3.376,7.857a1.341,1.341,0,0,0,1.322.858s-.2-.357.555-.642a3.792,3.792,0,0,0,.752-.4,1.786,1.786,0,0,0,.677-.9h0s1.427-1.911.32-5.446c0,0,.144-1,.017-1.163l-.848,1.165a2.372,2.372,0,0,1,.977,1.451s-.914-1.449-1.112-1.285c-.039.034-.42.638-.42.638a3.916,3.916,0,0,1,1.634,2.37s-.858-1.876-1.783-2.143l-.52.943a4.118,4.118,0,0,1,1.847,2.531s-.965-1.928-1.955-2.316l-.388,1s1.6,1.019,1.749,2.284c0,0-1.339-2.116-1.823-2.05a5.213,5.213,0,0,0-.261,1.221s1.134.757,1.153,1.5c0,0-1.046-1.319-1.207-1.221a5.54,5.54,0,0,0,.257,2.016,4.028,4.028,0,0,1-.464-2.016,2.228,2.228,0,0,0-.669,1.077s-.3-.733.691-1.4a5.066,5.066,0,0,1,.208-1.158,4.834,4.834,0,0,0-1.527,1.165s.166-.958,1.62-1.434l.369-1.011a6.853,6.853,0,0,0-1.9,1.16s.322-.953,2.016-1.407l.5-.931a8.226,8.226,0,0,0-1.923.931,3.255,3.255,0,0,1,2.077-1.192l.408-.584s-.936.335-1.2.457-.315.059-.315.059a3.392,3.392,0,0,1,1.681-.762A10.243,10.243,0,0,0,198.358,745Z" transform="translate(-155.114 -575.301)" fill="#a8c686"/><path d="M876.07,755.41s-5.46,2.832-2.641,6.144a1.048,1.048,0,0,0,1.033.669s-.154-.279.435-.5a2.824,2.824,0,0,0,.589-.313,1.4,1.4,0,0,0,.528-.706h0s1.117-1.5.244-4.258a2.759,2.759,0,0,0,.012-.909l-.662.909a1.859,1.859,0,0,1,.765,1.139s-.716-1.136-.87-1.007c-.032.027-.33.489-.33.489a3.055,3.055,0,0,1,1.278,1.852s-.669-1.466-1.393-1.674l-.391.755a3.212,3.212,0,0,1,1.444,1.979s-.752-1.507-1.524-1.813l-.3.782s1.251.794,1.368,1.786c0,0-1.048-1.656-1.424-1.6a4,4,0,0,0-.205.958s.884.591.9,1.173c0,0-.818-1.031-.943-.963a4.319,4.319,0,0,0,.2,1.576,3.176,3.176,0,0,1-.362-1.576,1.739,1.739,0,0,0-.523.843s-.244-.572.54-1.095a4.065,4.065,0,0,1,.161-.906,3.755,3.755,0,0,0-1.192.911s.129-.75,1.266-1.121l.288-.789a5.611,5.611,0,0,0-1.488.9s.244-.733,1.578-1.1l.391-.733a6.523,6.523,0,0,0-1.5.733,2.559,2.559,0,0,1,1.625-.931l.318-.457s-.733.264-.936.357-.244.046-.244.046a2.644,2.644,0,0,1,1.314-.6A6.579,6.579,0,0,0,876.07,755.41Z" transform="translate(-667.98 -583.167)" fill="#a8c686"/><ellipse cx="10.2" cy="0.853" rx="10.2" ry="0.853" transform="translate(218.486 193.549)" fill="#6c63ff" opacity="0.1"/><path d="M957.354,730.377a4.262,4.262,0,0,0-.557,1.051c-.034.09-.066.2-.1.3a1.089,1.089,0,0,0-.2-.068,2.689,2.689,0,0,0-.87-.073c0-.115.012-.232.017-.359.034-1.288-.117-3.083-1.346-2.321-1.178.733-.337,1.954.423,2.736.066.068.132.132.2.193-.691.489-.826,1.644-.941,2.844a6.645,6.645,0,0,1-1.808,3.257l-.193.208a2.472,2.472,0,0,0-1.954-.506c-.029-.105-.059-.215-.093-.33-.545-1.976-1.681-5.4-3.132-6.149.064-.076.127-.156.193-.244.616-.806,1.307-2,.283-2.306s-1.114,1.036-1.058,2.042a2.1,2.1,0,0,0,.029.359,1.5,1.5,0,0,0-1.073.523l-.156-.188c-.831-.977-2.355-2.534-2.814-1.358-.43,1.095.909,2.516,1.852,3.34l.061.051c-.635,2.568,2.128,4.662,3.616,5.578l.193.117c-2.052,2.419-3.318,6.953-3.318,6.953l5.746,1.026s3.809-3.288,3.323-6.377h.039c3.806-.762,4.674-4.823,4.08-7.234l.066-.027a4.313,4.313,0,0,0,1.764-1.334A1.419,1.419,0,0,0,957.354,730.377Z" transform="translate(-720.5 -562.876)" fill="#a8c686"/><path d="M957.354,730.377a4.262,4.262,0,0,0-.557,1.051c-.034.09-.066.2-.1.3a1.089,1.089,0,0,0-.2-.068,2.689,2.689,0,0,0-.87-.073c0-.115.012-.232.017-.359.034-1.288-.117-3.083-1.346-2.321-1.178.733-.337,1.954.423,2.736.066.068.132.132.2.193-.691.489-.826,1.644-.941,2.844a6.645,6.645,0,0,1-1.808,3.257l-.193.208a2.472,2.472,0,0,0-1.954-.506c-.029-.105-.059-.215-.093-.33-.545-1.976-1.681-5.4-3.132-6.149.064-.076.127-.156.193-.244.616-.806,1.307-2,.283-2.306s-1.114,1.036-1.058,2.042a2.1,2.1,0,0,0,.029.359,1.5,1.5,0,0,0-1.073.523l-.156-.188c-.831-.977-2.355-2.534-2.814-1.358-.43,1.095.909,2.516,1.852,3.34l.061.051c-.635,2.568,2.128,4.662,3.616,5.578l.193.117c-2.052,2.419-3.318,6.953-3.318,6.953l5.746,1.026s3.809-3.288,3.323-6.377h.039c3.806-.762,4.674-4.823,4.08-7.234l.066-.027a4.313,4.313,0,0,0,1.764-1.334A1.419,1.419,0,0,0,957.354,730.377Z" transform="translate(-720.5 -562.876)" opacity="0.1"/><path d="M946.973,735.07l-.672,1.955s-.374-.264-.845-.679c-.941-.823-2.282-2.245-1.852-3.34.459-1.175,1.984.376,2.814,1.358C946.751,734.767,946.973,735.07,946.973,735.07Z" transform="translate(-721.559 -565.918)" fill="#a8c686"/><path d="M961.027,730.893a9.887,9.887,0,0,1-.655.772,9.536,9.536,0,0,1-.12-1.036c-.056-1.007.049-2.343,1.058-2.042S961.648,730.087,961.027,730.893Z" transform="translate(-734.193 -562.865)" fill="#a8c686"/><path d="M992.956,731.688c-.022.647-.085,1.165-.085,1.165a8.528,8.528,0,0,1-.838-.75c-.76-.789-1.6-2.006-.423-2.736C992.839,728.6,992.991,730.4,992.956,731.688Z" transform="translate(-757.456 -563.349)" fill="#a8c686"/><path d="M1005.444,735.927a4.322,4.322,0,0,1-1.761,1.334,5.485,5.485,0,0,1-.591.215l-.792-1.112a7.858,7.858,0,0,1,.325-1.08,4.259,4.259,0,0,1,.557-1.051A1.414,1.414,0,0,1,1005.444,735.927Z" transform="translate(-765.977 -566.741)" fill="#a8c686"/><path d="M952.4,739.92c.332.391.555.694.555.694l-.672,1.955s-.374-.264-.845-.679a3.864,3.864,0,0,1,.757-1.727Q952.294,740.036,952.4,739.92Z" transform="translate(-727.542 -571.462)" opacity="0.1"/><path d="M961.065,737.344a9.929,9.929,0,0,1-.655.772,9.537,9.537,0,0,1-.12-1.036,1.356,1.356,0,0,1,.774.264Z" transform="translate(-734.23 -569.316)" opacity="0.1"/><path d="M957.578,746.242l-1.671.733s-.366-.176-.892-.5c-1.754-1.08-5.287-3.8-2.932-7s4.341,2.543,5.131,5.355C957.446,745.665,957.578,746.242,957.578,746.242Z" transform="translate(-727.436 -570.405)" fill="#a8c686"/><path d="M995.15,739.845a1.368,1.368,0,0,1,.923-.415c-.022.647-.085,1.165-.085,1.165A8.506,8.506,0,0,1,995.15,739.845Z" transform="translate(-760.574 -571.092)" opacity="0.1"/><path d="M1003.723,742.246a5.485,5.485,0,0,1-.591.215l-.792-1.112a7.887,7.887,0,0,1,.325-1.08A2.932,2.932,0,0,1,1003.723,742.246Z" transform="translate(-766.007 -571.726)" opacity="0.1"/><path d="M980.6,749.938c-.093.02-.188.037-.283.049-5.6.853-1.847-2.169-1.847-2.169s.244-.232.6-.613a6.578,6.578,0,0,0,1.808-3.257c.176-1.815.379-3.518,2.521-3.02S985.9,748.875,980.6,749.938Z" transform="translate(-747.041 -572.157)" fill="#a8c686"/><rect width="10.703" height="2.814" transform="translate(222.749 191.729)" fill="#d4dfec"/><rect width="13.984" height="9.821" transform="translate(221.046 182.582)" fill="#d4dfec"/><rect width="10.703" height="2.814" transform="translate(222.749 191.729)" opacity="0.1"/><rect width="13.984" height="9.821" transform="translate(221.046 182.582)" opacity="0.1"/><rect width="10.703" height="2.814" transform="translate(223.453 191.729)" fill="#d4dfec"/><path d="M968.689,764.32c.244.84.364,1.417.364,1.417l-1.671.733s-.366-.176-.892-.5A4.3,4.3,0,0,1,968.689,764.32Z" transform="translate(-738.916 -589.901)" opacity="0.1"/><path d="M980.6,769.624c-.093.02-.188.037-.283.049-5.6.853-1.847-2.169-1.847-2.169s.244-.232.6-.613A3.725,3.725,0,0,1,980.6,769.624Z" transform="translate(-747.041 -591.843)" opacity="0.1"/><path d="M953.7,773.908s3.137-11.238,7.535-7.772-1.788,8.8-1.788,8.8Z" transform="translate(-729.25 -590.771)" fill="#a8c686"/><circle cx="0.352" cy="0.352" r="0.352" transform="translate(225.681 170.474)" opacity="0.1"/><circle cx="0.352" cy="0.352" r="0.352" transform="translate(225.652 172.116)" opacity="0.1"/><circle cx="0.352" cy="0.352" r="0.352" transform="translate(235.854 170.796)" opacity="0.1"/><circle cx="0.352" cy="0.352" r="0.352" transform="translate(227.645 179.21)" opacity="0.1"/><circle cx="0.352" cy="0.352" r="0.352" transform="translate(235.121 173.523)" opacity="0.1"/><circle cx="0.352" cy="0.352" r="0.352" transform="translate(231.486 177.158)" opacity="0.1"/><circle cx="0.352" cy="0.352" r="0.352" transform="translate(226.883 171.177)" opacity="0.1"/><circle cx="0.352" cy="0.352" r="0.352" transform="translate(234.887 171.852)" opacity="0.1"/><circle cx="0.352" cy="0.352" r="0.352" transform="translate(233.685 174.578)" opacity="0.1"/><circle cx="0.352" cy="0.352" r="0.352" transform="translate(229.991 178.947)" opacity="0.1"/><circle cx="0.352" cy="0.352" r="0.352" transform="translate(229.228 177.217)" opacity="0.1"/><circle cx="0.352" cy="0.352" r="0.352" transform="translate(227.411 173.318)" opacity="0.1"/><rect width="10.703" height="1.029" transform="translate(223.453 191.729)" opacity="0.1"/><rect width="13.984" height="9.821" transform="translate(221.752 182.582)" fill="#d4dfec"/><circle cx="0.352" cy="0.352" r="0.352" transform="translate(230.46 180.53)" opacity="0.1"/><circle cx="0.352" cy="0.352" r="0.352" transform="translate(228.349 180.969)" opacity="0.1"/><path d="M754.21,822.215l.164-.125A.882.882,0,0,1,754.21,822.215Z" transform="translate(-578.498 -633.557)" fill="#a1616a"/><path d="M805.26,817.692l.176-.132A1.039,1.039,0,0,1,805.26,817.692Z" transform="translate(-617.076 -630.134)" fill="#a1616a"/><path d="M859.8,614.8a3.717,3.717,0,0,1-2.213.369l-.139-1.908,2.358.3A7.2,7.2,0,0,0,859.8,614.8Z" transform="translate(-656.516 -475.746)" opacity="0.1"/><path d="M716.646,568.2s-.125.489-.335,1.148c-.266-.107-.489-.193-.652-.244-.733-.244.129-.557-.085-1.2-.183-.552-.523-.379-.914-.533a10.664,10.664,0,0,1,.828-.994Z" transform="translate(-548.611 -440.32)" opacity="0.1"/><path d="M724.79,566.585s2.487-.513,3.13,0S724.79,566.585,724.79,566.585Z" transform="translate(-556.266 -440.302)" opacity="0.1"/><path d="M723.74,571.969s.171-.43,1.029,0S723.74,571.969,723.74,571.969Z" transform="translate(-555.472 -444.399)" opacity="0.1"/><path d="M838.58,589.32s.259,3.909,1.312,4.036S838.58,589.32,838.58,589.32Z" transform="translate(-642.256 -457.655)" opacity="0.1"/><path d="M755.72,709.57a9.039,9.039,0,0,1,1.674,0C758.324,709.646,755.72,709.57,755.72,709.57Z" transform="translate(-579.639 -548.497)" opacity="0.1"/><path d="M755.72,713.02a9.044,9.044,0,0,1,1.674,0C758.324,713.106,755.72,713.02,755.72,713.02Z" transform="translate(-579.639 -551.105)" opacity="0.1"/><path d="M807.77,705.52a9.039,9.039,0,0,1,1.674,0C810.374,705.608,807.77,705.52,807.77,705.52Z" transform="translate(-618.973 -545.437)" opacity="0.1"/><path d="M808.94,708.28a9.037,9.037,0,0,1,1.673,0C811.542,708.365,808.94,708.28,808.94,708.28Z" transform="translate(-619.857 -547.522)" opacity="0.1"/></g><text transform="translate(268.157 304.5)" fill="none" stroke="#1a2855" stroke-width="2" stroke-dasharray="4" font-size="167" font-family="Roboto-Regular, Roboto"><tspan x="0" y="0">3</tspan></text></g></svg>