<svg xmlns="http://www.w3.org/2000/svg" width="489.535" height="346.227" viewBox="0 0 489.535 346.227"><defs><style>.a,.k,.l{fill:#90c2f1;}.a,.e,.g{opacity:0.1;}.b{fill:none;stroke:#535461;stroke-miterlimit:10;stroke-width:2px;}.c{fill:#a8c686;}.d{opacity:0.25;}.e{fill:#6c63ff;}.f{fill:#c8cad7;}.h{fill:#474157;}.i{fill:#ededf4;}.j{fill:#fff;}.l{opacity:0.2;}.m{fill:#d4dfec;}.n{fill:#a1616a;}</style></defs><path class="a" d="M565.8,136.025a100.233,100.233,0,0,0-19.421-26.158l-269.4-2.244L498.789,81.288a146.163,146.163,0,0,0-45-7.547C432.433,59.164,404.989,50.4,375.054,50.4c-26.859,0-51.7,7.057-71.944,19.031a144.351,144.351,0,0,0-57.666-11.749c-59.858,0-109.734,35.047-120.924,81.527Z" transform="translate(-85.738 -50.4)"/><path class="a" d="M524.535,289.869a85.343,85.343,0,0,0-8.4-36.789l-466.9,41.446A90.841,90.841,0,0,0,38.3,317.881L182.883,336.1,35,349.388C39.449,402,92.8,443.552,157.982,443.552c32.808,0,62.617-10.531,84.707-27.7,22.159,17.493,52.242,28.241,85.417,28.241,49.2,0,91.669-23.684,111.445-57.93,39.674-10.644,70.493-37.378,81.042-70.814L337.745,291.385h186.79Z" transform="translate(-35 -165.276)"/><path class="b" d="M275.962,469.193S255.939,440.3,259.34,413.036a53.26,53.26,0,0,0-6.412-33.072,89.549,89.549,0,0,0-9.418-13.4" transform="translate(-153.18 -229.594)"/><path class="c" d="M229.131,320.152c1.3,3.921-2.04,17.649-2.04,17.649s-10.869-9.024-12.169-12.949a7.483,7.483,0,1,1,14.21-4.7Z" transform="translate(-136.761 -200.38)"/><path class="c" d="M272.761,355.8c-1.04,4-11.3,13.707-11.3,13.707s-4.22-13.482-3.175-17.48a7.481,7.481,0,1,1,14.479,3.773Z" transform="translate(-161.459 -218.185)"/><path class="c" d="M297.289,437.469c-2.92,2.928-16.679,6.126-16.679,6.126s3.167-13.768,6.065-16.692a7.482,7.482,0,1,1,10.6,10.566Z" transform="translate(-174.208 -262.549)"/><path class="c" d="M304.845,508.567c-2.383,3.375-15.405,8.855-15.405,8.855s.793-14.105,3.175-17.48a7.483,7.483,0,0,1,12.23,8.625Z" transform="translate(-179.212 -303.396)"/><path class="c" d="M226.765,394.4c3.717,1.8,17.762.295,17.762.295s-7.521-11.957-11.264-13.763a7.482,7.482,0,0,0-6.5,13.469Z" transform="translate(-141.421 -237.376)"/><path class="c" d="M231.564,474.905c4.09.607,17.043-5.034,17.043-5.034s-10.757-9.163-14.838-9.769a7.483,7.483,0,1,0-2.2,14.8Z" transform="translate(-142.794 -282.566)"/><path class="c" d="M251.73,553.478c3.929,1.3,17.649-2.079,17.649-2.079s-9.054-10.83-13-12.13a7.483,7.483,0,1,0-4.67,14.218Z" transform="translate(-154.91 -327.27)"/><path class="d" d="M229.131,320.152c1.3,3.921-2.04,17.649-2.04,17.649s-10.869-9.024-12.169-12.949a7.483,7.483,0,1,1,14.21-4.7Z" transform="translate(-136.761 -200.38)"/><path class="d" d="M272.761,355.8c-1.04,4-11.3,13.707-11.3,13.707s-4.22-13.482-3.175-17.48a7.481,7.481,0,1,1,14.479,3.773Z" transform="translate(-161.459 -218.185)"/><path class="d" d="M297.289,437.469c-2.92,2.928-16.679,6.126-16.679,6.126s3.167-13.768,6.065-16.692a7.482,7.482,0,1,1,10.6,10.566Z" transform="translate(-174.208 -262.549)"/><path class="d" d="M304.845,508.567c-2.383,3.375-15.405,8.855-15.405,8.855s.793-14.105,3.175-17.48a7.483,7.483,0,0,1,12.23,8.625Z" transform="translate(-179.212 -303.396)"/><path class="d" d="M226.765,394.4c3.717,1.8,17.762.295,17.762.295s-7.521-11.957-11.264-13.763a7.482,7.482,0,0,0-6.5,13.469Z" transform="translate(-141.421 -237.376)"/><path class="d" d="M231.564,474.905c4.09.607,17.043-5.034,17.043-5.034s-10.757-9.163-14.838-9.769a7.483,7.483,0,1,0-2.2,14.8Z" transform="translate(-142.794 -282.566)"/><path class="d" d="M251.73,553.478c3.929,1.3,17.649-2.079,17.649-2.079s-9.054-10.83-13-12.13a7.483,7.483,0,1,0-4.67,14.218Z" transform="translate(-154.91 -327.27)"/><path class="b" d="M224.93,495.221s-30.013-18.3-37.958-44.621a53.286,53.286,0,0,0-19.261-27.635,89.546,89.546,0,0,0-14.041-8.435" transform="translate(-102.26 -256.783)"/><path class="c" d="M124.852,373.159c2.777,3.059,5.285,16.96,5.285,16.96s-13.59-3.847-16.367-6.906a7.482,7.482,0,1,1,11.082-10.055Z" transform="translate(-78.546 -231.943)"/><path class="c" d="M179.088,388.1c.667,4.081-4.765,17.116-4.765,17.116s-9.331-10.618-10-14.7a7.482,7.482,0,1,1,14.768-2.417Z" transform="translate(-108.24 -238.246)"/><path class="c" d="M239.428,450.7c-1.486,3.86-12.767,12.36-12.767,12.36s-2.686-13.863-1.2-17.727a7.483,7.483,0,1,1,13.971,5.368Z" transform="translate(-142.695 -271.517)"/><path class="c" d="M272.681,513.722c-.81,4.055-10.5,14.339-10.5,14.339s-4.991-13.217-4.181-17.268a7.483,7.483,0,1,1,14.677,2.928Z" transform="translate(-161.344 -307.931)"/><path class="c" d="M152.426,441.962c4.133.143,16.363-6.931,16.363-6.931s-11.719-7.884-15.851-8.036a7.482,7.482,0,1,0-.511,14.955Z" transform="translate(-97.459 -263.845)"/><path class="c" d="M189.789,513.746c3.986-1.1,13.542-11.506,13.542-11.506s-13.547-4.033-17.515-2.916a7.481,7.481,0,1,0,3.986,14.422Z" transform="translate(-117.368 -304.732)"/><path class="c" d="M240.076,577.314c4.116-.433,15.293-9.054,15.293-9.054s-12.672-6.247-16.783-5.835a7.482,7.482,0,1,0,1.49,14.89Z" transform="translate(-146.57 -340.596)"/><ellipse class="e" cx="77.546" cy="4.601" rx="77.546" ry="4.601" transform="translate(167.529 313.415)"/><path class="f" d="M575.527,701.236v2.777H493.38v-2.261a27,27,0,0,0,1.858-49.872h79.747a27.02,27.02,0,0,0,.542,49.356Z" transform="translate(-294.802 -391.309)"/><path class="g" d="M577.417,651.89a27.046,27.046,0,0,0-14.929,17.9H512.6a27.046,27.046,0,0,0-14.929-17.9Z" transform="translate(-297.234 -391.314)"/><path class="f" d="M276.21,619.22v15.6c0,8.612,6.3,15.6,14.079,15.6H532.025c7.776,0,14.08-6.984,14.08-15.6v-15.6Z" transform="translate(-171.714 -372.798)"/><path class="g" d="M575.527,762.075v2.777H493.38V762.59a26.946,26.946,0,0,0,6.334-3.37H570.5A27.066,27.066,0,0,0,575.527,762.075Z" transform="translate(-294.802 -452.147)"/><rect class="f" width="136.463" height="8.231" rx="4.116" transform="translate(171.428 307.939)"/><path class="h" d="M546.1,206.3a14.08,14.08,0,0,0-14.08-14.08H290.29a14.08,14.08,0,0,0-14.08,14.08V380.236H546.1Z" transform="translate(-171.714 -130.781)"/><rect class="i" width="255.165" height="163.323" rx="16" transform="translate(111.861 74.869)"/><circle class="j" cx="3.249" cy="3.249" r="3.249" transform="translate(236.194 64.905)"/><circle class="j" cx="8.015" cy="8.015" r="8.015" transform="translate(231.429 254.654)"/><path class="f" d="M548.375,230.151H293.21a6.931,6.931,0,0,1,6.931-6.931h241.3A6.931,6.931,0,0,1,548.375,230.151Z" transform="translate(-181.349 -148.351)"/><circle class="i" cx="1.733" cy="1.733" r="1.733" transform="translate(117.06 76.601)"/><circle class="i" cx="1.733" cy="1.733" r="1.733" transform="translate(122.258 76.601)"/><circle class="i" cx="1.733" cy="1.733" r="1.733" transform="translate(127.457 76.601)"/><rect class="k" width="65.416" height="3.899" transform="translate(121.392 87.648)"/><rect class="k" width="65.416" height="3.899" transform="translate(121.392 201.584)"/><rect class="l" width="121.301" height="3.899" transform="translate(121.392 210.249)"/><rect class="l" width="121.301" height="3.899" transform="translate(121.392 215.885)"/><rect class="l" width="121.301" height="3.899" transform="translate(121.392 221.517)"/><rect class="l" width="120.434" height="65.416" transform="translate(121.392 98.046)"/><rect class="l" width="28.159" height="25.993" transform="translate(122.691 169.526)"/><rect class="l" width="28.159" height="25.993" transform="translate(213.667 169.526)"/><rect class="l" width="28.159" height="25.993" transform="translate(167.529 169.526)"/><rect class="l" width="82.887" height="61.01" transform="translate(267.533 117.073)"/><rect class="i" width="65.416" height="3.899" transform="translate(276.267 129.454)"/><rect class="i" width="65.416" height="3.899" transform="translate(276.267 137.542)"/><rect class="i" width="65.416" height="3.899" transform="translate(276.267 145.63)"/><rect class="i" width="65.416" height="3.899" transform="translate(276.267 153.714)"/><rect class="i" width="65.416" height="3.899" transform="translate(276.267 161.802)"/><rect class="k" width="62.673" height="10.973" transform="translate(277.64 185.014)"/><rect class="k" width="42.026" height="7.36" transform="translate(274.291 221.577)"/><ellipse class="e" cx="12.39" cy="1.256" rx="12.39" ry="1.256" transform="translate(99.566 334.647)"/><ellipse class="e" cx="7.425" cy="0.754" rx="7.425" ry="0.754" transform="translate(358.153 317.184)"/><path class="c" d="M290.076,778s-16.159,8.348-7.8,18.2a3.081,3.081,0,0,0,3.059,1.984s-.455-.828,1.3-1.486a8.475,8.475,0,0,0,1.733-.927,4.111,4.111,0,0,0,1.564-2.088h0s3.305-4.423.745-12.607c0,0,.329-2.313.039-2.686l-1.984,2.647a5.473,5.473,0,0,1,2.261,3.362s-2.114-3.357-2.573-2.976c-.091.078-.975,1.473-.975,1.473s3.518,2.387,3.782,5.484c0,0-1.984-4.332-4.124-4.96L285.9,785.6s3.847,2.34,4.28,5.857c0,0-2.231-4.462-4.51-5.363l-.9,2.309s3.7,2.357,4.046,5.285c0,0-3.1-4.9-4.215-4.765a11.95,11.95,0,0,0-.607,2.838s2.621,1.733,2.669,3.466c0,0-2.417-3.054-2.79-2.85a12.813,12.813,0,0,0,.589,4.666,9.278,9.278,0,0,1-1.07-4.666,5.129,5.129,0,0,0-1.551,2.517s-.7-1.69,1.6-3.24a11.825,11.825,0,0,1,.481-2.682,11.165,11.165,0,0,0-3.535,2.7s.386-2.218,3.752-3.318l.867-2.339s-3.362,1.425-4.4,2.682c0,0,.745-2.2,4.661-3.253l1.161-2.166a18.634,18.634,0,0,0-4.445,2.166s1.131-1.889,4.8-2.76l.944-1.347s-2.166.775-2.773,1.053-.728.139-.728.139a7.833,7.833,0,0,1,3.9-1.763A19.462,19.462,0,0,0,290.076,778Z" transform="translate(-173.792 -462.791)"/><ellipse class="e" cx="9.496" cy="0.962" rx="9.496" ry="0.962" transform="translate(63.848 315.802)"/><path class="c" d="M201.768,745s-12.381,6.394-5.987,13.932a2.378,2.378,0,0,0,2.344,1.521s-.347-.633.983-1.139a6.732,6.732,0,0,0,1.334-.711,3.167,3.167,0,0,0,1.2-1.6h0s2.53-3.388.568-9.656c0,0,.256-1.776.03-2.062l-1.5,2.067a4.206,4.206,0,0,1,1.733,2.573s-1.62-2.569-1.971-2.279c-.069.061-.745,1.131-.745,1.131s2.695,1.828,2.9,4.2c0,0-1.521-3.327-3.162-3.8l-.923,1.672s2.942,1.793,3.275,4.488c0,0-1.711-3.418-3.466-4.107L197.687,753s2.842,1.806,3.1,4.05c0,0-2.374-3.752-3.232-3.635a9.244,9.244,0,0,0-.464,2.166s2.01,1.343,2.045,2.66c0,0-1.854-2.339-2.14-2.166a9.824,9.824,0,0,0,.455,3.574,7.144,7.144,0,0,1-.823-3.574,3.95,3.95,0,0,0-1.187,1.91s-.533-1.3,1.226-2.482a8.982,8.982,0,0,1,.368-2.053,8.572,8.572,0,0,0-2.708,2.066s.295-1.7,2.872-2.543l.654-1.794a12.153,12.153,0,0,0-3.375,2.058s.572-1.69,3.574-2.5l.892-1.651a14.582,14.582,0,0,0-3.409,1.651s.866-1.451,3.682-2.114l.723-1.035s-1.659.594-2.123.81-.559.1-.559.1a6.014,6.014,0,0,1,2.981-1.352A18.172,18.172,0,0,0,201.768,745Z" transform="translate(-125.089 -444.088)"/><path class="c" d="M878.738,755.41s-9.682,5.021-4.683,10.9a1.858,1.858,0,0,0,1.833,1.187s-.273-.494.771-.892a5.012,5.012,0,0,0,1.044-.555,2.478,2.478,0,0,0,.936-1.252h0s1.98-2.651.433-7.551a4.888,4.888,0,0,0,.022-1.611l-1.174,1.611a3.3,3.3,0,0,1,1.356,2.019s-1.269-2.014-1.542-1.785c-.056.048-.585.866-.585.866s2.11,1.43,2.266,3.284c0,0-1.187-2.6-2.469-2.968L876.251,760s2.3,1.4,2.56,3.509c0,0-1.334-2.673-2.7-3.215l-.537,1.386s2.218,1.408,2.426,3.167c0,0-1.858-2.937-2.526-2.842a7.1,7.1,0,0,0-.364,1.7s1.568,1.049,1.6,2.079c0,0-1.451-1.828-1.672-1.707a7.657,7.657,0,0,0,.351,2.794,5.632,5.632,0,0,1-.641-2.794,3.085,3.085,0,0,0-.927,1.495s-.433-1.014.957-1.941a7.206,7.206,0,0,1,.286-1.607,6.657,6.657,0,0,0-2.114,1.616s.229-1.33,2.244-1.989l.511-1.4a9.945,9.945,0,0,0-2.638,1.6s.433-1.3,2.8-1.95l.693-1.3a11.568,11.568,0,0,0-2.664,1.3,4.538,4.538,0,0,1,2.881-1.651l.563-.81s-1.3.468-1.659.633-.433.082-.433.082a4.689,4.689,0,0,1,2.331-1.057A11.677,11.677,0,0,0,878.738,755.41Z" transform="translate(-509.75 -449.988)"/><ellipse class="e" cx="18.087" cy="1.512" rx="18.087" ry="1.512" transform="translate(387.422 343.203)"/><path class="c" d="M969.132,731.783a7.554,7.554,0,0,0-.988,1.863c-.061.16-.117.347-.178.524a1.925,1.925,0,0,0-.347-.121,4.769,4.769,0,0,0-1.542-.13c0-.2.021-.412.03-.637.061-2.283-.208-5.467-2.387-4.116-2.088,1.3-.6,3.466.75,4.852.117.121.234.234.347.342-1.226.866-1.464,2.916-1.668,5.043s-2.01,4.453-3.206,5.775l-.342.368a4.384,4.384,0,0,0-3.466-.9c-.052-.186-.1-.381-.165-.585-.966-3.5-2.98-9.574-5.554-10.9.113-.134.225-.277.342-.433,1.092-1.43,2.318-3.548.5-4.09s-1.976,1.837-1.876,3.622a3.722,3.722,0,0,0,.052.637,2.665,2.665,0,0,0-1.9.927l-.277-.333c-1.473-1.733-4.176-4.492-4.991-2.409-.762,1.941,1.612,4.462,3.284,5.922l.108.091c-1.126,4.553,3.773,8.266,6.412,9.89l.342.208c-3.639,4.289-5.883,12.329-5.883,12.329l10.189,1.82s6.754-5.831,5.892-11.307h.069c6.75-1.352,8.287-8.552,7.235-12.828l.117-.048a7.647,7.647,0,0,0,3.128-2.365C975.032,732.159,971.094,729.183,969.132,731.783Z" transform="translate(-549.141 -434.769)"/><path class="g" d="M969.132,731.783a7.554,7.554,0,0,0-.988,1.863c-.061.16-.117.347-.178.524a1.925,1.925,0,0,0-.347-.121,4.769,4.769,0,0,0-1.542-.13c0-.2.021-.412.03-.637.061-2.283-.208-5.467-2.387-4.116-2.088,1.3-.6,3.466.75,4.852.117.121.234.234.347.342-1.226.866-1.464,2.916-1.668,5.043s-2.01,4.453-3.206,5.775l-.342.368a4.384,4.384,0,0,0-3.466-.9c-.052-.186-.1-.381-.165-.585-.966-3.5-2.98-9.574-5.554-10.9.113-.134.225-.277.342-.433,1.092-1.43,2.318-3.548.5-4.09s-1.976,1.837-1.876,3.622a3.722,3.722,0,0,0,.052.637,2.665,2.665,0,0,0-1.9.927l-.277-.333c-1.473-1.733-4.176-4.492-4.991-2.409-.762,1.941,1.612,4.462,3.284,5.922l.108.091c-1.126,4.553,3.773,8.266,6.412,9.89l.342.208c-3.639,4.289-5.883,12.329-5.883,12.329l10.189,1.82s6.754-5.831,5.892-11.307h.069c6.75-1.352,8.287-8.552,7.235-12.828l.117-.048a7.647,7.647,0,0,0,3.128-2.365C975.032,732.159,971.094,729.183,969.132,731.783Z" transform="translate(-549.141 -434.769)"/><path class="c" d="M949.642,736.992l-1.191,3.466s-.663-.468-1.5-1.2c-1.668-1.46-4.046-3.981-3.284-5.922.815-2.084,3.518.667,4.991,2.409C949.248,736.455,949.642,736.992,949.642,736.992Z" transform="translate(-549.935 -437.05)"/><path class="c" d="M961.635,732.71a17.55,17.55,0,0,1-1.161,1.369,16.876,16.876,0,0,1-.212-1.837c-.1-1.785.087-4.155,1.876-3.622S962.736,731.28,961.635,732.71Z" transform="translate(-559.411 -434.761)"/><path class="c" d="M994.45,733.623c-.039,1.148-.151,2.066-.151,2.066a15.109,15.109,0,0,1-1.486-1.33c-1.347-1.4-2.837-3.557-.749-4.852C994.242,728.156,994.51,731.34,994.45,733.623Z" transform="translate(-576.859 -435.124)"/><path class="c" d="M1007.876,737.67a7.664,7.664,0,0,1-3.123,2.365,9.715,9.715,0,0,1-1.049.381l-1.4-1.971a13.938,13.938,0,0,1,.576-1.915,7.56,7.56,0,0,1,.988-1.863C1005.8,732.082,1009.764,735.058,1007.876,737.67Z" transform="translate(-583.249 -437.668)"/><path class="g" d="M953.147,739.92c.589.693.983,1.23.983,1.23l-1.191,3.466s-.663-.468-1.5-1.2a6.85,6.85,0,0,1,1.343-3.063A5.613,5.613,0,0,1,953.147,739.92Z" transform="translate(-554.423 -441.208)"/><path class="g" d="M961.663,737.548a17.556,17.556,0,0,1-1.161,1.369,16.909,16.909,0,0,1-.212-1.837,2.4,2.4,0,0,1,1.373.468Z" transform="translate(-559.439 -439.599)"/><path class="c" d="M962.433,752.211l-2.963,1.3s-.65-.312-1.581-.892c-3.11-1.915-9.375-6.737-5.2-12.42s7.7,4.51,9.1,9.5C962.2,751.188,962.433,752.211,962.433,752.211Z" transform="translate(-554.343 -440.416)"/><path class="g" d="M995.15,740.167a2.426,2.426,0,0,1,1.637-.737c-.039,1.148-.152,2.067-.152,2.067A15.087,15.087,0,0,1,995.15,740.167Z" transform="translate(-579.197 -440.931)"/><path class="g" d="M1004.792,743.775a9.752,9.752,0,0,1-1.048.381l-1.4-1.971a13.971,13.971,0,0,1,.576-1.915A5.2,5.2,0,0,1,1004.792,743.775Z" transform="translate(-583.272 -441.407)"/><path class="c" d="M983.2,756.973c-.165.035-.333.065-.5.087-9.929,1.512-3.275-3.847-3.275-3.847s.433-.412,1.057-1.087c1.2-1.3,3-3.635,3.206-5.775.312-3.219.671-6.238,4.471-5.354S992.594,755.089,983.2,756.973Z" transform="translate(-569.047 -441.73)"/><rect class="m" width="18.979" height="4.991" transform="translate(394.981 339.976)"/><rect class="m" width="24.797" height="17.415" transform="translate(391.962 323.756)"/><rect class="g" width="18.979" height="4.991" transform="translate(394.981 339.976)"/><rect class="g" width="24.797" height="17.415" transform="translate(391.962 323.756)"/><rect class="m" width="18.979" height="4.991" transform="translate(396.229 339.976)"/><path class="g" d="M970.389,764.32c.433,1.49.646,2.513.646,2.513l-2.963,1.3s-.65-.312-1.581-.892A7.625,7.625,0,0,1,970.389,764.32Z" transform="translate(-562.953 -455.038)"/><path class="g" d="M983.2,771.738c-.165.035-.333.065-.5.087-9.929,1.512-3.275-3.847-3.275-3.847s.433-.412,1.057-1.087A6.606,6.606,0,0,1,983.2,771.738Z" transform="translate(-569.047 -456.494)"/><path class="c" d="M953.7,780.43s5.563-19.928,13.36-13.781-3.171,15.6-3.171,15.6Z" transform="translate(-555.704 -455.691)"/><circle class="g" cx="0.624" cy="0.624" r="0.624" transform="translate(400.18 302.286)"/><circle class="g" cx="0.624" cy="0.624" r="0.624" transform="translate(400.128 305.197)"/><circle class="g" cx="0.624" cy="0.624" r="0.624" transform="translate(418.219 302.858)"/><circle class="g" cx="0.624" cy="0.624" r="0.624" transform="translate(403.663 317.778)"/><circle class="g" cx="0.624" cy="0.624" r="0.624" transform="translate(416.919 307.692)"/><circle class="g" cx="0.624" cy="0.624" r="0.624" transform="translate(410.473 314.139)"/><circle class="g" cx="0.624" cy="0.624" r="0.624" transform="translate(402.311 303.533)"/><circle class="g" cx="0.624" cy="0.624" r="0.624" transform="translate(416.503 304.729)"/><circle class="g" cx="0.624" cy="0.624" r="0.624" transform="translate(414.372 309.564)"/><circle class="g" cx="0.624" cy="0.624" r="0.624" transform="translate(407.822 317.31)"/><circle class="g" cx="0.624" cy="0.624" r="0.624" transform="translate(406.47 314.243)"/><circle class="g" cx="0.624" cy="0.624" r="0.624" transform="translate(403.247 307.328)"/><rect class="g" width="18.979" height="1.824" transform="translate(396.229 339.976)"/><rect class="m" width="24.797" height="17.415" transform="translate(393.214 323.756)"/><circle class="g" cx="0.624" cy="0.624" r="0.624" transform="translate(408.654 320.117)"/><circle class="g" cx="0.624" cy="0.624" r="0.624" transform="translate(404.911 320.897)"/><path class="n" d="M754.21,822.311l.29-.221A1.555,1.555,0,0,1,754.21,822.311Z" transform="translate(-442.636 -487.781)"/><path class="n" d="M805.26,817.794l.312-.234A1.833,1.833,0,0,1,805.26,817.794Z" transform="translate(-471.57 -485.213)"/><path class="g" d="M861.622,615.989a6.592,6.592,0,0,1-3.925.654l-.247-3.383,4.18.533A12.776,12.776,0,0,0,861.622,615.989Z" transform="translate(-501.151 -369.42)"/><path class="g" d="M718.182,569.612s-.221.866-.594,2.036c-.472-.191-.866-.342-1.157-.433-1.3-.433.229-.988-.152-2.127-.325-.979-.927-.671-1.62-.944a18.909,18.909,0,0,1,1.469-1.763Z" transform="translate(-420.22 -342.849)"/><path class="g" d="M724.79,566.761s4.41-.91,5.55,0S724.79,566.761,724.79,566.761Z" transform="translate(-425.961 -342.836)"/><path class="g" d="M723.74,572.117s.3-.763,1.824,0S723.74,572.117,723.74,572.117Z" transform="translate(-425.366 -345.908)"/><path class="g" d="M838.58,589.32s.459,6.932,2.326,7.157S838.58,589.32,838.58,589.32Z" transform="translate(-490.456 -355.851)"/><path class="g" d="M755.72,709.6a16.034,16.034,0,0,1,2.968,0C760.338,709.734,755.72,709.6,755.72,709.6Z" transform="translate(-443.492 -423.984)"/><path class="g" d="M755.72,713.05a16.023,16.023,0,0,1,2.968,0C760.338,713.2,755.72,713.05,755.72,713.05Z" transform="translate(-443.492 -425.94)"/><path class="g" d="M807.77,705.55a16.024,16.024,0,0,1,2.968,0C812.388,705.706,807.77,705.55,807.77,705.55Z" transform="translate(-472.993 -421.689)"/><path class="g" d="M808.94,708.31a16,16,0,0,1,2.968,0C813.554,708.462,808.94,708.31,808.94,708.31Z" transform="translate(-473.656 -423.253)"/></svg>